<?xml version="1.0" encoding="utf-8"?>
<!-- Generator: Adobe Illustrator 22.0.0, SVG Export Plug-In . SVG Version: 6.00 Build 0)  -->
<svg version="1.1" id="Layer_1" xmlns="http://www.w3.org/2000/svg" xmlns:xlink="http://www.w3.org/1999/xlink" x="0px" y="0px"
	 width="279.05px" height="44.78px" viewBox="0 0 279.05 44.78" enable-background="new 0 0 279.05 44.78" xml:space="preserve">
<g>
	<g id="Logo">
		<g>
			<g>
				<g id="Page-1_1_">
					<g id="Wordmark-Horizontal_1_">
						<g id="Logo-wordmark-HORIZ_1_" transform="translate(1.000000, 1.000000)">
							<g id="Wordmark_1_" transform="translate(206.000000, 68.000000)">
								<g id="Fill-10_1_">
									<g>
										<g>
											<path fill="#FFFFFF" d="M-30.2-45.51c0-3.83,1.25-6.91,3.76-9.25c2.52-2.33,5.86-3.5,10.01-3.5
												c1.7,0,3.28,0.23,4.74,0.69c1.48,0.45,2.77,1.1,3.89,1.96c1.62,1.25,2.87,2.74,3.73,4.5c0.86,1.75,1.29,3.66,1.29,5.71
												c0,3.87-1.3,7.04-3.91,9.52c-2.59,2.47-5.94,3.7-10.05,3.7c-4.06,0-7.32-1.22-9.78-3.66
												C-28.97-38.29-30.2-41.51-30.2-45.51L-30.2-45.51z M-16.46-55.46c-1.94,0-3.48,0.94-4.63,2.83
												c-1.14,1.89-1.71,4.44-1.71,7.67c0,3.03,0.59,5.49,1.78,7.36c1.2,1.87,2.73,2.81,4.6,2.81s3.37-0.95,4.51-2.86
												c1.14-1.91,1.71-4.48,1.71-7.71c0-3.07-0.58-5.52-1.73-7.34C-13.07-54.54-14.58-55.46-16.46-55.46L-16.46-55.46z
												 M0.02-45.51c0-3.83,1.25-6.91,3.76-9.25c2.52-2.33,5.86-3.5,10.01-3.5c1.7,0,3.28,0.23,4.74,0.69
												c1.48,0.45,2.77,1.1,3.89,1.96c1.62,1.25,2.87,2.74,3.73,4.5c0.86,1.75,1.29,3.66,1.29,5.71c0,3.87-1.3,7.04-3.91,9.52
												c-2.59,2.47-5.94,3.7-10.05,3.7c-4.06,0-7.32-1.22-9.78-3.66C1.25-38.29,0.02-41.51,0.02-45.51L0.02-45.51z M13.76-55.46
												c-1.94,0-3.48,0.94-4.63,2.83c-1.14,1.89-1.71,4.44-1.71,7.67c0,3.03,0.59,5.49,1.78,7.36c1.2,1.87,2.73,2.81,4.6,2.81
												s3.37-0.95,4.51-2.86c1.14-1.91,1.71-4.48,1.71-7.71c0-3.07-0.58-5.52-1.73-7.34C17.14-54.54,15.64-55.46,13.76-55.46
												L13.76-55.46z M29.64-32.82v-2.08l2.27-0.22l0.71-0.71v-19.05l-0.49-0.54l-2.49-0.27v-2.03h10.51v1l10.67,16.52v-14.5
												l-0.65-0.71l-2.44-0.27v-2.03h9.43v2.03l-2.2,0.27l-0.71,0.71v21.9h-5.92L36-51.74v15.92l0.53,0.71l2.49,0.22v2.08
												L29.64-32.82L29.64-32.82z M58.76-32.82v-2.16l2.69-0.15l0.58-0.71v-19.05l-0.58-0.54l-2.69-0.14v-2.16h13.29v2.16
												l-2.75,0.14l-0.6,0.54v19.05l0.6,0.71l2.74,0.15v2.16H58.76z"/>
										</g>
									</g>
								</g>
							</g>
						</g>
					</g>
				</g>
			</g>
			<g>
				<path fill="#FFFFFF" d="M142.6,0c-12.36,0-22.39,10.02-22.39,22.39s10.02,22.39,22.39,22.39c12.36,0,22.39-10.02,22.39-22.39
					S154.96,0,142.6,0z M157.79,23.84c-0.62,1.39-1.38,2.55-3.21,3.27c-1.33,0.52-1.81,0.56-2.09,0.65
					c-0.29,0.09-0.54,0.24-0.73,0.24c-0.45,0.02-2.34-0.33-2.76-0.48c-0.43-0.15-0.25-0.34-0.49-0.38c-0.24-0.04-0.55,0.03-0.8-0.09
					c-0.28-0.14-0.65-0.36-0.94-0.72c-0.22-0.28-0.99-1.15-1.52-1.43c-0.12,0.57,0.12,1.19,0.33,1.56c0.29,0.48,0.57,0.89,1.31,1.42
					c1.3,0.93,3.02,2.34,3.93,3.42c0.74,0.88,1.48,2.08,1.09,3.84c-0.32,1.43-1.93,2.45-2.86,2.82c-0.75,0.3-2.91,0.4-3.26,0.41
					c-0.35,0.01-0.65-0.35-0.87-0.42c-0.23-0.07-1.05,0.21-1.45,0.05c-0.33-0.13-0.74-0.58-1.1-0.93c-0.19-0.18-0.39-0.3-0.49-0.41
					c-0.09-0.09-0.14-0.3-0.21-0.45c-0.16-0.37-0.29-0.79-0.36-1.15c-0.06-0.33-0.11-0.66-0.1-0.93c0-0.18,0.1-0.37,0.12-0.61
					c0.02-0.24-0.05-0.63,0.01-0.82c0.16-0.48,0.4-0.79,0.81-1.18c0.51-0.47,1.06-0.53,1.62-0.51c0.53,0.02,0.92-0.08,1.13-0.08
					c0.38,0,0.65,0.19,0.8,0.3c0.28,0.22,0.35,0.47,0.31,0.68c-0.04,0.21-0.28,0.34-0.54,0.31c-0.32-0.04-0.84-0.23-1.36,0.17
					c-0.49,0.37-0.26,1.75,0.31,2.49c0.57,0.74,1.51,1.14,2.49,1.16c0.91,0.02,1.58-0.48,1.87-0.87c0.34-0.45,0.62-1.62,0.01-2.48
					c-0.57-0.8-1.91-1.8-2.49-2.16c-0.58-0.36-1.82-1-2.73-2.06c-0.36-0.41-0.84-1.08-1.34-1.84c-0.36,0.3-0.7,0.91-0.88,1.13
					c-0.21,0.26-0.43,0.47-0.65,0.65c-0.38,0.32-0.89,0.56-1.26,0.76c-0.37,0.2-0.72,0.5-1.21,0.73c-0.5,0.24-0.75,0.22-1.49,0.48
					c-0.82,0.3-1.42,0.88-1.5,1.72c-0.09,0.99,0.98,1.67,1.31,1.8c0.21,0.08,1.39,0.05,1.66-0.01c0.12-0.03,0.26-0.04,0.38-0.03
					c0.33,0.02,0.6,0.88,0.83,1c0.14,0.08,0.25,0.01,0.45,0.09c0.15,0.06,0.32,0.28,0.35,0.31c0.2,0.19,0.08,0.37,0.31,0.72
					c0.29,0.42,0.21,1.16,0.19,1.48c-0.01,0.32-0.22,0.92-0.27,1.1c-0.05,0.18-0.06,0.51-0.11,0.71c-0.05,0.2-0.48,0.53-0.62,0.63
					c-0.14,0.1-0.29,0.09-0.39,0.11c-0.1,0.02-0.38,0.58-1.02,0.81c-0.74,0.26-1.02,0.31-1.81,0.32c-0.73,0-1.68-0.8-1.6-0.86
					c0.04-0.03,1.05-0.12,1.78-0.44c0.43-0.19,1.05-0.7,1.14-1.67c0.08-0.96-0.83-1.41-1.36-1.68c-0.76-0.39-1.45-0.79-2.24-1.25
					c-0.96-0.55-1.53-1.3-1.84-2.01c-0.34-0.77-0.41-1.42-0.09-2.54c0.31-1.12,1.2-1.81,2.2-2.51c1.09-0.76,2.67-1.62,3.76-2.2
					c0.76-0.41,1.24-0.84,1.35-1.6c0.02-0.11,0.01-0.54-0.02-0.67c-0.09,0.09-0.6,0.63-0.79,0.82c-0.75,0.77-1.99,1.68-3.73,1.96
					c-0.45,0.07-0.35,0.28-0.83,0.34c-0.19,0.02-0.76,0-1.03-0.01c-0.78-0.02-1.28-0.26-2-0.51c-0.72-0.25-1.69-0.57-2.89-1.67
					c-1.17-1.07-1.53-2.05-1.73-3.5c-0.21-1.45,0.2-2.48,0.69-3.35c0.68-1.2,1.65-1.94,2.19-2.53s1.05-1.26,1.44-1.29
					c0.4-0.03,0.65,0.44,0.94,0.47c0.21,0.02,0.41-0.14,0.68-0.19c0.19-0.04,0.39,0,0.5,0.03c0.24,0.06,0.31,0.52,0.48,0.74
					c0.21,0.26,0.71,0.07,0.9,0.22c0.08,0.06,0.22,0.17,0.28,0.29c0.08,0.17,0.1,0.39,0.12,0.55c0.04,0.28,0.68,0.8,0.77,1.05
					c0.09,0.25-0.36,2.2-0.78,2.73c-0.47,0.6-1.29,1.04-1.4,1.08c-0.1,0.04-0.2-0.03-0.2-0.15c0-0.12,0.41-1.05,0.4-1.65
					c-0.01-1.01-0.66-1.56-1.1-1.8c-0.82-0.44-1.57-0.34-2.58,0.84c-0.83,0.97-1.29,2.48-0.4,3.73c0.46,0.65,1.08,1.78,3.36,1.76
					c2.64-0.02,4.25-0.77,4.95-2.17c0.64-1.29,0.29-2.71-1.28-4.25c-1.57-1.54-2.44-3.59-2.44-5.73c0-4.46,3.67-8.08,8.2-8.08
					c4.53,0,8.32,3.62,8.32,8.08c0,2.1-0.96,4.12-2.23,5.44c-1.28,1.32-1.53,3-0.98,4.43c1.19,3.12,4.16,3.39,5.34,3.06
					c1.18-0.33,1.87-1.18,2.13-1.81c0.25-0.64,0.35-1.69,0.07-2.1c-0.28-0.41-0.46-0.58-0.52-0.78c-0.07-0.21,0.04-0.53-0.06-0.69
					c-0.18-0.3-0.85-0.73-1.1-1.01c-0.25-0.28-0.57-0.62-0.82-1.17c-0.22-0.49-0.29-0.65-0.47-0.92c-0.18-0.27-1.21-1.21-1.19-1.79
					c0.01-0.42,0.25-0.23,0.37-0.64c0.11-0.39-0.02-1.2,0.05-1.45c0.09-0.34,0.53-0.33,0.67-0.64c0.15-0.31,0.01-0.78,0.13-1.01
					c0.22-0.42,1.04-1.1,1.15-1.34c0.11-0.24,0.05-0.27,0.13-0.38c0.05-0.07,0.26-0.32,0.38-0.35c0.11-0.02,0.92,0.03,1.1-0.04
					c0.17-0.06,0.39-0.32,0.8-0.33c0.03,0,0.06,0,0.08,0c0.47,0.02,0.66,0.09,0.84,0.17c0.15,0.07,0.73,0.41,0.54,0.74
					c-0.25,0.42-1.99,1.12-2.39,3.4c-0.41,2.28,0.5,3.41,1.23,4.52c0.73,1.11,1.43,2.18,1.79,2.99
					C157.99,20.67,158.41,22.45,157.79,23.84z"/>
			</g>
			<g>
				<path fill="#FFFFFF" d="M141.03,8.22c-2.22,0-4.02,1.8-4.02,4.02c0,2.22,1.8,4.02,4.02,4.02c2.22,0,4.02-1.8,4.02-4.02
					S143.25,8.22,141.03,8.22z M140.51,13.73c-0.51,0-0.92-0.41-0.92-0.92s0.41-0.92,0.92-0.92s0.92,0.41,0.92,0.92
					S141.02,13.73,140.51,13.73z"/>
			</g>
		</g>
	</g>
	<g>
		<path fill="#FFFFFF" d="M7.99,20.23c0.64,0.98,0.96,2.37,0.96,4.16c0,1.69-0.37,3.06-1.11,4.1c-0.74,1.04-1.78,1.56-3.13,1.56
			c-1.2,0-2.14-0.41-2.83-1.23v5.12L0,34.15V19h1.62l0.14,1.45c0.4-0.55,0.87-0.97,1.43-1.26c0.56-0.29,1.15-0.44,1.76-0.44
			C6.33,18.75,7.34,19.25,7.99,20.23z M6.92,24.38c0-2.76-0.81-4.14-2.44-4.14c-0.53,0-1.02,0.16-1.45,0.47
			c-0.44,0.31-0.82,0.72-1.15,1.21v5.26c0.27,0.42,0.61,0.75,1.02,0.97c0.41,0.23,0.86,0.34,1.35,0.34
			C6.03,28.5,6.92,27.13,6.92,24.38z"/>
		<path fill="#FFFFFF" d="M19.75,20.27c0.84,1.01,1.26,2.38,1.26,4.12c0,1.12-0.19,2.11-0.57,2.96c-0.38,0.85-0.94,1.52-1.66,1.99
			c-0.72,0.47-1.58,0.71-2.58,0.71c-1.52,0-2.7-0.5-3.54-1.52c-0.85-1.01-1.27-2.38-1.27-4.12c0-1.12,0.19-2.11,0.57-2.96
			c0.38-0.85,0.93-1.52,1.66-1.99c0.72-0.47,1.59-0.71,2.6-0.71C17.73,18.75,18.91,19.26,19.75,20.27z M13.41,24.41
			c0,2.74,0.93,4.12,2.78,4.12c1.86,0,2.78-1.38,2.78-4.14c0-2.74-0.92-4.12-2.76-4.12C14.35,20.27,13.41,21.65,13.41,24.41z"/>
		<path fill="#FFFFFF" d="M36.45,19l-2.46,10.79h-2.56l-1.88-9.09l-1.95,9.09h-2.5L22.58,19h1.88l1.95,9.48L28.54,19h2.11l2.03,9.48
			L34.64,19H36.45z"/>
		<path fill="#FFFFFF" d="M46.91,25.04h-6.88c0.08,1.19,0.38,2.06,0.9,2.62c0.52,0.56,1.19,0.84,2.01,0.84c0.52,0,1-0.07,1.43-0.23
			c0.44-0.15,0.89-0.39,1.37-0.72l0.82,1.13c-1.15,0.9-2.4,1.35-3.77,1.35c-1.5,0-2.67-0.49-3.51-1.47
			c-0.84-0.98-1.26-2.33-1.26-4.05c0-1.12,0.18-2.11,0.54-2.98c0.36-0.87,0.88-1.55,1.56-2.04s1.47-0.74,2.39-0.74
			c1.43,0,2.53,0.47,3.3,1.41c0.76,0.94,1.15,2.25,1.15,3.91C46.95,24.39,46.94,24.71,46.91,25.04z M45.09,23.52
			c0-1.06-0.21-1.88-0.63-2.44c-0.42-0.56-1.06-0.84-1.9-0.84c-1.54,0-2.38,1.13-2.52,3.4h5.06V23.52z"/>
		<path fill="#FFFFFF" d="M55.71,18.88l-0.35,1.84c-0.33-0.08-0.64-0.12-0.94-0.12c-0.67,0-1.21,0.25-1.62,0.74
			c-0.41,0.49-0.73,1.26-0.96,2.29v6.16h-1.88V19h1.62l0.18,2.19c0.29-0.81,0.68-1.41,1.17-1.82c0.49-0.41,1.06-0.61,1.72-0.61
			C55.03,18.75,55.38,18.8,55.71,18.88z"/>
		<path fill="#FFFFFF" d="M65.36,25.04h-6.88c0.08,1.19,0.38,2.06,0.9,2.62c0.52,0.56,1.19,0.84,2.01,0.84c0.52,0,1-0.07,1.43-0.23
			c0.44-0.15,0.89-0.39,1.37-0.72l0.82,1.13c-1.15,0.9-2.4,1.35-3.77,1.35c-1.5,0-2.67-0.49-3.51-1.47
			c-0.84-0.98-1.26-2.33-1.26-4.05c0-1.12,0.18-2.11,0.54-2.98c0.36-0.87,0.88-1.55,1.56-2.04c0.68-0.49,1.47-0.74,2.39-0.74
			c1.43,0,2.53,0.47,3.3,1.41c0.76,0.94,1.15,2.25,1.15,3.91C65.4,24.39,65.38,24.71,65.36,25.04z M63.53,23.52
			c0-1.06-0.21-1.88-0.63-2.44c-0.42-0.56-1.06-0.84-1.9-0.84c-1.54,0-2.38,1.13-2.52,3.4h5.06V23.52z"/>
		<path fill="#FFFFFF" d="M76.76,14.66v15.13H75.1l-0.18-1.49c-0.36,0.55-0.8,0.97-1.33,1.28c-0.53,0.31-1.13,0.46-1.78,0.46
			c-1.28,0-2.28-0.5-3-1.52c-0.72-1.01-1.07-2.37-1.07-4.07c0-1.11,0.17-2.09,0.51-2.95c0.34-0.86,0.83-1.53,1.47-2.02
			c0.64-0.48,1.39-0.73,2.25-0.73c1.11,0,2.07,0.44,2.91,1.33v-5.65L76.76,14.66z M73.69,28.14c0.41-0.27,0.81-0.67,1.19-1.2v-5.28
			c-0.36-0.46-0.73-0.82-1.14-1.05c-0.4-0.24-0.86-0.36-1.36-0.36c-0.83,0-1.48,0.35-1.93,1.04c-0.46,0.7-0.69,1.73-0.69,3.11
			c0,1.39,0.21,2.43,0.63,3.11c0.42,0.68,1.03,1.02,1.82,1.02C72.79,28.54,73.28,28.41,73.69,28.14z"/>
		<path fill="#FFFFFF" d="M93.94,20.24c0.72,0.99,1.09,2.37,1.09,4.15c0,1.12-0.17,2.11-0.51,2.96c-0.34,0.85-0.83,1.52-1.47,1.99
			c-0.64,0.47-1.39,0.71-2.25,0.71c-1.13,0-2.09-0.48-2.87-1.43l-0.18,1.19h-1.66V14.66l1.88-0.23v5.92c0.78-1.06,1.79-1.6,3.05-1.6
			C92.24,18.75,93.22,19.25,93.94,20.24z M92.29,27.53C92.76,26.85,93,25.8,93,24.38c0-1.46-0.22-2.51-0.66-3.16
			c-0.44-0.65-1.06-0.97-1.86-0.97c-0.96,0-1.8,0.56-2.52,1.68v5.16c0.29,0.45,0.64,0.81,1.05,1.06c0.42,0.26,0.86,0.39,1.32,0.39
			C91.17,28.54,91.82,28.2,92.29,27.53z"/>
		<path fill="#FFFFFF" d="M102.48,29.85c-0.42,1.26-1.01,2.25-1.77,2.98c-0.76,0.73-1.84,1.17-3.25,1.32l-0.2-1.47
			c0.71-0.12,1.28-0.3,1.7-0.53c0.42-0.23,0.76-0.53,1.01-0.89c0.25-0.36,0.49-0.85,0.71-1.46h-0.63L96.42,19h2.01l2.89,9.42
			l2.83-9.42h1.95L102.48,29.85z"/>
	</g>
</g>
</svg>
