<svg id="Layer_1" data-name="Layer 1" xmlns="http://www.w3.org/2000/svg" width="801" height="636" viewBox="0 0 801 636">
  <title>sub-brands</title>
  <g>
    <g>
      <path d="M126.9,47a63.6,63.6,0,1,1-63.6,63.6A63.632,63.632,0,0,1,126.9,47" style="fill: #8dd5f6"/>
      <path d="M109.6,96.1c4.5,4.4,5.5,8.4,3.6,12.1-2,4-6.5,6.1-14.1,6.2-6.5.1-8.2-3.2-9.5-5-2.5-3.5-1.2-7.8,1.1-10.6,2.9-3.4,5-3.6,7.3-2.4a5.766,5.766,0,0,1,3.1,5.1c0,1.7-1.1,4.3-1.1,4.7a.441.441,0,0,0,.6.4,13.491,13.491,0,0,0,4-3.1c1.2-1.5,2.5-7,2.2-7.8-.3-.7-2.1-2.2-2.2-3a4.707,4.707,0,0,0-.4-1.6,6.034,6.034,0,0,0-.8-.8c-.5-.4-2,.1-2.5-.6-.5-.6-.7-1.9-1.4-2.1a3.083,3.083,0,0,0-1.4-.1c-.8.2-1.3.6-1.9.5-.8-.1-1.5-1.4-2.7-1.3-1.1.1-2.5,2-4.1,3.7-1.5,1.7-4.3,3.8-6.2,7.2a14.652,14.652,0,0,0-2,9.5c.6,4.1,1.6,6.9,4.9,9.9a20.978,20.978,0,0,0,8.2,4.7c2,.7,3.5,1.4,5.7,1.4a27.884,27.884,0,0,0,2.9,0c1.4-.1,1.1-.7,2.4-1a19.063,19.063,0,0,0,10.6-5.6c.5-.6,2-2.1,2.2-2.3a6.045,6.045,0,0,1,0,1.9c-.3,2.2-1.7,3.4-3.8,4.5-3.1,1.7-7.6,4.1-10.7,6.2-2.9,2-5.4,3.9-6.3,7.1s-.7,5,.3,7.2a12.613,12.613,0,0,0,5.2,5.7c2.2,1.3,4.2,2.4,6.4,3.5,1.5.8,4.1,2.1,3.9,4.8a5.344,5.344,0,0,1-3.2,4.7,25.657,25.657,0,0,1-5,1.2c-.2.2,2.5,2.4,4.5,2.4a12.188,12.188,0,0,0,5.1-.9c1.8-.6,2.6-2.2,2.9-2.3s.7,0,1.1-.3,1.6-1.2,1.8-1.8c.1-.6.2-1.5.3-2s.7-2.2.8-3.1c0-.9.3-3-.6-4.2-.7-1-.3-1.5-.9-2.1a4.675,4.675,0,0,0-1-.9c-.6-.2-.9,0-1.3-.3-.6-.4-1.4-2.8-2.3-2.8a4.484,4.484,0,0,0-1.1.1,14.806,14.806,0,0,1-4.7,0c-.9-.4-4-2.3-3.7-5.1.2-2.4,1.9-4,4.3-4.9,2.1-.8,2.8-.7,4.2-1.4s2.4-1.5,3.4-2.1a22.376,22.376,0,0,0,3.6-2.1,11.063,11.063,0,0,0,1.8-1.9,20.193,20.193,0,0,1,2.5-3.2,51.061,51.061,0,0,0,3.8,5.2c2.6,3,6.1,4.8,7.8,5.8a32.134,32.134,0,0,1,7.1,6.1,6.014,6.014,0,0,1-5.3,9.5,9.4,9.4,0,0,1-7.1-3.3c-1.6-2.1-2.3-6-.9-7.1,1.5-1.1,2.9-.6,3.9-.5a1.289,1.289,0,0,0,1.5-.9,1.935,1.935,0,0,0-.9-1.9,3.807,3.807,0,0,0-2.3-.9,21.049,21.049,0,0,1-3.2.2,5.771,5.771,0,0,0-4.6,1.4,7.123,7.123,0,0,0-2.3,3.3,8.817,8.817,0,0,0,0,2.3c-.1.7-.3,1.2-.4,1.7a12.216,12.216,0,0,0,.3,2.6,24.407,24.407,0,0,0,1,3.3,5.171,5.171,0,0,0,.6,1.3,11.4,11.4,0,0,1,1.4,1.2c1,1,2.2,2.3,3.1,2.6,1.2.5,3.5-.3,4.1-.1s1.5,1.2,2.5,1.2,7.1-.3,9.3-1.2c2.6-1.1,7.2-4,8.1-8,1.1-5-1-8.4-3.1-10.9a66.8,66.8,0,0,0-11.2-9.7,12.008,12.008,0,0,1-3.7-4,6.3,6.3,0,0,1-.9-4.4,18.936,18.936,0,0,1,4.3,4.1,7.848,7.848,0,0,0,2.7,2c.7.4,1.6.1,2.3.3.7.1.2.7,1.4,1.1a53.241,53.241,0,0,0,7.8,1.4,10.1,10.1,0,0,0,2.1-.7,36.07,36.07,0,0,0,5.9-1.8c5.2-2,7.4-5.3,9.1-9.3,1.8-4,.6-9-.5-11.3a82.325,82.325,0,0,0-5.1-8.5c-2.1-3.2-4.7-6.4-3.5-12.8,1.2-6.5,6.1-8.5,6.8-9.6.6-1-1.1-1.9-1.5-2.1a7.31,7.31,0,0,0-2.4-.5h-.2c-1.2,0-1.8.8-2.3.9-.5.2-2.8,0-3.1.1a3.566,3.566,0,0,0-1.1,1c-.2.3-.1.4-.4,1.1s-2.6,2.6-3.3,3.8c-.3.6,0,2-.4,2.9s-1.7.8-1.9,1.8c-.2.7.2,3-.1,4.1-.3,1.2-1,.6-1,1.8-.1,1.7,2.9,4.3,3.4,5.1a15.426,15.426,0,0,1,1.3,2.6,11.7,11.7,0,0,0,2.3,3.3c.7.8,2.6,2,3.1,2.9.3.5,0,1.4.2,2a10.59,10.59,0,0,0,1.5,2.2c.8,1.1.5,4.1-.2,6a9.028,9.028,0,0,1-6,5.1,13.22,13.22,0,0,1-15.2-8.7c-1.6-4.1-.8-8.8,2.8-12.6a22.974,22.974,0,0,0,6.3-15.5c0-12.7-10.8-22.9-23.6-22.9a23.177,23.177,0,0,0-23.3,22.9A24.984,24.984,0,0,0,109.6,96.1Z" style="fill: #1386c8"/>
      <path d="M122.5,70.3a11.4,11.4,0,1,1-11.4,11.4,11.395,11.395,0,0,1,11.4-11.4" style="fill: #fff"/>
      <path d="M121,80.8a2.6,2.6,0,1,1-2.6,2.6,2.582,2.582,0,0,1,2.6-2.6" style="fill: #1386c8"/>
      <path d="M168.9,216.6v-2.4l3-.2.6-.8V192l-.6-.6-3-.2v-2.4h14.7v2.4l-3,.2-.7.6v21.2l.7.8,3,.2v2.4Zm-32.3,0v-2.3l2.5-.2.8-.8V192.1l-.5-.6-2.8-.3v-2.3h11.7V190l11.8,18.4V192.3l-.7-.8-2.7-.3v-2.3h10.5v2.3l-2.4.3-.8.8v24.4h-6.6l-13.7-21v17.7l.6.8,2.8.2v2.3H136.6ZM119,191.4a5.561,5.561,0,0,0-5.1,3.1c-1.3,2.1-1.9,4.9-1.9,8.5a15.305,15.305,0,0,0,2,8.2,5.775,5.775,0,0,0,5.1,3.1c2.1,0,3.7-1.1,5-3.2s1.9-5,1.9-8.6a15.323,15.323,0,0,0-1.9-8.2c-1.4-1.8-3-2.9-5.1-2.9m-15.3,11.1a13.343,13.343,0,0,1,4.2-10.3q4.2-3.9,11.1-3.9a18.36,18.36,0,0,1,5.3.8,12.51,12.51,0,0,1,4.3,2.2,13.942,13.942,0,0,1,4.1,5,13.527,13.527,0,0,1,1.4,6.3,14.021,14.021,0,0,1-4.3,10.6,15.68,15.68,0,0,1-11.1,4.1,14.628,14.628,0,0,1-10.8-4.1,14.083,14.083,0,0,1-4.2-10.7M85.4,191.4a5.561,5.561,0,0,0-5.1,3.1c-1.3,2.1-1.9,4.9-1.9,8.5a15.305,15.305,0,0,0,2,8.2,5.775,5.775,0,0,0,5.1,3.1c2.1,0,3.7-1.1,5-3.2s1.9-5,1.9-8.6a15.323,15.323,0,0,0-1.9-8.2,6.218,6.218,0,0,0-5.1-2.9M70.2,202.5a13.343,13.343,0,0,1,4.2-10.3q4.2-3.9,11.1-3.9a18.36,18.36,0,0,1,5.3.8,12.51,12.51,0,0,1,4.3,2.2,13.942,13.942,0,0,1,4.1,5,13.527,13.527,0,0,1,1.4,6.3,14.021,14.021,0,0,1-4.3,10.6,15.68,15.68,0,0,1-11.1,4.1,14.628,14.628,0,0,1-10.8-4.1,14.083,14.083,0,0,1-4.2-10.7"/>
    </g>
    <g>
      <path d="M84.7,238.2l-.4,2.7H74.9v7.9h8.2v2.7H74.9v8.3h10v2.7H71.6V238.3H84.7Z"/>
      <path d="M95.6,252.5l6.4,9.9H98.1l-4.5-7.8L89,262.4H85.3l6.5-9.8-5.7-8.7h3.8l3.9,6.8,3.9-6.8h3.7Z"/>
      <path d="M117.5,246a13.069,13.069,0,0,1,1.7,7.1,11.6,11.6,0,0,1-1.9,7,6.291,6.291,0,0,1-5.4,2.7,5.738,5.738,0,0,1-4.8-2.1v8.8l-3.2.4v-26h2.8l.2,2.5a7.509,7.509,0,0,1,2.5-2.2,6.736,6.736,0,0,1,3-.8A5.8,5.8,0,0,1,117.5,246Zm-1.9,7.1c0-4.7-1.4-7.1-4.2-7.1a4.627,4.627,0,0,0-2.5.8,8.089,8.089,0,0,0-2,2.1v9a5.814,5.814,0,0,0,1.8,1.7,4.645,4.645,0,0,0,2.3.6C114.1,260.2,115.6,257.8,115.6,253.1Z"/>
      <path d="M123.7,261.7a4.04,4.04,0,0,1-1-3V236.4l3.2-.4v22.6a1.609,1.609,0,0,0,.3,1.1,1.268,1.268,0,0,0,.9.4,5.019,5.019,0,0,0,1.2-.2l.8,2.2a5.536,5.536,0,0,1-2.6.6A3.483,3.483,0,0,1,123.7,261.7Z"/>
      <path d="M144.2,246a10.947,10.947,0,0,1,2.2,7.1,11.914,11.914,0,0,1-1,5.1,7.927,7.927,0,0,1-2.8,3.4,7.83,7.83,0,0,1-4.4,1.2,7.71,7.71,0,0,1-6.1-2.6c-1.5-1.7-2.2-4.1-2.2-7.1a11.914,11.914,0,0,1,1-5.1,7.412,7.412,0,0,1,7.3-4.6A7.364,7.364,0,0,1,144.2,246Zm-10.8,7.1c0,4.7,1.6,7.1,4.8,7.1s4.8-2.4,4.8-7.1-1.6-7.1-4.7-7.1C135,246,133.4,248.4,133.4,253.1Z"/>
      <path d="M159.9,243.7l-.6,3.2a9.971,9.971,0,0,0-1.6-.2,3.41,3.41,0,0,0-2.8,1.3,9.483,9.483,0,0,0-1.7,3.9v10.6H150V244h2.8l.3,3.8a7.249,7.249,0,0,1,2-3.1,4.426,4.426,0,0,1,3-1.1A2.787,2.787,0,0,1,159.9,243.7Z"/>
      <path d="M174.7,254.2H162.9a7.738,7.738,0,0,0,1.5,4.5,4.25,4.25,0,0,0,3.4,1.4,6.9,6.9,0,0,0,2.5-.4,26.7,26.7,0,0,0,2.4-1.2l1.4,1.9a10.528,10.528,0,0,1-6.5,2.3,7.3,7.3,0,0,1-6-2.5,10.656,10.656,0,0,1-2.2-7,13.638,13.638,0,0,1,.9-5.1,7.378,7.378,0,0,1,2.7-3.5,7.142,7.142,0,0,1,4.1-1.3,7.048,7.048,0,0,1,5.7,2.4,10.487,10.487,0,0,1,2,6.7A12.134,12.134,0,0,0,174.7,254.2Zm-3.2-2.6a7.234,7.234,0,0,0-1.1-4.2,3.689,3.689,0,0,0-3.3-1.4c-2.6,0-4.1,1.9-4.3,5.8h8.7v-.2Z"/>
      <path d="M188,243.7l-.6,3.2a9.971,9.971,0,0,0-1.6-.2A3.41,3.41,0,0,0,183,248a9.483,9.483,0,0,0-1.7,3.9v10.6h-3.2V244h2.8l.3,3.8a7.249,7.249,0,0,1,2-3.1,4.426,4.426,0,0,1,3-1.1A2.787,2.787,0,0,1,188,243.7Z"/>
    </g>
    <rect x="69.4" y="225.4" width="113.4" height="3.9"/>
  </g>
  <g>
    <g>
      <path d="M126.9,366.1a63.6,63.6,0,1,1-63.6,63.6,63.632,63.632,0,0,1,63.6-63.6" style="fill: #8dd5f6"/>
      <path d="M109.7,415.2c4.5,4.4,5.5,8.4,3.6,12.1-2,4-6.5,6.1-14.1,6.2-6.5.1-8.2-3.2-9.5-5-2.5-3.5-1.2-7.8,1.1-10.6,2.9-3.4,5-3.6,7.3-2.4a5.766,5.766,0,0,1,3.1,5.1c0,1.7-1.1,4.3-1.1,4.7s.3.5.6.4a13.491,13.491,0,0,0,4-3.1c1.2-1.5,2.5-7,2.2-7.8-.3-.7-2.1-2.2-2.2-3a4.707,4.707,0,0,0-.4-1.6,6.034,6.034,0,0,0-.8-.8c-.5-.4-2,.1-2.5-.6-.5-.6-.7-1.9-1.4-2.1a3.083,3.083,0,0,0-1.4-.1c-.8.2-1.3.6-1.9.5-.8-.1-1.5-1.4-2.7-1.3-1.1.1-2.5,2-4.1,3.7-1.5,1.7-4.3,3.8-6.2,7.2a14.652,14.652,0,0,0-2,9.5c.6,4.1,1.6,6.9,4.9,9.9a20.978,20.978,0,0,0,8.2,4.7c2,.7,3.5,1.4,5.7,1.4a27.884,27.884,0,0,0,2.9,0c1.4-.1,1.1-.7,2.4-1a19.063,19.063,0,0,0,10.6-5.6c.5-.6,2-2.1,2.2-2.3a6.045,6.045,0,0,1,0,1.9c-.3,2.2-1.7,3.4-3.8,4.5-3.1,1.7-7.6,4.1-10.7,6.2-2.9,2-5.4,3.9-6.3,7.1s-.7,5,.3,7.2a12.613,12.613,0,0,0,5.2,5.7c2.2,1.3,4.2,2.4,6.4,3.5,1.5.8,4.1,2.1,3.9,4.8a5.344,5.344,0,0,1-3.2,4.7,25.657,25.657,0,0,1-5,1.2c-.2.2,2.5,2.4,4.5,2.4a12.188,12.188,0,0,0,5.1-.9c1.8-.6,2.6-2.2,2.9-2.3s.7,0,1.1-.3,1.6-1.2,1.8-1.8c.1-.6.2-1.5.3-2s.7-2.2.8-3.1c0-.9.3-3-.6-4.2-.7-1-.3-1.5-.9-2.1a4.675,4.675,0,0,0-1-.9c-.6-.2-.9,0-1.3-.3-.6-.4-1.4-2.8-2.3-2.8a4.484,4.484,0,0,0-1.1.1,14.806,14.806,0,0,1-4.7,0c-.9-.4-4-2.3-3.7-5.1.2-2.4,1.9-4,4.3-4.9,2.1-.8,2.8-.7,4.2-1.4s2.4-1.5,3.4-2.1a22.376,22.376,0,0,0,3.6-2.1,11.063,11.063,0,0,0,1.8-1.9,20.193,20.193,0,0,1,2.5-3.2,51.061,51.061,0,0,0,3.8,5.2c2.6,3,6.1,4.8,7.8,5.8a32.134,32.134,0,0,1,7.1,6.1,6.014,6.014,0,0,1-5.3,9.5,9.4,9.4,0,0,1-7.1-3.3c-1.6-2.1-2.3-6-.9-7.1,1.5-1.1,2.9-.6,3.9-.5a1.289,1.289,0,0,0,1.5-.9,1.935,1.935,0,0,0-.9-1.9,3.807,3.807,0,0,0-2.3-.9,21.049,21.049,0,0,1-3.2.2,5.771,5.771,0,0,0-4.6,1.4,7.123,7.123,0,0,0-2.3,3.3,8.817,8.817,0,0,0,0,2.3c-.1.7-.3,1.2-.4,1.7a12.216,12.216,0,0,0,.3,2.6,24.407,24.407,0,0,0,1,3.3,5.171,5.171,0,0,0,.6,1.3,11.4,11.4,0,0,1,1.4,1.2c1,1,2.2,2.3,3.1,2.6,1.2.5,3.5-.3,4.1-.1s1.5,1.2,2.5,1.2,7.1-.3,9.3-1.2c2.6-1.1,7.2-4,8.1-8,1.1-5-1-8.4-3.1-10.9a66.8,66.8,0,0,0-11.2-9.7,12.008,12.008,0,0,1-3.7-4,6.3,6.3,0,0,1-.9-4.4,18.936,18.936,0,0,1,4.3,4.1,7.848,7.848,0,0,0,2.7,2c.7.4,1.6.1,2.3.3.7.1.2.7,1.4,1.1a53.241,53.241,0,0,0,7.8,1.4,10.1,10.1,0,0,0,2.1-.7,36.07,36.07,0,0,0,5.9-1.8c5.2-2,7.4-5.3,9.1-9.3,1.8-4,.6-9-.5-11.3a67.6,67.6,0,0,0-5.1-8.5c-2.1-3.2-4.7-6.4-3.5-12.8,1.2-6.5,6.1-8.5,6.8-9.6.6-1-1.1-1.9-1.5-2.1a7.31,7.31,0,0,0-2.4-.5h-.2c-1.2,0-1.8.8-2.3.9-.5.2-2.8,0-3.1.1a3.566,3.566,0,0,0-1.1,1c-.2.3-.1.4-.4,1.1s-2.6,2.6-3.3,3.8c-.3.6,0,2-.4,2.9s-1.7.8-1.9,1.8c-.2.7.2,3-.1,4.1-.3,1.2-1,.6-1,1.8-.1,1.7,2.9,4.3,3.4,5.1a15.426,15.426,0,0,1,1.3,2.6,11.7,11.7,0,0,0,2.3,3.3c.7.8,2.6,2,3.1,2.9.3.5,0,1.4.2,2a10.59,10.59,0,0,0,1.5,2.2c.8,1.1.5,4.1-.2,6a9.028,9.028,0,0,1-6,5.1,13.264,13.264,0,0,1-15.2-8.7c-1.6-4.1-.8-8.8,2.8-12.6a22.974,22.974,0,0,0,6.3-15.5c0-12.7-10.8-22.9-23.6-22.9a23.177,23.177,0,0,0-23.3,22.9A24.116,24.116,0,0,0,109.7,415.2Z" style="fill: #1386c8"/>
      <path d="M122.5,389.5a11.4,11.4,0,1,1-11.4,11.4,11.395,11.395,0,0,1,11.4-11.4" style="fill: #fff"/>
      <path d="M121,399.9a2.6,2.6,0,1,1-2.6,2.6,2.582,2.582,0,0,1,2.6-2.6" style="fill: #1386c8"/>
      <path d="M168.9,535.7v-2.4l3-.2.6-.8V511.1l-.6-.6-3-.2v-2.4h14.7v2.4l-3,.2-.7.6v21.2l.7.8,3,.2v2.4Zm-32.3,0v-2.3l2.5-.2.8-.8V511.2l-.5-.6-2.8-.3V508h11.7v1.1l11.8,18.4V511.4l-.7-.8-2.7-.3V508h10.5v2.3l-2.4.3-.8.8v24.4h-6.6l-13.7-21v17.7l.6.8,2.8.2v2.3H136.6ZM119,510.6a5.561,5.561,0,0,0-5.1,3.1c-1.3,2.1-1.9,4.9-1.9,8.5a15.305,15.305,0,0,0,2,8.2,5.775,5.775,0,0,0,5.1,3.1c2.1,0,3.7-1.1,5-3.2s1.9-5,1.9-8.6a15.323,15.323,0,0,0-1.9-8.2,5.984,5.984,0,0,0-5.1-2.9m-15.2,11a13.343,13.343,0,0,1,4.2-10.3q4.2-3.9,11.1-3.9a18.36,18.36,0,0,1,5.3.8,12.51,12.51,0,0,1,4.3,2.2,13.942,13.942,0,0,1,4.1,5,13.527,13.527,0,0,1,1.4,6.3,14.021,14.021,0,0,1-4.3,10.6,15.68,15.68,0,0,1-11.1,4.1,14.628,14.628,0,0,1-10.8-4.1c-2.9-2.6-4.2-6.2-4.2-10.7m-18.3-11a5.561,5.561,0,0,0-5.1,3.1c-1.3,2.1-1.9,4.9-1.9,8.5a15.305,15.305,0,0,0,2,8.2,5.775,5.775,0,0,0,5.1,3.1c2.1,0,3.7-1.1,5-3.2s1.9-5,1.9-8.6a15.323,15.323,0,0,0-1.9-8.2,6.109,6.109,0,0,0-5.1-2.9m-15.3,11a13.343,13.343,0,0,1,4.2-10.3q4.2-3.9,11.1-3.9a18.36,18.36,0,0,1,5.3.8,12.51,12.51,0,0,1,4.3,2.2,13.942,13.942,0,0,1,4.1,5,13.527,13.527,0,0,1,1.4,6.3,14.021,14.021,0,0,1-4.3,10.6,15.68,15.68,0,0,1-11.1,4.1,14.628,14.628,0,0,1-10.8-4.1c-2.8-2.6-4.2-6.2-4.2-10.7"/>
    </g>
    <g>
      <path d="M102.2,559.2a6.777,6.777,0,0,1,2.5,5.6,7.032,7.032,0,0,1-2.6,5.9,10.966,10.966,0,0,1-6.8,1.9H92.2v8.9H88.9V557.3h6.4C98.3,557.3,100.6,557.9,102.2,559.2Zm-2.6,9.6c1-.7,1.5-2.1,1.5-4a4.62,4.62,0,0,0-1.5-3.8,6.987,6.987,0,0,0-4.4-1.2h-3v10.1h2.9A6.552,6.552,0,0,0,99.6,568.8Z"/>
      <path d="M116.6,562.8,116,566a9.971,9.971,0,0,0-1.6-.2,3.41,3.41,0,0,0-2.8,1.3,9.483,9.483,0,0,0-1.7,3.9v10.5h-3.2V563h2.8l.3,3.8a7.249,7.249,0,0,1,2-3.1,4.426,4.426,0,0,1,3-1.1A5.537,5.537,0,0,1,116.6,562.8Z"/>
      <path d="M130.5,565.2a10.947,10.947,0,0,1,2.2,7.1,11.914,11.914,0,0,1-1,5.1,7.927,7.927,0,0,1-2.8,3.4,7.83,7.83,0,0,1-4.4,1.2,7.71,7.71,0,0,1-6.1-2.6c-1.5-1.7-2.2-4.1-2.2-7.1a11.914,11.914,0,0,1,1-5.1,7.412,7.412,0,0,1,7.3-4.6A7.336,7.336,0,0,1,130.5,565.2Zm-10.9,7c0,4.7,1.6,7.1,4.8,7.1s4.8-2.4,4.8-7.1-1.6-7.1-4.7-7.1C121.2,565.2,119.6,567.5,119.6,572.2Z"/>
      <path d="M149.7,565.1a12.216,12.216,0,0,1,1.9,7.1,13.638,13.638,0,0,1-.9,5.1,7.4,7.4,0,0,1-2.5,3.4,6.452,6.452,0,0,1-3.9,1.2,5.974,5.974,0,0,1-4.9-2.5l-.3,2h-2.8v-26l3.2-.4v10.2a6.188,6.188,0,0,1,5.2-2.7A6.114,6.114,0,0,1,149.7,565.1Zm-2.8,12.5a9.819,9.819,0,0,0,1.2-5.4,10.383,10.383,0,0,0-1.1-5.4,3.61,3.61,0,0,0-3.2-1.7c-1.6,0-3.1,1-4.3,2.9v8.9a5.162,5.162,0,0,0,1.8,1.8,4.756,4.756,0,0,0,2.3.7A4.133,4.133,0,0,0,146.9,577.6Z"/>
      <path d="M169.2,573.3H157.4a7.738,7.738,0,0,0,1.5,4.5,4.25,4.25,0,0,0,3.4,1.4,6.9,6.9,0,0,0,2.5-.4,26.7,26.7,0,0,0,2.4-1.2l1.4,1.9a10.528,10.528,0,0,1-6.5,2.3,7.3,7.3,0,0,1-6-2.5,10.656,10.656,0,0,1-2.2-7,13.638,13.638,0,0,1,.9-5.1,7.378,7.378,0,0,1,2.7-3.5,7.142,7.142,0,0,1,4.1-1.3,7.048,7.048,0,0,1,5.7,2.4,10.487,10.487,0,0,1,2,6.7A9.722,9.722,0,0,1,169.2,573.3Zm-3.1-2.6a7.234,7.234,0,0,0-1.1-4.2,3.689,3.689,0,0,0-3.3-1.4c-2.6,0-4.1,1.9-4.3,5.8h8.7v-.2Z"/>
    </g>
    <rect x="69.4" y="544.5" width="113.4" height="3.9"/>
  </g>
  <g>
    <g>
      <rect x="552.4" y="129.4" width="5.1" height="63.5"/>
      <g>
        <path d="M594,142l-.6,4H579.3v11.9h12.2v4H579.3v12.4h15.1v4H574.3V142Z"/>
        <path d="M610.2,163.5l9.6,14.9H614l-6.8-11.8-6.9,11.8h-5.5l9.7-14.6-8.6-13.1h5.7l5.8,10.2,5.8-10.2h5.5Z"/>
        <path d="M643.1,153.7c1.7,2.5,2.5,6.1,2.5,10.7,0,4.4-.9,7.9-2.8,10.5a9.277,9.277,0,0,1-8.1,4,9.11,9.11,0,0,1-7.3-3.2v13.2l-4.8.6v-39h4.2l.4,3.7a9.472,9.472,0,0,1,3.7-3.2,9.08,9.08,0,0,1,4.5-1.1C638.8,150,641.4,151.2,643.1,153.7Zm-2.8,10.7c0-7.1-2.1-10.6-6.3-10.6a6.069,6.069,0,0,0-3.7,1.2,12.7,12.7,0,0,0-3,3.1v13.5a7.731,7.731,0,0,0,2.6,2.5,7.018,7.018,0,0,0,3.5.9C638.1,175,640.3,171.5,640.3,164.4Z"/>
        <path d="M652.5,177.4a6.484,6.484,0,0,1-1.6-4.5V139.4l4.8-.6v33.9a2.674,2.674,0,0,0,.4,1.7,1.428,1.428,0,0,0,1.3.5,4.844,4.844,0,0,0,1.8-.3l1.3,3.4a8.187,8.187,0,0,1-3.8.9A4.986,4.986,0,0,1,652.5,177.4Z"/>
        <path d="M683.3,153.9c2.2,2.6,3.2,6.1,3.2,10.6a18.084,18.084,0,0,1-1.5,7.6,11.376,11.376,0,0,1-4.3,5.1,12.1,12.1,0,0,1-6.6,1.8,11.237,11.237,0,0,1-9.1-3.9c-2.2-2.6-3.3-6.1-3.3-10.6a18.084,18.084,0,0,1,1.5-7.6,11.376,11.376,0,0,1,4.3-5.1,12.2,12.2,0,0,1,6.7-1.8A11.237,11.237,0,0,1,683.3,153.9Zm-16.4,10.6c0,7.1,2.4,10.6,7.2,10.6s7.2-3.5,7.2-10.6-2.4-10.6-7.1-10.6C669.4,153.9,666.9,157.4,666.9,164.5Z"/>
        <path d="M706.7,150.3l-.9,4.7a10.5,10.5,0,0,0-2.4-.3,5.216,5.216,0,0,0-4.2,1.9,13.569,13.569,0,0,0-2.5,5.9v15.9h-4.8V150.6h4.2l.5,5.6a10.078,10.078,0,0,1,3-4.7,6.462,6.462,0,0,1,4.4-1.6A25.123,25.123,0,0,1,706.7,150.3Z"/>
        <path d="M728.9,166.1H711.2c.2,3.1,1,5.3,2.3,6.7a6.934,6.934,0,0,0,5.2,2.2,11.044,11.044,0,0,0,3.7-.6,16.671,16.671,0,0,0,3.5-1.8l2.1,2.9a15.623,15.623,0,0,1-9.7,3.5c-3.9,0-6.9-1.3-9-3.8-2.2-2.5-3.2-6-3.2-10.4a20.716,20.716,0,0,1,1.4-7.7,11.754,11.754,0,0,1,4-5.2,10.518,10.518,0,0,1,6.1-1.9c3.7,0,6.5,1.2,8.5,3.6s3,5.8,3,10.1A19.419,19.419,0,0,0,728.9,166.1Zm-4.7-3.9a10.5,10.5,0,0,0-1.6-6.3,5.872,5.872,0,0,0-4.9-2.2c-4,0-6.1,2.9-6.5,8.7h13Z"/>
        <path d="M748.9,150.3,748,155a10.5,10.5,0,0,0-2.4-.3,5.216,5.216,0,0,0-4.2,1.9,13.569,13.569,0,0,0-2.5,5.9v15.9h-4.8V150.6h4.2l.5,5.6a10.078,10.078,0,0,1,3-4.7,6.462,6.462,0,0,1,4.4-1.6A25.123,25.123,0,0,1,748.9,150.3Z"/>
      </g>
    </g>
    <g id="Page-1">
      <g id="Wordmark-Horizontal">
        <g id="Logo-wordmark-HORIZ">
          <g id="Wordmark">
            <g id="Fill-10">
              <path d="M374.9,160.1c0-5.9,1.9-10.6,5.8-14.2s9-5.4,15.4-5.4a24.782,24.782,0,0,1,7.3,1.1,18.933,18.933,0,0,1,11.7,9.9,19.946,19.946,0,0,1,2,8.8,19.3,19.3,0,0,1-6,14.6c-4,3.8-9.1,5.7-15.5,5.7-6.2,0-11.3-1.9-15-5.6-3.8-3.8-5.7-8.7-5.7-14.9ZM396,144.8a7.865,7.865,0,0,0-7.1,4.3c-1.8,2.9-2.6,6.8-2.6,11.8,0,4.7.9,8.4,2.7,11.3s4.2,4.3,7.1,4.3,5.2-1.5,6.9-4.4c1.8-2.9,2.6-6.9,2.6-11.8,0-4.7-.9-8.5-2.7-11.3q-2.55-4.2-6.9-4.2Zm25.4,15.3c0-5.9,1.9-10.6,5.8-14.2s9-5.4,15.4-5.4a24.782,24.782,0,0,1,7.3,1.1,18.933,18.933,0,0,1,11.7,9.9,19.946,19.946,0,0,1,2,8.8,19.3,19.3,0,0,1-6,14.6c-4,3.8-9.1,5.7-15.5,5.7-6.2,0-11.3-1.9-15-5.6-3.8-3.8-5.7-8.7-5.7-14.9Zm21.1-15.3a7.865,7.865,0,0,0-7.1,4.3c-1.8,2.9-2.6,6.8-2.6,11.8,0,4.7.9,8.4,2.7,11.3s4.2,4.3,7.1,4.3,5.2-1.5,6.9-4.4c1.8-2.9,2.6-6.9,2.6-11.8,0-4.7-.9-8.5-2.7-11.3q-2.55-4.2-6.9-4.2Zm24.4,34.8v-3.2l3.5-.3,1.1-1.1V145.7l-.8-.8-3.8-.4v-3.1h16.2v1.5l16.4,25.4V146l-1-1.1-3.7-.4v-3.1h14.5v3.1l-3.4.4-1.1,1.1v33.7h-9.1l-19-29.2V175l.8,1.1,3.8.3v3.2Zm44.8,0v-3.3l4.1-.2.9-1.1V145.7l-.9-.8-4.1-.2v-3.3h20.4v3.3l-4.2.2-.9.8V175l.9,1.1,4.2.2v3.3Z"/>
            </g>
          </g>
        </g>
      </g>
    </g>
    <path d="M322.3,124a34.4,34.4,0,1,1-34.4,34.4A34.4,34.4,0,0,1,322.3,124" style="fill: #8dd5f6"/>
    <path d="M312.9,150.6c2.4,2.4,3,4.6,2,6.5-1.1,2.1-3.5,3.3-7.6,3.3-3.5,0-4.5-1.7-5.2-2.7-1.4-1.9-.7-4.2.6-5.7,1.6-1.8,2.7-2,4-1.3a3.1,3.1,0,0,1,1.7,2.8,12.989,12.989,0,0,1-.6,2.5c0,.2.1.3.3.2a5.96,5.96,0,0,0,2.1-1.7,11.29,11.29,0,0,0,1.2-4.2c-.1-.4-1.1-1.2-1.2-1.6a1.884,1.884,0,0,0-.2-.8c-.1-.2-.3-.4-.4-.4-.3-.2-1.1.1-1.4-.3-.3-.3-.4-1.1-.7-1.1a2.134,2.134,0,0,0-.8,0,5.388,5.388,0,0,1-1,.3c-.5-.1-.8-.8-1.4-.7-.6,0-1.4,1.1-2.2,2a20.394,20.394,0,0,0-3.4,3.9,7.5,7.5,0,0,0-1.1,5.2,8.05,8.05,0,0,0,2.7,5.4,10.76,10.76,0,0,0,4.5,2.6,10.889,10.889,0,0,0,3.1.8h1.6c.7-.1.6-.4,1.3-.5a9.657,9.657,0,0,0,5.7-3,13.1,13.1,0,0,0,1.2-1.3v1c-.2,1.2-.9,1.8-2.1,2.5a58.247,58.247,0,0,0-5.8,3.4c-1.5,1.1-2.9,2.1-3.4,3.9a5.132,5.132,0,0,0,.1,3.9,7.357,7.357,0,0,0,2.8,3.1c1.2.7,2.3,1.3,3.5,1.9.8.4,2.2,1.1,2.1,2.6a3.112,3.112,0,0,1-1.7,2.6,21.069,21.069,0,0,1-2.7.7,3.663,3.663,0,0,0,2.5,1.3,6.632,6.632,0,0,0,2.8-.5c1-.3,1.4-1.2,1.6-1.2a.735.735,0,0,0,.6-.2c.2-.2.9-.7,1-1s.1-.8.2-1.1a7.091,7.091,0,0,0,.4-1.7,4.876,4.876,0,0,0-.3-2.3c-.4-.5-.2-.8-.5-1.1-.1,0-.3-.4-.5-.5-.3-.1-.5,0-.7-.1-.3-.2-.8-1.5-1.3-1.5h-.6a11.3,11.3,0,0,1-2.6,0c-.5-.2-2.2-1.2-2-2.8a3.193,3.193,0,0,1,2.3-2.7c1.1-.4,1.5-.4,2.3-.7.8-.4,1.3-.8,1.9-1.1a7.607,7.607,0,0,0,1.9-1.2,9.428,9.428,0,0,0,1-1c.3-.3.8-1.3,1.4-1.7a20.118,20.118,0,0,0,2.1,2.8,18.586,18.586,0,0,0,4.2,3.2,18.659,18.659,0,0,1,3.8,3.3,3.659,3.659,0,0,1,0,3.8,3.348,3.348,0,0,1-2.9,1.3,4.945,4.945,0,0,1-3.8-1.8c-.9-1.1-1.2-3.3-.5-3.8a2.777,2.777,0,0,1,2.1-.3c.4,0,.8-.2.8-.5a.858.858,0,0,0-.5-1,1.911,1.911,0,0,0-1.2-.5,7.156,7.156,0,0,1-1.7.1,3.422,3.422,0,0,0-2.5.8,5.5,5.5,0,0,0-1.3,1.8,5.633,5.633,0,0,0,0,1.3,6.374,6.374,0,0,1-.2.9,7.844,7.844,0,0,0,.2,1.4,6.356,6.356,0,0,0,.6,1.8,4.875,4.875,0,0,0,.3.7,5.547,5.547,0,0,0,.8.6,7,7,0,0,0,1.7,1.4c.6.2,1.9-.2,2.2-.1.4.1.8.7,1.3.6a25.781,25.781,0,0,0,5-.6c1.4-.6,3.9-2.1,4.4-4.3a6.277,6.277,0,0,0-1.7-5.9,44.49,44.49,0,0,0-6-5.3,5.709,5.709,0,0,1-2-2.2,3.729,3.729,0,0,1-.5-2.4,9.765,9.765,0,0,1,2.3,2.2,3.383,3.383,0,0,0,1.4,1.1,2.553,2.553,0,0,0,1.2.1c.4.1.1.4.8.6a21.661,21.661,0,0,0,4.2.7,2.967,2.967,0,0,0,1.1-.4,16.715,16.715,0,0,0,3.2-1,8.3,8.3,0,0,0,4.9-5,8.869,8.869,0,0,0-.2-6.1,37.92,37.92,0,0,0-2.8-4.6c-1.1-1.7-2.5-3.5-1.9-7s3.3-4.6,3.7-5.2c.3-.5-.6-1-.8-1.1a6.3,6.3,0,0,0-1.3-.3h-.1a2.255,2.255,0,0,0-1.2.5c-.3.1-1.5,0-1.7.1-.2,0-.5.4-.6.5-.1.2,0,.2-.2.6s-1.4,1.4-1.8,2.1c-.2.3,0,1.1-.2,1.6s-.9.5-1,1a17.733,17.733,0,0,1-.1,2.2c-.2.6-.5.3-.6,1,0,.9,1.6,2.3,1.8,2.8a6.012,6.012,0,0,1,.7,1.4,6.978,6.978,0,0,0,1.3,1.8,12.878,12.878,0,0,1,1.7,1.6c.1.3,0,.7.1,1.1a7.96,7.96,0,0,0,.8,1.2,4.448,4.448,0,0,1-.1,3.2,5.019,5.019,0,0,1-3.3,2.8,7.123,7.123,0,0,1-8.2-4.7,6.331,6.331,0,0,1,1.5-6.8,12.113,12.113,0,0,0,3.4-8.4,12.7,12.7,0,0,0-25.4,0A12.234,12.234,0,0,0,312.9,150.6Z" style="fill: #1386c8"/>
    <path d="M319.9,136.6a6.2,6.2,0,1,1-6.2,6.2,6.231,6.231,0,0,1,6.2-6.2" style="fill: #fff"/>
    <path d="M319.1,142.3a1.4,1.4,0,1,1-1.4,1.4,1.367,1.367,0,0,1,1.4-1.4" style="fill: #1386c8"/>
  </g>
  <g>
    <g>
      <rect x="552.4" y="444.9" width="5.1" height="63.5"/>
      <g>
        <path d="M594.3,460.4c2.5,1.9,3.7,4.7,3.7,8.4,0,4-1.3,6.9-3.8,8.9a16.891,16.891,0,0,1-10.2,2.9h-4.6v13.3h-5V457.6h9.5C588.4,457.6,591.9,458.6,594.3,460.4ZM590.4,475c1.5-1.1,2.3-3.1,2.3-6.1,0-2.6-.8-4.5-2.3-5.6-1.5-1.2-3.7-1.7-6.6-1.7h-4.5v15.1h4.4A11.406,11.406,0,0,0,590.4,475Z"/>
        <path d="M615.8,465.8l-.9,4.7a10.5,10.5,0,0,0-2.4-.3,5.216,5.216,0,0,0-4.2,1.9,13.569,13.569,0,0,0-2.5,5.9v15.9H601V466.1h4.2l.5,5.6a10.078,10.078,0,0,1,3-4.7,6.462,6.462,0,0,1,4.4-1.6A19.341,19.341,0,0,1,615.8,465.8Z"/>
        <path d="M636.7,469.4c2.2,2.6,3.2,6.1,3.2,10.6a18.084,18.084,0,0,1-1.5,7.6,11.376,11.376,0,0,1-4.3,5.1,12.1,12.1,0,0,1-6.6,1.8,11.237,11.237,0,0,1-9.1-3.9c-2.2-2.6-3.3-6.1-3.3-10.6a18.084,18.084,0,0,1,1.5-7.6,11.376,11.376,0,0,1,4.3-5.1,12.2,12.2,0,0,1,6.7-1.8A11.237,11.237,0,0,1,636.7,469.4Zm-16.4,10.7c0,7.1,2.4,10.6,7.2,10.6s7.2-3.5,7.2-10.6-2.4-10.6-7.1-10.6C622.8,469.4,620.3,473,620.3,480.1Z"/>
        <path d="M665.5,469.4c1.9,2.5,2.8,6.1,2.8,10.7a19.851,19.851,0,0,1-1.3,7.6,11.1,11.1,0,0,1-3.8,5.1,9.739,9.739,0,0,1-5.8,1.8,9.136,9.136,0,0,1-7.4-3.7l-.5,3.1h-4.3V455.1l4.8-.6v15.2a9.377,9.377,0,0,1,7.9-4.1A8.594,8.594,0,0,1,665.5,469.4Zm-4.2,18.7q1.8-2.55,1.8-8.1c0-3.8-.6-6.5-1.7-8.1a5.325,5.325,0,0,0-4.8-2.5c-2.5,0-4.6,1.4-6.5,4.3V487a7,7,0,0,0,2.7,2.7,6.111,6.111,0,0,0,3.4,1A5.694,5.694,0,0,0,661.3,488.1Z"/>
        <path d="M694.8,481.7H677.1c.2,3.1,1,5.3,2.3,6.7a6.934,6.934,0,0,0,5.2,2.2,11.044,11.044,0,0,0,3.7-.6,16.671,16.671,0,0,0,3.5-1.8l2.1,2.9a15.623,15.623,0,0,1-9.7,3.5c-3.9,0-6.9-1.3-9-3.8-2.2-2.5-3.2-6-3.2-10.4a20.716,20.716,0,0,1,1.4-7.7,11.754,11.754,0,0,1,4-5.2,9.847,9.847,0,0,1,6.1-1.9c3.7,0,6.5,1.2,8.5,3.6s3,5.8,3,10.1C694.9,480,694.9,480.9,694.8,481.7Zm-4.7-3.9a10.5,10.5,0,0,0-1.6-6.3,5.872,5.872,0,0,0-4.9-2.2c-4,0-6.1,2.9-6.5,8.7h13Z"/>
      </g>
    </g>
    <g id="Page-1-2" data-name="Page-1">
      <g id="Wordmark-Horizontal-2" data-name="Wordmark-Horizontal">
        <g id="Logo-wordmark-HORIZ-2" data-name="Logo-wordmark-HORIZ">
          <g id="Wordmark-2" data-name="Wordmark">
            <g id="Fill-10-2" data-name="Fill-10">
              <path d="M374.9,475.7c0-5.9,1.9-10.6,5.8-14.2s9-5.4,15.4-5.4a24.782,24.782,0,0,1,7.3,1.1,18.933,18.933,0,0,1,11.7,9.9,19.946,19.946,0,0,1,2,8.8,19.3,19.3,0,0,1-6,14.6c-4,3.8-9.1,5.7-15.5,5.7-6.2,0-11.3-1.9-15-5.6-3.8-3.8-5.7-8.7-5.7-14.9Zm21.2-15.3a7.865,7.865,0,0,0-7.1,4.3c-1.8,2.9-2.6,6.8-2.6,11.8,0,4.7.9,8.4,2.7,11.3s4.2,4.3,7.1,4.3,5.2-1.5,6.9-4.4c1.8-2.9,2.6-6.9,2.6-11.8,0-4.7-.9-8.5-2.7-11.3a7.88,7.88,0,0,0-6.9-4.2Zm25.3,15.3c0-5.9,1.9-10.6,5.8-14.2s9-5.4,15.4-5.4a24.782,24.782,0,0,1,7.3,1.1,18.933,18.933,0,0,1,11.7,9.9,19.946,19.946,0,0,1,2,8.8,19.3,19.3,0,0,1-6,14.6c-4,3.8-9.1,5.7-15.5,5.7-6.2,0-11.3-1.9-15-5.6-3.8-3.8-5.7-8.7-5.7-14.9Zm21.1-15.3a7.865,7.865,0,0,0-7.1,4.3c-1.8,2.9-2.6,6.8-2.6,11.8,0,4.7.9,8.4,2.7,11.3s4.2,4.3,7.1,4.3,5.2-1.5,6.9-4.4c1.8-2.9,2.6-6.9,2.6-11.8,0-4.7-.9-8.5-2.7-11.3q-2.55-4.2-6.9-4.2Zm24.4,34.8V492l3.5-.3,1.1-1.1V461.3l-.8-.8-3.8-.4V457h16.2v1.5l16.4,25.4V461.5l-1-1.1-3.7-.4v-3.1h14.5V460l-3.4.4-1.1,1.1v33.7h-9.1l-18.9-29.1v24.5l.8,1.1,3.8.3v3.2Zm44.8,0v-3.3l4.1-.2.9-1.1V461.3l-.9-.8-4.1-.2V457h20.4v3.3l-4.2.2-.9.8v29.3l.9,1.1,4.2.2v3.3Z"/>
            </g>
          </g>
        </g>
      </g>
    </g>
    <path d="M322.3,439.6A34.4,34.4,0,1,1,287.9,474a34.4,34.4,0,0,1,34.4-34.4" style="fill: #8dd5f6"/>
    <path d="M313,466.2c2.4,2.4,3,4.6,2,6.5-1.1,2.1-3.5,3.3-7.6,3.3-3.5,0-4.5-1.7-5.2-2.7-1.4-1.9-.7-4.2.6-5.7,1.6-1.8,2.7-2,4-1.3a3.1,3.1,0,0,1,1.7,2.8,12.989,12.989,0,0,1-.6,2.5c0,.2.1.3.3.2a5.96,5.96,0,0,0,2.1-1.7,11.29,11.29,0,0,0,1.2-4.2c-.1-.4-1.1-1.2-1.2-1.6a1.884,1.884,0,0,0-.2-.8c-.1-.2-.3-.4-.4-.4-.3-.2-1.1.1-1.4-.3-.3-.3-.4-1.1-.7-1.1a2.134,2.134,0,0,0-.8,0,5.388,5.388,0,0,1-1,.3c-.5-.1-.8-.8-1.4-.7-.6,0-1.4,1.1-2.2,2a20.394,20.394,0,0,0-3.4,3.9,7.5,7.5,0,0,0-1.1,5.2,8.05,8.05,0,0,0,2.7,5.4,10.76,10.76,0,0,0,4.5,2.6,10.889,10.889,0,0,0,3.1.8h1.6c.7-.1.6-.4,1.3-.5a9.657,9.657,0,0,0,5.7-3,13.1,13.1,0,0,0,1.2-1.3v1c-.2,1.2-.9,1.8-2.1,2.5a58.247,58.247,0,0,0-5.8,3.4c-1.5,1.1-2.9,2.1-3.4,3.9a5.162,5.162,0,0,0,.1,3.9,7.357,7.357,0,0,0,2.8,3.1c1.2.7,2.3,1.3,3.5,1.9.8.4,2.2,1.1,2.1,2.6a3.112,3.112,0,0,1-1.7,2.6,21.069,21.069,0,0,1-2.7.7,3.663,3.663,0,0,0,2.5,1.3,6.632,6.632,0,0,0,2.8-.5c1-.3,1.4-1.2,1.6-1.2a.735.735,0,0,0,.6-.2c.2-.2.9-.7,1-1s.1-.8.2-1.1a7.091,7.091,0,0,0,.4-1.7,4.876,4.876,0,0,0-.3-2.3c-.4-.5-.2-.8-.5-1.1-.1,0-.3-.4-.5-.5-.3-.1-.5,0-.7-.1-.3-.2-.8-1.5-1.3-1.5h-.6a11.3,11.3,0,0,1-2.6,0c-.5-.2-2.2-1.2-2-2.8a3.193,3.193,0,0,1,2.3-2.7c1.1-.4,1.5-.4,2.3-.7.8-.4,1.3-.8,1.9-1.1a7.607,7.607,0,0,0,1.9-1.2,9.428,9.428,0,0,0,1-1c.3-.3.8-1.3,1.4-1.7a20.118,20.118,0,0,0,2.1,2.8,18.586,18.586,0,0,0,4.2,3.2,18.659,18.659,0,0,1,3.8,3.3,3.659,3.659,0,0,1,0,3.8,3.348,3.348,0,0,1-2.9,1.3,4.945,4.945,0,0,1-3.8-1.8c-.9-1.1-1.2-3.3-.5-3.8a2.777,2.777,0,0,1,2.1-.3c.4,0,.8-.2.8-.5a.858.858,0,0,0-.5-1,1.911,1.911,0,0,0-1.2-.5,7.156,7.156,0,0,1-1.7.1,3.422,3.422,0,0,0-2.5.8,5.5,5.5,0,0,0-1.3,1.8,5.633,5.633,0,0,0,0,1.3,6.374,6.374,0,0,1-.2.9,7.844,7.844,0,0,0,.2,1.4,6.356,6.356,0,0,0,.6,1.8,4.875,4.875,0,0,0,.3.7,5.547,5.547,0,0,0,.8.6,7,7,0,0,0,1.7,1.4c.6.2,1.9-.2,2.2-.1.4.1.8.7,1.3.6a25.781,25.781,0,0,0,5-.6c1.4-.6,3.9-2.1,4.4-4.3a6.277,6.277,0,0,0-1.7-5.9,44.49,44.49,0,0,0-6-5.3,5.709,5.709,0,0,1-2-2.2,3.729,3.729,0,0,1-.5-2.4,9.765,9.765,0,0,1,2.3,2.2,3.383,3.383,0,0,0,1.4,1.1,2.553,2.553,0,0,0,1.2.1c.4.1.1.4.8.6a21.661,21.661,0,0,0,4.2.7,2.967,2.967,0,0,0,1.1-.4,16.715,16.715,0,0,0,3.2-1,8.3,8.3,0,0,0,4.9-5,8.869,8.869,0,0,0-.2-6.1,37.92,37.92,0,0,0-2.8-4.6c-1.1-1.7-2.5-3.5-1.9-7s3.3-4.6,3.7-5.2c.3-.5-.6-1-.8-1.1a6.3,6.3,0,0,0-1.3-.3h-.1a2.255,2.255,0,0,0-1.2.5c-.3.1-1.5,0-1.7.1-.2,0-.5.4-.6.5-.1.2,0,.2-.2.6s-1.4,1.4-1.8,2.1c-.2.3,0,1.1-.2,1.6s-.9.5-1,1a17.733,17.733,0,0,1-.1,2.2c-.2.6-.5.3-.6,1,0,.9,1.6,2.3,1.8,2.8a6.012,6.012,0,0,1,.7,1.4,6.978,6.978,0,0,0,1.3,1.8,12.878,12.878,0,0,1,1.7,1.6c.1.3,0,.7.1,1.1a7.96,7.96,0,0,0,.8,1.2,4.448,4.448,0,0,1-.1,3.2,5.019,5.019,0,0,1-3.3,2.8,7.123,7.123,0,0,1-8.2-4.7,6.331,6.331,0,0,1,1.5-6.8,12.113,12.113,0,0,0,3.4-8.4,12.7,12.7,0,0,0-25.4,0A11.453,11.453,0,0,0,313,466.2Z" style="fill: #1386c8"/>
    <path d="M319.9,452.2a6.2,6.2,0,1,1-6.2,6.2,6.231,6.231,0,0,1,6.2-6.2" style="fill: #fff"/>
    <path d="M319.1,457.9a1.4,1.4,0,1,1-1.4,1.4,1.367,1.367,0,0,1,1.4-1.4" style="fill: #1386c8"/>
  </g>
</svg>
