<svg id="Layer_1" data-name="Layer 1" xmlns="http://www.w3.org/2000/svg" width="16" height="16" viewBox="0 0 16 16">
  <title>Gaming</title>
  <path d="M7.16,8.41V7.59a.25.25,0,0,0,0-.15A.2.2,0,0,0,7,7.38H5.7V6.14a.21.21,0,0,0-.21-.21H4.66A.19.19,0,0,0,4.51,6a.2.2,0,0,0-.06.15V7.38H3.19A.21.21,0,0,0,3,7.59v.82a.21.21,0,0,0,.21.21H4.45V9.86a.2.2,0,0,0,.06.15.19.19,0,0,0,.15.06h.83a.21.21,0,0,0,.21-.21V8.62H7a.2.2,0,0,0,.15-.06A.25.25,0,0,0,7.16,8.41Zm3.77.42a.82.82,0,0,0-.25-.59.85.85,0,0,0-1.18,0,.81.81,0,0,0,0,1.17.84.84,0,0,0,1.43-.58ZM12.6,7.17a.77.77,0,0,0-.25-.58.83.83,0,1,0,0,1.17A.78.78,0,0,0,12.6,7.17ZM14.27,8a3.2,3.2,0,0,1-1,2.34,3.36,3.36,0,0,1-4.57.14H7.28a3.27,3.27,0,0,1-2.21.83,3.25,3.25,0,0,1-2.36-1,3.28,3.28,0,0,1,0-4.68,3.25,3.25,0,0,1,2.36-1h5.86a3.25,3.25,0,0,1,2.36,1A3.2,3.2,0,0,1,14.27,8Z"/>
</svg>
