<?xml version="1.0" encoding="UTF-8"?>
<svg width="800px" height="410px" viewBox="0 0 800 410" version="1.1" xmlns="http://www.w3.org/2000/svg" xmlns:xlink="http://www.w3.org/1999/xlink">
    <!-- Generator: Sketch 46.2 (44496) - http://www.bohemiancoding.com/sketch -->
    <title>Artboard</title>
    <desc>Created with Sketch.</desc>
    <defs></defs>
    <g id="Page-1" stroke="none" stroke-width="1" fill="none" fill-rule="evenodd">
        <g id="Artboard">
            <rect id="Rectangle" fill="#0588CB" x="0" y="0" width="800" height="410"></rect>
            <path d="M169.013624,197.864424 L183.416516,224.932722 L170.525928,224.932722 L161.956207,205.825688 L153.530516,224.932722 L141,224.932722 L154.970805,198.298675 L142.080217,174.776758 L154.89879,174.776758 L162.100236,190.844037 L169.661754,174.776758 L182.19227,174.776758 L169.013624,197.864424 Z M210.854025,197.864424 L225.256916,224.932722 L212.366328,224.932722 L203.796608,205.825688 L195.370916,224.932722 L182.8404,224.932722 L196.811205,198.298675 L183.920617,174.776758 L196.739191,174.776758 L203.940637,190.844037 L211.502155,174.776758 L224.032671,174.776758 L210.854025,197.864424 Z M252.694425,197.864424 L267.097317,224.932722 L254.206729,224.932722 L245.637008,205.825688 L237.211317,224.932722 L224.680801,224.932722 L238.651606,198.298675 L225.761018,174.776758 L238.579591,174.776758 L245.781037,190.844037 L253.342555,174.776758 L265.873071,174.776758 L252.694425,197.864424 Z M304.976922,205.753313 L300.367997,205.753313 L300.367997,224.932722 L288.557625,224.932722 L288.557625,174.776758 L304.904908,174.776758 C311.72231,174.776758 316.847288,176.031248 320.279994,178.540265 C323.712701,181.049282 325.429028,184.885125 325.429028,190.04791 C325.429028,193.280682 324.660882,195.970597 323.124566,198.117737 C321.588249,200.264877 319.163787,202.086299 315.851105,203.582059 L328.52565,224.932722 L315.202975,224.932722 L304.976922,205.753313 Z M300.367997,197.574924 L305.336994,197.574924 C307.977538,197.574924 309.957915,196.971804 311.278187,195.765545 C312.598459,194.559287 313.258585,192.653428 313.258585,190.04791 C313.258585,187.635394 312.55045,185.874283 311.134158,184.764526 C309.717867,183.654768 307.545452,183.099898 304.61685,183.099898 L300.367997,183.099898 L300.367997,197.574924 Z M364.820937,209.082569 L341.12818,209.082569 C341.512259,212.315341 342.424433,214.583072 343.86473,215.885831 C345.305026,217.18859 347.297406,217.839959 349.84193,217.839959 C351.378246,217.839959 352.86653,217.562524 354.306826,217.007645 C355.747122,216.452767 357.30742,215.596336 358.987766,214.438328 L363.668706,220.807339 C359.203787,224.377864 354.234839,226.163099 348.761713,226.163099 C342.568438,226.163099 337.815532,224.329614 334.50285,220.662589 C331.190168,216.995564 329.533852,212.074105 329.533852,205.898063 C329.533852,201.989787 330.229985,198.479628 331.622272,195.367482 C333.014558,192.255336 335.054947,189.794606 337.743501,187.985219 C340.432054,186.175832 343.648667,185.271152 347.393438,185.271152 C352.914574,185.271152 357.235398,187.008138 360.356041,190.482161 C363.476683,193.956185 365.03698,198.781145 365.03698,204.957187 C365.03698,206.549447 364.964967,207.924561 364.820937,209.082569 Z M353.874739,201.700306 C353.77872,195.813766 351.714326,192.87054 347.681496,192.87054 C345.713091,192.87054 344.1888,193.594284 343.108578,195.041794 C342.028356,196.489304 341.36823,198.877659 341.12818,202.206932 L353.874739,202.206932 L353.874739,201.700306 Z M403.780759,190.626911 C406.133243,194.197435 407.309468,199.191269 407.309468,205.608563 C407.309468,209.565089 406.697351,213.099373 405.473099,216.211519 C404.248847,219.323665 402.48451,221.76027 400.180036,223.521407 C397.875562,225.282544 395.187049,226.163099 392.114417,226.163099 C388.273626,226.163099 385.177036,224.836235 382.824552,222.182467 L382.824552,239.769623 L371.446267,241 L371.446267,186.501529 L381.456277,186.501529 L382.032393,190.771662 C383.520699,188.889899 385.225024,187.502723 387.145419,186.610092 C389.065814,185.717461 391.03419,185.271152 393.050605,185.271152 C397.851593,185.271152 401.428275,187.056387 403.780759,190.626911 Z M395.499096,205.753313 C395.499096,201.217782 394.995,198.069496 393.986793,196.308359 C392.978585,194.547222 391.466297,193.666667 389.449882,193.666667 C388.153615,193.666667 386.941384,194.052663 385.813152,194.824669 C384.68492,195.596674 383.688729,196.706415 382.824552,198.153925 L382.824552,214.365953 C384.360868,216.633718 386.305239,217.767584 388.657723,217.767584 C393.218661,217.767584 395.499096,213.762867 395.499096,205.753313 Z M416.851383,223.304281 C415.003003,221.398393 414.078827,218.684353 414.078827,215.16208 L414.078827,171.230377 L425.457111,170 L425.457111,214.727829 C425.457111,216.32009 426.105235,217.116208 427.401501,217.116208 C428.07364,217.116208 428.697759,216.995584 429.273877,216.754332 L431.506326,224.860347 C429.441901,225.728852 427.137461,226.163099 424.592938,226.163099 C421.280256,226.163099 418.699764,225.210169 416.851383,223.304281 Z M466.469345,216.971458 C466.877429,217.646962 467.537555,218.153583 468.449743,218.491335 L466.073266,225.945973 C463.720782,225.752972 461.800415,225.234289 460.312109,224.389908 C458.823803,223.545528 457.671583,222.206601 456.855415,220.373089 C454.358901,224.233115 450.518169,226.163099 445.333102,226.163099 C441.540321,226.163099 438.515744,225.053358 436.25928,222.833843 C434.002816,220.614328 432.8746,217.719352 432.8746,214.148828 C432.8746,209.951049 434.410893,206.742451 437.483526,204.522936 C440.556158,202.303421 444.997005,201.19368 450.8062,201.19368 L454.694981,201.19368 L454.694981,199.529052 C454.694981,197.261287 454.21489,195.705237 453.254692,194.860856 C452.294494,194.016476 450.614174,193.594292 448.21368,193.594292 C446.965423,193.594292 445.453135,193.775228 443.676769,194.137105 C441.900404,194.498982 440.076056,194.993541 438.20367,195.620795 L435.61115,188.093782 C438.011644,187.177026 440.472113,186.477406 442.992632,185.994903 C445.51315,185.5124 447.853597,185.271152 450.014041,185.271152 C455.487168,185.271152 459.495932,186.405018 462.040456,188.672783 C464.58498,190.940548 465.857222,194.342145 465.857222,198.877676 L465.857222,213.786952 C465.857222,215.234462 466.061261,216.295953 466.469345,216.971458 Z M454.694981,214.293578 L454.694981,207.490316 L451.886417,207.490316 C449.293884,207.490316 447.361515,207.948687 446.089253,208.865443 C444.816992,209.7822 444.18087,211.205563 444.18087,213.135576 C444.18087,214.679586 444.576946,215.873764 445.369109,216.718145 C446.161272,217.562525 447.25348,217.984709 448.645767,217.984709 C451.2383,217.984709 453.254685,216.754345 454.694981,214.293578 Z M498.623801,186.429154 C500.736236,187.201159 502.728616,188.383274 504.601001,189.975535 L499.704018,196.778797 C497.303524,194.945285 494.879061,194.028542 492.430557,194.028542 C489.886034,194.028542 487.965668,194.96941 486.669401,196.851172 C485.373134,198.732935 484.72501,201.77266 484.72501,205.970438 C484.72501,210.023466 485.373134,212.894317 486.669401,214.583078 C487.965668,216.27184 489.838025,217.116208 492.286529,217.116208 C493.582795,217.116208 494.75902,216.911147 495.815237,216.501019 C496.871454,216.090892 498.143697,215.42746 499.632003,214.510703 L504.601001,221.603466 C500.808221,224.643236 496.511401,226.163099 491.710413,226.163099 C487.821613,226.163099 484.460972,225.330793 481.628389,223.666157 C478.795806,222.001521 476.611389,219.661415 475.075073,216.64577 C473.538757,213.630124 472.77061,210.095841 472.77061,206.042813 C472.77061,201.989786 473.538757,198.395191 475.075073,195.258919 C476.611389,192.122648 478.795806,189.673981 481.628389,187.912844 C484.460972,186.151707 487.749599,185.271152 491.49437,185.271152 C494.134913,185.271152 496.511366,185.657149 498.623801,186.429154 Z M541.112331,209.082569 L517.419575,209.082569 C517.803654,212.315341 518.715828,214.583072 520.156124,215.885831 C521.59642,217.18859 523.5888,217.839959 526.133324,217.839959 C527.66964,217.839959 529.157924,217.562524 530.59822,217.007645 C532.038517,216.452767 533.598815,215.596336 535.27916,214.438328 L539.9601,220.807339 C535.495181,224.377864 530.526233,226.163099 525.053107,226.163099 C518.859833,226.163099 514.106926,224.329614 510.794244,220.662589 C507.481563,216.995564 505.825247,212.074105 505.825247,205.898063 C505.825247,201.989787 506.52138,198.479628 507.913666,195.367482 C509.305953,192.255336 511.346342,189.794606 514.034895,187.985219 C516.723448,186.175832 519.940062,185.271152 523.684832,185.271152 C529.205969,185.271152 533.526793,187.008138 536.647435,190.482161 C539.768077,193.956185 541.328375,198.781145 541.328375,204.957187 C541.328375,206.549447 541.256361,207.924561 541.112331,209.082569 Z M530.166134,201.700306 C530.070114,195.813766 528.00572,192.87054 523.97289,192.87054 C522.004485,192.87054 520.480194,193.594284 519.399972,195.041794 C518.31975,196.489304 517.659624,198.877659 517.419575,202.206932 L530.166134,202.206932 L530.166134,201.700306 Z M614.351036,188.347095 C616.175411,190.397734 617.087585,193.232398 617.087585,196.851172 L617.087585,224.932722 L605.709301,224.932722 L605.709301,198.805301 C605.709301,195.379528 604.629095,193.666667 602.46865,193.666667 C601.268403,193.666667 600.212202,194.076788 599.300014,194.897044 C598.387826,195.717299 597.499657,196.971789 596.635479,198.66055 L596.635479,224.932722 L585.257194,224.932722 L585.257194,198.805301 C585.257194,195.379528 584.176988,193.666667 582.016544,193.666667 C580.864307,193.666667 579.820108,194.088851 578.883915,194.933231 C577.947722,195.777612 577.047551,197.020039 576.183373,198.66055 L576.183373,224.932722 L564.805088,224.932722 L564.805088,186.501529 L574.743084,186.501529 L575.535243,190.988787 C577.023549,189.058774 578.667863,187.623348 580.468233,186.682467 C582.268603,185.741586 584.320995,185.271152 586.625469,185.271152 C588.785914,185.271152 590.646269,185.801898 592.20659,186.863405 C593.766911,187.924912 594.907128,189.42065 595.627277,191.350663 C597.163593,189.275899 598.855915,187.743974 600.704296,186.754842 C602.552676,185.76571 604.677081,185.271152 607.077575,185.271152 C610.102198,185.271152 612.52666,186.296456 614.351036,188.347095 Z M658.783957,209.082569 L635.0912,209.082569 C635.475279,212.315341 636.387453,214.583072 637.827749,215.885831 C639.268046,217.18859 641.260426,217.839959 643.804949,217.839959 C645.341265,217.839959 646.829549,217.562524 648.269846,217.007645 C649.710142,216.452767 651.27044,215.596336 652.950785,214.438328 L657.631725,220.807339 C653.166807,224.377864 648.197859,226.163099 642.724732,226.163099 C636.531458,226.163099 631.778551,224.329614 628.46587,220.662589 C625.153188,216.995564 623.496872,212.074105 623.496872,205.898063 C623.496872,201.989787 624.193005,198.479628 625.585291,195.367482 C626.977578,192.255336 629.017967,189.794606 631.70652,187.985219 C634.395073,186.175832 637.611687,185.271152 641.356458,185.271152 C646.877594,185.271152 651.198418,187.008138 654.31906,190.482161 C657.439702,193.956185 659,198.781145 659,204.957187 C659,206.549447 658.927986,207.924561 658.783957,209.082569 Z M647.837759,201.700306 C647.741739,195.813766 645.677345,192.87054 641.644516,192.87054 C639.67611,192.87054 638.15182,193.594284 637.071597,195.041794 C635.991375,196.489304 635.331249,198.877659 635.0912,202.206932 L647.837759,202.206932 L647.837759,201.700306 Z" id="XXX-Replace-me" fill="#FFFFFF"></path>
        </g>
    </g>
</svg>