<svg id="Layer_1" data-name="Layer 1" xmlns="http://www.w3.org/2000/svg" width="16" height="16" viewBox="0 0 16 16">
  <title>CategoryCodeCOMT</title>
  <g>
    <path d="M13.673,5.266H11.294V8.539A1.343,1.343,0,0,1,9.953,9.881H5.72v1.2a.328.328,0,0,0,.327.327h5.735a.33.33,0,0,1,.25.115l1.392,1.637A.327.327,0,0,0,14,12.943V5.593A.327.327,0,0,0,13.673,5.266Z"/>
    <path d="M9.953,8.866a.327.327,0,0,0,.327-.327V3.057a.327.327,0,0,0-.327-.327H2.327A.326.326,0,0,0,2,3.057v7.349a.327.327,0,0,0,.33.328.318.318,0,0,0,.246-.116L3.968,8.981a.33.33,0,0,1,.25-.115Z"/>
  </g>
</svg>
