<?xml version="1.0" encoding="utf-8"?>
<!-- Generator: Adobe Illustrator 23.0.1, SVG Export Plug-In . SVG Version: 6.00 Build 0)  -->
<svg version="1.1" id="Layer_1" xmlns="http://www.w3.org/2000/svg" xmlns:xlink="http://www.w3.org/1999/xlink" x="0px" y="0px"
	 viewBox="0 0 30 30"  xml:space="preserve">
<g>
	<path id="Combined-Shape" d="M15,3.5c6.4,0,11.5,5.1,11.5,11.5S21.4,26.5,15,26.5S3.5,21.4,3.5,15S8.6,3.5,15,3.5z M20.4,7.4H9.3
		C8.7,8,8.2,8.6,7.8,9.3l4.4,0l-1.8,13.4c0.8,0.3,1.6,0.5,2.4,0.7l0.4-4l0.4-0.3h5.6l1.5-1.3l1.2-8.7C21.4,8.5,20.9,7.9,20.4,7.4z
		 M18.8,10l0.3,0.3l-0.8,5.9l-0.4,0.3h-4l-0.2-0.3l0.8-5.9l0.3-0.3H18.8z"/>
</g>
</svg>
