<svg id="Layer_1" data-name="Layer 1" xmlns="http://www.w3.org/2000/svg" width="16" height="16" viewBox="0 0 16 16">
  <title>CategoryCodeREL</title>
  <g>
    <path d="M9.313,8.449a.958.958,0,0,0,1.031.178.744.744,0,0,0,.426-.316L11.9,6.544a.744.744,0,0,0-1.254-.8l-.531.832-1.406-1.3a.959.959,0,0,0-1.474.208L5.152,8.931A.961.961,0,0,0,5.4,10.2l1.818,1.363H5.486a.96.96,0,0,0,0,1.92H10.1a.96.96,0,0,0,.576-1.728L7.6,9.424l.975-1.616Z"/>
    <circle cx="9.554" cy="3.864" r="1.342"/>
  </g>
</svg>
