<?xml version="1.0" encoding="utf-8"?>
<!-- Generator: Adobe Illustrator 21.1.0, SVG Export Plug-In . SVG Version: 6.00 Build 0)  -->
<svg version="1.1" id="Layer_1" xmlns="http://www.w3.org/2000/svg" xmlns:xlink="http://www.w3.org/1999/xlink" x="0px" y="0px"
	 viewBox="0 0 61.4 61.4" style="enable-background:new 0 0 61.4 61.4;" xml:space="preserve">
<path id="Path_806" style="fill:#FFFFFF;" d="M30.7,0C13.7,0,0,13.8,0,30.8s13.8,30.7,30.8,30.7c16.9,0,30.7-13.8,30.7-30.7
	C61.5,13.8,47.7,0,30.8,0C30.8,0,30.7,0,30.7,0z M52,18.4h-9.1c-1-3.8-2.4-7.5-4.3-10.9C44.3,9.4,49,13.3,52,18.4z M30.7,6.2
	c2.6,3.7,4.6,7.8,5.9,12.2H24.8C26.1,14.1,28.1,10,30.7,6.2z M6.9,36.9c-0.5-2-0.8-4.1-0.8-6.1c0-2.1,0.3-4.1,0.8-6.1h10.4
	c-0.3,2-0.4,4.1-0.4,6.1c0,2.1,0.2,4.1,0.4,6.1H6.9z M9.5,43h9.1c1,3.8,2.4,7.5,4.3,10.9C17.2,52,12.4,48.1,9.5,43L9.5,43z
	 M18.5,18.4H9.5c3-5.1,7.7-9,13.3-10.9C20.9,11,19.5,14.6,18.5,18.4z M30.7,55.2c-2.6-3.7-4.6-7.8-5.9-12.2h11.7
	C35.3,47.4,33.3,51.5,30.7,55.2z M37.9,36.9H23.5c-0.3-2-0.4-4.1-0.5-6.1c0-2.1,0.2-4.1,0.5-6.1h14.4c0.3,2,0.5,4.1,0.5,6.1
	C38.4,32.8,38.2,34.8,37.9,36.9L37.9,36.9z M38.7,53.9C40.6,50.5,42,46.8,43,43h9C49,48.1,44.3,52,38.7,53.9L38.7,53.9z M44.1,36.9
	c0.3-2,0.4-4.1,0.4-6.1c0-2.1-0.2-4.1-0.4-6.1h10.4c0.5,2,0.8,4.1,0.8,6.1c0,2.1-0.3,4.1-0.8,6.1H44.1z"/>
</svg>
