<?xml version="1.0" encoding="utf-8"?>
<!-- Generator: Adobe Illustrator 22.0.0, SVG Export Plug-In . SVG Version: 6.00 Build 0)  -->
<svg version="1.1" id="Layer_1" xmlns="http://www.w3.org/2000/svg" xmlns:xlink="http://www.w3.org/1999/xlink" x="0px" y="0px"
	 width="279px" height="44.78px" viewBox="0 0 279 44.78" enable-background="new 0 0 279 44.78" xml:space="preserve">
<g>
	<g>
		<path d="M7.99,20.33c0.64,0.98,0.96,2.37,0.96,4.16c0,1.69-0.37,3.06-1.11,4.1c-0.74,1.04-1.78,1.56-3.13,1.56
			c-1.2,0-2.14-0.41-2.83-1.23v5.12L0,34.25V19.1h1.62l0.14,1.45c0.4-0.55,0.87-0.97,1.43-1.26c0.56-0.29,1.15-0.44,1.76-0.44
			C6.33,18.86,7.34,19.35,7.99,20.33z M6.92,24.49c0-2.76-0.81-4.14-2.44-4.14c-0.53,0-1.02,0.16-1.45,0.47
			c-0.44,0.31-0.82,0.72-1.15,1.21v5.26c0.27,0.42,0.61,0.75,1.02,0.97c0.41,0.23,0.86,0.34,1.35,0.34
			C6.03,28.6,6.92,27.23,6.92,24.49z"/>
		<path d="M19.75,20.37c0.84,1.01,1.26,2.38,1.26,4.12c0,1.12-0.19,2.11-0.57,2.96c-0.38,0.85-0.94,1.52-1.66,1.99
			c-0.72,0.47-1.58,0.71-2.58,0.71c-1.52,0-2.7-0.5-3.54-1.52c-0.85-1.01-1.27-2.38-1.27-4.12c0-1.12,0.19-2.11,0.57-2.96
			c0.38-0.85,0.93-1.52,1.66-1.99c0.72-0.47,1.59-0.71,2.6-0.71C17.73,18.86,18.91,19.36,19.75,20.37z M13.41,24.51
			c0,2.74,0.93,4.12,2.78,4.12c1.86,0,2.78-1.38,2.78-4.14c0-2.74-0.92-4.12-2.76-4.12C14.35,20.37,13.41,21.75,13.41,24.51z"/>
		<path d="M36.45,19.1l-2.46,10.79h-2.56l-1.88-9.09l-1.95,9.09h-2.5L22.58,19.1h1.88l1.95,9.48l2.13-9.48h2.11l2.03,9.48l1.97-9.48
			H36.45z"/>
		<path d="M46.91,25.14h-6.88c0.08,1.19,0.38,2.06,0.9,2.62c0.52,0.56,1.19,0.84,2.01,0.84c0.52,0,1-0.07,1.43-0.23
			c0.44-0.15,0.89-0.39,1.37-0.72l0.82,1.13c-1.15,0.9-2.4,1.35-3.77,1.35c-1.5,0-2.67-0.49-3.51-1.47
			c-0.84-0.98-1.26-2.33-1.26-4.05c0-1.12,0.18-2.11,0.54-2.98c0.36-0.87,0.88-1.55,1.56-2.04c0.68-0.49,1.47-0.74,2.39-0.74
			c1.43,0,2.53,0.47,3.3,1.41c0.76,0.94,1.15,2.25,1.15,3.91C46.95,24.49,46.94,24.81,46.91,25.14z M45.09,23.63
			c0-1.06-0.21-1.88-0.63-2.44c-0.42-0.56-1.06-0.84-1.9-0.84c-1.54,0-2.38,1.13-2.52,3.4h5.06V23.63z"/>
		<path d="M55.71,18.98l-0.35,1.84c-0.33-0.08-0.64-0.12-0.94-0.12c-0.67,0-1.21,0.25-1.62,0.74c-0.41,0.49-0.73,1.26-0.96,2.29
			v6.16h-1.88V19.1h1.62l0.18,2.19c0.29-0.81,0.68-1.41,1.17-1.82c0.49-0.41,1.06-0.61,1.72-0.61
			C55.03,18.86,55.38,18.9,55.71,18.98z"/>
		<path d="M65.36,25.14h-6.88c0.08,1.19,0.38,2.06,0.9,2.62c0.52,0.56,1.19,0.84,2.01,0.84c0.52,0,1-0.07,1.43-0.23
			c0.44-0.15,0.89-0.39,1.37-0.72l0.82,1.13c-1.15,0.9-2.4,1.35-3.77,1.35c-1.5,0-2.67-0.49-3.51-1.47
			c-0.84-0.98-1.26-2.33-1.26-4.05c0-1.12,0.18-2.11,0.54-2.98c0.36-0.87,0.88-1.55,1.56-2.04c0.68-0.49,1.47-0.74,2.39-0.74
			c1.43,0,2.53,0.47,3.3,1.41c0.76,0.94,1.15,2.25,1.15,3.91C65.4,24.49,65.38,24.81,65.36,25.14z M63.53,23.63
			c0-1.06-0.21-1.88-0.63-2.44c-0.42-0.56-1.06-0.84-1.9-0.84c-1.54,0-2.38,1.13-2.52,3.4h5.06V23.63z"/>
		<path d="M76.76,14.76v15.13H75.1l-0.18-1.49c-0.36,0.55-0.8,0.97-1.33,1.28c-0.53,0.31-1.13,0.46-1.78,0.46
			c-1.28,0-2.28-0.5-3-1.52c-0.72-1.01-1.07-2.37-1.07-4.07c0-1.11,0.17-2.09,0.51-2.95c0.34-0.86,0.83-1.53,1.47-2.02
			c0.64-0.48,1.39-0.73,2.25-0.73c1.11,0,2.07,0.44,2.91,1.33v-5.65L76.76,14.76z M73.69,28.24c0.41-0.27,0.81-0.67,1.19-1.2v-5.28
			c-0.36-0.46-0.73-0.82-1.14-1.05c-0.4-0.24-0.86-0.36-1.36-0.36c-0.83,0-1.48,0.35-1.93,1.04c-0.46,0.7-0.69,1.73-0.69,3.11
			c0,1.39,0.21,2.43,0.63,3.11c0.42,0.68,1.03,1.02,1.82,1.02C72.79,28.64,73.28,28.51,73.69,28.24z"/>
		<path d="M93.94,20.34c0.72,0.99,1.09,2.37,1.09,4.15c0,1.12-0.17,2.11-0.51,2.96c-0.34,0.85-0.83,1.52-1.47,1.99
			c-0.64,0.47-1.39,0.71-2.25,0.71c-1.13,0-2.09-0.48-2.87-1.43l-0.18,1.19h-1.66V14.76l1.88-0.23v5.92c0.78-1.06,1.79-1.6,3.05-1.6
			C92.24,18.86,93.22,19.35,93.94,20.34z M92.29,27.63c0.47-0.68,0.71-1.72,0.71-3.14c0-1.46-0.22-2.51-0.66-3.16
			c-0.44-0.65-1.06-0.97-1.86-0.97c-0.96,0-1.8,0.56-2.52,1.68v5.16c0.29,0.45,0.64,0.81,1.05,1.06c0.42,0.26,0.86,0.39,1.32,0.39
			C91.17,28.64,91.82,28.3,92.29,27.63z"/>
		<path d="M102.48,29.95c-0.42,1.26-1.01,2.25-1.77,2.98c-0.76,0.73-1.84,1.17-3.25,1.32l-0.2-1.47c0.71-0.12,1.28-0.3,1.7-0.53
			c0.42-0.23,0.76-0.53,1.01-0.89c0.25-0.36,0.49-0.85,0.71-1.46h-0.63L96.42,19.1h2.01l2.89,9.42l2.83-9.42h1.95L102.48,29.95z"/>
	</g>
	<g id="Logo_2_">
		<g>
			<g id="Page-1_2_">
				<g id="Wordmark-Horizontal_2_">
					<g id="Logo-wordmark-HORIZ_2_" transform="translate(1.000000, 1.000000)">
						<g id="Wordmark_2_" transform="translate(206.000000, 68.000000)">
							<g id="Fill-10_2_">
								<g>
									<g>
										<path d="M-30.25-45.51c0-3.83,1.25-6.91,3.76-9.25c2.52-2.33,5.86-3.5,10.01-3.5c1.7,0,3.28,0.23,4.74,0.69
											c1.48,0.45,2.77,1.1,3.89,1.96c1.62,1.25,2.87,2.74,3.73,4.5c0.86,1.75,1.29,3.66,1.29,5.71c0,3.87-1.3,7.04-3.91,9.52
											c-2.59,2.47-5.94,3.7-10.05,3.7c-4.06,0-7.32-1.22-9.78-3.66C-29.02-38.29-30.25-41.51-30.25-45.51L-30.25-45.51z
											 M-16.51-55.46c-1.94,0-3.48,0.94-4.63,2.83c-1.14,1.89-1.71,4.44-1.71,7.67c0,3.03,0.59,5.49,1.78,7.36
											c1.2,1.87,2.73,2.81,4.6,2.81s3.37-0.95,4.51-2.86c1.14-1.91,1.71-4.48,1.71-7.71c0-3.07-0.58-5.52-1.73-7.34
											C-13.12-54.54-14.63-55.46-16.51-55.46L-16.51-55.46z M-0.03-45.51c0-3.83,1.25-6.91,3.76-9.25
											c2.52-2.33,5.86-3.5,10.01-3.5c1.7,0,3.28,0.23,4.74,0.69c1.48,0.45,2.77,1.1,3.89,1.96c1.62,1.25,2.87,2.74,3.73,4.5
											c0.86,1.75,1.29,3.66,1.29,5.71c0,3.87-1.3,7.04-3.91,9.52c-2.59,2.47-5.94,3.7-10.05,3.7c-4.06,0-7.32-1.22-9.78-3.66
											C1.2-38.29-0.03-41.51-0.03-45.51L-0.03-45.51z M13.71-55.46c-1.94,0-3.48,0.94-4.63,2.83c-1.14,1.89-1.71,4.44-1.71,7.67
											c0,3.03,0.59,5.49,1.78,7.36c1.2,1.87,2.73,2.81,4.6,2.81s3.37-0.95,4.51-2.86c1.14-1.91,1.71-4.48,1.71-7.71
											c0-3.07-0.58-5.52-1.73-7.34C17.1-54.54,15.59-55.46,13.71-55.46L13.71-55.46z M29.59-32.82v-2.08l2.27-0.22l0.71-0.71
											v-19.05l-0.49-0.54l-2.49-0.27v-2.03h10.51v1l10.67,16.52v-14.5l-0.65-0.71l-2.44-0.27v-2.03h9.43v2.03l-2.2,0.27
											l-0.71,0.71v21.9h-5.92L35.95-51.74v15.92l0.53,0.71l2.49,0.22v2.08L29.59-32.82L29.59-32.82z M58.71-32.82v-2.16
											l2.69-0.15l0.58-0.71v-19.05l-0.58-0.54l-2.69-0.14v-2.16H72v2.16l-2.75,0.14l-0.6,0.54v19.05l0.6,0.71L72-34.97v2.16
											H58.71z"/>
									</g>
								</g>
							</g>
						</g>
					</g>
				</g>
			</g>
		</g>
		<g>
			<g>
				<g>
					<path fill="#8DD8F8" d="M142.55,0c12.36,0,22.39,10.02,22.39,22.39s-10.02,22.39-22.39,22.39c-12.36,0-22.39-10.02-22.39-22.39
						S130.19,0,142.55,0"/>
				</g>
			</g>
		</g>
		<g>
			<g>
				<g>
					<path fill="#0588CB" d="M136.46,17.29c1.57,1.54,1.93,2.96,1.28,4.25c-0.7,1.39-2.31,2.14-4.95,2.17
						c-2.28,0.02-2.89-1.11-3.36-1.76c-0.89-1.25-0.43-2.76,0.4-3.73c1.01-1.18,1.76-1.28,2.58-0.84c0.44,0.24,1.09,0.79,1.1,1.8
						c0.01,0.6-0.4,1.53-0.4,1.65s0.1,0.19,0.2,0.15c0.1-0.04,0.93-0.48,1.4-1.08c0.42-0.54,0.87-2.48,0.78-2.73
						c-0.09-0.25-0.72-0.77-0.77-1.05c-0.03-0.17-0.05-0.38-0.12-0.55c-0.05-0.12-0.2-0.23-0.28-0.29c-0.19-0.15-0.69,0.04-0.9-0.22
						c-0.18-0.22-0.25-0.68-0.48-0.74c-0.11-0.03-0.31-0.07-0.5-0.03c-0.27,0.06-0.47,0.22-0.68,0.19c-0.29-0.03-0.54-0.5-0.94-0.47
						c-0.39,0.03-0.9,0.71-1.44,1.29c-0.54,0.59-1.51,1.33-2.19,2.53c-0.49,0.87-0.9,1.9-0.69,3.35c0.21,1.45,0.56,2.43,1.73,3.5
						c1.2,1.1,2.17,1.42,2.89,1.67c0.72,0.25,1.22,0.48,2,0.51c0.27,0.01,0.84,0.03,1.03,0.01c0.48-0.05,0.38-0.26,0.83-0.34
						c1.74-0.29,2.98-1.2,3.73-1.96c0.19-0.2,0.69-0.73,0.79-0.82c0.02,0.13,0.03,0.56,0.02,0.67c-0.1,0.76-0.58,1.19-1.35,1.6
						c-1.09,0.58-2.67,1.44-3.76,2.2c-1,0.7-1.89,1.39-2.2,2.51c-0.31,1.12-0.25,1.77,0.09,2.54c0.31,0.71,0.88,1.46,1.84,2.01
						c0.79,0.46,1.48,0.86,2.24,1.25c0.52,0.27,1.44,0.73,1.36,1.68c-0.08,0.97-0.71,1.48-1.14,1.67c-0.73,0.32-1.73,0.4-1.78,0.44
						c-0.08,0.06,0.87,0.86,1.6,0.86c0.79-0.01,1.08-0.06,1.81-0.32c0.64-0.22,0.92-0.78,1.02-0.81c0.1-0.02,0.26-0.01,0.39-0.11
						c0.14-0.1,0.57-0.43,0.62-0.63c0.05-0.2,0.06-0.53,0.11-0.71c0.05-0.18,0.26-0.77,0.27-1.1c0.01-0.32,0.09-1.06-0.19-1.48
						c-0.24-0.35-0.11-0.54-0.31-0.72c-0.03-0.03-0.2-0.25-0.35-0.31c-0.2-0.07-0.3-0.01-0.44-0.09c-0.23-0.13-0.5-0.98-0.83-1
						c-0.12-0.01-0.26,0-0.38,0.03c-0.27,0.07-1.45,0.1-1.66,0.01c-0.33-0.13-1.4-0.81-1.31-1.8c0.08-0.85,0.68-1.42,1.5-1.72
						c0.73-0.27,0.99-0.24,1.49-0.48c0.49-0.24,0.84-0.53,1.21-0.73c0.37-0.2,0.88-0.43,1.26-0.76c0.22-0.18,0.44-0.39,0.65-0.65
						c0.18-0.22,0.52-0.83,0.88-1.13c0.5,0.76,0.98,1.43,1.34,1.84c0.91,1.05,2.15,1.7,2.73,2.06c0.58,0.36,1.92,1.36,2.49,2.16
						c0.61,0.86,0.33,2.03-0.01,2.48c-0.29,0.39-0.96,0.89-1.87,0.87c-0.98-0.02-1.91-0.42-2.49-1.16
						c-0.57-0.74-0.79-2.12-0.31-2.49c0.52-0.39,1.04-0.21,1.36-0.17c0.25,0.03,0.49-0.1,0.54-0.31c0.04-0.21-0.03-0.46-0.31-0.68
						c-0.15-0.12-0.42-0.31-0.8-0.3c-0.21,0-0.6,0.1-1.13,0.08c-0.56-0.02-1.12,0.04-1.62,0.51c-0.42,0.39-0.66,0.69-0.81,1.18
						c-0.06,0.18,0.01,0.58-0.01,0.82c-0.02,0.24-0.12,0.42-0.12,0.61c0,0.27,0.04,0.61,0.1,0.93c0.07,0.36,0.2,0.78,0.36,1.15
						c0.07,0.15,0.12,0.36,0.21,0.45c0.1,0.11,0.3,0.23,0.49,0.41c0.36,0.35,0.77,0.8,1.1,0.93c0.41,0.16,1.23-0.12,1.45-0.05
						c0.23,0.07,0.52,0.43,0.87,0.42c0.35-0.01,2.52-0.11,3.26-0.41c0.93-0.37,2.54-1.4,2.86-2.82c0.39-1.76-0.35-2.96-1.09-3.84
						c-0.92-1.09-2.63-2.49-3.93-3.42c-0.74-0.53-1.02-0.94-1.31-1.42c-0.22-0.37-0.45-0.99-0.33-1.56c0.53,0.28,1.3,1.15,1.52,1.43
						c0.29,0.36,0.65,0.58,0.94,0.72c0.25,0.12,0.56,0.05,0.8,0.09c0.24,0.04,0.07,0.24,0.49,0.38c0.43,0.15,2.31,0.49,2.76,0.48
						c0.19-0.01,0.43-0.15,0.73-0.24c0.28-0.09,0.76-0.13,2.09-0.65c1.83-0.71,2.59-1.88,3.21-3.27c0.62-1.39,0.2-3.17-0.16-3.98
						s-1.07-1.88-1.79-2.99c-0.73-1.11-1.64-2.25-1.23-4.52c0.41-2.28,2.15-2.98,2.39-3.4c0.2-0.34-0.39-0.67-0.54-0.74
						c-0.18-0.08-0.37-0.15-0.84-0.17c-0.03,0-0.06,0-0.08,0c-0.41,0.01-0.63,0.27-0.8,0.33c-0.18,0.06-0.99,0.01-1.1,0.04
						c-0.12,0.03-0.34,0.28-0.38,0.35c-0.08,0.12-0.02,0.14-0.13,0.38c-0.11,0.24-0.93,0.92-1.15,1.34
						c-0.12,0.23,0.01,0.7-0.13,1.01c-0.15,0.31-0.58,0.3-0.67,0.64c-0.07,0.25,0.06,1.06-0.05,1.45c-0.11,0.41-0.35,0.22-0.37,0.64
						c-0.02,0.59,1.02,1.52,1.19,1.79c0.18,0.27,0.25,0.43,0.47,0.92c0.24,0.55,0.57,0.89,0.82,1.17c0.25,0.28,0.93,0.71,1.1,1.01
						c0.1,0.17-0.01,0.49,0.06,0.69c0.06,0.2,0.24,0.37,0.52,0.78c0.28,0.4,0.19,1.46-0.07,2.1c-0.25,0.64-0.94,1.48-2.13,1.81
						c-1.18,0.33-4.15,0.06-5.34-3.06c-0.55-1.43-0.3-3.11,0.98-4.43c1.28-1.32,2.23-3.34,2.23-5.44c0-4.46-3.79-8.08-8.32-8.08
						c-4.53,0-8.2,3.62-8.2,8.08C134.02,13.7,134.89,15.76,136.46,17.29z"/>
				</g>
			</g>
		</g>
		<g>
			<g>
				<g>
					<path fill="#FFFFFF" d="M140.99,8.22c2.22,0,4.02,1.8,4.02,4.02c0,2.22-1.8,4.02-4.02,4.02s-4.02-1.8-4.02-4.02
						S138.77,8.22,140.99,8.22"/>
				</g>
			</g>
		</g>
		<g>
			<g>
				<g>
					<path fill="#0588CB" d="M140.46,11.89c0.51,0,0.92,0.41,0.92,0.92c0,0.51-0.41,0.92-0.92,0.92c-0.51,0-0.92-0.41-0.92-0.92
						C139.55,12.3,139.96,11.89,140.46,11.89"/>
				</g>
			</g>
		</g>
	</g>
</g>
</svg>
