<svg id="Layer_1" data-name="Layer 1" xmlns="http://www.w3.org/2000/svg" width="800" height="400" viewBox="0 0 800 400">
  <title>minimum-spacing</title>
  <g>
    <path d="M271.6,77.7v251H68V77.7H271.6m6.5-6.6H61.5v264H278.1V71.1Z" style="fill: #f2f2f2"/>
    <g>
      <path d="M169.8,108.6a70.9,70.9,0,1,1-70.9,70.9,70.845,70.845,0,0,1,70.9-70.9" style="fill: #8dd7f7"/>
      <path d="M150.5,163.3c5,4.9,6.1,9.4,4.1,13.5-2.2,4.4-7.3,6.8-15.7,6.9-7.2.1-9.2-3.5-10.6-5.6-2.8-3.9-1.4-8.7,1.3-11.8,3.2-3.7,5.6-4.1,8.2-2.7a6.436,6.436,0,0,1,3.5,5.7c0,1.9-1.3,4.8-1.3,5.2a.46.46,0,0,0,.6.5,13.934,13.934,0,0,0,4.4-3.4c1.3-1.7,2.7-7.9,2.5-8.7-.3-.8-2.3-2.4-2.4-3.3a5.257,5.257,0,0,0-.4-1.7,2.581,2.581,0,0,0-.9-.9c-.6-.5-2.2.1-2.8-.7-.6-.7-.8-2.2-1.5-2.3a3.9,3.9,0,0,0-1.6-.1c-.9.2-1.5.7-2.2.6-.9-.1-1.7-1.6-3-1.5-1.2.1-2.8,2.2-4.6,4.1-1.7,1.9-4.8,4.2-6.9,8a15.717,15.717,0,0,0-2.2,10.6c.7,4.6,1.8,7.7,5.5,11.1a23.115,23.115,0,0,0,9.2,5.3,20.161,20.161,0,0,0,6.3,1.6c.9,0,2.7.1,3.3,0,1.5-.2,1.2-.8,2.6-1.1a21.633,21.633,0,0,0,11.8-6.2c.6-.6,2.2-2.3,2.5-2.6a7.378,7.378,0,0,1,0,2.1c-.3,2.4-1.8,3.8-4.3,5.1a97.245,97.245,0,0,0-11.9,7c-3.2,2.2-6,4.4-7,7.9s-.8,5.6.3,8a14.421,14.421,0,0,0,5.8,6.4c2.5,1.4,4.7,2.7,7.1,4,1.7.9,4.6,2.3,4.3,5.3a6.384,6.384,0,0,1-3.6,5.3,29.73,29.73,0,0,1-5.6,1.4c-.2.2,2.8,2.7,5.1,2.7a13.725,13.725,0,0,0,5.7-1c2-.7,2.9-2.5,3.2-2.5.3-.1.8,0,1.2-.3s1.8-1.4,2-2,.2-1.7.4-2.2a19.529,19.529,0,0,0,.9-3.5c0-1,.3-3.4-.6-4.7-.8-1.1-.4-1.7-1-2.3a3.689,3.689,0,0,0-1.1-1c-.6-.2-1,0-1.4-.3-.7-.4-1.6-3.1-2.6-3.2a4.869,4.869,0,0,0-1.2.1,18.806,18.806,0,0,1-5.3,0c-1-.4-4.4-2.6-4.1-5.7.2-2.7,2.2-4.5,4.8-5.5,2.3-.8,3.1-.8,4.7-1.5s2.6-1.7,3.8-2.3a21.188,21.188,0,0,0,4-2.4,10.074,10.074,0,0,0,2-2.1c.6-.7,1.6-2.6,2.8-3.6a70.118,70.118,0,0,0,4.2,5.8c2.9,3.3,6.8,5.4,8.7,6.5,1.8,1.2,6.1,4.3,7.9,6.9a6.623,6.623,0,0,1-5.9,10.5,10.121,10.121,0,0,1-7.9-3.7c-1.8-2.3-2.5-6.7-1-7.9a4.92,4.92,0,0,1,4.3-.5,1.432,1.432,0,0,0,1.7-1,2.134,2.134,0,0,0-1-2.1,3.876,3.876,0,0,0-2.5-1c-.7,0-1.9.3-3.6.3a6.291,6.291,0,0,0-5.1,1.6,8.387,8.387,0,0,0-2.6,3.7,11.267,11.267,0,0,0,0,2.6c-.1.8-.4,1.3-.4,1.9a16.9,16.9,0,0,0,.3,3,12.712,12.712,0,0,0,1.2,3.6,4.58,4.58,0,0,0,.7,1.4c.3.4,1,.7,1.6,1.3,1.1,1.1,2.4,2.5,3.5,2.9,1.3.5,3.9-.4,4.6-.1.7.2,1.7,1.4,2.8,1.3,1.1,0,8-.4,10.3-1.3,3-1.2,8.1-4.4,9.1-8.9,1.2-5.6-1.1-9.4-3.5-12.2a74.224,74.224,0,0,0-12.5-10.8,14.155,14.155,0,0,1-4.2-4.5,7.779,7.779,0,0,1-1.1-4.9,21.082,21.082,0,0,1,4.8,4.5,10.041,10.041,0,0,0,3,2.3,7.432,7.432,0,0,0,2.5.3c.8.1.2.8,1.6,1.2a42.826,42.826,0,0,0,8.7,1.5,10.584,10.584,0,0,0,2.3-.8,40.866,40.866,0,0,0,6.6-2.1c5.8-2.3,8.2-5.9,10.2-10.4,2-4.4.6-10-.5-12.6s-3.4-5.9-5.7-9.5c-2.3-3.5-5.2-7.1-3.9-14.3s6.8-9.4,7.6-10.8c.6-1.1-1.2-2.1-1.7-2.4a5.291,5.291,0,0,0-2.7-.5h-.3c-1.3,0-2,.9-2.5,1-.6.2-3.1,0-3.5.1a3.232,3.232,0,0,0-1.2,1.1c-.3.4-.1.5-.4,1.2-.4.8-2.9,2.9-3.6,4.3-.4.7,0,2.2-.4,3.2-.5,1-1.8.9-2.1,2-.2.8.2,3.4-.2,4.6-.4,1.3-1.1.7-1.2,2-.1,1.9,3.2,4.8,3.8,5.7a18.719,18.719,0,0,1,1.5,2.9,14.734,14.734,0,0,0,2.6,3.7c.8.9,2.9,2.2,3.5,3.2.3.5,0,1.5.2,2.2a21.744,21.744,0,0,0,1.6,2.5c.9,1.3.6,4.6-.2,6.6a10.106,10.106,0,0,1-6.7,5.7,14.762,14.762,0,0,1-16.9-9.7,13.167,13.167,0,0,1,3.1-14,25.866,25.866,0,0,0,7.1-17.2c0-14.1-12-25.6-26.3-25.6a25.865,25.865,0,0,0-26,25.6A24.673,24.673,0,0,0,150.5,163.3Z" style="fill: #0f87c9"/>
      <path d="M164.8,134.6a12.7,12.7,0,1,1-12.7,12.7,12.718,12.718,0,0,1,12.7-12.7" style="fill: #fff"/>
      <path d="M163.2,146.2a2.9,2.9,0,1,1-2.9,2.9,2.9,2.9,0,0,1,2.9-2.9" style="fill: #0f87c9"/>
      <path d="M216.6,297.8v-2.7l3.3-.2.7-.9V270.4l-.7-.7-3.3-.2v-2.7H233v2.7l-3.4.2-.7.7V294l.7.9,3.4.2v2.7Zm-36,0v-2.6l2.8-.3.9-.9V270.4l-.6-.7-3.1-.3v-2.5h13v1.2l13.2,20.5v-18l-.8-.9-3-.3v-2.5h11.7v2.5l-2.7.3-.9.9v27.2h-7.3l-15.2-23.5V294l.7.9,3.1.3v2.6Zm-19.7-28.1a6.463,6.463,0,0,0-5.7,3.5c-1.4,2.3-2.1,5.5-2.1,9.5,0,3.8.7,6.8,2.2,9.1s3.4,3.5,5.7,3.5,4.2-1.2,5.6-3.6,2.1-5.6,2.1-9.6a17.267,17.267,0,0,0-2.1-9.1,6.575,6.575,0,0,0-5.7-3.3m-17,12.3a14.993,14.993,0,0,1,4.7-11.5c3.1-2.9,7.2-4.3,12.4-4.3a18.707,18.707,0,0,1,5.9.9,17.978,17.978,0,0,1,4.8,2.4,16.47,16.47,0,0,1,1.4,24.5c-3.2,3.1-7.4,4.6-12.4,4.6s-9.1-1.5-12.1-4.5c-3.2-3.1-4.7-7.1-4.7-12.1m-20.4-12.3a6.463,6.463,0,0,0-5.7,3.5c-1.4,2.3-2.1,5.5-2.1,9.5,0,3.8.7,6.8,2.2,9.1s3.4,3.5,5.7,3.5,4.2-1.2,5.6-3.6,2.1-5.6,2.1-9.6a17.267,17.267,0,0,0-2.1-9.1,6.575,6.575,0,0,0-5.7-3.3m-17,12.3a14.993,14.993,0,0,1,4.7-11.5c3.1-2.9,7.2-4.3,12.4-4.3a18.707,18.707,0,0,1,5.9.9,17.978,17.978,0,0,1,4.8,2.4,16.47,16.47,0,0,1,1.4,24.5c-3.2,3.1-7.4,4.6-12.4,4.6s-9.1-1.5-12.1-4.5a16.35,16.35,0,0,1-4.7-12.1"/>
    </g>
    <path d="M216.6,328.7V326l3.3-.2.7-.9V301.3l-.7-.7-3.3-.2v-2.7H233v2.7l-3.4.2-.7.7v23.6l.7.9,3.4.2v2.7Z" style="fill: #e6e6e6"/>
    <path d="M169.1,108.6v-2.7l3.3-.2.7-.9V81.2l-.7-.7-3.3-.2V77.6h16.4v2.7l-3.4.2-.7.7v23.6l.7.9,3.4.2v2.7Z" style="fill: #e6e6e6"/>
    <path d="M68,171.2h2.7l.2,3.3.9.7H95.4l.7-.7.2-3.3H99v16.4H96.3l-.2-3.4-.7-.7H71.7l-.9.7-.2,3.4H68Z" style="fill: #e6e6e6"/>
    <path d="M240.7,171.2h2.7l.2,3.3.9.7h23.6l.7-.7.2-3.3h2.7v16.4H269l-.2-3.4-.7-.7H244.5l-.9.7-.2,3.4h-2.7V171.2Z" style="fill: #e6e6e6"/>
  </g>
  <g>
    <path d="M732.5,120.8V285.5H369.2V120.8H732.5m6.5-6.5H362.7V292H738.9V114.3Z" style="fill: #f2f2f2"/>
    <g id="Page-1">
      <g id="Wordmark-Horizontal">
        <g id="Logo-wordmark-HORIZ">
          <g id="OONI-Logo">
            <g id="Group-3">
              <path id="Fill-1" d="M451.7,164.231a39,39,0,1,1-39.1,39,39.008,39.008,0,0,1,39.1-39" style="fill: #8dd7f7"/>
            </g>
            <path id="Fill-4" d="M441.1,194.3c2.7,2.7,3.4,5.2,2.2,7.4-1.2,2.4-4,3.7-8.7,3.8-4,0-5.1-1.9-5.9-3.1-1.5-2.2-.7-4.8.7-6.5,1.8-2.1,3.1-2.2,4.5-1.5a3.436,3.436,0,0,1,1.9,3.1,15.238,15.238,0,0,1-.7,2.9.319.319,0,0,0,.3.3,7.134,7.134,0,0,0,2.4-1.9,12.723,12.723,0,0,0,1.4-4.8c-.2-.4-1.3-1.3-1.3-1.8a3.553,3.553,0,0,0-.2-1,1.205,1.205,0,0,0-.5-.5c-.3-.3-1.2.1-1.6-.4-.3-.4-.4-1.2-.8-1.3-.2,0-.5-.1-.9-.1-.5.1-.8.4-1.2.3-.5-.1-1-.9-1.6-.8-.7.1-1.6,1.2-2.5,2.3a19.652,19.652,0,0,0-3.8,4.4,8.14,8.14,0,0,0-1.2,5.8,9.374,9.374,0,0,0,3,6.1,12.385,12.385,0,0,0,5.1,2.9,13.859,13.859,0,0,0,3.5.9H437c.8-.1.7-.5,1.4-.6a12.11,12.11,0,0,0,6.5-3.4,18.373,18.373,0,0,1,1.4-1.4,4.819,4.819,0,0,1,0,1.2,3.714,3.714,0,0,1-2.4,2.8,74.4,74.4,0,0,0-6.6,3.8c-1.8,1.2-3.3,2.4-3.8,4.4a5.867,5.867,0,0,0,.2,4.4,7.46,7.46,0,0,0,3.2,3.5c1.4.8,2.6,1.5,3.9,2.2.9.5,2.5,1.3,2.4,2.9a3.209,3.209,0,0,1-2,2.9,16.9,16.9,0,0,1-3.1.8,4.3,4.3,0,0,0,2.8,1.5,7.026,7.026,0,0,0,3.2-.6c1.1-.4,1.6-1.4,1.8-1.4a1.078,1.078,0,0,0,.7-.2c.2-.2,1-.8,1.1-1.1s.1-.9.2-1.2a7.392,7.392,0,0,0,.5-1.9,4.883,4.883,0,0,0-.3-2.6c-.4-.6-.2-.9-.5-1.3a3.171,3.171,0,0,0-.6-.5c-.3-.1-.5,0-.8-.2-.4-.2-.9-1.7-1.4-1.7h-.7a9.4,9.4,0,0,1-2.9,0c-.6-.2-2.4-1.4-2.3-3.1a3.515,3.515,0,0,1,2.6-3c1.3-.5,1.7-.4,2.6-.8a12.83,12.83,0,0,0,2.1-1.3,12.662,12.662,0,0,0,2.2-1.3,5.731,5.731,0,0,0,1.1-1.1,17.2,17.2,0,0,1,1.5-2c.9,1.3,1.7,2.5,2.3,3.2a19.668,19.668,0,0,0,4.8,3.6,18.337,18.337,0,0,1,4.3,3.8,3.9,3.9,0,0,1,0,4.3,4.136,4.136,0,0,1-3.3,1.5,5.362,5.362,0,0,1-4.3-2c-1-1.3-1.4-3.7-.5-4.3a2.684,2.684,0,0,1,2.4-.3c.4.1.9-.2.9-.5a1.106,1.106,0,0,0-.5-1.2,2.289,2.289,0,0,0-1.4-.5,9.812,9.812,0,0,1-2,.1,3.783,3.783,0,0,0-2.8.9,4.326,4.326,0,0,0-1.4,2,6.533,6.533,0,0,0,0,1.4c0,.4-.2.7-.2,1.1a8.752,8.752,0,0,0,.2,1.6,15.19,15.19,0,0,0,.6,2,2.01,2.01,0,0,0,.4.8,9.685,9.685,0,0,0,.9.7,6.739,6.739,0,0,0,1.9,1.6c.7.3,2.1-.2,2.5-.1s.9.7,1.5.7a26.569,26.569,0,0,0,5.7-.7c1.6-.6,4.4-2.4,5-4.9a7.222,7.222,0,0,0-1.9-6.7,45.736,45.736,0,0,0-6.9-6,6.554,6.554,0,0,1-2.3-2.5,3.9,3.9,0,0,1-.6-2.7,13.276,13.276,0,0,1,2.7,2.5,4.194,4.194,0,0,0,1.6,1.2,6.753,6.753,0,0,0,1.4.2c.4.1.1.4.9.7a19.282,19.282,0,0,0,4.8.8c.3,0,.8-.3,1.3-.4a32.466,32.466,0,0,0,3.7-1.1c3.2-1.2,4.5-3.3,5.6-5.7s.3-5.5-.3-6.9a46.765,46.765,0,0,0-3.1-5.2c-1.2-1.9-2.9-3.9-2.2-7.9s3.7-5.2,4.2-5.9c.3-.6-.7-1.2-.9-1.3a3.382,3.382,0,0,0-1.5-.3h-.1c-.7,0-1.1.5-1.4.6s-1.7,0-1.9.1c-.2,0-.6.5-.7.6-.1.2,0,.3-.2.7s-1.6,1.6-2,2.3c-.2.4,0,1.2-.2,1.8-.3.5-1,.5-1.2,1.1a23.551,23.551,0,0,1-.1,2.5c-.2.7-.6.4-.6,1.1,0,1,1.8,2.7,2.1,3.1a11.6,11.6,0,0,1,.8,1.6,5.71,5.71,0,0,0,1.4,2c.4.5,1.6,1.2,1.9,1.8.2.3,0,.8.1,1.2a12.834,12.834,0,0,0,.9,1.4c.5.7.3,2.5-.1,3.6a5.772,5.772,0,0,1-3.7,3.2,8.064,8.064,0,0,1-9.3-5.3,7.125,7.125,0,0,1,1.7-7.7,14.162,14.162,0,0,0,3.9-9.5,14.365,14.365,0,0,0-14.5-14.1A14.191,14.191,0,0,0,437,184.3,12.93,12.93,0,0,0,441.1,194.3Z" style="fill: #0f87c9"/>
            <path id="Fill-6" d="M449,178.5a7,7,0,1,1-7,7,6.957,6.957,0,0,1,7-7" style="fill: #fff"/>
            <path id="Fill-8" d="M448.1,184.9a1.6,1.6,0,1,1-1.6,1.6,1.58,1.58,0,0,1,1.6-1.6" style="fill: #0f87c9"/>
          </g>
          <g id="Wordmark">
            <path id="Fill-10" d="M511.1,205.1c0-6.7,2.2-12,6.5-16.1,4.4-4.1,10.2-6.1,17.4-6.1a27.755,27.755,0,0,1,8.3,1.2,21.7,21.7,0,0,1,6.8,3.4,23.022,23.022,0,0,1,6.5,7.8,22.394,22.394,0,0,1,2.2,9.9,22.083,22.083,0,0,1-6.8,16.6c-4.5,4.3-10.3,6.4-17.5,6.4-7.1,0-12.7-2.1-17-6.4-4.2-4.1-6.4-9.8-6.4-16.7ZM535,187.8c-3.4,0-6.1,1.6-8.1,4.9s-3,7.7-3,13.3c0,5.3,1,9.6,3.1,12.8,2.1,3.3,4.8,4.9,8,4.9s5.9-1.7,7.8-5c2-3.3,3-7.8,3-13.4,0-5.3-1-9.6-3-12.8-1.9-3.1-4.5-4.7-7.8-4.7Zm28.7,17.3c0-6.7,2.2-12,6.5-16.1,4.4-4.1,10.2-6.1,17.4-6.1a27.755,27.755,0,0,1,8.3,1.2,21.7,21.7,0,0,1,6.8,3.4,23.022,23.022,0,0,1,6.5,7.8,22.394,22.394,0,0,1,2.2,9.9,22.083,22.083,0,0,1-6.8,16.6c-4.5,4.3-10.3,6.4-17.5,6.4-7.1,0-12.7-2.1-17-6.4-4.2-4.1-6.4-9.8-6.4-16.7Zm23.9-17.3c-3.4,0-6.1,1.6-8.1,4.9s-3,7.7-3,13.3c0,5.3,1,9.6,3.1,12.8,2.1,3.3,4.8,4.9,8,4.9s5.9-1.7,7.8-5c2-3.3,3-7.8,3-13.4,0-5.3-1-9.6-3-12.8-1.9-3.1-4.5-4.7-7.8-4.7Zm27.7,39.4v-3.6l4-.4,1.2-1.2V188.8l-.9-.9-4.3-.5v-3.5h18.3v1.7l18.6,28.8V189l-1.1-1.2-4.2-.5v-3.5h16.4v3.5l-3.8.5-1.2,1.2v38.1H648l-21.5-32.9v27.7l.9,1.2,4.3.4v3.6H615.3Zm50.7,0v-3.8l4.7-.3,1-1.2V188.7l-1-.9-4.7-.3v-3.8h23.1v3.8l-4.8.3-1,.9v33.2l1,1.2,4.8.3v3.8Z"/>
          </g>
        </g>
      </g>
    </g>
    <polygon points="439.6 285.5 439.6 281.7 444.3 281.5 445.3 280.3 445.3 247.1 444.3 246.1 439.6 245.9 439.6 242.1 462.8 242.1 462.8 245.9 458 246.1 457 247.1 457 280.3 458 281.5 462.8 281.7 462.8 285.5 439.6 285.5" style="fill: #e6e6e6"/>
    <polygon points="439.6 164.2 439.6 160.4 444.3 160.2 445.3 158.9 445.3 125.8 444.3 124.8 439.6 124.6 439.6 120.8 462.8 120.8 462.8 124.6 458 124.8 457 125.8 457 158.9 458 160.2 462.8 160.4 462.8 164.2 439.6 164.2" style="fill: #e6e6e6"/>
    <polygon points="369.2 182.9 373 182.9 373.2 187.6 374.5 188.6 407.6 188.6 408.6 187.6 408.8 182.9 412.6 182.9 412.6 206 408.8 206 408.6 201.2 407.6 200.2 374.5 200.2 373.2 201.2 373 206 369.2 206 369.2 182.9" style="fill: #e6e6e6"/>
    <polygon points="689.1 182.9 692.9 182.9 693.1 187.6 694.3 188.6 727.5 188.6 728.5 187.6 728.7 182.9 732.5 182.9 732.5 206 728.7 206 728.5 201.2 727.5 200.2 694.3 200.2 693.1 201.2 692.9 206 689.1 206 689.1 182.9" style="fill: #e6e6e6"/>
  </g>
</svg>
