<svg id="Layer_1" data-name="Layer 1" xmlns="http://www.w3.org/2000/svg" width="16" height="16" viewBox="0 0 16 16">
  <title>Anonymization</title>
  <g>
    <path d="M8,3a7.66,7.66,0,0,1-2.06-.29.3.3,0,0,0-.38.21L5,5.31a.3.3,0,0,0,.29.37h5.42A.3.3,0,0,0,11,5.31l-.56-2.39a.3.3,0,0,0-.38-.21A7.66,7.66,0,0,1,8,3Z"/>
    <path d="M4.44,6.4A7,7,0,0,0,2.88,7.61.19.19,0,0,0,3,7.94H13a.19.19,0,0,0,.14-.33A7.06,7.06,0,0,0,11.55,6.4h-.06c-.48,0-6.52,0-7,0Z"/>
    <path d="M4.91,8.73A1.32,1.32,0,0,0,6.35,10c.79,0,1.43-1.12,1.43-1.12A.4.4,0,0,1,8,8.82a.43.43,0,0,1,.22.07S8.86,10,9.65,10a1.32,1.32,0,0,0,1.44-1.28,1.53,1.53,0,0,0,0-.3H4.94A1.53,1.53,0,0,0,4.91,8.73Z"/>
    <path d="M6.86,13.31H3.44a.1.1,0,0,1,0-.19l1.08-.64a.1.1,0,0,0,0-.17,10.8,10.8,0,0,0-2.74-1.06.1.1,0,0,1,0-.17A6.27,6.27,0,0,1,4.84,9.59.1.1,0,0,1,5,9.68a5.34,5.34,0,0,0,2,3.44A.11.11,0,0,1,6.86,13.31Z"/>
    <path d="M9.14,13.31h3.42a.1.1,0,0,0,0-.19l-1.08-.64a.1.1,0,0,1,0-.17,10.8,10.8,0,0,1,2.74-1.06.1.1,0,0,0,0-.17,6.27,6.27,0,0,0-3.14-1.49.1.1,0,0,0-.12.09,5.34,5.34,0,0,1-2,3.44A.11.11,0,0,0,9.14,13.31Z"/>
  </g>
</svg>
