<svg id="Layer_1" data-name="Layer 1" xmlns="http://www.w3.org/2000/svg" width="16" height="16" viewBox="0 0 16 16">
  <title>ControlContent</title>
  <g>
    <path d="M5,3.88V3A.74.74,0,1,0,3.55,3v.9a2.6,2.6,0,0,1,.74-.12A2.55,2.55,0,0,1,5,3.88Z"/>
    <path d="M4.29,8.46a2.6,2.6,0,0,1-.74-.12V13A.74.74,0,1,0,5,13V8.34A2.55,2.55,0,0,1,4.29,8.46Z"/>
    <path d="M7.26,11.67V13a.74.74,0,1,0,1.48,0V11.67a2.34,2.34,0,0,1-1.48,0Z"/>
    <path d="M8.74,7.22V3A.74.74,0,1,0,7.26,3V7.22a2.34,2.34,0,0,1,1.48,0Z"/>
    <path d="M12.45,4.92V3A.74.74,0,1,0,11,3V4.92a2.26,2.26,0,0,1,.74-.13A2.3,2.3,0,0,1,12.45,4.92Z"/>
    <path d="M11,9.37V13a.74.74,0,1,0,1.48,0V9.37a2.6,2.6,0,0,1-.74.12A2.55,2.55,0,0,1,11,9.37Z"/>
    <circle cx="4.29" cy="6.11" r="1.61"/>
    <circle cx="8" cy="9.44" r="1.61"/>
    <path d="M11.71,5.54A1.8,1.8,0,0,0,10.1,7.36a1.44,1.44,0,0,0,1.61,1.39,1.61,1.61,0,0,0,0-3.21Z"/>
  </g>
</svg>
