<svg id="Layer_1" data-name="Layer 1" xmlns="http://www.w3.org/2000/svg" width="16" height="16" viewBox="0 0 16 16">
  <title>E-Commerce</title>
  <g id="shopping-cart">
    <g id="Shape">
      <path d="M6.65,12.34a.82.82,0,0,1-.24.59.79.79,0,0,1-.59.25.77.77,0,0,1-.58-.25A.79.79,0,0,1,5,12.34a.82.82,0,0,1,.25-.6.77.77,0,0,1,.58-.25.79.79,0,0,1,.59.25A.85.85,0,0,1,6.65,12.34Zm5.82,0a.79.79,0,0,1-.25.59.77.77,0,0,1-.58.25.79.79,0,0,1-.59-.25.82.82,0,0,1-.24-.59.85.85,0,0,1,.24-.6.79.79,0,0,1,.59-.25.77.77,0,0,1,.58.25A.82.82,0,0,1,12.47,12.34Zm.83-7.2V8.53a.43.43,0,0,1-.11.28.4.4,0,0,1-.26.14l-6.78.81a3.82,3.82,0,0,1,.09.46,1.43,1.43,0,0,1-.16.42h6a.39.39,0,0,1,.3.13.41.41,0,0,1,.12.3.4.4,0,0,1-.12.29.39.39,0,0,1-.3.13H5.41a.39.39,0,0,1-.3-.13A.4.4,0,0,1,5,11.07a.76.76,0,0,1,0-.21c0-.09.07-.17.11-.24a2.36,2.36,0,0,1,.14-.26l.1-.2L4.24,4.72H2.91a.37.37,0,0,1-.29-.13.41.41,0,0,1-.12-.3A.4.4,0,0,1,2.62,4a.37.37,0,0,1,.29-.13H4.57a.53.53,0,0,1,.19,0A.47.47,0,0,1,4.89,4,.79.79,0,0,1,5,4.18a.77.77,0,0,1,0,.17l0,.2a1.09,1.09,0,0,0,0,.17h7.79a.42.42,0,0,1,.3.12A.44.44,0,0,1,13.3,5.14Z"/>
    </g>
  </g>
</svg>
