<svg id="Layer_1" data-name="Layer 1" xmlns="http://www.w3.org/2000/svg" width="16" height="16" viewBox="0 0 16 16">
  <title>Economics</title>
  <g>
    <path d="M5.6,7.06a1,1,0,0,0-.12-.28.7.7,0,0,0-.2-.23,1.46,1.46,0,0,0-.22-.17,2,2,0,0,0-.27-.15l-.26-.12L4.25,6,4,5.92l-.2-.08-.17-.09-.12-.1a.28.28,0,0,1-.07-.09.43.43,0,0,1,0-.12.31.31,0,0,1,.15-.26.81.81,0,0,1,.46-.12l.26,0,.23.08a1,1,0,0,1,.18.1l.12.08,0,0h0a.24.24,0,0,0,.18,0,.17.17,0,0,0,.16-.11l.27-.47a.2.2,0,0,0,0-.27l-.06,0-.14-.1A1.71,1.71,0,0,0,5,4.3a1.37,1.37,0,0,0-.31-.11l-.29-.07V3.65a.21.21,0,0,0-.22-.22H3.77a.23.23,0,0,0-.16.06.21.21,0,0,0-.07.16v.49a1.65,1.65,0,0,0-.82.45,1.23,1.23,0,0,0-.37.87,1.33,1.33,0,0,0,0,.28c0,.08.05.16.08.23a.74.74,0,0,0,.14.22l.15.17a1.15,1.15,0,0,0,.2.15l.2.12.22.11.21.08.21.09a1.58,1.58,0,0,1,.26.1l.22.1.17.1.09.12a.2.2,0,0,1,0,.11.33.33,0,0,1-.15.3A.74.74,0,0,1,4,7.86a.83.83,0,0,1-.22,0A1.69,1.69,0,0,1,3,7.45a.18.18,0,0,0-.17-.06.22.22,0,0,0-.16.08l-.35.44a.23.23,0,0,0,0,.28l.07.07.17.13a2.26,2.26,0,0,0,.26.16,2,2,0,0,0,.36.16,2,2,0,0,0,.35.09v.47a.18.18,0,0,0,.07.15.24.24,0,0,0,.16.07h.45a.24.24,0,0,0,.16-.07.2.2,0,0,0,.06-.15V8.79a1.52,1.52,0,0,0,.84-.46,1.29,1.29,0,0,0,.37-.93A1.21,1.21,0,0,0,5.6,7.06Z"/>
    <rect x="2.48" y="10.45" width="2.97" height="2.21" rx="0.4" ry="0.4"/>
    <rect x="6.59" y="5.02" width="2.97" height="7.64" rx="0.4" ry="0.4"/>
    <rect x="10.7" y="2.81" width="2.97" height="9.84" rx="0.4" ry="0.4"/>
  </g>
</svg>
