<svg id="Layer_1" data-name="Layer 1" xmlns="http://www.w3.org/2000/svg" width="16" height="16" viewBox="0 0 16 16">
  <title>FileSharing</title>
  <g>
    <path d="M10.72,10.88v1.65H4.57V5.76L6.86,3.47h3.86v.77L12,5.49v-2a1.28,1.28,0,0,0-1.28-1.28H6.86a1.26,1.26,0,0,0-.9.37L3.67,4.85a1.3,1.3,0,0,0-.38.91v6.77a1.28,1.28,0,0,0,1.28,1.28h6.15A1.28,1.28,0,0,0,12,12.53V9.66Z"/>
    <path d="M12.68,7.54,10.44,5.3a.09.09,0,0,0-.15.06V6a.08.08,0,0,1-.06.08,4.67,4.67,0,0,0-2.89,2,7,7,0,0,0-.93,2.55.09.09,0,0,0,.16.06A4,4,0,0,1,7.81,9.62a4.53,4.53,0,0,1,2.25-.55h.22v.78a.09.09,0,0,0,.15.06l2.25-2.26A.07.07,0,0,0,12.68,7.54Z"/>
  </g>
</svg>
