<svg id="Layer_1" data-name="Layer 1" xmlns="http://www.w3.org/2000/svg" width="16" height="16" viewBox="0 0 16 16">
  <title>Gambling</title>
  <g>
    <path d="M13.08,2.13H7.49a.79.79,0,0,0-.8.79V5.39h3.92V9.31h2.47a.8.8,0,0,0,.8-.8V2.92A.79.79,0,0,0,13.08,2.13ZM8.29,4.52a.81.81,0,1,1,.8-.8A.8.8,0,0,1,8.29,4.52Zm4,4a.8.8,0,0,1-.81-.8.81.81,0,1,1,.81.8Zm0-4a.8.8,0,0,1-.81-.8.81.81,0,1,1,1.61,0A.8.8,0,0,1,12.28,4.52Z"/>
    <path d="M8.51,6.69H2.92a.79.79,0,0,0-.79.8v5.59a.79.79,0,0,0,.79.8H8.51a.8.8,0,0,0,.8-.8V7.49A.8.8,0,0,0,8.51,6.69ZM3.72,9.08a.81.81,0,0,1-.57-.23.83.83,0,0,1-.23-.56.8.8,0,0,1,.8-.8.8.8,0,0,1,0,1.59Zm2,2a.8.8,0,1,1,0-1.59.79.79,0,0,1,.79.79A.8.8,0,0,1,5.72,11.08Zm2,2a.8.8,0,1,1,0-1.59h0a.8.8,0,0,1,.79.8A.79.79,0,0,1,7.71,13.07Z"/>
  </g>
</svg>
