<svg id="Layer_1" data-name="Layer 1" xmlns="http://www.w3.org/2000/svg" width="16" height="16" viewBox="0 0 16 16">
  <title>Government</title>
  <g>
    <path d="M13.06,11.9H2.94a.41.41,0,0,0-.28.11.38.38,0,0,0-.11.26v.53a.21.21,0,0,0,.2.21h10.5a.21.21,0,0,0,.2-.21v-.53a.38.38,0,0,0-.11-.26A.41.41,0,0,0,13.06,11.9Z"/>
    <path d="M12.89,5.15,8.07,3a.17.17,0,0,0-.14,0L3.11,5.15a.23.23,0,0,0-.12.2v.39A.2.2,0,0,0,3.18,6h9.64A.2.2,0,0,0,13,5.74V5.35A.23.23,0,0,0,12.89,5.15Z"/>
    <path d="M3.27,11.17v.16a.22.22,0,0,0,.21.21h9a.22.22,0,0,0,.21-.21v-.16a.34.34,0,0,0-.12-.26.41.41,0,0,0-.28-.11H12V6.6a.21.21,0,0,0-.21-.21h-1a.22.22,0,0,0-.21.21v4.2H9.82V6.6a.21.21,0,0,0-.21-.21h-1a.22.22,0,0,0-.21.21v4.2H7.64V6.6a.22.22,0,0,0-.21-.21h-1a.21.21,0,0,0-.21.21v4.2H5.46V6.6a.22.22,0,0,0-.21-.21h-1A.21.21,0,0,0,4,6.6v4.2H3.67a.41.41,0,0,0-.28.11A.34.34,0,0,0,3.27,11.17Z"/>
  </g>
</svg>
