<svg id="Layer_1" data-name="Layer 1" xmlns="http://www.w3.org/2000/svg" width="16" height="16" viewBox="0 0 16 16">
  <title>IntergovernmentalOrganizations</title>
  <g>
    <path d="M9.07,6A3.2,3.2,0,0,1,9,6.78,3.41,3.41,0,0,1,11.3,9.22,3.4,3.4,0,1,0,8,3.48,3.38,3.38,0,0,1,9.07,6Z"/>
    <path d="M4.7,9.22A3.41,3.41,0,0,1,7,6.78,3.2,3.2,0,0,1,6.93,6,3.38,3.38,0,0,1,8,3.48,3.4,3.4,0,1,0,4.7,9.22Z"/>
    <path d="M8,8.43a3.42,3.42,0,0,1-2.34.93,3.38,3.38,0,0,1-1-.14,3.2,3.2,0,0,0-.1.83,3.4,3.4,0,1,0,6.8,0,3.2,3.2,0,0,0-.1-.83,3.38,3.38,0,0,1-1,.14A3.42,3.42,0,0,1,8,8.43Z"/>
  </g>
</svg>
