<svg id="Layer_1" data-name="Layer 1" xmlns="http://www.w3.org/2000/svg" width="16" height="16" viewBox="0 0 16 16">
  <title>LGBT</title>
  <path d="M13.25,2.09h-2a.41.41,0,0,0-.41.42v.38a.41.41,0,0,0,.41.41h.4L9.93,5A3.24,3.24,0,0,0,8,4.37,3.38,3.38,0,0,0,6.08,5L5.8,4.67l.52-.53a.4.4,0,0,0,.12-.29.38.38,0,0,0-.12-.29l-.27-.27a.41.41,0,0,0-.58,0l-.53.52L4.43,3.3h.34a.41.41,0,0,0,.41-.41V2.51a.41.41,0,0,0-.41-.42h-2a.41.41,0,0,0-.41.42v2a.41.41,0,0,0,.41.42h.38a.41.41,0,0,0,.41-.42V4.13l.55.54-.53.52a.42.42,0,0,0,0,.59l.27.27a.4.4,0,0,0,.29.12h0a.38.38,0,0,0,.29-.12l.53-.53.28.28a3.35,3.35,0,0,0-.61,1.93,3.39,3.39,0,0,0,2.77,3.32v.45H6.63a.41.41,0,0,0-.41.41v.38a.41.41,0,0,0,.41.42h.75v.78a.41.41,0,0,0,.41.42h.38a.41.41,0,0,0,.41-.42v-.78h.75a.41.41,0,0,0,.41-.42v-.38a.41.41,0,0,0-.41-.41H8.58v-.45a3.37,3.37,0,0,0,2.2-5.19l1.68-1.68v.34a.41.41,0,0,0,.41.42h.38a.41.41,0,0,0,.41-.42v-2A.41.41,0,0,0,13.25,2.09ZM10.14,7.73A2.16,2.16,0,1,1,8,5.58,2.16,2.16,0,0,1,10.14,7.73Z"/>
</svg>
