<svg id="Layer_1" data-name="Layer 1" xmlns="http://www.w3.org/2000/svg" width="16" height="16" viewBox="0 0 16 16">
  <title>MediaSharing</title>
  <g>
    <path d="M10.27,6.77,6.54,4.58a.41.41,0,0,0-.44,0A.42.42,0,0,0,5.89,5V9.34a.41.41,0,0,0,.21.38.49.49,0,0,0,.22.06.43.43,0,0,0,.22-.06l3.73-2.2a.39.39,0,0,0,.22-.37A.4.4,0,0,0,10.27,6.77Z"/>
    <path d="M7.23,10.85a3.58,3.58,0,0,1-1.46-.47A3.77,3.77,0,0,1,4.41,9a3.72,3.72,0,0,1,1.36-5.1,3.57,3.57,0,0,1,1.87-.5,3.57,3.57,0,0,1,1.87.5,3.67,3.67,0,0,1,1.36,1.35,3.73,3.73,0,0,1,.5,1.88c0,.12,0,.24,0,.36a.53.53,0,0,1,.23.16l1.08,1.07a5.24,5.24,0,0,0,.25-1.59A5.18,5.18,0,0,0,12.2,4.5a5.25,5.25,0,0,0-1.92-1.91,5.12,5.12,0,0,0-2.64-.71A5.12,5.12,0,0,0,5,2.59,5.25,5.25,0,0,0,3.08,4.5a5.17,5.17,0,0,0-.7,2.65,5.16,5.16,0,0,0,.7,2.64A5.28,5.28,0,0,0,5,11.71a5,5,0,0,0,1.52.58,8,8,0,0,1,.69-1.42Z"/>
    <path d="M11.14,8.11a.09.09,0,0,0-.07,0,.1.1,0,0,0-.09.1v.73a.08.08,0,0,1-.07.09,5.14,5.14,0,0,0-3.16,2.21,7.52,7.52,0,0,0-1,2.8.09.09,0,0,0,.17.07,4.32,4.32,0,0,1,1.36-1.23,4.91,4.91,0,0,1,2.47-.6H11v.86a.09.09,0,0,0,.09.09.11.11,0,0,0,.07,0L13.6,10.7a.1.1,0,0,0,0-.13Z"/>
  </g>
</svg>
