<svg id="Layer_1" data-name="Layer 1" xmlns="http://www.w3.org/2000/svg" width="16" height="16" viewBox="0 0 16 16">
  <title>ProvocativeAttire</title>
  <path d="M14.25,4.77a.35.35,0,0,0-.18,0,.31.31,0,0,0-.13,0l-.16.06A14.3,14.3,0,0,1,8,6.28,14.3,14.3,0,0,1,2.22,4.81l-.16-.06a.31.31,0,0,0-.13,0,.35.35,0,0,0-.18,0,.33.33,0,0,0-.16.28V6.6a.34.34,0,0,0,.32.34c2.81.18,5.19,2.79,5.42,6a.33.33,0,0,0,.33.31h.68a.34.34,0,0,0,.33-.32c.2-3.18,2.58-5.79,5.42-6a.33.33,0,0,0,.32-.33V5.05A.33.33,0,0,0,14.25,4.77Z"/>
</svg>
