<?xml version="1.0" encoding="utf-8"?>
<!-- Generator: Adobe Illustrator 17.1.0, SVG Export Plug-In . SVG Version: 6.00 Build 0)  -->
<!DOCTYPE svg PUBLIC "-//W3C//DTD SVG 1.1//EN" "http://www.w3.org/Graphics/SVG/1.1/DTD/svg11.dtd">
<svg version="1.1" xmlns="http://www.w3.org/2000/svg" xmlns:xlink="http://www.w3.org/1999/xlink" x="0px" y="0px"
	 viewBox="0 0 1301.606 196.826" enable-background="new 0 0 1301.606 196.826" xml:space="preserve">
<g id="Layer_1">
</g>
<g id="Logo">
	<g>
		<g>
			<g>
				<g>
					<path fill="#FFFFFF" d="M875.801,59.647c7.027,5.373,10.544,13.383,10.544,24.025c0,11.348-3.667,19.783-10.995,25.304
						c-7.331,5.524-17.072,8.284-29.221,8.284h-13.104v38.107h-14.309V51.59h27.262C858.83,51.59,868.772,54.277,875.801,59.647z
						 M864.58,101.144c4.368-3.213,6.552-8.985,6.552-17.321c0-7.43-2.184-12.803-6.552-16.117
						c-4.368-3.313-10.619-4.971-18.753-4.971h-12.803v43.229h12.502C853.86,105.964,860.212,104.359,864.58,101.144z"/>
					<path fill="#FFFFFF" d="M911.799,40.595c1.808,1.807,2.712,4.066,2.712,6.777s-0.904,4.947-2.712,6.703
						c-1.808,1.758-4.168,2.636-7.079,2.636c-2.813,0-5.121-0.878-6.929-2.636c-1.808-1.756-2.711-3.992-2.711-6.703
						s0.903-4.971,2.711-6.777c1.808-1.808,4.116-2.711,6.929-2.711C907.631,37.884,909.991,38.787,911.799,40.595z M911.799,75.991
						v79.377h-13.857V75.991H911.799z"/>
					<path fill="#FFFFFF" d="M991.628,85.028c4.719,7.229,7.079,17.422,7.079,30.576c0,12.451-2.711,22.494-8.134,30.124
						c-5.422,7.632-13.104,11.447-23.045,11.447c-8.837,0-15.766-3.013-20.786-9.038v37.656l-13.857,1.656V75.991h11.899
						l1.055,10.693c2.911-4.016,6.425-7.103,10.543-9.264c4.116-2.158,8.436-3.238,12.954-3.238
						C979.477,74.182,986.906,77.798,991.628,85.028z M983.795,115.604c0-20.283-5.975-30.426-17.924-30.426
						c-3.916,0-7.481,1.155-10.693,3.464c-3.215,2.312-6.025,5.272-8.436,8.887v38.71c2.008,3.113,4.519,5.498,7.531,7.154
						c3.013,1.657,6.326,2.485,9.941,2.485C977.267,145.879,983.795,135.787,983.795,115.604z"/>
					<path fill="#FFFFFF" d="M1074.47,120.424h-50.608c0.603,8.736,2.81,15.163,6.627,19.28c3.815,4.118,8.736,6.175,14.761,6.175
						c3.815,0,7.329-0.551,10.544-1.657c3.212-1.104,6.575-2.861,10.092-5.271l6.024,8.284c-8.435,6.628-17.675,9.941-27.714,9.941
						c-11.048,0-19.656-3.615-25.832-10.845c-6.176-7.23-9.264-17.171-9.264-29.823c0-8.232,1.33-15.538,3.992-21.915
						c2.659-6.376,6.477-11.373,11.447-14.987s10.818-5.423,17.547-5.423c10.544,0,18.626,3.465,24.25,10.394
						c5.623,6.929,8.436,16.519,8.436,28.769C1074.772,115.655,1074.67,118.014,1074.47,120.424z M1061.065,109.278
						c0-7.832-1.558-13.806-4.669-17.924c-3.114-4.117-7.783-6.176-14.008-6.176c-11.349,0-17.524,8.336-18.526,25.003h37.203
						V109.278z"/>
					<path fill="#FFFFFF" d="M1093.072,152.581c-2.963-3.061-4.443-7.354-4.443-12.877V44.058l13.857-1.657v97.001
						c0,2.21,0.377,3.817,1.13,4.819c0.753,1.006,2.033,1.507,3.841,1.507c1.906,0,3.615-0.302,5.121-0.903l3.615,9.639
						c-3.314,1.809-6.98,2.712-10.996,2.712C1100.075,157.176,1096.032,155.643,1093.072,152.581z"/>
					<path fill="#FFFFFF" d="M1139.839,40.595c1.808,1.807,2.712,4.066,2.712,6.777s-0.904,4.947-2.712,6.703
						c-1.808,1.758-4.168,2.636-7.079,2.636c-2.813,0-5.121-0.878-6.929-2.636c-1.808-1.756-2.711-3.992-2.711-6.703
						s0.903-4.971,2.711-6.777c1.808-1.808,4.116-2.711,6.929-2.711C1135.671,37.884,1138.031,38.787,1139.839,40.595z
						 M1139.839,75.991v79.377h-13.857V75.991H1139.839z"/>
					<path fill="#FFFFFF" d="M1215.225,80.659c4.066,4.319,6.1,10.242,6.1,17.773v56.936h-13.856v-54.977
						c0-5.623-1.055-9.588-3.163-11.899c-2.109-2.309-5.223-3.464-9.339-3.464c-4.218,0-7.934,1.205-11.146,3.614
						c-3.215,2.41-6.227,5.874-9.037,10.394v56.332h-13.857V75.991h11.899l1.205,11.748c2.811-4.218,6.3-7.531,10.469-9.941
						c4.165-2.41,8.759-3.615,13.781-3.615C1205.51,74.182,1211.157,76.344,1215.225,80.659z"/>
					<path fill="#FFFFFF" d="M1301.304,120.424h-50.608c0.603,8.736,2.81,15.163,6.627,19.28c3.815,4.118,8.736,6.175,14.761,6.175
						c3.815,0,7.329-0.551,10.544-1.657c3.212-1.104,6.575-2.861,10.092-5.271l6.024,8.284c-8.435,6.628-17.675,9.941-27.714,9.941
						c-11.048,0-19.656-3.615-25.832-10.845c-6.176-7.23-9.264-17.171-9.264-29.823c0-8.232,1.33-15.538,3.992-21.915
						c2.659-6.376,6.477-11.373,11.447-14.987s10.818-5.423,17.547-5.423c10.544,0,18.626,3.465,24.25,10.394
						c5.623,6.929,8.436,16.519,8.436,28.769C1301.606,115.655,1301.504,118.014,1301.304,120.424z M1287.899,109.278
						c0-7.832-1.558-13.806-4.669-17.924c-3.114-4.117-7.783-6.176-14.008-6.176c-11.349,0-17.524,8.336-18.526,25.003h37.203
						V109.278z"/>
				</g>
			</g>
			<g>
				<g>
					<rect x="755.995" y="15.298" fill="#FFFFFF" width="14.644" height="181.527"/>
				</g>
			</g>
		</g>
		<g>
			<g>
				<g id="Page-1_17_">
					<g id="Wordmark-Horizontal_17_">
						<g id="Logo-wordmark-HORIZ_17_" transform="translate(1.000000, 1.000000)">
							<g id="Wordmark_17_" transform="translate(206.000000, 68.000000)">
								<g id="Fill-10_17_">
									<g>
										<path fill="#FFFFFF" d="M41.751,34.26c0-16.843,5.511-30.388,16.536-40.643c11.078-10.254,25.75-15.38,44.02-15.38
											c7.456,0,14.405,1.008,20.851,3.028c6.496,1.965,12.196,4.834,17.096,8.606c7.136,5.473,12.594,12.061,16.378,19.765
											c3.781,7.704,5.67,16.071,5.67,25.102c0,17.001-5.725,30.949-17.176,41.839c-11.395,10.84-26.123,16.257-44.176,16.257
											c-17.844,0-32.168-5.365-42.982-16.096C47.156,66.006,41.751,51.846,41.751,34.26L41.751,34.26z M102.146-9.491
											c-8.521,0-15.312,4.143-20.37,12.433c-5.008,8.287-7.511,19.524-7.511,33.708c0,13.337,2.61,24.122,7.831,32.356
											c5.272,8.234,12.01,12.352,20.211,12.352s14.806-4.196,19.811-12.591c5.008-8.395,7.511-19.684,7.511-33.869
											c0-13.496-2.531-24.252-7.589-32.276C117.032-5.453,110.403-9.491,102.146-9.491L102.146-9.491z M174.573,34.26
											c0-16.843,5.514-30.388,16.536-40.643c11.078-10.254,25.753-15.38,44.02-15.38c7.456,0,14.405,1.008,20.851,3.028
											c6.496,1.965,12.196,4.834,17.096,8.606c7.136,5.473,12.597,12.061,16.378,19.765c3.781,7.704,5.672,16.071,5.672,25.102
											c0,17.001-5.725,30.949-17.176,41.839c-11.398,10.84-26.123,16.257-44.178,16.257c-17.841,0-32.168-5.365-42.979-16.096
											C179.979,66.006,174.573,51.846,174.573,34.26L174.573,34.26z M234.971-9.491c-8.521,0-15.312,4.143-20.373,12.433
											c-5.008,8.287-7.509,19.524-7.509,33.708c0,13.337,2.61,24.122,7.829,32.356c5.272,8.234,12.01,12.352,20.211,12.352
											s14.806-4.196,19.813-12.591c5.005-8.395,7.509-19.684,7.509-33.869c0-13.496-2.529-24.252-7.589-32.276
											C249.855-5.453,243.225-9.491,234.971-9.491L234.971-9.491z M304.761,90.044v-9.164l9.985-0.957l3.116-3.108V-6.94
											l-2.156-2.392l-10.944-1.194v-8.928h46.176v4.385l46.894,72.599V-6.224l-2.877-3.108l-10.705-1.194v-8.928h41.463v8.928
											l-9.667,1.194l-3.116,3.108v96.269h-26.043L332.723,6.847v69.968l2.315,3.108l10.944,0.957v9.164H304.761z M432.79,90.044
											v-9.483l11.824-0.638l2.557-3.108V-6.94l-2.557-2.392L432.79-9.968v-9.485h58.4v9.485l-12.065,0.636L476.49-6.94v83.756
											l2.635,3.108l12.065,0.638v9.483H432.79z"/>
									</g>
								</g>
							</g>
						</g>
					</g>
				</g>
			</g>
			<path fill="#FFFFFF" d="M98.41,0C44.061,0,0,44.06,0,98.41c0,54.35,44.061,98.41,98.41,98.41c54.35,0,98.41-44.06,98.41-98.41
				C196.82,44.06,152.76,0,98.41,0z M165.184,104.79c-2.713,6.116-6.086,11.23-14.115,14.367c-5.854,2.287-7.962,2.46-9.195,2.847
				c-1.287,0.403-2.377,1.034-3.191,1.063c-1.992,0.07-10.268-1.46-12.141-2.1c-1.872-0.64-1.12-1.5-2.17-1.682
				c-1.05-0.183-2.428,0.128-3.531-0.414c-1.247-0.612-2.859-1.57-4.124-3.144c-0.982-1.223-4.338-5.053-6.687-6.283
				c-0.51,2.504,0.507,5.234,1.466,6.85c1.263,2.127,2.501,3.909,5.766,6.251c5.7,4.09,13.255,10.264,17.282,15.044
				c3.261,3.872,6.511,9.164,4.796,16.899c-1.391,6.274-8.464,10.781-12.565,12.417c-3.282,1.309-12.796,1.757-14.349,1.802
				c-1.552,0.045-2.842-1.528-3.846-1.847c-1.005-0.32-4.611,0.912-6.393,0.206c-1.435-0.568-3.255-2.545-4.825-4.076
				c-0.83-0.809-1.705-1.319-2.162-1.812c-0.377-0.404-0.613-1.318-0.907-1.986c-0.717-1.629-1.296-3.47-1.6-5.063
				c-0.273-1.431-0.469-2.897-0.456-4.095c0.008-0.806,0.44-1.625,0.549-2.672c0.109-1.037-0.208-2.778,0.054-3.588
				c0.687-2.129,1.742-3.472,3.579-5.172c2.234-2.065,4.667-2.329,7.137-2.244c2.326,0.081,4.042-0.36,4.952-0.371
				c1.66-0.021,2.863,0.823,3.518,1.332c1.233,0.958,1.529,2.055,1.347,2.968c-0.183,0.913-1.24,1.505-2.352,1.37
				c-1.42-0.173-3.678-0.996-5.981,0.731c-2.142,1.606-1.164,7.693,1.347,10.936c2.521,3.253,6.638,5.017,10.936,5.114
				c4.018,0.092,6.934-2.113,8.218-3.813c1.484-1.963,2.718-7.123,0.023-10.889c-2.513-3.516-8.379-7.913-10.936-9.511
				c-2.557-1.598-8.014-4.417-12.008-9.052c-1.573-1.824-3.703-4.759-5.883-8.092c-1.593,1.319-3.086,3.98-3.868,4.96
				c-0.912,1.147-1.877,2.063-2.841,2.87c-1.689,1.417-3.915,2.455-5.559,3.322c-1.643,0.867-3.159,2.183-5.32,3.218
				c-2.191,1.05-3.315,0.947-6.529,2.123c-3.599,1.318-6.253,3.854-6.598,7.581c-0.399,4.338,4.31,7.343,5.753,7.899
				c0.933,0.359,6.129,0.225,7.316-0.062c0.532-0.128,1.145-0.159,1.671-0.122c1.444,0.104,2.639,3.852,3.638,4.408
				c0.626,0.348,1.083,0.062,1.957,0.389c0.675,0.253,1.413,1.23,1.559,1.369c0.879,0.833,0.331,1.643,1.382,3.185
				c1.269,1.861,0.902,5.103,0.856,6.519c-0.045,1.415-0.958,4.04-1.187,4.816c-0.228,0.776-0.274,2.237-0.503,3.104
				c-0.228,0.867-2.121,2.331-2.716,2.763c-0.61,0.443-1.278,0.389-1.735,0.48c-0.457,0.092-1.683,2.552-4.498,3.539
				c-3.238,1.135-4.476,1.37-7.967,1.392c-3.197,0.021-7.364-3.501-7.032-3.767c0.188-0.149,4.594-0.516,7.809-1.918
				c1.872-0.815,4.629-3.069,4.999-7.328c0.365-4.201-3.669-6.208-5.976-7.393c-3.352-1.722-6.393-3.482-9.868-5.483
				c-4.2-2.42-6.707-5.732-8.082-8.835c-1.506-3.402-1.781-6.232-0.411-11.164c1.37-4.932,5.264-7.936,9.679-11.028
				c4.774-3.341,11.735-7.099,16.53-9.656c3.358-1.791,5.455-3.671,5.913-7.03c0.067-0.49,0.036-2.376-0.067-2.964
				c-0.413,0.407-2.623,2.767-3.465,3.625c-3.312,3.372-8.759,7.367-16.411,8.625c-1.964,0.324-1.535,1.251-3.645,1.478
				c-0.833,0.089-3.345,0.012-4.524-0.024c-3.423-0.106-5.618-1.131-8.782-2.228c-3.164-1.099-7.433-2.496-12.721-7.33
				c-5.141-4.699-6.715-9.008-7.62-15.4c-0.905-6.393,0.867-10.909,3.035-14.723c2.991-5.261,7.232-8.523,9.622-11.106
				c2.39-2.583,4.594-5.554,6.328-5.682c1.744-0.13,2.844,1.915,4.133,2.065c0.923,0.109,1.815-0.606,3-0.848
				c0.826-0.168,1.729,0.021,2.198,0.139c1.033,0.258,1.356,2.292,2.13,3.26c0.904,1.131,3.1,0.323,3.939,0.969
				c0.34,0.262,0.982,0.742,1.216,1.264c0.343,0.765,0.429,1.697,0.544,2.426c0.194,1.227,2.985,3.51,3.374,4.608
				c0.387,1.098-1.585,9.656-3.423,12.011c-2.054,2.632-5.682,4.552-6.135,4.746c-0.452,0.194-0.872-0.129-0.872-0.646
				s1.782-4.598,1.744-7.232c-0.065-4.424-2.923-6.851-4.856-7.892c-3.604-1.94-6.881-1.493-11.319,3.694
				c-3.654,4.27-5.671,10.919-1.775,16.401c2.031,2.859,4.74,7.833,14.756,7.749c11.622-0.098,18.692-3.405,21.76-9.524
				c2.834-5.655,1.272-11.928-5.642-18.678c-6.914-6.75-10.714-15.777-10.722-25.192c0-19.619,16.136-35.523,36.041-35.523
				s36.557,15.904,36.557,35.523c-0.014,9.248-4.202,18.125-9.816,23.93c-5.615,5.804-6.719,13.182-4.315,19.488
				c5.226,13.71,18.275,14.904,23.472,13.446c5.197-1.458,8.235-5.17,9.35-7.972c1.115-2.801,1.528-7.435,0.295-9.215
				c-1.232-1.781-2.017-2.541-2.29-3.409c-0.291-0.918,0.176-2.318-0.252-3.052c-0.771-1.318-3.757-3.203-4.843-4.433
				c-1.084-1.23-2.526-2.739-3.597-5.16c-0.959-2.17-1.271-2.869-2.048-4.057c-0.776-1.187-5.337-5.299-5.245-7.878
				c0.065-1.831,1.104-1.021,1.605-2.817c0.483-1.732-0.09-5.282,0.209-6.387c0.409-1.501,2.327-1.435,2.965-2.805
				c0.64-1.37,0.05-3.434,0.576-4.431c0.981-1.863,4.563-4.851,5.066-5.901c0.502-1.051,0.23-1.178,0.583-1.687
				c0.202-0.29,1.144-1.424,1.681-1.536c0.491-0.103,4.037,0.112,4.846-0.159c0.746-0.25,1.71-1.387,3.521-1.452
				c0.12-0.005,0.245-0.004,0.373,0.002c2.055,0.091,2.905,0.38,3.688,0.751c0.645,0.307,3.23,1.797,2.362,3.27
				c-1.086,1.84-8.73,4.912-10.516,14.925c-1.786,10.014,2.219,15.001,5.416,19.887c3.196,4.886,6.302,9.596,7.885,13.145
				C166.06,90.864,167.897,98.674,165.184,104.79z"/>
			<path fill="#FFFFFF" d="M91.531,36.139c-9.749,0-17.653,7.903-17.653,17.654c0,9.75,7.904,17.653,17.653,17.653
				c9.75,0,17.654-7.903,17.654-17.653C109.185,44.043,101.281,36.139,91.531,36.139z M89.243,60.358
				c-2.232,0-4.041-1.809-4.041-4.041s1.809-4.041,4.041-4.041s4.041,1.809,4.041,4.041S91.475,60.358,89.243,60.358z"/>
		</g>
	</g>
</g>
</svg>
