<svg xmlns="http://www.w3.org/2000/svg" viewBox="16503.402 -6178.849 61.445 61.446">
  <defs>
    <style>
      .cls-1 {
        fill: #fff;
      }
    </style>
  </defs>
  <path id="Path_806" data-name="Path 806" class="cls-1" d="M46.67,16A30.723,30.723,0,1,0,77.446,46.723,30.684,30.684,0,0,0,46.67,16ZM67.993,34.434H58.907A49.142,49.142,0,0,0,54.653,23.51,24.554,24.554,0,0,1,67.993,34.434ZM46.723,22.25A42.215,42.215,0,0,1,52.6,34.434H40.841A42.881,42.881,0,0,1,46.723,22.25ZM22.932,52.868a26.256,26.256,0,0,1-.788-6.145,26.256,26.256,0,0,1,.788-6.145h10.4a47.663,47.663,0,0,0-.42,6.145,59.356,59.356,0,0,0,.42,6.145Zm2.521,6.145h9.086a49.142,49.142,0,0,0,4.254,10.924A24.554,24.554,0,0,1,25.453,59.012Zm9.086-24.579H25.453A24.626,24.626,0,0,1,38.74,23.51,46.581,46.581,0,0,0,34.539,34.434ZM46.723,71.2a42.215,42.215,0,0,1-5.882-12.184H52.552A41.393,41.393,0,0,1,46.723,71.2Zm7.195-18.329H39.528a47.671,47.671,0,0,1-.473-6.145,46.957,46.957,0,0,1,.473-6.145h14.39a46.956,46.956,0,0,1,.473,6.145A47.67,47.67,0,0,1,53.918,52.868Zm.788,17.068A49.142,49.142,0,0,0,58.96,59.012h9.033A24.626,24.626,0,0,1,54.706,69.936Zm5.409-17.068a47.662,47.662,0,0,0,.42-6.145,59.355,59.355,0,0,0-.42-6.145h10.4a26.256,26.256,0,0,1,.788,6.145,26.256,26.256,0,0,1-.788,6.145Z" transform="translate(16487.402 -6194.849)"/>
</svg>
