<svg xmlns="http://www.w3.org/2000/svg" xmlns:xlink="http://www.w3.org/1999/xlink" viewBox="0 0 371.52 220.13"><defs><mask id="mask" x="153.04" y="9.75" width="44.42" height="44.24" maskUnits="userSpaceOnUse"><g id="mask-2"><polygon id="path-1" points="197.46 31.87 197.46 9.75 153.04 9.75 153.04 31.87 153.04 53.99 197.46 53.99 197.46 31.87" style="fill:#fff"/></g></mask><mask id="mask-2-2" x="155.79" y="12.49" width="38.92" height="38.77" maskUnits="userSpaceOnUse"><g id="mask-2-3" data-name="mask-2"><polygon id="path-1-2" data-name="path-1" points="194.71 31.87 194.71 12.49 155.79 12.49 155.79 31.87 155.79 51.26 194.71 51.26 194.71 31.87" style="fill:#fff"/></g></mask><mask id="mask-3" x="6.63" y="138.62" width="23.96" height="23.87" maskUnits="userSpaceOnUse"><g id="mask-2-4" data-name="mask-2"><polygon id="path-1-3" data-name="path-1" points="30.59 150.56 30.59 138.63 6.63 138.63 6.63 150.56 6.63 162.49 30.59 162.49 30.59 150.56" style="fill:#fff"/></g></mask><mask id="mask-4" x="269.97" y="138.62" width="23.96" height="23.87" maskUnits="userSpaceOnUse"><g id="mask-2-5" data-name="mask-2"><polygon id="path-1-4" data-name="path-1" points="293.94 150.56 293.94 138.63 269.97 138.63 269.97 150.56 269.97 162.49 293.94 162.49 293.94 150.56" style="fill:#fff"/></g></mask><mask id="mask-5" x="130.08" y="135.17" width="27.35" height="27.24" maskUnits="userSpaceOnUse"><g id="mask-2-6" data-name="mask-2"><polygon id="path-1-5" data-name="path-1" points="157.43 148.79 157.43 135.17 130.09 135.17 130.09 148.79 130.09 162.41 157.43 162.41 157.43 148.79" style="fill:#fff"/></g></mask><mask id="mask-6" x="131.78" y="136.85" width="23.96" height="23.87" maskUnits="userSpaceOnUse"><g id="mask-2-7" data-name="mask-2"><polygon id="path-1-6" data-name="path-1" points="155.74 148.79 155.74 136.85 131.78 136.85 131.78 148.79 131.78 160.72 155.74 160.72 155.74 148.79" style="fill:#fff"/></g></mask></defs><title>Styleguide3</title><g id="Logo"><path d="M18,90.28,16.27,95.8h-.82l-1.78-5.51h.82L15.88,95l1.38-4.69Z" style="fill:#bcbec0"/><path d="M21.81,93.94H19.12a1.65,1.65,0,0,0,.35,1,1,1,0,0,0,.78.33,1.72,1.72,0,0,0,.56-.09,2.29,2.29,0,0,0,.54-.28l.32.44a2.33,2.33,0,0,1-1.47.53,1.71,1.71,0,0,1-1.37-.58,2.36,2.36,0,0,1-.49-1.58,3,3,0,0,1,.21-1.16,1.83,1.83,0,0,1,.61-.8,1.54,1.54,0,0,1,.93-.29,1.56,1.56,0,0,1,1.29.55,2.36,2.36,0,0,1,.45,1.53C21.83,93.69,21.82,93.81,21.81,93.94Zm-.71-.59a1.55,1.55,0,0,0-.25-1,.87.87,0,0,0-.74-.33q-.91,0-1,1.33h2Z" style="fill:#bcbec0"/><path d="M25.25,91.53l-.14.72a1.51,1.51,0,0,0-.37,0,.78.78,0,0,0-.63.29,2.14,2.14,0,0,0-.38.9V95.8H23V91.58h.63l.07.86a1.6,1.6,0,0,1,.46-.71,1,1,0,0,1,.67-.24A1.72,1.72,0,0,1,25.25,91.53Z" style="fill:#bcbec0"/><path d="M28.22,95.6a1.62,1.62,0,0,1-.94.29,1.11,1.11,0,0,1-.84-.31,1.23,1.23,0,0,1-.3-.89V92.15H25.4v-.57h.74v-1l.74-.09v1h1l-.08.57h-.92v2.51a.78.78,0,0,0,.12.48.46.46,0,0,0,.39.15,1.2,1.2,0,0,0,.56-.17Z" style="fill:#bcbec0"/><path d="M29.71,89.7a.49.49,0,0,1,.14.36.48.48,0,0,1-.14.36.52.52,0,0,1-.38.14.51.51,0,0,1-.37-.14.48.48,0,0,1-.14-.36A.49.49,0,0,1,29,89.7a.5.5,0,0,1,.37-.14A.51.51,0,0,1,29.71,89.7Zm0,1.88V95.8H29V91.58Z" style="fill:#bcbec0"/><path d="M33.46,91.59a1.91,1.91,0,0,1,.6.35l-.35.46a1.82,1.82,0,0,0-.44-.24,1.37,1.37,0,0,0-.47-.08.92.92,0,0,0-.8.41,2.11,2.11,0,0,0-.28,1.21A2,2,0,0,0,32,94.89a.93.93,0,0,0,.8.38,1.32,1.32,0,0,0,.46-.08,2.31,2.31,0,0,0,.46-.24l.34.48a2,2,0,0,1-1.29.46,1.68,1.68,0,0,1-1.35-.58,2.37,2.37,0,0,1-.49-1.59,2.87,2.87,0,0,1,.22-1.18,1.8,1.8,0,0,1,.64-.78,1.7,1.7,0,0,1,1-.28A2.1,2.1,0,0,1,33.46,91.59Z" style="fill:#bcbec0"/><path d="M37.91,95.19a.53.53,0,0,0,.26.19l-.17.51a1.13,1.13,0,0,1-.53-.18.84.84,0,0,1-.3-.45,1.41,1.41,0,0,1-1.26.63,1.35,1.35,0,0,1-1-.35,1.23,1.23,0,0,1-.36-.92,1.21,1.21,0,0,1,.48-1,2.26,2.26,0,0,1,1.37-.36h.65v-.31a.82.82,0,0,0-.22-.64,1,1,0,0,0-.66-.19,3.72,3.72,0,0,0-1.14.22l-.18-.54a4.24,4.24,0,0,1,1.46-.29,1.52,1.52,0,0,1,1.11.36,1.39,1.39,0,0,1,.37,1v1.93A.66.66,0,0,0,37.91,95.19Zm-.82-.51v-1h-.55q-1.17,0-1.17.86a.79.79,0,0,0,.18.57.72.72,0,0,0,.54.19A1.1,1.1,0,0,0,37.08,94.68Z" style="fill:#bcbec0"/><path d="M39.45,95.65a.94.94,0,0,1-.24-.68V89.88l.74-.09v5.15a.43.43,0,0,0,.06.26.24.24,0,0,0,.2.08.72.72,0,0,0,.27,0l.19.51a1.21,1.21,0,0,1-.58.14A.85.85,0,0,1,39.45,95.65Z" style="fill:#bcbec0"/><path d="M46.06,90.34a2.58,2.58,0,0,1,.76.48l-.42.46a2.37,2.37,0,0,0-.61-.36,1.78,1.78,0,0,0-.64-.12,1.19,1.19,0,0,0-.71.2.67.67,0,0,0-.28.58.78.78,0,0,0,.1.4.85.85,0,0,0,.36.3,4.63,4.63,0,0,0,.76.29,4.94,4.94,0,0,1,.86.34,1.5,1.5,0,0,1,.56.51,1.47,1.47,0,0,1,.21.82,1.54,1.54,0,0,1-.24.85,1.58,1.58,0,0,1-.68.58,2.46,2.46,0,0,1-1.05.21,2.56,2.56,0,0,1-1.87-.71l.42-.46a2.69,2.69,0,0,0,.68.41,2,2,0,0,0,.77.14,1.38,1.38,0,0,0,.85-.25.86.86,0,0,0,.34-.73.89.89,0,0,0-.1-.45.93.93,0,0,0-.36-.32,3.68,3.68,0,0,0-.73-.29,3.22,3.22,0,0,1-1.24-.62,1.26,1.26,0,0,1-.39-1,1.31,1.31,0,0,1,.22-.74,1.46,1.46,0,0,1,.62-.51,2.11,2.11,0,0,1,.9-.18A2.55,2.55,0,0,1,46.06,90.34Z" style="fill:#bcbec0"/><path d="M50.2,95.6a1.62,1.62,0,0,1-.94.29,1.11,1.11,0,0,1-.84-.31,1.23,1.23,0,0,1-.3-.89V92.15h-.74v-.57h.74v-1l.74-.09v1h1l-.08.57h-.92v2.51a.78.78,0,0,0,.12.48.46.46,0,0,0,.39.15,1.2,1.2,0,0,0,.56-.17Z" style="fill:#bcbec0"/><path d="M53.83,95.19a.54.54,0,0,0,.26.19l-.17.51a1.13,1.13,0,0,1-.53-.18.85.85,0,0,1-.3-.45,1.41,1.41,0,0,1-1.26.63,1.35,1.35,0,0,1-1-.35,1.23,1.23,0,0,1-.36-.92,1.21,1.21,0,0,1,.48-1,2.26,2.26,0,0,1,1.37-.36H53v-.31a.82.82,0,0,0-.22-.64,1,1,0,0,0-.66-.19,3.71,3.71,0,0,0-1.14.22l-.18-.54a4.24,4.24,0,0,1,1.46-.29,1.52,1.52,0,0,1,1.11.36,1.39,1.39,0,0,1,.37,1v1.93A.66.66,0,0,0,53.83,95.19ZM53,94.68v-1h-.55q-1.17,0-1.17.86a.79.79,0,0,0,.18.57.72.72,0,0,0,.54.19A1.1,1.1,0,0,0,53,94.68Z" style="fill:#bcbec0"/><path d="M58.14,91.83a1.32,1.32,0,0,1,.32.94v3h-.74V92.88a.94.94,0,0,0-.17-.63.64.64,0,0,0-.5-.18,1,1,0,0,0-.59.19,2,2,0,0,0-.48.55v3h-.74V91.58h.63l.06.62a1.66,1.66,0,0,1,.56-.53,1.43,1.43,0,0,1,.73-.19A1.18,1.18,0,0,1,58.14,91.83Z" style="fill:#bcbec0"/><path d="M63.21,89.88V95.8h-.65l-.07-.58a1.54,1.54,0,0,1-.52.5,1.45,1.45,0,0,1-1.87-.41,2.71,2.71,0,0,1-.42-1.59,3.1,3.1,0,0,1,.2-1.15,1.77,1.77,0,0,1,.58-.79,1.42,1.42,0,0,1,.88-.28,1.51,1.51,0,0,1,1.14.52V89.8ZM62,95.15a1.79,1.79,0,0,0,.46-.47V92.62a1.59,1.59,0,0,0-.44-.41,1,1,0,0,0-.53-.14.85.85,0,0,0-.76.41,2.23,2.23,0,0,0-.27,1.22,2.36,2.36,0,0,0,.25,1.22.79.79,0,0,0,.71.4A1,1,0,0,0,62,95.15Z" style="fill:#bcbec0"/><path d="M67.66,95.19a.54.54,0,0,0,.26.19l-.17.51a1.13,1.13,0,0,1-.53-.18.85.85,0,0,1-.3-.45,1.41,1.41,0,0,1-1.26.63,1.35,1.35,0,0,1-1-.35,1.23,1.23,0,0,1-.36-.92,1.21,1.21,0,0,1,.48-1,2.26,2.26,0,0,1,1.37-.36h.65v-.31a.82.82,0,0,0-.22-.64,1,1,0,0,0-.66-.19,3.71,3.71,0,0,0-1.14.22l-.18-.54a4.24,4.24,0,0,1,1.46-.29,1.52,1.52,0,0,1,1.11.36,1.39,1.39,0,0,1,.37,1v1.93A.66.66,0,0,0,67.66,95.19Zm-.82-.51v-1h-.55q-1.17,0-1.17.86a.79.79,0,0,0,.18.57.72.72,0,0,0,.54.19A1.1,1.1,0,0,0,66.83,94.68Z" style="fill:#bcbec0"/><path d="M71.33,91.53l-.14.72a1.51,1.51,0,0,0-.37,0,.78.78,0,0,0-.63.29,2.14,2.14,0,0,0-.38.9V95.8h-.74V91.58h.63l.07.86a1.6,1.6,0,0,1,.46-.71,1,1,0,0,1,.67-.24A1.72,1.72,0,0,1,71.33,91.53Z" style="fill:#bcbec0"/><path d="M75.19,89.88V95.8h-.65l-.07-.58a1.54,1.54,0,0,1-.52.5,1.45,1.45,0,0,1-1.87-.41,2.71,2.71,0,0,1-.42-1.59,3.1,3.1,0,0,1,.2-1.15,1.77,1.77,0,0,1,.58-.79,1.42,1.42,0,0,1,.88-.28,1.51,1.51,0,0,1,1.14.52V89.8ZM74,95.15a1.79,1.79,0,0,0,.46-.47V92.62a1.59,1.59,0,0,0-.44-.41,1,1,0,0,0-.53-.14.85.85,0,0,0-.76.41,2.23,2.23,0,0,0-.27,1.22,2.36,2.36,0,0,0,.25,1.22.79.79,0,0,0,.71.4A1,1,0,0,0,74,95.15Z" style="fill:#bcbec0"/><path d="M79.63,90.28v4.85H81.9l-.09.66H78.87V90.28Z" style="fill:#bcbec0"/><path d="M85.58,92.08a2.45,2.45,0,0,1,.49,1.61,2.8,2.8,0,0,1-.22,1.16,1.76,1.76,0,0,1-.65.78,1.81,1.81,0,0,1-1,.28,1.71,1.71,0,0,1-1.38-.59,2.42,2.42,0,0,1-.5-1.61,2.8,2.8,0,0,1,.22-1.16,1.75,1.75,0,0,1,.65-.78,1.82,1.82,0,0,1,1-.28A1.7,1.7,0,0,1,85.58,92.08Zm-2.48,1.62q0,1.61,1.09,1.61t1.09-1.62q0-1.61-1.08-1.61T83.11,93.69Z" style="fill:#bcbec0"/><path d="M90.69,91.77a2.27,2.27,0,0,1-.53.1l-.7,0A1.11,1.11,0,0,1,90.2,93a1.34,1.34,0,0,1-.43,1,1.66,1.66,0,0,1-1.18.4,1.74,1.74,0,0,1-.54-.08.45.45,0,0,0-.15.17.48.48,0,0,0-.06.22q0,.34.55.34h.67a1.76,1.76,0,0,1,.75.15,1.21,1.21,0,0,1,.51.42,1,1,0,0,1,.18.6,1.07,1.07,0,0,1-.5.95,2.69,2.69,0,0,1-1.47.33,3.32,3.32,0,0,1-1.08-.14,1,1,0,0,1-.56-.42,1.38,1.38,0,0,1-.17-.72h.66a.74.74,0,0,0,.1.4.6.6,0,0,0,.34.22,2.51,2.51,0,0,0,.7.08,2,2,0,0,0,.95-.16.53.53,0,0,0,.28-.49.51.51,0,0,0-.22-.45,1.1,1.1,0,0,0-.62-.15h-.66a1.25,1.25,0,0,1-.81-.23.71.71,0,0,1-.28-.57.75.75,0,0,1,.12-.4,1.17,1.17,0,0,1,.34-.34A1.2,1.2,0,0,1,86.92,93a1.39,1.39,0,0,1,.21-.76,1.44,1.44,0,0,1,.58-.52,1.81,1.81,0,0,1,.83-.19,5.85,5.85,0,0,0,.83,0,2.91,2.91,0,0,0,.56-.12l.54-.22Zm-2.79.5a1.15,1.15,0,0,0,0,1.38.83.83,0,0,0,.66.26.85.85,0,0,0,.66-.25,1,1,0,0,0,.23-.71q0-.94-.9-.94A.81.81,0,0,0,87.9,92.27Z" style="fill:#bcbec0"/><path d="M94.29,92.08a2.45,2.45,0,0,1,.49,1.61,2.8,2.8,0,0,1-.22,1.16,1.76,1.76,0,0,1-.65.78,1.81,1.81,0,0,1-1,.28,1.71,1.71,0,0,1-1.38-.59,2.42,2.42,0,0,1-.5-1.61,2.8,2.8,0,0,1,.22-1.16,1.75,1.75,0,0,1,.65-.78,1.82,1.82,0,0,1,1-.28A1.7,1.7,0,0,1,94.29,92.08Zm-2.48,1.62q0,1.61,1.09,1.61T94,93.68q0-1.61-1.08-1.61T91.81,93.69Z" style="fill:#bcbec0"/><path d="M54.89,10.22A21.07,21.07,0,1,1,33.82,31.29,21.07,21.07,0,0,1,54.89,10.22" style="fill:#8dd7f7"/><path d="M49.16,26.5c1.48,1.45,1.81,2.79,1.21,4s-2.17,2-4.66,2a3.22,3.22,0,0,1-3.16-1.66,2.85,2.85,0,0,1,.38-3.51c1-1.11,1.65-1.21,2.42-.79a1.92,1.92,0,0,1,1,1.69A7.11,7.11,0,0,1,46,29.81a.13.13,0,0,0,.19.14,4.25,4.25,0,0,0,1.31-1,6.2,6.2,0,0,0,.73-2.57c-.08-.23-.68-.72-.72-1a2.06,2.06,0,0,0-.12-.52.86.86,0,0,0-.26-.27c-.18-.14-.65,0-.84-.21s-.23-.64-.46-.7a1.12,1.12,0,0,0-.47,0c-.25.05-.44.21-.64.18s-.51-.47-.89-.44-.84.66-1.35,1.22A11.74,11.74,0,0,0,40.44,27a4.67,4.67,0,0,0-.65,3.15,4.81,4.81,0,0,0,1.63,3.3A6.91,6.91,0,0,0,44.14,35a5.76,5.76,0,0,0,1.88.48c.25,0,.79,0,1,0,.45,0,.36-.25.78-.32a6.38,6.38,0,0,0,3.51-1.85l.74-.78a3.74,3.74,0,0,1,0,.63,2,2,0,0,1-1.27,1.51,38.06,38.06,0,0,0-3.54,2.07,4.52,4.52,0,0,0-2.07,2.36,3.13,3.13,0,0,0,.09,2.39A4.09,4.09,0,0,0,47,43.4c.74.43,1.4.81,2.11,1.17.49.25,1.36.68,1.28,1.58a1.85,1.85,0,0,1-1.07,1.57,8.5,8.5,0,0,1-1.67.41,2.27,2.27,0,0,0,1.51.81,4.14,4.14,0,0,0,1.71-.3c.6-.21.87-.74,1-.76a.78.78,0,0,0,.37-.1c.13-.09.53-.41.58-.59s.06-.5.11-.66a5.29,5.29,0,0,0,.25-1,2.52,2.52,0,0,0-.18-1.4c-.23-.33-.11-.5-.3-.68a1.14,1.14,0,0,0-.33-.29c-.19-.07-.28,0-.42-.08s-.47-.92-.78-.94a1.22,1.22,0,0,0-.36,0,6,6,0,0,1-1.57,0c-.31-.12-1.32-.76-1.23-1.69a2,2,0,0,1,1.41-1.62c.69-.25.93-.23,1.4-.45s.79-.5,1.14-.69A6.7,6.7,0,0,0,53.09,37a4.22,4.22,0,0,0,.61-.61,6.51,6.51,0,0,1,.83-1.06A17.81,17.81,0,0,0,55.79,37,10.19,10.19,0,0,0,58.36,39a10.18,10.18,0,0,1,2.34,2,2,2,0,0,1-1.76,3.15A3,3,0,0,1,56.6,43c-.54-.69-.75-2-.29-2.34a1.5,1.5,0,0,1,1.28-.16.44.44,0,0,0,.5-.29.64.64,0,0,0-.29-.64,1.2,1.2,0,0,0-.75-.29,8.54,8.54,0,0,1-1.06.08,2,2,0,0,0-1.53.48A2.42,2.42,0,0,0,53.7,41a5.89,5.89,0,0,0,0,.77c0,.22-.12.4-.12.57a4.7,4.7,0,0,0,.1.88A5.27,5.27,0,0,0,54,44.31a1.84,1.84,0,0,0,.19.43c.1.11.29.21.46.39a4.38,4.38,0,0,0,1,.87c.38.15,1.15-.11,1.37,0s.49.41.82.4A14.28,14.28,0,0,0,61,46a4.48,4.48,0,0,0,2.69-2.66,4,4,0,0,0-1-3.62,23.2,23.2,0,0,0-3.7-3.22,3.88,3.88,0,0,1-1.23-1.34,2.22,2.22,0,0,1-.31-1.47A6.45,6.45,0,0,1,58.81,35a2.56,2.56,0,0,0,.88.67,2.59,2.59,0,0,0,.76.09c.22,0,.06.22.46.36a15.11,15.11,0,0,0,2.6.45,3.86,3.86,0,0,0,.68-.23,12.55,12.55,0,0,0,2-.61A5.07,5.07,0,0,0,69,28.92a23.89,23.89,0,0,0-1.69-2.81,5.1,5.1,0,0,1-1.16-4.26c.38-2.14,2-2.8,2.25-3.2s-.37-.63-.51-.7a1.83,1.83,0,0,0-.79-.16h-.08a1.76,1.76,0,0,0-.75.31c-.17.06-.93,0-1,0s-.32.27-.36.33,0,.14-.12.36-.87.86-1.08,1.26c-.11.21,0,.66-.12.95s-.55.28-.63.6.06,1,0,1.37-.33.21-.34.6c0,.55,1,1.43,1.12,1.69a5.16,5.16,0,0,1,.44.87,4.05,4.05,0,0,0,.77,1.1c.23.26.87.67,1,.95s0,.46.05.65a4,4,0,0,0,.49.73,2.7,2.7,0,0,1-.06,2,3,3,0,0,1-2,1.71,4.37,4.37,0,0,1-5-2.88,3.89,3.89,0,0,1,.92-4.17,7.61,7.61,0,0,0,2.1-5.12,7.76,7.76,0,0,0-7.83-7.61,7.66,7.66,0,0,0-7.72,7.61A7.53,7.53,0,0,0,49.16,26.5Z" style="fill:#0f87c9"/><path d="M53.42,18a3.78,3.78,0,1,1-3.78,3.78A3.78,3.78,0,0,1,53.42,18" style="fill:#fff"/><path d="M52.93,21.41a.87.87,0,1,1-.87.87.87.87,0,0,1,.87-.87" style="fill:#0f87c9"/><path d="M68.8,66.45v-.8l1-.05.21-.26v-7l-.21-.2-1-.05v-.8h4.89v.8l-1,.05-.22.2v7l.22.26,1,.05v.8Zm-10.71,0v-.77l.84-.08.26-.26v-7l-.18-.2-.92-.1v-.75H62v.37l3.92,6.09V58.38l-.24-.26-.9-.1v-.75h3.47V58l-.81.1-.26.26v8.07H65l-4.53-7v5.87l.19.26.92.08v.77Zm-5.84-8.35a1.92,1.92,0,0,0-1.7,1A5.46,5.46,0,0,0,49.92,62a5,5,0,0,0,.65,2.71,2,2,0,0,0,1.69,1,1.88,1.88,0,0,0,1.66-1.06,5.54,5.54,0,0,0,.63-2.84,5,5,0,0,0-.63-2.71,1.89,1.89,0,0,0-1.66-1M47.2,61.78a4.44,4.44,0,0,1,1.38-3.41,5.2,5.2,0,0,1,3.68-1.29,5.79,5.79,0,0,1,1.74.25,4.41,4.41,0,0,1,1.43.72,4.66,4.66,0,0,1,1.37,1.66,4.72,4.72,0,0,1,.47,2.11,4.63,4.63,0,0,1-1.44,3.51,5.14,5.14,0,0,1-3.7,1.36,4.87,4.87,0,0,1-3.6-1.35,4.8,4.8,0,0,1-1.36-3.56m-6.06-3.67a1.92,1.92,0,0,0-1.7,1A5.46,5.46,0,0,0,38.81,62a5,5,0,0,0,.66,2.71,2,2,0,0,0,1.69,1,1.88,1.88,0,0,0,1.66-1.06,5.53,5.53,0,0,0,.63-2.84,5,5,0,0,0-.63-2.71,1.89,1.89,0,0,0-1.66-1m-5.05,3.67a4.44,4.44,0,0,1,1.38-3.41,5.2,5.2,0,0,1,3.68-1.29,5.79,5.79,0,0,1,1.74.25,4.41,4.41,0,0,1,1.43.72,4.66,4.66,0,0,1,1.37,1.66,4.72,4.72,0,0,1,.47,2.11,4.63,4.63,0,0,1-1.44,3.51A5.14,5.14,0,0,1,41,66.69a4.87,4.87,0,0,1-3.6-1.35,4.8,4.8,0,0,1-1.36-3.56"/><path d="M131.15,90.58l-1.76,5.51h-.82l-1.78-5.51h.82L129,95.27l1.38-4.69Z" style="fill:#bcbec0"/><path d="M134.92,94.23h-2.69a1.64,1.64,0,0,0,.35,1,1,1,0,0,0,.78.33,1.72,1.72,0,0,0,.56-.09,2.25,2.25,0,0,0,.54-.28l.32.44a2.33,2.33,0,0,1-1.47.53,1.71,1.71,0,0,1-1.37-.58,2.36,2.36,0,0,1-.49-1.58,3,3,0,0,1,.21-1.16,1.82,1.82,0,0,1,.61-.8,1.55,1.55,0,0,1,.93-.29,1.56,1.56,0,0,1,1.29.55,2.36,2.36,0,0,1,.45,1.53C134.94,94,134.94,94.11,134.92,94.23Zm-.71-.59a1.56,1.56,0,0,0-.25-1,.87.87,0,0,0-.74-.33q-.9,0-1,1.33h2Z" style="fill:#bcbec0"/><path d="M138.37,91.83l-.14.72a1.51,1.51,0,0,0-.37,0,.78.78,0,0,0-.63.29,2.13,2.13,0,0,0-.38.9v2.41h-.74V91.87h.63l.07.86a1.6,1.6,0,0,1,.46-.71,1,1,0,0,1,.67-.24A1.72,1.72,0,0,1,138.37,91.83Z" style="fill:#bcbec0"/><path d="M141.33,95.9a1.62,1.62,0,0,1-.94.29,1.11,1.11,0,0,1-.84-.31,1.23,1.23,0,0,1-.3-.89V92.44h-.74v-.57h.74v-1l.74-.09v1h1l-.08.57H140V95a.77.77,0,0,0,.12.48.46.46,0,0,0,.39.15,1.2,1.2,0,0,0,.56-.17Z" style="fill:#bcbec0"/><path d="M142.83,90a.49.49,0,0,1,.14.36.48.48,0,0,1-.14.36.52.52,0,0,1-.38.14.51.51,0,0,1-.37-.14.47.47,0,0,1-.14-.36.49.49,0,0,1,.14-.36.5.5,0,0,1,.37-.14A.51.51,0,0,1,142.83,90Zm0,1.88v4.22h-.74V91.87Z" style="fill:#bcbec0"/><path d="M146.57,91.89a1.93,1.93,0,0,1,.6.35l-.35.46a1.83,1.83,0,0,0-.44-.24,1.38,1.38,0,0,0-.47-.08.91.91,0,0,0-.8.41,2.11,2.11,0,0,0-.28,1.21,2,2,0,0,0,.28,1.18.94.94,0,0,0,.8.38,1.32,1.32,0,0,0,.46-.08,2.31,2.31,0,0,0,.46-.24l.34.48a2,2,0,0,1-1.29.46,1.68,1.68,0,0,1-1.35-.58A2.37,2.37,0,0,1,144,94a2.87,2.87,0,0,1,.22-1.18,1.81,1.81,0,0,1,.64-.78,1.7,1.7,0,0,1,1-.28A2.1,2.1,0,0,1,146.57,91.89Z" style="fill:#bcbec0"/><path d="M151,95.49a.54.54,0,0,0,.26.19l-.17.51a1.13,1.13,0,0,1-.53-.18.85.85,0,0,1-.3-.45,1.41,1.41,0,0,1-1.26.63,1.35,1.35,0,0,1-1-.35,1.23,1.23,0,0,1-.36-.92,1.21,1.21,0,0,1,.48-1,2.26,2.26,0,0,1,1.37-.36h.65v-.31a.82.82,0,0,0-.22-.64,1,1,0,0,0-.66-.19,3.71,3.71,0,0,0-1.14.22l-.18-.54a4.24,4.24,0,0,1,1.46-.29,1.52,1.52,0,0,1,1.11.36,1.39,1.39,0,0,1,.37,1v1.93A.66.66,0,0,0,151,95.49ZM150.2,95V94h-.55q-1.17,0-1.17.86a.79.79,0,0,0,.18.57.72.72,0,0,0,.54.19A1.1,1.1,0,0,0,150.2,95Z" style="fill:#bcbec0"/><path d="M152.56,95.94a.94.94,0,0,1-.24-.68V90.18l.74-.09v5.15a.43.43,0,0,0,.06.26.24.24,0,0,0,.2.08.72.72,0,0,0,.27,0l.19.51a1.2,1.2,0,0,1-.58.14A.85.85,0,0,1,152.56,95.94Z" style="fill:#bcbec0"/><path d="M161.8,96.09h-.74l-.19-2.49q-.12-1.46-.14-2.25l-1.19,4.11h-.71l-1.26-4.12q0,1-.1,2.31l-.18,2.43h-.72l.46-5.51h1l1.16,4,1.1-4h1Z" style="fill:#bcbec0"/><path d="M166,92.37a2.44,2.44,0,0,1,.49,1.61,2.82,2.82,0,0,1-.22,1.16,1.76,1.76,0,0,1-.65.78,1.81,1.81,0,0,1-1,.28,1.7,1.7,0,0,1-1.38-.59,2.42,2.42,0,0,1-.5-1.61,2.8,2.8,0,0,1,.22-1.16,1.76,1.76,0,0,1,.65-.78,1.82,1.82,0,0,1,1-.28A1.7,1.7,0,0,1,166,92.37ZM163.54,94q0,1.61,1.09,1.61T165.72,94q0-1.61-1.08-1.61T163.54,94Z" style="fill:#bcbec0"/><path d="M170.61,92.12a1.32,1.32,0,0,1,.32.94v3h-.74V93.17a.93.93,0,0,0-.17-.63.64.64,0,0,0-.5-.18,1,1,0,0,0-.59.19,2,2,0,0,0-.48.55v3h-.74V91.87h.63l.06.62A1.66,1.66,0,0,1,169,92a1.44,1.44,0,0,1,.73-.19A1.17,1.17,0,0,1,170.61,92.12Z" style="fill:#bcbec0"/><path d="M175.38,92.37a2.45,2.45,0,0,1,.49,1.61,2.8,2.8,0,0,1-.22,1.16,1.76,1.76,0,0,1-.65.78,1.81,1.81,0,0,1-1,.28,1.71,1.71,0,0,1-1.38-.59,2.42,2.42,0,0,1-.5-1.61,2.8,2.8,0,0,1,.22-1.16,1.75,1.75,0,0,1,.65-.78,1.82,1.82,0,0,1,1-.28A1.7,1.7,0,0,1,175.38,92.37ZM172.9,94q0,1.61,1.09,1.61T175.08,94q0-1.61-1.08-1.61T172.9,94Z" style="fill:#bcbec0"/><path d="M179.31,91.89a1.91,1.91,0,0,1,.6.35l-.35.46a1.82,1.82,0,0,0-.44-.24,1.37,1.37,0,0,0-.47-.08.92.92,0,0,0-.8.41,2.11,2.11,0,0,0-.28,1.21,2,2,0,0,0,.28,1.18.93.93,0,0,0,.8.38,1.32,1.32,0,0,0,.46-.08,2.31,2.31,0,0,0,.46-.24l.34.48a2,2,0,0,1-1.29.46,1.68,1.68,0,0,1-1.35-.58,2.37,2.37,0,0,1-.49-1.59,2.87,2.87,0,0,1,.22-1.18,1.8,1.8,0,0,1,.64-.78,1.7,1.7,0,0,1,1-.28A2.1,2.1,0,0,1,179.31,91.89Z" style="fill:#bcbec0"/><path d="M183.79,92.12a1.32,1.32,0,0,1,.32.94v3h-.74V93.17a.92.92,0,0,0-.17-.63.65.65,0,0,0-.5-.18,1,1,0,0,0-.58.19,2,2,0,0,0-.48.54v3h-.74v-5.9l.74-.08v2.35a1.49,1.49,0,0,1,1.25-.68A1.18,1.18,0,0,1,183.79,92.12Z" style="fill:#bcbec0"/><path d="M187.85,91.83l-.14.72a1.51,1.51,0,0,0-.37,0,.78.78,0,0,0-.63.29,2.13,2.13,0,0,0-.38.9v2.41h-.74V91.87h.63l.07.86a1.6,1.6,0,0,1,.46-.71,1,1,0,0,1,.67-.24A1.72,1.72,0,0,1,187.85,91.83Z" style="fill:#bcbec0"/><path d="M191.41,92.37A2.44,2.44,0,0,1,191.9,94a2.82,2.82,0,0,1-.22,1.16,1.76,1.76,0,0,1-.65.78,1.81,1.81,0,0,1-1,.28,1.7,1.7,0,0,1-1.38-.59,2.42,2.42,0,0,1-.5-1.61,2.8,2.8,0,0,1,.22-1.16,1.76,1.76,0,0,1,.65-.78,1.82,1.82,0,0,1,1-.28A1.7,1.7,0,0,1,191.41,92.37ZM188.93,94q0,1.61,1.09,1.61T191.11,94q0-1.61-1.08-1.61T188.93,94Z" style="fill:#bcbec0"/><path d="M198.18,92.13a1.36,1.36,0,0,1,.31.94v3h-.74V93.17q0-.82-.59-.82a.8.8,0,0,0-.53.18,2.56,2.56,0,0,0-.46.56v3h-.74V93.17q0-.82-.59-.82a.79.79,0,0,0-.54.18,2.48,2.48,0,0,0-.46.56v3h-.74V91.87h.63l.06.62a1.41,1.41,0,0,1,1.22-.71,1.11,1.11,0,0,1,.67.2,1.1,1.1,0,0,1,.4.56,2,2,0,0,1,.55-.56,1.26,1.26,0,0,1,.71-.2A1.06,1.06,0,0,1,198.18,92.13Z" style="fill:#bcbec0"/><path d="M203.14,94.23h-2.69a1.64,1.64,0,0,0,.35,1,1,1,0,0,0,.78.33,1.72,1.72,0,0,0,.56-.09,2.25,2.25,0,0,0,.54-.28l.32.44a2.33,2.33,0,0,1-1.47.53,1.71,1.71,0,0,1-1.37-.58,2.36,2.36,0,0,1-.49-1.58,3,3,0,0,1,.21-1.16,1.82,1.82,0,0,1,.61-.8,1.55,1.55,0,0,1,.93-.29,1.56,1.56,0,0,1,1.29.55,2.36,2.36,0,0,1,.45,1.53C203.16,94,203.15,94.11,203.14,94.23Zm-.71-.59a1.56,1.56,0,0,0-.25-1,.87.87,0,0,0-.74-.33q-.9,0-1,1.33h2Z" style="fill:#bcbec0"/><path d="M207.25,90.58v4.85h2.26l-.09.66h-2.94V90.58Z" style="fill:#bcbec0"/><path d="M213.2,92.37a2.44,2.44,0,0,1,.49,1.61,2.82,2.82,0,0,1-.22,1.16,1.76,1.76,0,0,1-.65.78,1.81,1.81,0,0,1-1,.28,1.7,1.7,0,0,1-1.38-.59,2.42,2.42,0,0,1-.5-1.61,2.8,2.8,0,0,1,.22-1.16,1.76,1.76,0,0,1,.65-.78,1.82,1.82,0,0,1,1-.28A1.7,1.7,0,0,1,213.2,92.37ZM210.73,94q0,1.61,1.09,1.61T212.9,94q0-1.61-1.08-1.61T210.73,94Z" style="fill:#bcbec0"/><path d="M218.31,92.07a2.27,2.27,0,0,1-.53.1l-.7,0a1.11,1.11,0,0,1,.74,1.06,1.35,1.35,0,0,1-.43,1,1.67,1.67,0,0,1-1.18.4,1.75,1.75,0,0,1-.54-.08.46.46,0,0,0-.15.17.48.48,0,0,0-.06.22q0,.34.55.34h.67a1.77,1.77,0,0,1,.75.15,1.21,1.21,0,0,1,.51.42,1,1,0,0,1,.18.6,1.07,1.07,0,0,1-.5.95,2.68,2.68,0,0,1-1.47.33,3.33,3.33,0,0,1-1.08-.14,1,1,0,0,1-.56-.42,1.38,1.38,0,0,1-.17-.72H215a.73.73,0,0,0,.1.4.6.6,0,0,0,.34.22,2.52,2.52,0,0,0,.7.08,2,2,0,0,0,.95-.16.53.53,0,0,0,.28-.49.51.51,0,0,0-.22-.45,1.1,1.1,0,0,0-.62-.15h-.66a1.25,1.25,0,0,1-.81-.23.71.71,0,0,1-.28-.57.74.74,0,0,1,.12-.4,1.17,1.17,0,0,1,.34-.34,1.2,1.2,0,0,1-.71-1.17,1.39,1.39,0,0,1,.21-.76,1.45,1.45,0,0,1,.58-.52,1.82,1.82,0,0,1,.83-.19,5.84,5.84,0,0,0,.83,0,2.91,2.91,0,0,0,.56-.12l.54-.22Zm-2.79.5a1.14,1.14,0,0,0,0,1.38.83.83,0,0,0,.66.26.84.84,0,0,0,.66-.25,1,1,0,0,0,.23-.71.91.91,0,0,0-1.55-.68Z" style="fill:#bcbec0"/><path d="M221.91,92.37A2.44,2.44,0,0,1,222.4,94a2.82,2.82,0,0,1-.22,1.16,1.76,1.76,0,0,1-.65.78,1.81,1.81,0,0,1-1,.28,1.7,1.7,0,0,1-1.38-.59,2.42,2.42,0,0,1-.5-1.61,2.8,2.8,0,0,1,.22-1.16,1.76,1.76,0,0,1,.65-.78,1.82,1.82,0,0,1,1-.28A1.7,1.7,0,0,1,221.91,92.37ZM219.43,94q0,1.61,1.09,1.61T221.61,94q0-1.61-1.08-1.61T219.43,94Z" style="fill:#bcbec0"/><g id="OONI-Logo"><g id="Group-3"><g style="mask:url(#mask)"><path id="Fill-1" d="M175.25,9.75A22.12,22.12,0,1,1,153,31.87,22.17,22.17,0,0,1,175.25,9.75"/></g></g><g id="Group-3-2" data-name="Group-3"><g style="mask:url(#mask-2-2)"><path id="Fill-1-2" data-name="Fill-1" d="M175.25,12.49a19.39,19.39,0,1,1-19.46,19.38,19.42,19.42,0,0,1,19.46-19.38" style="fill:#fff"/></g></g><path id="Fill-4" d="M169.49,27.08c1.49,1.45,1.82,2.79,1.21,4s-2.18,2-4.68,2a3.23,3.23,0,0,1-3.17-1.66,2.84,2.84,0,0,1,.38-3.51c1-1.11,1.66-1.21,2.43-.79a1.92,1.92,0,0,1,1,1.69,7.08,7.08,0,0,1-.37,1.55.13.13,0,0,0,.19.14,4.26,4.26,0,0,0,1.32-1,6.18,6.18,0,0,0,.74-2.57c-.08-.23-.68-.72-.73-1a2.05,2.05,0,0,0-.12-.52.87.87,0,0,0-.26-.27c-.18-.14-.65,0-.85-.21s-.24-.64-.46-.7a1.13,1.13,0,0,0-.47,0c-.25.05-.45.21-.65.18s-.51-.47-.89-.44-.85.66-1.36,1.22a11.75,11.75,0,0,0-2.07,2.38,4.66,4.66,0,0,0-.65,3.15,4.81,4.81,0,0,0,1.64,3.3,6.94,6.94,0,0,0,2.73,1.57,5.8,5.8,0,0,0,1.89.48c.25,0,.79,0,1,0,.45,0,.36-.25.78-.32a6.41,6.41,0,0,0,3.53-1.85l.74-.78a3.72,3.72,0,0,1,0,.63,2,2,0,0,1-1.27,1.51,38.24,38.24,0,0,0-3.55,2.07,4.53,4.53,0,0,0-2.08,2.36,3.12,3.12,0,0,0,.09,2.39A4.1,4.1,0,0,0,167.31,44c.75.43,1.4.81,2.12,1.17.5.25,1.36.68,1.28,1.58a1.85,1.85,0,0,1-1.07,1.57,8.56,8.56,0,0,1-1.68.41,2.28,2.28,0,0,0,1.51.81,4.17,4.17,0,0,0,1.71-.3c.61-.21.87-.74,1-.76a.79.79,0,0,0,.37-.1c.13-.09.53-.41.58-.59s.06-.5.11-.66a5.27,5.27,0,0,0,.26-1,2.51,2.51,0,0,0-.18-1.4c-.23-.33-.11-.5-.3-.68a1.15,1.15,0,0,0-.34-.29c-.19-.07-.29,0-.42-.08s-.47-.92-.78-.94a1.23,1.23,0,0,0-.36,0,6,6,0,0,1-1.57,0c-.31-.12-1.32-.76-1.24-1.69a2,2,0,0,1,1.42-1.62c.69-.25.93-.23,1.4-.45s.79-.5,1.14-.69a6.73,6.73,0,0,0,1.19-.71,4.23,4.23,0,0,0,.61-.61,6.51,6.51,0,0,1,.83-1.06,17.81,17.81,0,0,0,1.26,1.73,10.23,10.23,0,0,0,2.58,1.94,10.21,10.21,0,0,1,2.35,2,2.16,2.16,0,0,1,0,2.33,2.19,2.19,0,0,1-1.77.82,3,3,0,0,1-2.35-1.1c-.54-.69-.75-2-.29-2.34a1.51,1.51,0,0,1,1.29-.16.44.44,0,0,0,.51-.29.64.64,0,0,0-.29-.64,1.2,1.2,0,0,0-.76-.29,8.6,8.6,0,0,1-1.06.08,2,2,0,0,0-1.53.48,2.42,2.42,0,0,0-.77,1.11,5.86,5.86,0,0,0,0,.77c0,.22-.12.4-.12.57a4.68,4.68,0,0,0,.1.88,5.25,5.25,0,0,0,.34,1.08,1.83,1.83,0,0,0,.19.43c.1.11.29.21.46.39a4.39,4.39,0,0,0,1,.87c.38.15,1.16-.11,1.37,0s.49.41.83.4a14.39,14.39,0,0,0,3.08-.39,4.49,4.49,0,0,0,2.7-2.66,4,4,0,0,0-1-3.62A23.26,23.26,0,0,0,179.3,37a3.88,3.88,0,0,1-1.24-1.34,2.21,2.21,0,0,1-.32-1.47,6.46,6.46,0,0,1,1.44,1.35,2.57,2.57,0,0,0,.89.67,2.61,2.61,0,0,0,.76.09c.23,0,.06.22.47.36a15.22,15.22,0,0,0,2.61.45,3.89,3.89,0,0,0,.69-.23,12.64,12.64,0,0,0,2-.61,5.15,5.15,0,0,0,3-3.08,5.08,5.08,0,0,0-.15-3.74,23.87,23.87,0,0,0-1.69-2.81,5.08,5.08,0,0,1-1.16-4.26c.38-2.14,2-2.8,2.26-3.2s-.37-.63-.51-.7a1.84,1.84,0,0,0-.79-.16h-.08a1.77,1.77,0,0,0-.76.31c-.17.06-.94,0-1,0s-.32.27-.36.33,0,.14-.13.36-.88.86-1.09,1.26c-.11.21,0,.66-.12.95s-.55.28-.64.6.06,1,0,1.37-.33.21-.35.6c0,.55,1,1.43,1.13,1.69a5.15,5.15,0,0,1,.44.87,4.05,4.05,0,0,0,.77,1.1c.23.26.88.67,1,.95s0,.46.05.65a4,4,0,0,0,.49.73,2.69,2.69,0,0,1-.06,2,3,3,0,0,1-2,1.71,4.39,4.39,0,0,1-5-2.88,3.88,3.88,0,0,1,.93-4.17,7.6,7.6,0,0,0,2.11-5.12,7.77,7.77,0,0,0-7.86-7.61,7.68,7.68,0,0,0-7.75,7.61A7.51,7.51,0,0,0,169.49,27.08Z"/><path id="Fill-6" d="M173.77,18.54A3.78,3.78,0,1,1,170,22.32a3.79,3.79,0,0,1,3.79-3.78" style="fill:#fff"/><path id="Fill-8" d="M173.28,22a.87.87,0,1,1-.87.87.87.87,0,0,1,.87-.87"/></g><path d="M189.21,67v-.8l1-.05.21-.26v-7l-.21-.2-1-.05v-.8h4.89v.8l-1,.05-.22.2v7l.22.26,1,.05V67ZM178.5,67v-.77l.84-.08.26-.26v-7l-.18-.2-.92-.1v-.75h3.86v.37l3.92,6.09V58.94l-.24-.26-.9-.1v-.75h3.47v.75l-.81.1-.26.26V67h-2.18l-4.53-7v5.87l.19.26.92.08V67Zm-5.84-8.35a1.92,1.92,0,0,0-1.7,1,5.46,5.46,0,0,0-.63,2.83,5,5,0,0,0,.65,2.71,2,2,0,0,0,1.69,1,1.88,1.88,0,0,0,1.66-1.06,5.54,5.54,0,0,0,.63-2.84,5,5,0,0,0-.63-2.71,1.89,1.89,0,0,0-1.66-1m-5.05,3.67A4.44,4.44,0,0,1,169,58.93a5.2,5.2,0,0,1,3.68-1.29,5.79,5.79,0,0,1,1.74.25,4.41,4.41,0,0,1,1.43.72,4.66,4.66,0,0,1,1.37,1.66,4.72,4.72,0,0,1,.47,2.11,4.63,4.63,0,0,1-1.44,3.51,5.14,5.14,0,0,1-3.7,1.36A4.87,4.87,0,0,1,169,65.9a4.8,4.8,0,0,1-1.36-3.56m-6.06-3.67a1.92,1.92,0,0,0-1.7,1,5.46,5.46,0,0,0-.63,2.83,5,5,0,0,0,.66,2.71,2,2,0,0,0,1.69,1,1.88,1.88,0,0,0,1.66-1.06,5.53,5.53,0,0,0,.63-2.84,5,5,0,0,0-.63-2.71,1.89,1.89,0,0,0-1.66-1m-5.05,3.67a4.44,4.44,0,0,1,1.38-3.41,5.2,5.2,0,0,1,3.68-1.29,5.79,5.79,0,0,1,1.74.25,4.41,4.41,0,0,1,1.43.72,4.66,4.66,0,0,1,1.37,1.66,4.72,4.72,0,0,1,.47,2.11,4.63,4.63,0,0,1-1.44,3.51,5.14,5.14,0,0,1-3.7,1.36,4.87,4.87,0,0,1-3.6-1.35,4.8,4.8,0,0,1-1.36-3.56"/><path d="M12.56,195.8v-2.58H10.24v2.58H9.48v-5.51h.76v2.3h2.32v-2.3h.76v5.51Z" style="fill:#bcbec0"/><path d="M17.84,192.08a2.45,2.45,0,0,1,.49,1.61,2.82,2.82,0,0,1-.22,1.16,1.75,1.75,0,0,1-.65.78,1.81,1.81,0,0,1-1,.28,1.71,1.71,0,0,1-1.38-.59,2.42,2.42,0,0,1-.5-1.61,2.82,2.82,0,0,1,.22-1.16,1.76,1.76,0,0,1,.65-.78,1.82,1.82,0,0,1,1-.28A1.7,1.7,0,0,1,17.84,192.08Zm-2.48,1.62q0,1.61,1.09,1.61t1.09-1.62q0-1.61-1.08-1.61T15.37,193.69Z" style="fill:#bcbec0"/><path d="M21.8,191.53l-.14.72a1.51,1.51,0,0,0-.37,0,.78.78,0,0,0-.63.29,2.13,2.13,0,0,0-.38.9v2.41h-.74v-4.22h.63l.07.86a1.6,1.6,0,0,1,.46-.71,1,1,0,0,1,.67-.24A1.72,1.72,0,0,1,21.8,191.53Z" style="fill:#bcbec0"/><path d="M23.37,189.7a.49.49,0,0,1,.14.36.48.48,0,0,1-.14.36.52.52,0,0,1-.38.14.51.51,0,0,1-.37-.14.48.48,0,0,1-.14-.36.49.49,0,0,1,.14-.36.5.5,0,0,1,.37-.14A.51.51,0,0,1,23.37,189.7Zm0,1.88v4.22h-.74v-4.22Z" style="fill:#bcbec0"/><path d="M27.37,191.58v.56l-2.2,3h2.22l-.09.62h-3v-.55l2.19-3h-2v-.62Z" style="fill:#bcbec0"/><path d="M31.3,192.08a2.44,2.44,0,0,1,.49,1.61,2.8,2.8,0,0,1-.22,1.16,1.75,1.75,0,0,1-.65.78,1.81,1.81,0,0,1-1,.28,1.7,1.7,0,0,1-1.38-.59,2.42,2.42,0,0,1-.5-1.61,2.8,2.8,0,0,1,.22-1.16,1.76,1.76,0,0,1,.65-.78,1.82,1.82,0,0,1,1-.28A1.7,1.7,0,0,1,31.3,192.08Zm-2.48,1.62q0,1.61,1.09,1.61T31,193.68q0-1.61-1.08-1.61T28.82,193.69Z" style="fill:#bcbec0"/><path d="M35.89,191.83a1.32,1.32,0,0,1,.32.94v3h-.74v-2.92a.94.94,0,0,0-.17-.63.64.64,0,0,0-.5-.18,1,1,0,0,0-.59.19,2,2,0,0,0-.48.55v3H33v-4.22h.63l.06.62a1.65,1.65,0,0,1,.56-.53,1.44,1.44,0,0,1,.73-.19A1.18,1.18,0,0,1,35.89,191.83Z" style="fill:#bcbec0"/><path d="M39.82,195.6a1.62,1.62,0,0,1-.94.29,1.11,1.11,0,0,1-.84-.31,1.23,1.23,0,0,1-.3-.89v-2.54H37v-.57h.74v-1l.74-.09v1h1l-.08.57h-.92v2.51a.77.77,0,0,0,.12.48.46.46,0,0,0,.39.15,1.2,1.2,0,0,0,.56-.17Z" style="fill:#bcbec0"/><path d="M43.45,195.19a.54.54,0,0,0,.26.19l-.17.51a1.13,1.13,0,0,1-.53-.18.84.84,0,0,1-.3-.45,1.41,1.41,0,0,1-1.26.63,1.35,1.35,0,0,1-1-.35,1.23,1.23,0,0,1-.36-.92,1.21,1.21,0,0,1,.48-1,2.26,2.26,0,0,1,1.37-.36h.65v-.31a.82.82,0,0,0-.22-.64,1,1,0,0,0-.66-.19,3.71,3.71,0,0,0-1.13.22l-.18-.54a4.24,4.24,0,0,1,1.46-.29,1.52,1.52,0,0,1,1.11.36,1.39,1.39,0,0,1,.37,1v1.93A.66.66,0,0,0,43.45,195.19Zm-.82-.51v-1h-.55q-1.17,0-1.17.86a.79.79,0,0,0,.18.57.72.72,0,0,0,.54.19A1.1,1.1,0,0,0,42.63,194.68Z" style="fill:#bcbec0"/><path d="M45,195.65a1,1,0,0,1-.24-.68v-5.08l.74-.09v5.15a.43.43,0,0,0,.06.26.24.24,0,0,0,.2.08.73.73,0,0,0,.27,0l.19.51a1.2,1.2,0,0,1-.58.14A.86.86,0,0,1,45,195.65Z" style="fill:#bcbec0"/><path d="M51.61,190.34a2.6,2.6,0,0,1,.76.48l-.42.46a2.37,2.37,0,0,0-.61-.36,1.78,1.78,0,0,0-.64-.12,1.2,1.2,0,0,0-.71.2.68.68,0,0,0-.28.58.78.78,0,0,0,.1.4.86.86,0,0,0,.36.3,4.63,4.63,0,0,0,.76.29,5,5,0,0,1,.86.34,1.51,1.51,0,0,1,.56.51,1.47,1.47,0,0,1,.21.82,1.53,1.53,0,0,1-.24.85,1.58,1.58,0,0,1-.68.58,2.46,2.46,0,0,1-1.05.21,2.56,2.56,0,0,1-1.87-.71l.42-.46a2.69,2.69,0,0,0,.68.41,2,2,0,0,0,.77.14,1.37,1.37,0,0,0,.85-.25.86.86,0,0,0,.34-.73.88.88,0,0,0-.1-.45.92.92,0,0,0-.36-.32,3.68,3.68,0,0,0-.73-.29,3.23,3.23,0,0,1-1.24-.62,1.26,1.26,0,0,1-.39-1,1.31,1.31,0,0,1,.22-.74,1.46,1.46,0,0,1,.62-.51,2.12,2.12,0,0,1,.9-.18A2.56,2.56,0,0,1,51.61,190.34Z" style="fill:#bcbec0"/><path d="M55.75,195.6a1.62,1.62,0,0,1-.94.29,1.11,1.11,0,0,1-.84-.31,1.23,1.23,0,0,1-.3-.89v-2.54h-.74v-.57h.74v-1l.74-.09v1h1l-.08.57h-.92v2.51a.77.77,0,0,0,.12.48.46.46,0,0,0,.39.15,1.2,1.2,0,0,0,.56-.17Z" style="fill:#bcbec0"/><path d="M59.38,195.19a.53.53,0,0,0,.26.19l-.17.51a1.13,1.13,0,0,1-.53-.18.84.84,0,0,1-.3-.45,1.41,1.41,0,0,1-1.26.63,1.35,1.35,0,0,1-1-.35,1.23,1.23,0,0,1-.36-.92,1.21,1.21,0,0,1,.48-1,2.26,2.26,0,0,1,1.37-.36h.65v-.31a.82.82,0,0,0-.21-.64,1,1,0,0,0-.66-.19,3.72,3.72,0,0,0-1.14.22l-.18-.54a4.24,4.24,0,0,1,1.46-.29,1.53,1.53,0,0,1,1.11.36,1.4,1.4,0,0,1,.37,1v1.93A.66.66,0,0,0,59.38,195.19Zm-.82-.51v-1H58q-1.17,0-1.17.86a.79.79,0,0,0,.18.57.72.72,0,0,0,.54.19A1.1,1.1,0,0,0,58.56,194.68Z" style="fill:#bcbec0"/><path d="M63.69,191.83a1.32,1.32,0,0,1,.32.94v3h-.74v-2.92a.94.94,0,0,0-.17-.63.64.64,0,0,0-.5-.18,1,1,0,0,0-.59.19,2,2,0,0,0-.48.55v3h-.74v-4.22h.63l.06.62a1.65,1.65,0,0,1,.56-.53,1.44,1.44,0,0,1,.73-.19A1.18,1.18,0,0,1,63.69,191.83Z" style="fill:#bcbec0"/><path d="M68.76,189.88v5.91h-.65l-.07-.58a1.52,1.52,0,0,1-.52.5,1.45,1.45,0,0,1-1.87-.41,2.7,2.7,0,0,1-.42-1.59,3.1,3.1,0,0,1,.2-1.15,1.77,1.77,0,0,1,.58-.79,1.41,1.41,0,0,1,.88-.28A1.52,1.52,0,0,1,68,192V189.8Zm-1.2,5.27a1.81,1.81,0,0,0,.46-.47v-2.06a1.6,1.6,0,0,0-.44-.41,1,1,0,0,0-.53-.14.86.86,0,0,0-.76.41,2.24,2.24,0,0,0-.27,1.22,2.35,2.35,0,0,0,.25,1.22.79.79,0,0,0,.71.4A1,1,0,0,0,67.56,195.15Z" style="fill:#bcbec0"/><path d="M73.21,195.19a.53.53,0,0,0,.26.19l-.17.51a1.13,1.13,0,0,1-.53-.18.84.84,0,0,1-.3-.45,1.41,1.41,0,0,1-1.26.63,1.35,1.35,0,0,1-1-.35,1.23,1.23,0,0,1-.36-.92,1.21,1.21,0,0,1,.48-1,2.26,2.26,0,0,1,1.37-.36h.65v-.31a.82.82,0,0,0-.21-.64,1,1,0,0,0-.66-.19,3.72,3.72,0,0,0-1.14.22l-.18-.54a4.24,4.24,0,0,1,1.46-.29,1.53,1.53,0,0,1,1.11.36,1.4,1.4,0,0,1,.37,1v1.93A.66.66,0,0,0,73.21,195.19Zm-.82-.51v-1h-.55q-1.17,0-1.17.86a.79.79,0,0,0,.18.57.72.72,0,0,0,.54.19A1.1,1.1,0,0,0,72.38,194.68Z" style="fill:#bcbec0"/><path d="M76.88,191.53l-.13.72a1.52,1.52,0,0,0-.37,0,.78.78,0,0,0-.63.29,2.14,2.14,0,0,0-.38.9v2.41h-.74v-4.22h.63l.07.86a1.59,1.59,0,0,1,.46-.71,1,1,0,0,1,.67-.24A1.71,1.71,0,0,1,76.88,191.53Z" style="fill:#bcbec0"/><path d="M80.74,189.88v5.91h-.65l-.07-.58a1.53,1.53,0,0,1-.52.5,1.37,1.37,0,0,1-.7.18,1.36,1.36,0,0,1-1.17-.59,2.71,2.71,0,0,1-.42-1.59,3.1,3.1,0,0,1,.2-1.15,1.78,1.78,0,0,1,.58-.79,1.42,1.42,0,0,1,.88-.28A1.52,1.52,0,0,1,80,192V189.8Zm-1.2,5.27a1.81,1.81,0,0,0,.46-.47v-2.06a1.59,1.59,0,0,0-.44-.41,1,1,0,0,0-.53-.14.85.85,0,0,0-.76.41,2.23,2.23,0,0,0-.27,1.22,2.35,2.35,0,0,0,.25,1.22.79.79,0,0,0,.71.4A1,1,0,0,0,79.54,195.15Z" style="fill:#bcbec0"/><path d="M85.18,190.28v4.85h2.26l-.09.66H84.42v-5.51Z" style="fill:#bcbec0"/><path d="M91.13,192.08a2.44,2.44,0,0,1,.49,1.61,2.8,2.8,0,0,1-.22,1.16,1.76,1.76,0,0,1-.65.78,1.81,1.81,0,0,1-1,.28,1.7,1.7,0,0,1-1.38-.59,2.42,2.42,0,0,1-.5-1.61,2.78,2.78,0,0,1,.22-1.16,1.75,1.75,0,0,1,.65-.78,1.82,1.82,0,0,1,1-.28A1.69,1.69,0,0,1,91.13,192.08Zm-2.48,1.62q0,1.61,1.09,1.61t1.09-1.62q0-1.61-1.08-1.61T88.65,193.69Z" style="fill:#bcbec0"/><path d="M96.24,191.77a2.27,2.27,0,0,1-.53.1l-.7,0a1.11,1.11,0,0,1,.74,1.06,1.34,1.34,0,0,1-.43,1,1.67,1.67,0,0,1-1.18.4,1.74,1.74,0,0,1-.54-.08.45.45,0,0,0-.15.17.48.48,0,0,0-.06.22q0,.34.55.34h.67a1.76,1.76,0,0,1,.75.15,1.21,1.21,0,0,1,.51.42,1,1,0,0,1,.18.6,1.07,1.07,0,0,1-.5.95,2.68,2.68,0,0,1-1.47.33,3.32,3.32,0,0,1-1.08-.14,1,1,0,0,1-.56-.42,1.38,1.38,0,0,1-.17-.72h.66a.73.73,0,0,0,.1.4.6.6,0,0,0,.34.22,2.52,2.52,0,0,0,.7.08,2,2,0,0,0,.95-.16.53.53,0,0,0,.28-.49.51.51,0,0,0-.22-.45,1.11,1.11,0,0,0-.62-.15h-.66a1.25,1.25,0,0,1-.81-.23.71.71,0,0,1-.28-.57.75.75,0,0,1,.12-.4,1.16,1.16,0,0,1,.34-.34,1.2,1.2,0,0,1-.71-1.17,1.39,1.39,0,0,1,.21-.76,1.44,1.44,0,0,1,.58-.52,1.81,1.81,0,0,1,.83-.19,5.85,5.85,0,0,0,.83,0,2.92,2.92,0,0,0,.55-.12l.54-.22Zm-2.79.5a1.14,1.14,0,0,0,0,1.38.83.83,0,0,0,.66.26.85.85,0,0,0,.66-.25,1,1,0,0,0,.23-.71.91.91,0,0,0-1.55-.68Z" style="fill:#bcbec0"/><path d="M99.83,192.08a2.45,2.45,0,0,1,.49,1.61,2.82,2.82,0,0,1-.22,1.16,1.76,1.76,0,0,1-.65.78,1.81,1.81,0,0,1-1,.28,1.71,1.71,0,0,1-1.38-.59,2.43,2.43,0,0,1-.5-1.61,2.8,2.8,0,0,1,.22-1.16,1.75,1.75,0,0,1,.65-.78,1.82,1.82,0,0,1,1-.28A1.7,1.7,0,0,1,99.83,192.08Zm-2.48,1.62q0,1.61,1.09,1.61t1.09-1.62q0-1.61-1.08-1.61T97.36,193.69Z" style="fill:#bcbec0"/><g id="Page-1"><g id="Wordmark-Horizontal"><g id="Logo-wordmark-HORIZ"><g id="OONI-Logo-2" data-name="OONI-Logo"><g id="Group-3-3" data-name="Group-3"><g style="mask:url(#mask-3)"><path id="Fill-1-3" data-name="Fill-1" d="M18.61,138.62a11.93,11.93,0,1,1-12,11.93,12,12,0,0,1,12-11.93" style="fill:#8dd7f7"/></g></g><path id="Fill-4-2" data-name="Fill-4" d="M15.35,147.84c.84.82,1,1.58.69,2.27s-1.23,1.14-2.65,1.16a1.83,1.83,0,0,1-1.8-.94,1.61,1.61,0,0,1,.22-2c.54-.63.94-.68,1.38-.45a1.09,1.09,0,0,1,.59,1,4,4,0,0,1-.21.88.08.08,0,0,0,.11.08,2.41,2.41,0,0,0,.75-.58,3.5,3.5,0,0,0,.42-1.46c0-.13-.39-.41-.41-.56a1.16,1.16,0,0,0-.07-.29.49.49,0,0,0-.15-.15c-.1-.08-.37,0-.48-.12s-.13-.36-.26-.4a.64.64,0,0,0-.27,0c-.14,0-.25.12-.37.1s-.29-.27-.5-.25-.48.38-.77.69a6.66,6.66,0,0,0-1.17,1.35,2.64,2.64,0,0,0-.37,1.79,2.72,2.72,0,0,0,.93,1.87,3.93,3.93,0,0,0,1.55.89,3.29,3.29,0,0,0,1.07.27c.14,0,.45,0,.55,0,.26,0,.2-.14.44-.18a3.63,3.63,0,0,0,2-1l.42-.44a2.11,2.11,0,0,1,0,.36,1.13,1.13,0,0,1-.72.85,21.66,21.66,0,0,0-2,1.17A2.57,2.57,0,0,0,13.08,155a1.77,1.77,0,0,0,.05,1.35,2.32,2.32,0,0,0,1,1.07c.42.24.79.46,1.2.66s.77.39.73.9a1,1,0,0,1-.61.89,4.85,4.85,0,0,1-1,.23,1.29,1.29,0,0,0,.86.46,2.36,2.36,0,0,0,1-.17c.34-.12.49-.42.55-.43a.45.45,0,0,0,.21-.06c.07-.05.3-.23.33-.34s0-.28.06-.38a3,3,0,0,0,.14-.58,1.42,1.42,0,0,0-.1-.79c-.13-.19-.06-.29-.17-.39a.65.65,0,0,0-.19-.17c-.11,0-.16,0-.24,0s-.27-.52-.44-.53a.7.7,0,0,0-.2,0,3.4,3.4,0,0,1-.89,0c-.18-.07-.75-.43-.7-1a1.1,1.1,0,0,1,.8-.92c.39-.14.53-.13.8-.26s.45-.29.65-.39a3.81,3.81,0,0,0,.68-.4,2.4,2.4,0,0,0,.35-.35,3.69,3.69,0,0,1,.47-.6,10.09,10.09,0,0,0,.72,1,5.79,5.79,0,0,0,1.46,1.1,5.78,5.78,0,0,1,1.33,1.15,1.22,1.22,0,0,1,0,1.32,1.24,1.24,0,0,1-1,.46,1.72,1.72,0,0,1-1.33-.62c-.31-.39-.42-1.13-.16-1.33a.86.86,0,0,1,.73-.09.25.25,0,0,0,.29-.17.36.36,0,0,0-.16-.36.68.68,0,0,0-.43-.16,4.87,4.87,0,0,1-.6,0,1.12,1.12,0,0,0-.87.27,1.37,1.37,0,0,0-.44.63,3.32,3.32,0,0,0,0,.44c0,.13-.07.23-.07.32a2.65,2.65,0,0,0,.06.5,3,3,0,0,0,.19.61,1,1,0,0,0,.11.24c.06.06.16.12.26.22a2.49,2.49,0,0,0,.59.49c.22.09.66-.06.78,0s.28.23.47.22a8.15,8.15,0,0,0,1.75-.22,2.54,2.54,0,0,0,1.53-1.51,2.24,2.24,0,0,0-.58-2,13.17,13.17,0,0,0-2.1-1.82,2.2,2.2,0,0,1-.7-.76,1.25,1.25,0,0,1-.18-.83,3.66,3.66,0,0,1,.81.76,1.45,1.45,0,0,0,.5.38,1.48,1.48,0,0,0,.43.05c.13,0,0,.13.26.2a8.62,8.62,0,0,0,1.48.25,2.2,2.2,0,0,0,.39-.13,7.16,7.16,0,0,0,1.12-.35,2.92,2.92,0,0,0,1.72-1.74,2.87,2.87,0,0,0-.09-2.12,13.52,13.52,0,0,0-1-1.59,2.88,2.88,0,0,1-.66-2.41,3.09,3.09,0,0,1,1.28-1.81c.11-.18-.21-.36-.29-.4a1,1,0,0,0-.45-.09h0a1,1,0,0,0-.43.18c-.1,0-.53,0-.59,0s-.18.15-.2.19,0,.08-.07.2-.5.49-.62.72,0,.37-.07.54-.31.16-.36.34,0,.56,0,.77-.19.12-.2.34.54.81.64,1a2.92,2.92,0,0,1,.25.49,2.3,2.3,0,0,0,.44.63c.13.15.5.38.59.54s0,.26,0,.37a2.25,2.25,0,0,0,.28.41,1.52,1.52,0,0,1,0,1.12,1.72,1.72,0,0,1-1.14,1,2.49,2.49,0,0,1-2.86-1.63,2.2,2.2,0,0,1,.53-2.36,4.3,4.3,0,0,0,1.2-2.9,4.4,4.4,0,0,0-4.45-4.31A4.35,4.35,0,0,0,14,144.79,4.26,4.26,0,0,0,15.35,147.84Z" style="fill:#0f87c9"/><path id="Fill-6-2" data-name="Fill-6" d="M17.77,143a2.14,2.14,0,1,1-2.15,2.14A2.15,2.15,0,0,1,17.77,143" style="fill:#fff"/><path id="Fill-8-2" data-name="Fill-8" d="M17.49,145a.49.49,0,1,1-.49.49.49.49,0,0,1,.49-.49" style="fill:#0663af"/></g><g id="Wordmark"><path id="Fill-10" d="M36.79,151.15a6.41,6.41,0,0,1,2-4.93,7.55,7.55,0,0,1,5.34-1.87,8.41,8.41,0,0,1,2.53.37,6.4,6.4,0,0,1,2.07,1,6.74,6.74,0,0,1,2,2.4,6.82,6.82,0,0,1,.69,3,6.69,6.69,0,0,1-2.08,5.07,7.45,7.45,0,0,1-5.36,2,7.08,7.08,0,0,1-5.21-2,6.94,6.94,0,0,1-2-5.15Zm7.32-5.31a2.79,2.79,0,0,0-2.47,1.51,7.88,7.88,0,0,0-.91,4.09,7.23,7.23,0,0,0,.95,3.92,2.84,2.84,0,0,0,2.45,1.5,2.72,2.72,0,0,0,2.4-1.53,8,8,0,0,0,.91-4.11,7.27,7.27,0,0,0-.92-3.91,2.74,2.74,0,0,0-2.41-1.47Zm8.78,5.31a6.41,6.41,0,0,1,2-4.93,7.55,7.55,0,0,1,5.34-1.87,8.41,8.41,0,0,1,2.53.37,6.4,6.4,0,0,1,2.07,1,6.74,6.74,0,0,1,2,2.4,6.82,6.82,0,0,1,.69,3,6.69,6.69,0,0,1-2.08,5.07,7.46,7.46,0,0,1-5.36,2,7.07,7.07,0,0,1-5.21-2,6.94,6.94,0,0,1-2-5.15Zm7.32-5.31a2.79,2.79,0,0,0-2.47,1.51,7.88,7.88,0,0,0-.91,4.09,7.24,7.24,0,0,0,.95,3.92,2.84,2.84,0,0,0,2.45,1.5,2.72,2.72,0,0,0,2.4-1.53,8,8,0,0,0,.91-4.11,7.27,7.27,0,0,0-.92-3.91,2.74,2.74,0,0,0-2.41-1.47Zm8.46,12.07V156.8l1.21-.12.38-.38V146.15l-.26-.29-1.33-.14v-1.08h5.6v.53L80,154v-7.73l-.35-.38-1.3-.14v-1.08h5v1.08l-1.17.14-.38.38v11.67H78.65l-6.57-10.09v8.49l.28.38,1.33.12v1.11Zm15.53,0v-1.15l1.43-.08.31-.38V146.15l-.31-.29-1.43-.08v-1.15H91.3v1.15l-1.46.08-.32.29v10.16l.32.38,1.46.08v1.15Z"/></g></g></g></g><path d="M272.88,196.09v-2.58h-2.32v2.58h-.76v-5.51h.76v2.3h2.32v-2.3h.76v5.51Z" style="fill:#bcbec0"/><path d="M278.17,192.37a2.45,2.45,0,0,1,.49,1.61,2.8,2.8,0,0,1-.22,1.16,1.76,1.76,0,0,1-.65.78,1.81,1.81,0,0,1-1,.28,1.71,1.71,0,0,1-1.38-.59,2.42,2.42,0,0,1-.5-1.61,2.8,2.8,0,0,1,.22-1.16,1.75,1.75,0,0,1,.65-.78,1.82,1.82,0,0,1,1-.28A1.7,1.7,0,0,1,278.17,192.37ZM275.69,194q0,1.61,1.09,1.61t1.09-1.62q0-1.61-1.08-1.61T275.69,194Z" style="fill:#bcbec0"/><path d="M282.12,191.83l-.14.72a1.51,1.51,0,0,0-.37,0,.78.78,0,0,0-.63.29,2.14,2.14,0,0,0-.38.9v2.41h-.74v-4.22h.63l.07.86A1.6,1.6,0,0,1,281,192a1,1,0,0,1,.67-.24A1.72,1.72,0,0,1,282.12,191.83Z" style="fill:#bcbec0"/><path d="M283.7,190a.49.49,0,0,1,.14.36.48.48,0,0,1-.14.36.52.52,0,0,1-.38.14.51.51,0,0,1-.37-.14.48.48,0,0,1-.14-.36A.49.49,0,0,1,283,190a.5.5,0,0,1,.37-.14A.51.51,0,0,1,283.7,190Zm0,1.88v4.22H283v-4.22Z" style="fill:#bcbec0"/><path d="M287.69,191.87v.56l-2.2,3h2.22l-.09.62h-3v-.55l2.19-3h-2v-.62Z" style="fill:#bcbec0"/><path d="M291.62,192.37a2.45,2.45,0,0,1,.49,1.61,2.8,2.8,0,0,1-.22,1.16,1.76,1.76,0,0,1-.65.78,1.81,1.81,0,0,1-1,.28,1.71,1.71,0,0,1-1.38-.59,2.42,2.42,0,0,1-.5-1.61,2.8,2.8,0,0,1,.22-1.16,1.75,1.75,0,0,1,.65-.78,1.82,1.82,0,0,1,1-.28A1.7,1.7,0,0,1,291.62,192.37ZM289.15,194q0,1.61,1.09,1.61t1.09-1.62q0-1.61-1.08-1.61T289.15,194Z" style="fill:#bcbec0"/><path d="M296.22,192.12a1.32,1.32,0,0,1,.32.94v3h-.74v-2.92a.94.94,0,0,0-.17-.63.64.64,0,0,0-.5-.18,1,1,0,0,0-.59.19,2,2,0,0,0-.48.55v3h-.74v-4.22H294l.06.62a1.66,1.66,0,0,1,.56-.53,1.43,1.43,0,0,1,.73-.19A1.18,1.18,0,0,1,296.22,192.12Z" style="fill:#bcbec0"/><path d="M300.15,195.9a1.62,1.62,0,0,1-.94.29,1.11,1.11,0,0,1-.84-.31,1.23,1.23,0,0,1-.3-.89v-2.54h-.74v-.57h.74v-1l.74-.09v1h1l-.08.57h-.92V195a.78.78,0,0,0,.12.48.46.46,0,0,0,.39.15,1.2,1.2,0,0,0,.56-.17Z" style="fill:#bcbec0"/><path d="M303.78,195.49a.53.53,0,0,0,.26.19l-.17.51a1.13,1.13,0,0,1-.53-.18.84.84,0,0,1-.3-.45,1.41,1.41,0,0,1-1.26.63,1.35,1.35,0,0,1-1-.35,1.23,1.23,0,0,1-.36-.92,1.21,1.21,0,0,1,.48-1,2.26,2.26,0,0,1,1.37-.36H303v-.31a.82.82,0,0,0-.22-.64,1,1,0,0,0-.66-.19,3.72,3.72,0,0,0-1.14.22l-.18-.54a4.24,4.24,0,0,1,1.46-.29,1.52,1.52,0,0,1,1.11.36,1.39,1.39,0,0,1,.37,1v1.93A.66.66,0,0,0,303.78,195.49ZM303,195v-1h-.55q-1.17,0-1.17.86a.79.79,0,0,0,.18.57.72.72,0,0,0,.54.19A1.1,1.1,0,0,0,303,195Z" style="fill:#bcbec0"/><path d="M305.32,195.94a.94.94,0,0,1-.24-.68v-5.08l.74-.09v5.15a.43.43,0,0,0,.06.26.24.24,0,0,0,.2.08.72.72,0,0,0,.27,0l.19.51a1.21,1.21,0,0,1-.58.14A.85.85,0,0,1,305.32,195.94Z" style="fill:#bcbec0"/><path d="M310.39,190.58v5.51h-.76v-5.51Z" style="fill:#bcbec0"/><path d="M314.83,192.12a1.32,1.32,0,0,1,.32.94v3h-.74v-2.92a.94.94,0,0,0-.17-.63.64.64,0,0,0-.5-.18,1,1,0,0,0-.59.19,2,2,0,0,0-.48.55v3h-.74v-4.22h.63l.06.62a1.66,1.66,0,0,1,.56-.53,1.43,1.43,0,0,1,.73-.19A1.18,1.18,0,0,1,314.83,192.12Z" style="fill:#bcbec0"/><path d="M319.68,191.87l-1.43,4.22h-.89l-1.46-4.22h.8l1.1,3.56,1.1-3.56Z" style="fill:#bcbec0"/><path d="M323.65,194.23H321a1.65,1.65,0,0,0,.35,1,1,1,0,0,0,.78.33,1.72,1.72,0,0,0,.56-.09,2.29,2.29,0,0,0,.54-.28l.32.44a2.33,2.33,0,0,1-1.47.53,1.71,1.71,0,0,1-1.37-.58,2.36,2.36,0,0,1-.49-1.58,3,3,0,0,1,.21-1.16,1.83,1.83,0,0,1,.61-.8,1.54,1.54,0,0,1,.93-.29,1.56,1.56,0,0,1,1.29.55,2.36,2.36,0,0,1,.45,1.53C323.67,194,323.66,194.11,323.65,194.23Zm-.71-.59a1.55,1.55,0,0,0-.25-1,.87.87,0,0,0-.74-.33q-.91,0-1,1.33h2Z" style="fill:#bcbec0"/><path d="M327.09,191.83l-.14.72a1.51,1.51,0,0,0-.37,0,.78.78,0,0,0-.63.29,2.13,2.13,0,0,0-.38.9v2.41h-.74v-4.22h.63l.07.86A1.6,1.6,0,0,1,326,192a1,1,0,0,1,.67-.24A1.72,1.72,0,0,1,327.09,191.83Z" style="fill:#bcbec0"/><path d="M330.06,195.9a1.62,1.62,0,0,1-.94.29,1.11,1.11,0,0,1-.84-.31,1.23,1.23,0,0,1-.3-.89v-2.54h-.74v-.57H328v-1l.74-.09v1h1l-.08.57h-.92V195a.77.77,0,0,0,.12.48.46.46,0,0,0,.39.15,1.2,1.2,0,0,0,.56-.17Z" style="fill:#bcbec0"/><path d="M333.87,194.23h-2.69a1.65,1.65,0,0,0,.35,1,1,1,0,0,0,.78.33,1.72,1.72,0,0,0,.56-.09,2.29,2.29,0,0,0,.54-.28l.32.44a2.33,2.33,0,0,1-1.47.53,1.71,1.71,0,0,1-1.37-.58,2.36,2.36,0,0,1-.49-1.58,3,3,0,0,1,.21-1.16,1.83,1.83,0,0,1,.61-.8,1.54,1.54,0,0,1,.93-.29,1.56,1.56,0,0,1,1.29.55,2.36,2.36,0,0,1,.45,1.53C333.88,194,333.88,194.11,333.87,194.23Zm-.71-.59a1.55,1.55,0,0,0-.25-1,.87.87,0,0,0-.74-.33q-.91,0-1,1.33h2Z" style="fill:#bcbec0"/><path d="M338.32,190.18v5.91h-.65l-.07-.58a1.54,1.54,0,0,1-.52.5,1.45,1.45,0,0,1-1.87-.41,2.71,2.71,0,0,1-.42-1.59,3.1,3.1,0,0,1,.2-1.15,1.77,1.77,0,0,1,.58-.79,1.42,1.42,0,0,1,.88-.28,1.51,1.51,0,0,1,1.14.52v-2.21Zm-1.2,5.27a1.79,1.79,0,0,0,.46-.47v-2.06a1.59,1.59,0,0,0-.44-.41,1,1,0,0,0-.53-.14.85.85,0,0,0-.76.41,2.23,2.23,0,0,0-.27,1.22,2.36,2.36,0,0,0,.25,1.22.79.79,0,0,0,.71.4A1,1,0,0,0,337.12,195.45Z" style="fill:#bcbec0"/><path d="M342.76,190.58v4.85H345l-.09.66H342v-5.51Z" style="fill:#bcbec0"/><path d="M348.71,192.37a2.44,2.44,0,0,1,.49,1.61,2.82,2.82,0,0,1-.22,1.16,1.76,1.76,0,0,1-.65.78,1.81,1.81,0,0,1-1,.28,1.7,1.7,0,0,1-1.38-.59,2.42,2.42,0,0,1-.5-1.61,2.8,2.8,0,0,1,.22-1.16,1.76,1.76,0,0,1,.65-.78,1.82,1.82,0,0,1,1-.28A1.7,1.7,0,0,1,348.71,192.37ZM346.24,194q0,1.61,1.09,1.61t1.09-1.62q0-1.61-1.08-1.61T346.24,194Z" style="fill:#bcbec0"/><path d="M353.82,192.07a2.27,2.27,0,0,1-.53.1l-.7,0a1.11,1.11,0,0,1,.74,1.06,1.35,1.35,0,0,1-.43,1,1.67,1.67,0,0,1-1.18.4,1.75,1.75,0,0,1-.54-.08.46.46,0,0,0-.15.17.48.48,0,0,0-.06.22q0,.34.55.34h.67a1.77,1.77,0,0,1,.75.15,1.21,1.21,0,0,1,.51.42,1,1,0,0,1,.18.6,1.07,1.07,0,0,1-.5.95,2.68,2.68,0,0,1-1.47.33,3.33,3.33,0,0,1-1.08-.14,1,1,0,0,1-.56-.42,1.38,1.38,0,0,1-.17-.72h.66a.73.73,0,0,0,.1.4.6.6,0,0,0,.34.22,2.52,2.52,0,0,0,.7.08,2,2,0,0,0,.95-.16.53.53,0,0,0,.28-.49.51.51,0,0,0-.22-.45,1.1,1.1,0,0,0-.62-.15h-.66a1.25,1.25,0,0,1-.81-.23.71.71,0,0,1-.28-.57.74.74,0,0,1,.12-.4,1.17,1.17,0,0,1,.34-.34,1.2,1.2,0,0,1-.71-1.17,1.39,1.39,0,0,1,.21-.76,1.45,1.45,0,0,1,.58-.52,1.82,1.82,0,0,1,.83-.19,5.84,5.84,0,0,0,.83,0,2.91,2.91,0,0,0,.56-.12l.54-.22Zm-2.79.5a1.14,1.14,0,0,0,0,1.38.83.83,0,0,0,.66.26.84.84,0,0,0,.66-.25,1,1,0,0,0,.23-.71.91.91,0,0,0-1.55-.68Z" style="fill:#bcbec0"/><path d="M357.42,192.37a2.45,2.45,0,0,1,.49,1.61,2.8,2.8,0,0,1-.22,1.16,1.76,1.76,0,0,1-.65.78,1.81,1.81,0,0,1-1,.28,1.71,1.71,0,0,1-1.38-.59,2.42,2.42,0,0,1-.5-1.61,2.8,2.8,0,0,1,.22-1.16,1.75,1.75,0,0,1,.65-.78,1.82,1.82,0,0,1,1-.28A1.7,1.7,0,0,1,357.42,192.37ZM354.94,194q0,1.61,1.09,1.61t1.09-1.62q0-1.61-1.08-1.61T354.94,194Z" style="fill:#bcbec0"/><rect x="255.31" y="126.82" width="116.21" height="46.79"/><g id="Page-1-2" data-name="Page-1"><g id="Wordmark-Horizontal-2" data-name="Wordmark-Horizontal"><g id="Logo-wordmark-HORIZ-2" data-name="Logo-wordmark-HORIZ"><g id="OONI-Logo-3" data-name="OONI-Logo"><g id="Group-3-4" data-name="Group-3"><g style="mask:url(#mask-4)"><path id="Fill-1-4" data-name="Fill-1" d="M282,138.62a11.93,11.93,0,1,1-12,11.93,12,12,0,0,1,12-11.93" style="fill:#fff"/></g></g><path id="Fill-4-3" data-name="Fill-4" d="M278.69,147.84c.84.82,1,1.58.69,2.27s-1.23,1.14-2.65,1.16a1.83,1.83,0,0,1-1.8-.94,1.61,1.61,0,0,1,.22-2c.54-.63.94-.68,1.38-.45a1.09,1.09,0,0,1,.59,1,4,4,0,0,1-.21.88.08.08,0,0,0,.11.08,2.41,2.41,0,0,0,.75-.58,3.5,3.5,0,0,0,.42-1.46c0-.13-.39-.41-.41-.56a1.16,1.16,0,0,0-.07-.29.49.49,0,0,0-.15-.15c-.1-.08-.37,0-.48-.12s-.13-.36-.26-.4a.64.64,0,0,0-.27,0c-.14,0-.25.12-.37.1s-.29-.27-.5-.25-.48.38-.77.69a6.66,6.66,0,0,0-1.17,1.35,2.64,2.64,0,0,0-.37,1.79,2.72,2.72,0,0,0,.93,1.87,3.93,3.93,0,0,0,1.55.89,3.29,3.29,0,0,0,1.07.27c.14,0,.45,0,.55,0,.26,0,.2-.14.44-.18a3.63,3.63,0,0,0,2-1l.42-.44a2.11,2.11,0,0,1,0,.36,1.13,1.13,0,0,1-.72.85,21.66,21.66,0,0,0-2,1.17,2.57,2.57,0,0,0-1.18,1.34,1.77,1.77,0,0,0,.05,1.35,2.32,2.32,0,0,0,1,1.07c.42.24.79.46,1.2.66s.77.39.73.9a1,1,0,0,1-.61.89,4.85,4.85,0,0,1-1,.23,1.29,1.29,0,0,0,.86.46,2.36,2.36,0,0,0,1-.17c.34-.12.49-.42.55-.43a.45.45,0,0,0,.21-.06c.07-.05.3-.23.33-.34s0-.28.06-.38a3,3,0,0,0,.14-.58,1.42,1.42,0,0,0-.1-.79c-.13-.19-.06-.29-.17-.39a.65.65,0,0,0-.19-.17c-.11,0-.16,0-.24,0s-.27-.52-.44-.53a.7.7,0,0,0-.2,0,3.4,3.4,0,0,1-.89,0c-.18-.07-.75-.43-.7-1a1.1,1.1,0,0,1,.8-.92c.39-.14.53-.13.8-.26s.45-.29.65-.39a3.81,3.81,0,0,0,.68-.4,2.4,2.4,0,0,0,.35-.35,3.69,3.69,0,0,1,.47-.6,10.09,10.09,0,0,0,.72,1,5.79,5.79,0,0,0,1.46,1.1,5.78,5.78,0,0,1,1.33,1.15,1.22,1.22,0,0,1,0,1.32,1.24,1.24,0,0,1-1,.46,1.72,1.72,0,0,1-1.33-.62c-.31-.39-.42-1.13-.16-1.33a.86.86,0,0,1,.73-.09.25.25,0,0,0,.29-.17.36.36,0,0,0-.16-.36.68.68,0,0,0-.43-.16,4.87,4.87,0,0,1-.6,0,1.12,1.12,0,0,0-.87.27,1.37,1.37,0,0,0-.44.63,3.32,3.32,0,0,0,0,.44c0,.13-.07.23-.07.32a2.65,2.65,0,0,0,.06.5,3,3,0,0,0,.19.61,1,1,0,0,0,.11.24c.06.06.16.12.26.22a2.49,2.49,0,0,0,.59.49c.22.09.66-.06.78,0s.28.23.47.22a8.15,8.15,0,0,0,1.75-.22,2.54,2.54,0,0,0,1.53-1.51,2.24,2.24,0,0,0-.58-2,13.17,13.17,0,0,0-2.1-1.82,2.2,2.2,0,0,1-.7-.76,1.25,1.25,0,0,1-.18-.83,3.66,3.66,0,0,1,.81.76,1.45,1.45,0,0,0,.5.38,1.48,1.48,0,0,0,.43.05c.13,0,0,.13.26.2a8.62,8.62,0,0,0,1.48.25,2.2,2.2,0,0,0,.39-.13,7.16,7.16,0,0,0,1.12-.35,2.92,2.92,0,0,0,1.72-1.74,2.87,2.87,0,0,0-.09-2.12,13.52,13.52,0,0,0-1-1.59,2.88,2.88,0,0,1-.66-2.41,3.09,3.09,0,0,1,1.28-1.81c.11-.18-.21-.36-.29-.4a1,1,0,0,0-.45-.09h0a1,1,0,0,0-.43.18c-.1,0-.53,0-.59,0s-.18.15-.2.19,0,.08-.07.2-.5.49-.62.72,0,.37-.07.54-.31.16-.36.34,0,.56,0,.77-.19.12-.2.34.54.81.64,1a2.92,2.92,0,0,1,.25.49,2.3,2.3,0,0,0,.44.63c.13.15.5.38.59.54s0,.26,0,.37a2.25,2.25,0,0,0,.28.41,1.52,1.52,0,0,1,0,1.12,1.72,1.72,0,0,1-1.14,1,2.49,2.49,0,0,1-2.86-1.63,2.2,2.2,0,0,1,.53-2.36,4.3,4.3,0,0,0,1.2-2.9,4.4,4.4,0,0,0-4.45-4.31,4.35,4.35,0,0,0-4.39,4.31A4.26,4.26,0,0,0,278.69,147.84Z"/><path id="Fill-6-3" data-name="Fill-6" d="M281.12,143a2.14,2.14,0,1,1-2.15,2.14,2.15,2.15,0,0,1,2.15-2.14" style="fill:#fff"/><path id="Fill-8-3" data-name="Fill-8" d="M280.84,145a.49.49,0,1,1-.49.49.49.49,0,0,1,.49-.49"/></g><g id="Wordmark-2" data-name="Wordmark"><path id="Fill-10-2" data-name="Fill-10" d="M300.14,151.15a6.41,6.41,0,0,1,2-4.93,7.55,7.55,0,0,1,5.34-1.87,8.41,8.41,0,0,1,2.53.37,6.4,6.4,0,0,1,2.07,1,6.74,6.74,0,0,1,2,2.4,6.82,6.82,0,0,1,.69,3,6.69,6.69,0,0,1-2.08,5.07,7.45,7.45,0,0,1-5.36,2,7.08,7.08,0,0,1-5.21-2,6.94,6.94,0,0,1-2-5.15Zm7.32-5.31a2.79,2.79,0,0,0-2.47,1.51,7.88,7.88,0,0,0-.91,4.09,7.23,7.23,0,0,0,.95,3.92,2.84,2.84,0,0,0,2.45,1.5,2.72,2.72,0,0,0,2.4-1.53,8,8,0,0,0,.91-4.11,7.27,7.27,0,0,0-.92-3.91,2.74,2.74,0,0,0-2.41-1.47Zm8.78,5.31a6.41,6.41,0,0,1,2-4.93,7.55,7.55,0,0,1,5.34-1.87,8.41,8.41,0,0,1,2.53.37,6.4,6.4,0,0,1,2.07,1,6.74,6.74,0,0,1,2,2.4,6.82,6.82,0,0,1,.69,3,6.69,6.69,0,0,1-2.08,5.07,7.46,7.46,0,0,1-5.36,2,7.07,7.07,0,0,1-5.21-2,6.94,6.94,0,0,1-2-5.15Zm7.32-5.31a2.79,2.79,0,0,0-2.47,1.51,7.88,7.88,0,0,0-.91,4.09,7.24,7.24,0,0,0,.95,3.92,2.84,2.84,0,0,0,2.45,1.5,2.72,2.72,0,0,0,2.4-1.53,8,8,0,0,0,.91-4.11,7.27,7.27,0,0,0-.92-3.91,2.74,2.74,0,0,0-2.41-1.47ZM332,157.91V156.8l1.21-.12.38-.38V146.15l-.26-.29-1.33-.14v-1.08h5.6v.53l5.69,8.8v-7.73l-.35-.38-1.3-.14v-1.08h5v1.08l-1.17.14-.38.38v11.67H342l-6.57-10.09v8.49l.28.38,1.33.12v1.11Zm15.53,0v-1.15l1.43-.08.31-.38V146.15l-.31-.29-1.43-.08v-1.15h7.08v1.15l-1.46.08-.32.29v10.16l.32.38,1.46.08v1.15Z" style="fill:#fff"/></g></g></g></g><path d="M125.67,196.09v-2.58h-2.32v2.58h-.76v-5.51h.76v2.3h2.32v-2.3h.76v5.51Z" style="fill:#bcbec0"/><path d="M131,192.37a2.45,2.45,0,0,1,.49,1.61,2.8,2.8,0,0,1-.22,1.16,1.76,1.76,0,0,1-.65.78,1.81,1.81,0,0,1-1,.28,1.71,1.71,0,0,1-1.38-.59,2.42,2.42,0,0,1-.5-1.61,2.8,2.8,0,0,1,.22-1.16,1.75,1.75,0,0,1,.65-.78,1.82,1.82,0,0,1,1-.28A1.7,1.7,0,0,1,131,192.37ZM128.48,194q0,1.61,1.09,1.61t1.09-1.62q0-1.61-1.08-1.61T128.48,194Z" style="fill:#bcbec0"/><path d="M134.91,191.83l-.14.72a1.51,1.51,0,0,0-.37,0,.78.78,0,0,0-.63.29,2.14,2.14,0,0,0-.38.9v2.41h-.74v-4.22h.63l.07.86a1.6,1.6,0,0,1,.46-.71,1,1,0,0,1,.67-.24A1.72,1.72,0,0,1,134.91,191.83Z" style="fill:#bcbec0"/><path d="M136.49,190a.49.49,0,0,1,.14.36.48.48,0,0,1-.14.36.52.52,0,0,1-.38.14.51.51,0,0,1-.37-.14.48.48,0,0,1-.14-.36.49.49,0,0,1,.14-.36.5.5,0,0,1,.37-.14A.51.51,0,0,1,136.49,190Zm0,1.88v4.22h-.74v-4.22Z" style="fill:#bcbec0"/><path d="M140.48,191.87v.56l-2.2,3h2.22l-.09.62h-3v-.55l2.19-3h-2v-.62Z" style="fill:#bcbec0"/><path d="M144.41,192.37a2.45,2.45,0,0,1,.49,1.61,2.8,2.8,0,0,1-.22,1.16,1.76,1.76,0,0,1-.65.78,1.81,1.81,0,0,1-1,.28,1.71,1.71,0,0,1-1.38-.59,2.42,2.42,0,0,1-.5-1.61,2.8,2.8,0,0,1,.22-1.16,1.75,1.75,0,0,1,.65-.78,1.82,1.82,0,0,1,1-.28A1.7,1.7,0,0,1,144.41,192.37ZM141.94,194q0,1.61,1.09,1.61t1.09-1.62q0-1.61-1.08-1.61T141.94,194Z" style="fill:#bcbec0"/><path d="M149,192.12a1.32,1.32,0,0,1,.32.94v3h-.74v-2.92a.94.94,0,0,0-.17-.63.64.64,0,0,0-.5-.18,1,1,0,0,0-.59.19,2,2,0,0,0-.48.55v3h-.74v-4.22h.63l.06.62a1.66,1.66,0,0,1,.56-.53,1.43,1.43,0,0,1,.73-.19A1.18,1.18,0,0,1,149,192.12Z" style="fill:#bcbec0"/><path d="M152.94,195.9a1.62,1.62,0,0,1-.94.29,1.11,1.11,0,0,1-.84-.31,1.23,1.23,0,0,1-.3-.89v-2.54h-.74v-.57h.74v-1l.74-.09v1h1l-.08.57h-.92V195a.78.78,0,0,0,.12.48.46.46,0,0,0,.39.15,1.2,1.2,0,0,0,.56-.17Z" style="fill:#bcbec0"/><path d="M156.57,195.49a.53.53,0,0,0,.26.19l-.17.51a1.13,1.13,0,0,1-.53-.18.84.84,0,0,1-.3-.45,1.41,1.41,0,0,1-1.26.63,1.35,1.35,0,0,1-1-.35,1.23,1.23,0,0,1-.36-.92,1.21,1.21,0,0,1,.48-1,2.26,2.26,0,0,1,1.37-.36h.65v-.31a.82.82,0,0,0-.22-.64,1,1,0,0,0-.66-.19,3.72,3.72,0,0,0-1.14.22l-.18-.54a4.24,4.24,0,0,1,1.46-.29,1.52,1.52,0,0,1,1.11.36,1.39,1.39,0,0,1,.37,1v1.93A.66.66,0,0,0,156.57,195.49Zm-.82-.51v-1h-.55q-1.17,0-1.17.86a.79.79,0,0,0,.18.57.72.72,0,0,0,.54.19A1.1,1.1,0,0,0,155.74,195Z" style="fill:#bcbec0"/><path d="M158.11,195.94a.94.94,0,0,1-.24-.68v-5.08l.74-.09v5.15a.43.43,0,0,0,.06.26.24.24,0,0,0,.2.08.72.72,0,0,0,.27,0l.19.51a1.21,1.21,0,0,1-.58.14A.85.85,0,0,1,158.11,195.94Z" style="fill:#bcbec0"/><path d="M167.34,196.09h-.74l-.19-2.49q-.12-1.46-.14-2.25l-1.19,4.11h-.71l-1.26-4.12q0,1-.1,2.31l-.18,2.43h-.72l.46-5.51h1l1.16,4,1.1-4h1Z" style="fill:#bcbec0"/><path d="M171.57,192.37a2.45,2.45,0,0,1,.49,1.61,2.8,2.8,0,0,1-.22,1.16,1.76,1.76,0,0,1-.65.78,1.81,1.81,0,0,1-1,.28,1.71,1.71,0,0,1-1.38-.59,2.42,2.42,0,0,1-.5-1.61,2.8,2.8,0,0,1,.22-1.16,1.75,1.75,0,0,1,.65-.78,1.82,1.82,0,0,1,1-.28A1.7,1.7,0,0,1,171.57,192.37ZM169.09,194q0,1.61,1.09,1.61t1.09-1.62q0-1.61-1.08-1.61T169.09,194Z" style="fill:#bcbec0"/><path d="M176.16,192.12a1.32,1.32,0,0,1,.32.94v3h-.74v-2.92a.94.94,0,0,0-.17-.63.64.64,0,0,0-.5-.18,1,1,0,0,0-.59.19,2,2,0,0,0-.48.55v3h-.74v-4.22h.63l.06.62a1.66,1.66,0,0,1,.56-.53,1.43,1.43,0,0,1,.73-.19A1.18,1.18,0,0,1,176.16,192.12Z" style="fill:#bcbec0"/><path d="M180.92,192.37a2.44,2.44,0,0,1,.49,1.61,2.82,2.82,0,0,1-.22,1.16,1.76,1.76,0,0,1-.65.78,1.81,1.81,0,0,1-1,.28,1.7,1.7,0,0,1-1.38-.59,2.42,2.42,0,0,1-.5-1.61,2.8,2.8,0,0,1,.22-1.16,1.76,1.76,0,0,1,.65-.78,1.82,1.82,0,0,1,1-.28A1.7,1.7,0,0,1,180.92,192.37ZM178.45,194q0,1.61,1.09,1.61t1.09-1.62q0-1.61-1.08-1.61T178.45,194Z" style="fill:#bcbec0"/><path d="M184.86,191.89a1.93,1.93,0,0,1,.6.35l-.35.46a1.83,1.83,0,0,0-.44-.24,1.38,1.38,0,0,0-.47-.08.91.91,0,0,0-.8.41,2.11,2.11,0,0,0-.28,1.21,2,2,0,0,0,.28,1.18.94.94,0,0,0,.8.38,1.32,1.32,0,0,0,.46-.08,2.31,2.31,0,0,0,.46-.24l.34.48a2,2,0,0,1-1.29.46,1.68,1.68,0,0,1-1.35-.58,2.37,2.37,0,0,1-.49-1.59,2.87,2.87,0,0,1,.22-1.18,1.81,1.81,0,0,1,.64-.78,1.7,1.7,0,0,1,1-.28A2.1,2.1,0,0,1,184.86,191.89Z" style="fill:#bcbec0"/><path d="M189.34,192.12a1.32,1.32,0,0,1,.32.94v3h-.74v-2.92a.92.92,0,0,0-.17-.63.65.65,0,0,0-.5-.18,1,1,0,0,0-.58.19,2,2,0,0,0-.48.54v3h-.74v-5.9l.74-.08v2.35a1.49,1.49,0,0,1,1.25-.68A1.17,1.17,0,0,1,189.34,192.12Z" style="fill:#bcbec0"/><path d="M193.39,191.83l-.14.72a1.51,1.51,0,0,0-.37,0,.78.78,0,0,0-.63.29,2.14,2.14,0,0,0-.38.9v2.41h-.74v-4.22h.63l.07.86a1.6,1.6,0,0,1,.46-.71,1,1,0,0,1,.67-.24A1.72,1.72,0,0,1,193.39,191.83Z" style="fill:#bcbec0"/><path d="M197,192.37a2.44,2.44,0,0,1,.49,1.61,2.82,2.82,0,0,1-.22,1.16,1.76,1.76,0,0,1-.65.78,1.81,1.81,0,0,1-1,.28,1.7,1.7,0,0,1-1.38-.59,2.42,2.42,0,0,1-.5-1.61,2.8,2.8,0,0,1,.22-1.16,1.76,1.76,0,0,1,.65-.78,1.82,1.82,0,0,1,1-.28A1.7,1.7,0,0,1,197,192.37ZM194.48,194q0,1.61,1.09,1.61t1.09-1.62q0-1.61-1.08-1.61T194.48,194Z" style="fill:#bcbec0"/><path d="M203.73,192.13a1.36,1.36,0,0,1,.31.94v3h-.74v-2.92q0-.82-.59-.82a.8.8,0,0,0-.53.18,2.56,2.56,0,0,0-.46.56v3H201v-2.92q0-.82-.59-.82a.79.79,0,0,0-.54.18,2.48,2.48,0,0,0-.46.56v3h-.74v-4.22h.63l.06.62a1.41,1.41,0,0,1,1.22-.71,1.11,1.11,0,0,1,.67.2,1.1,1.1,0,0,1,.4.56,2,2,0,0,1,.55-.56,1.26,1.26,0,0,1,.71-.2A1.06,1.06,0,0,1,203.73,192.13Z" style="fill:#bcbec0"/><path d="M208.69,194.23H206a1.65,1.65,0,0,0,.35,1,1,1,0,0,0,.78.33,1.72,1.72,0,0,0,.56-.09,2.29,2.29,0,0,0,.54-.28l.32.44a2.33,2.33,0,0,1-1.47.53,1.71,1.71,0,0,1-1.37-.58,2.36,2.36,0,0,1-.49-1.58,3,3,0,0,1,.21-1.16,1.83,1.83,0,0,1,.61-.8,1.54,1.54,0,0,1,.93-.29,1.56,1.56,0,0,1,1.29.55,2.36,2.36,0,0,1,.45,1.53C208.7,194,208.7,194.11,208.69,194.23Zm-.71-.59a1.55,1.55,0,0,0-.25-1,.87.87,0,0,0-.74-.33q-.91,0-1,1.33h2Z" style="fill:#bcbec0"/><path d="M212.8,190.58v4.85h2.26l-.09.66H212v-5.51Z" style="fill:#bcbec0"/><path d="M218.75,192.37a2.45,2.45,0,0,1,.49,1.61,2.8,2.8,0,0,1-.22,1.16,1.76,1.76,0,0,1-.65.78,1.81,1.81,0,0,1-1,.28,1.71,1.71,0,0,1-1.38-.59,2.42,2.42,0,0,1-.5-1.61,2.8,2.8,0,0,1,.22-1.16,1.75,1.75,0,0,1,.65-.78,1.82,1.82,0,0,1,1-.28A1.7,1.7,0,0,1,218.75,192.37ZM216.27,194q0,1.61,1.09,1.61t1.09-1.62q0-1.61-1.08-1.61T216.27,194Z" style="fill:#bcbec0"/><path d="M223.86,192.07a2.27,2.27,0,0,1-.53.1l-.7,0a1.11,1.11,0,0,1,.74,1.06,1.34,1.34,0,0,1-.43,1,1.66,1.66,0,0,1-1.18.4,1.74,1.74,0,0,1-.54-.08.45.45,0,0,0-.15.17.48.48,0,0,0-.06.22q0,.34.55.34h.67a1.76,1.76,0,0,1,.75.15,1.21,1.21,0,0,1,.51.42,1,1,0,0,1,.18.6,1.07,1.07,0,0,1-.5.95,2.69,2.69,0,0,1-1.47.33,3.32,3.32,0,0,1-1.08-.14,1,1,0,0,1-.56-.42,1.38,1.38,0,0,1-.17-.72h.66a.74.74,0,0,0,.1.4.6.6,0,0,0,.34.22,2.51,2.51,0,0,0,.7.08,2,2,0,0,0,.95-.16.53.53,0,0,0,.28-.49.51.51,0,0,0-.22-.45,1.1,1.1,0,0,0-.62-.15h-.66a1.25,1.25,0,0,1-.81-.23.71.71,0,0,1-.28-.57.75.75,0,0,1,.12-.4,1.17,1.17,0,0,1,.34-.34,1.2,1.2,0,0,1-.71-1.17,1.39,1.39,0,0,1,.21-.76,1.44,1.44,0,0,1,.58-.52,1.81,1.81,0,0,1,.83-.19,5.85,5.85,0,0,0,.83,0,2.91,2.91,0,0,0,.56-.12l.54-.22Zm-2.79.5a1.15,1.15,0,0,0,0,1.38.83.83,0,0,0,.66.26.85.85,0,0,0,.66-.25,1,1,0,0,0,.23-.71q0-.94-.9-.94A.81.81,0,0,0,221.07,192.57Z" style="fill:#bcbec0"/><path d="M227.45,192.37a2.45,2.45,0,0,1,.49,1.61,2.8,2.8,0,0,1-.22,1.16,1.76,1.76,0,0,1-.65.78,1.81,1.81,0,0,1-1,.28,1.71,1.71,0,0,1-1.38-.59,2.42,2.42,0,0,1-.5-1.61,2.8,2.8,0,0,1,.22-1.16,1.75,1.75,0,0,1,.65-.78,1.82,1.82,0,0,1,1-.28A1.7,1.7,0,0,1,227.45,192.37ZM225,194q0,1.61,1.09,1.61t1.09-1.62q0-1.61-1.08-1.61T225,194Z" style="fill:#bcbec0"/><g id="Page-1-3" data-name="Page-1"><g id="Wordmark-Horizontal-3" data-name="Wordmark-Horizontal"><g id="Logo-wordmark-HORIZ-3" data-name="Logo-wordmark-HORIZ"><g id="OONI-Logo-4" data-name="OONI-Logo"><g id="Group-3-5" data-name="Group-3"><g style="mask:url(#mask-5)"><path id="Fill-1-5" data-name="Fill-1" d="M143.76,135.17a13.62,13.62,0,1,1-13.67,13.62,13.65,13.65,0,0,1,13.67-13.62"/></g></g><g id="Group-3-6" data-name="Group-3"><g style="mask:url(#mask-6)"><path id="Fill-1-6" data-name="Fill-1" d="M143.76,136.85a11.93,11.93,0,1,1-12,11.93,12,12,0,0,1,12-11.93" style="fill:#fff"/></g></g><path id="Fill-4-4" data-name="Fill-4" d="M140.5,146.07c.84.82,1,1.58.69,2.27s-1.23,1.14-2.65,1.16a1.83,1.83,0,0,1-1.8-.94,1.61,1.61,0,0,1,.22-2c.54-.63.94-.68,1.38-.45a1.09,1.09,0,0,1,.59,1,4,4,0,0,1-.21.88.08.08,0,0,0,.11.08,2.41,2.41,0,0,0,.75-.58A3.5,3.5,0,0,0,140,146c0-.13-.39-.41-.41-.56a1.16,1.16,0,0,0-.07-.29.49.49,0,0,0-.15-.15c-.1-.08-.37,0-.48-.12s-.13-.36-.26-.4a.64.64,0,0,0-.27,0c-.14,0-.25.12-.37.1s-.29-.27-.5-.25-.48.38-.77.69a6.66,6.66,0,0,0-1.17,1.35,2.64,2.64,0,0,0-.37,1.79,2.72,2.72,0,0,0,.93,1.87,3.93,3.93,0,0,0,1.55.89,3.29,3.29,0,0,0,1.07.27c.14,0,.45,0,.55,0,.26,0,.2-.14.44-.18a3.63,3.63,0,0,0,2-1l.42-.44a2.11,2.11,0,0,1,0,.36,1.13,1.13,0,0,1-.72.85,21.66,21.66,0,0,0-2,1.17,2.57,2.57,0,0,0-1.18,1.34,1.77,1.77,0,0,0,.05,1.35,2.32,2.32,0,0,0,1,1.07c.42.24.79.46,1.2.66s.77.39.73.9a1,1,0,0,1-.61.89,4.85,4.85,0,0,1-1,.23,1.29,1.29,0,0,0,.86.46,2.36,2.36,0,0,0,1-.17c.34-.12.49-.42.55-.43a.45.45,0,0,0,.21-.06c.07-.05.3-.23.33-.34s0-.28.06-.38a3,3,0,0,0,.14-.58,1.42,1.42,0,0,0-.1-.79c-.13-.19-.06-.29-.17-.39a.65.65,0,0,0-.19-.17c-.11,0-.16,0-.24,0s-.27-.52-.44-.53a.7.7,0,0,0-.2,0,3.4,3.4,0,0,1-.89,0c-.18-.07-.75-.43-.7-1a1.1,1.1,0,0,1,.8-.92c.39-.14.53-.13.8-.26s.45-.29.65-.39a3.81,3.81,0,0,0,.68-.4,2.4,2.4,0,0,0,.35-.35,3.69,3.69,0,0,1,.47-.6,10.09,10.09,0,0,0,.72,1,5.79,5.79,0,0,0,1.46,1.1,5.78,5.78,0,0,1,1.33,1.15,1.22,1.22,0,0,1,0,1.32,1.24,1.24,0,0,1-1,.46,1.72,1.72,0,0,1-1.33-.62c-.31-.39-.42-1.13-.16-1.33a.86.86,0,0,1,.73-.09.25.25,0,0,0,.29-.17.36.36,0,0,0-.16-.36.68.68,0,0,0-.43-.16,4.87,4.87,0,0,1-.6,0,1.12,1.12,0,0,0-.87.27,1.37,1.37,0,0,0-.44.63,3.32,3.32,0,0,0,0,.44c0,.13-.07.23-.07.32a2.65,2.65,0,0,0,.06.5,3,3,0,0,0,.19.61,1,1,0,0,0,.11.24c.06.06.16.12.26.22a2.49,2.49,0,0,0,.59.49c.22.09.66-.06.78,0s.28.23.47.22a8.15,8.15,0,0,0,1.75-.22,2.54,2.54,0,0,0,1.53-1.51,2.24,2.24,0,0,0-.58-2,13.17,13.17,0,0,0-2.1-1.82,2.2,2.2,0,0,1-.7-.76,1.25,1.25,0,0,1-.18-.83,3.66,3.66,0,0,1,.81.76,1.45,1.45,0,0,0,.5.38,1.48,1.48,0,0,0,.43.05c.13,0,0,.13.26.2a8.62,8.62,0,0,0,1.48.25,2.2,2.2,0,0,0,.39-.13,7.16,7.16,0,0,0,1.12-.35,2.92,2.92,0,0,0,1.72-1.74,2.87,2.87,0,0,0-.09-2.12,13.52,13.52,0,0,0-1-1.59,2.88,2.88,0,0,1-.66-2.41,3.09,3.09,0,0,1,1.28-1.81c.11-.18-.21-.36-.29-.4a1,1,0,0,0-.45-.09h0a1,1,0,0,0-.43.18c-.1,0-.53,0-.59,0s-.18.15-.2.19,0,.08-.07.2-.5.49-.62.72,0,.37-.07.54-.31.16-.36.34,0,.56,0,.77-.19.12-.2.34.54.81.64,1a2.92,2.92,0,0,1,.25.49,2.3,2.3,0,0,0,.44.63c.13.15.5.38.59.54s0,.26,0,.37a2.25,2.25,0,0,0,.28.41,1.52,1.52,0,0,1,0,1.12,1.72,1.72,0,0,1-1.14,1,2.49,2.49,0,0,1-2.86-1.63,2.2,2.2,0,0,1,.53-2.36A4.3,4.3,0,0,0,148,143a4.4,4.4,0,0,0-4.45-4.31,4.35,4.35,0,0,0-4.39,4.31A4.26,4.26,0,0,0,140.5,146.07Z"/><path id="Fill-6-4" data-name="Fill-6" d="M142.92,141.24a2.14,2.14,0,1,1-2.15,2.14,2.15,2.15,0,0,1,2.15-2.14" style="fill:#fff"/><path id="Fill-8-4" data-name="Fill-8" d="M142.64,143.19a.49.49,0,1,1-.49.49.49.49,0,0,1,.49-.49"/></g><g id="Wordmark-3" data-name="Wordmark"><path id="Fill-10-3" data-name="Fill-10" d="M161.94,149.38a6.41,6.41,0,0,1,2-4.93,7.55,7.55,0,0,1,5.34-1.87,8.41,8.41,0,0,1,2.53.37,6.4,6.4,0,0,1,2.07,1,6.74,6.74,0,0,1,2,2.4,6.82,6.82,0,0,1,.69,3,6.69,6.69,0,0,1-2.08,5.07,7.45,7.45,0,0,1-5.36,2,7.08,7.08,0,0,1-5.21-2,6.94,6.94,0,0,1-2-5.15Zm7.32-5.31a2.79,2.79,0,0,0-2.47,1.51,7.88,7.88,0,0,0-.91,4.09,7.23,7.23,0,0,0,.95,3.92,2.84,2.84,0,0,0,2.45,1.5,2.72,2.72,0,0,0,2.4-1.53,8,8,0,0,0,.91-4.11,7.27,7.27,0,0,0-.92-3.91,2.74,2.74,0,0,0-2.41-1.47Zm8.78,5.31a6.41,6.41,0,0,1,2-4.93,7.55,7.55,0,0,1,5.34-1.87,8.41,8.41,0,0,1,2.53.37,6.4,6.4,0,0,1,2.07,1,6.74,6.74,0,0,1,2,2.4,6.82,6.82,0,0,1,.69,3,6.69,6.69,0,0,1-2.08,5.07,7.46,7.46,0,0,1-5.36,2,7.07,7.07,0,0,1-5.21-2,6.94,6.94,0,0,1-2-5.15Zm7.32-5.31a2.79,2.79,0,0,0-2.47,1.51,7.88,7.88,0,0,0-.91,4.09,7.24,7.24,0,0,0,.95,3.92,2.84,2.84,0,0,0,2.45,1.5,2.72,2.72,0,0,0,2.4-1.53,8,8,0,0,0,.91-4.11,7.27,7.27,0,0,0-.92-3.91,2.74,2.74,0,0,0-2.41-1.47Zm8.46,12.07V155l1.21-.12.38-.38V144.38l-.26-.29-1.33-.14v-1.08h5.6v.53l5.69,8.8v-7.73l-.35-.38-1.3-.14v-1.08h5v1.08l-1.17.14-.38.38v11.67H203.8l-6.57-10.09v8.49l.28.38,1.33.12v1.11Zm15.53,0V155l1.43-.08.31-.38V144.38l-.31-.29-1.43-.08v-1.15h7.08V144l-1.46.08-.32.29v10.16l.32.38,1.46.08v1.15Z"/></g></g></g></g><path d="M278.36,90.58l-1.76,5.51h-.82L274,90.58h.82l1.38,4.69,1.38-4.69Z" style="fill:#bcbec0"/><path d="M282.14,94.23h-2.69a1.64,1.64,0,0,0,.35,1,1,1,0,0,0,.78.33,1.72,1.72,0,0,0,.56-.09,2.25,2.25,0,0,0,.54-.28l.32.44a2.33,2.33,0,0,1-1.47.53,1.71,1.71,0,0,1-1.37-.58,2.36,2.36,0,0,1-.49-1.58,3,3,0,0,1,.21-1.16,1.82,1.82,0,0,1,.61-.8,1.55,1.55,0,0,1,.93-.29,1.56,1.56,0,0,1,1.29.55,2.36,2.36,0,0,1,.45,1.53C282.15,94,282.15,94.11,282.14,94.23Zm-.71-.59a1.56,1.56,0,0,0-.25-1,.87.87,0,0,0-.74-.33q-.9,0-1,1.33h2Z" style="fill:#bcbec0"/><path d="M285.58,91.83l-.14.72a1.51,1.51,0,0,0-.37,0,.78.78,0,0,0-.63.29,2.13,2.13,0,0,0-.38.9v2.41h-.74V91.87H284l.07.86a1.6,1.6,0,0,1,.46-.71,1,1,0,0,1,.67-.24A1.72,1.72,0,0,1,285.58,91.83Z" style="fill:#bcbec0"/><path d="M288.54,95.9a1.62,1.62,0,0,1-.94.29,1.11,1.11,0,0,1-.84-.31,1.23,1.23,0,0,1-.3-.89V92.44h-.74v-.57h.74v-1l.74-.09v1h1l-.08.57h-.92V95a.77.77,0,0,0,.12.48.46.46,0,0,0,.39.15,1.2,1.2,0,0,0,.56-.17Z" style="fill:#bcbec0"/><path d="M290,90a.49.49,0,0,1,.14.36.48.48,0,0,1-.14.36.52.52,0,0,1-.38.14.51.51,0,0,1-.37-.14.47.47,0,0,1-.14-.36.49.49,0,0,1,.14-.36.5.5,0,0,1,.37-.14A.51.51,0,0,1,290,90Zm0,1.88v4.22h-.74V91.87Z" style="fill:#bcbec0"/><path d="M293.78,91.89a1.93,1.93,0,0,1,.6.35l-.35.46a1.83,1.83,0,0,0-.44-.24,1.38,1.38,0,0,0-.47-.08.91.91,0,0,0-.8.41A2.11,2.11,0,0,0,292,94a2,2,0,0,0,.28,1.18.94.94,0,0,0,.8.38,1.32,1.32,0,0,0,.46-.08,2.31,2.31,0,0,0,.46-.24l.34.48a2,2,0,0,1-1.29.46,1.68,1.68,0,0,1-1.35-.58,2.37,2.37,0,0,1-.49-1.59,2.87,2.87,0,0,1,.22-1.18,1.81,1.81,0,0,1,.64-.78,1.7,1.7,0,0,1,1-.28A2.1,2.1,0,0,1,293.78,91.89Z" style="fill:#bcbec0"/><path d="M298.23,95.49a.54.54,0,0,0,.26.19l-.17.51a1.13,1.13,0,0,1-.53-.18.85.85,0,0,1-.3-.45,1.41,1.41,0,0,1-1.26.63,1.35,1.35,0,0,1-1-.35,1.23,1.23,0,0,1-.36-.92,1.21,1.21,0,0,1,.48-1,2.26,2.26,0,0,1,1.37-.36h.65v-.31a.82.82,0,0,0-.22-.64,1,1,0,0,0-.66-.19,3.71,3.71,0,0,0-1.14.22l-.18-.54a4.24,4.24,0,0,1,1.46-.29,1.52,1.52,0,0,1,1.11.36,1.39,1.39,0,0,1,.37,1v1.93A.66.66,0,0,0,298.23,95.49Zm-.82-.51V94h-.55q-1.17,0-1.17.86a.79.79,0,0,0,.18.57.72.72,0,0,0,.54.19A1.1,1.1,0,0,0,297.41,95Z" style="fill:#bcbec0"/><path d="M299.77,95.94a.94.94,0,0,1-.24-.68V90.18l.74-.09v5.15a.43.43,0,0,0,.06.26.24.24,0,0,0,.2.08.72.72,0,0,0,.27,0L301,96a1.2,1.2,0,0,1-.58.14A.85.85,0,0,1,299.77,95.94Z" style="fill:#bcbec0"/><path d="M304.84,90.58v5.51h-.76V90.58Z" style="fill:#bcbec0"/><path d="M309.28,92.12a1.32,1.32,0,0,1,.32.94v3h-.74V93.17a.93.93,0,0,0-.17-.63.64.64,0,0,0-.5-.18,1,1,0,0,0-.59.19,2,2,0,0,0-.48.55v3h-.74V91.87H307l.06.62a1.66,1.66,0,0,1,.56-.53,1.44,1.44,0,0,1,.73-.19A1.17,1.17,0,0,1,309.28,92.12Z" style="fill:#bcbec0"/><path d="M314.13,91.87l-1.43,4.22h-.89l-1.46-4.22h.8l1.1,3.56,1.1-3.56Z" style="fill:#bcbec0"/><path d="M318.11,94.23h-2.69a1.64,1.64,0,0,0,.35,1,1,1,0,0,0,.78.33,1.72,1.72,0,0,0,.56-.09,2.25,2.25,0,0,0,.54-.28l.32.44a2.33,2.33,0,0,1-1.47.53,1.71,1.71,0,0,1-1.37-.58,2.36,2.36,0,0,1-.49-1.58,3,3,0,0,1,.21-1.16,1.82,1.82,0,0,1,.61-.8,1.55,1.55,0,0,1,.93-.29,1.56,1.56,0,0,1,1.29.55,2.36,2.36,0,0,1,.45,1.53C318.12,94,318.12,94.11,318.11,94.23Zm-.71-.59a1.56,1.56,0,0,0-.25-1,.87.87,0,0,0-.74-.33q-.9,0-1,1.33h2Z" style="fill:#bcbec0"/><path d="M321.54,91.83l-.14.72a1.51,1.51,0,0,0-.37,0,.78.78,0,0,0-.63.29,2.14,2.14,0,0,0-.38.9v2.41h-.74V91.87h.63l.07.86a1.6,1.6,0,0,1,.46-.71,1,1,0,0,1,.67-.24A1.72,1.72,0,0,1,321.54,91.83Z" style="fill:#bcbec0"/><path d="M324.51,95.9a1.62,1.62,0,0,1-.94.29,1.11,1.11,0,0,1-.84-.31,1.23,1.23,0,0,1-.3-.89V92.44h-.74v-.57h.74v-1l.74-.09v1h1l-.08.57h-.92V95a.78.78,0,0,0,.12.48.46.46,0,0,0,.39.15,1.2,1.2,0,0,0,.56-.17Z" style="fill:#bcbec0"/><path d="M328.32,94.23h-2.69a1.65,1.65,0,0,0,.35,1,1,1,0,0,0,.78.33,1.72,1.72,0,0,0,.56-.09,2.29,2.29,0,0,0,.54-.28l.32.44a2.33,2.33,0,0,1-1.47.53,1.71,1.71,0,0,1-1.37-.58,2.36,2.36,0,0,1-.49-1.58,3,3,0,0,1,.21-1.16,1.83,1.83,0,0,1,.61-.8,1.54,1.54,0,0,1,.93-.29,1.56,1.56,0,0,1,1.29.55,2.36,2.36,0,0,1,.45,1.53C328.34,94,328.33,94.11,328.32,94.23Zm-.71-.59a1.55,1.55,0,0,0-.25-1,.87.87,0,0,0-.74-.33q-.91,0-1,1.33h2Z" style="fill:#bcbec0"/><path d="M332.78,90.18v5.91h-.65l-.07-.58a1.52,1.52,0,0,1-.52.5,1.37,1.37,0,0,1-.7.18,1.35,1.35,0,0,1-1.17-.59,2.7,2.7,0,0,1-.42-1.59,3.12,3.12,0,0,1,.2-1.15,1.79,1.79,0,0,1,.58-.79,1.42,1.42,0,0,1,.88-.28,1.52,1.52,0,0,1,1.14.52V90.09Zm-1.2,5.27A1.81,1.81,0,0,0,332,95V92.91a1.59,1.59,0,0,0-.44-.41,1,1,0,0,0-.53-.14.85.85,0,0,0-.76.41A2.23,2.23,0,0,0,330,94a2.35,2.35,0,0,0,.25,1.22.79.79,0,0,0,.71.4A1,1,0,0,0,331.58,95.45Z" style="fill:#bcbec0"/><path d="M337.22,90.58v4.85h2.26l-.09.66h-2.94V90.58Z" style="fill:#bcbec0"/><path d="M343.16,92.37a2.45,2.45,0,0,1,.49,1.61,2.8,2.8,0,0,1-.22,1.16,1.76,1.76,0,0,1-.65.78,1.81,1.81,0,0,1-1,.28,1.71,1.71,0,0,1-1.38-.59,2.42,2.42,0,0,1-.5-1.61,2.8,2.8,0,0,1,.22-1.16,1.75,1.75,0,0,1,.65-.78,1.82,1.82,0,0,1,1-.28A1.7,1.7,0,0,1,343.16,92.37ZM340.69,94q0,1.61,1.09,1.61T342.86,94q0-1.61-1.08-1.61T340.69,94Z" style="fill:#bcbec0"/><path d="M348.27,92.07a2.27,2.27,0,0,1-.53.1l-.7,0a1.11,1.11,0,0,1,.74,1.06,1.34,1.34,0,0,1-.43,1,1.66,1.66,0,0,1-1.18.4,1.74,1.74,0,0,1-.54-.08.45.45,0,0,0-.15.17.48.48,0,0,0-.06.22q0,.34.55.34h.67a1.76,1.76,0,0,1,.75.15,1.21,1.21,0,0,1,.51.42,1,1,0,0,1,.18.6,1.07,1.07,0,0,1-.5.95,2.69,2.69,0,0,1-1.47.33,3.32,3.32,0,0,1-1.08-.14,1,1,0,0,1-.56-.42,1.38,1.38,0,0,1-.17-.72H345a.74.74,0,0,0,.1.4.6.6,0,0,0,.34.22,2.51,2.51,0,0,0,.7.08,2,2,0,0,0,.95-.16.53.53,0,0,0,.28-.49.51.51,0,0,0-.22-.45,1.1,1.1,0,0,0-.62-.15h-.66a1.25,1.25,0,0,1-.81-.23.71.71,0,0,1-.28-.57.75.75,0,0,1,.12-.4,1.17,1.17,0,0,1,.34-.34,1.2,1.2,0,0,1-.71-1.17,1.39,1.39,0,0,1,.21-.76,1.44,1.44,0,0,1,.58-.52,1.81,1.81,0,0,1,.83-.19,5.85,5.85,0,0,0,.83,0,2.91,2.91,0,0,0,.56-.12l.54-.22Zm-2.79.5a1.15,1.15,0,0,0,0,1.38.83.83,0,0,0,.66.26.85.85,0,0,0,.66-.25,1,1,0,0,0,.23-.71q0-.94-.9-.94A.81.81,0,0,0,345.48,92.57Z" style="fill:#bcbec0"/><path d="M351.87,92.37a2.44,2.44,0,0,1,.49,1.61,2.82,2.82,0,0,1-.22,1.16,1.76,1.76,0,0,1-.65.78,1.81,1.81,0,0,1-1,.28,1.7,1.7,0,0,1-1.38-.59,2.42,2.42,0,0,1-.5-1.61,2.8,2.8,0,0,1,.22-1.16,1.76,1.76,0,0,1,.65-.78,1.82,1.82,0,0,1,1-.28A1.7,1.7,0,0,1,351.87,92.37ZM349.39,94q0,1.61,1.09,1.61T351.57,94q0-1.61-1.08-1.61T349.39,94Z" style="fill:#bcbec0"/><path d="M328.57,66.45v-.8l1-.05.21-.26v-7l-.21-.2-1-.05v-.8h4.89v.8l-1,.05-.22.2v7l.22.26,1,.05v.8Zm-27.66-8.35a1.92,1.92,0,0,0-1.7,1,5.46,5.46,0,0,0-.63,2.83,5,5,0,0,0,.66,2.71,2,2,0,0,0,1.69,1,1.88,1.88,0,0,0,1.66-1.06,5.53,5.53,0,0,0,.63-2.84,5,5,0,0,0-.63-2.71,1.89,1.89,0,0,0-1.66-1" style="fill:#fff"/><rect x="283.32" y="0.46" width="62.66" height="77.26"/><path d="M314.65,10a21.82,21.82,0,1,1-21.82,21.82A21.82,21.82,0,0,1,314.65,10" style="fill:#fff"/><path d="M308.71,26.82c1.53,1.5,1.88,2.89,1.25,4.14s-2.25,2.09-4.83,2.11a3.33,3.33,0,0,1-3.27-1.72,3,3,0,0,1,.39-3.64c1-1.15,1.71-1.25,2.51-.82a2,2,0,0,1,1.08,1.75,7.36,7.36,0,0,1-.39,1.6.14.14,0,0,0,.19.14A4.4,4.4,0,0,0,307,29.35a6.42,6.42,0,0,0,.76-2.66c-.09-.24-.71-.75-.75-1a2.13,2.13,0,0,0-.12-.54.89.89,0,0,0-.27-.28c-.19-.14-.67,0-.87-.21s-.24-.67-.47-.72a1.16,1.16,0,0,0-.49,0c-.26.05-.46.21-.67.19s-.53-.49-.92-.46-.87.69-1.4,1.26a12.16,12.16,0,0,0-2.13,2.46,4.84,4.84,0,0,0-.67,3.26A5,5,0,0,0,300.7,34a7.15,7.15,0,0,0,2.82,1.63,6,6,0,0,0,1.95.49c.26,0,.82,0,1,0,.47-.05.37-.26.81-.33a6.61,6.61,0,0,0,3.64-1.91l.77-.8a3.87,3.87,0,0,1,0,.66,2.06,2.06,0,0,1-1.31,1.56,39.41,39.41,0,0,0-3.67,2.14,4.69,4.69,0,0,0-2.15,2.45,3.24,3.24,0,0,0,.09,2.48,4.24,4.24,0,0,0,1.79,2c.77.44,1.44.83,2.19,1.22.51.26,1.41.71,1.33,1.64a1.92,1.92,0,0,1-1.11,1.63,8.8,8.8,0,0,1-1.73.43,2.35,2.35,0,0,0,1.56.84,4.29,4.29,0,0,0,1.77-.31c.62-.22.9-.76,1-.78a.81.81,0,0,0,.38-.11c.13-.1.55-.42.6-.61s.06-.52.11-.69a5.47,5.47,0,0,0,.26-1.07,2.6,2.6,0,0,0-.19-1.45c-.23-.34-.11-.52-.31-.71A1.18,1.18,0,0,0,312,44c-.19-.07-.3,0-.43-.09s-.49-1-.81-1a1.27,1.27,0,0,0-.37,0,6.17,6.17,0,0,1-1.62,0c-.32-.12-1.36-.79-1.28-1.75a2,2,0,0,1,1.46-1.68c.71-.26,1-.24,1.45-.47s.82-.52,1.18-.71a6.94,6.94,0,0,0,1.23-.74,4.37,4.37,0,0,0,.63-.64,6.74,6.74,0,0,1,.86-1.1,18.44,18.44,0,0,0,1.3,1.79,10.55,10.55,0,0,0,2.66,2,10.54,10.54,0,0,1,2.43,2.11,2.06,2.06,0,0,1-1.83,3.26A3.13,3.13,0,0,1,316.42,44c-.56-.72-.77-2.07-.3-2.42a1.56,1.56,0,0,1,1.33-.16.45.45,0,0,0,.52-.3.66.66,0,0,0-.3-.66,1.24,1.24,0,0,0-.78-.3,8.84,8.84,0,0,1-1.1.08,2,2,0,0,0-1.58.5,2.5,2.5,0,0,0-.79,1.15,6.1,6.1,0,0,0,0,.8c0,.23-.12.41-.12.59a4.87,4.87,0,0,0,.1.91,5.45,5.45,0,0,0,.35,1.12,1.9,1.9,0,0,0,.2.44c.1.11.3.22.48.4a4.54,4.54,0,0,0,1.07.9c.4.16,1.19-.12,1.42,0s.51.42.85.41a14.79,14.79,0,0,0,3.18-.4,4.64,4.64,0,0,0,2.79-2.75,4.11,4.11,0,0,0-1.06-3.75,24,24,0,0,0-3.83-3.34,4,4,0,0,1-1.28-1.39,2.3,2.3,0,0,1-.33-1.52,6.68,6.68,0,0,1,1.48,1.39,2.65,2.65,0,0,0,.91.7,2.68,2.68,0,0,0,.78.09c.23,0,.07.23.48.37a15.65,15.65,0,0,0,2.69.47,4,4,0,0,0,.71-.24,13,13,0,0,0,2-.63,5.25,5.25,0,0,0,3-7.06,24.74,24.74,0,0,0-1.75-2.91,5.28,5.28,0,0,1-1.2-4.41c.4-2.22,2.09-2.9,2.33-3.31s-.38-.66-.52-.73a1.89,1.89,0,0,0-.82-.17h-.08a1.82,1.82,0,0,0-.78.32c-.18.06-1,0-1.07,0s-.33.28-.37.34,0,.14-.13.37-.91.9-1.12,1.31c-.12.22,0,.68-.13,1s-.57.29-.66.62.06,1,0,1.42-.34.22-.36.62c0,.57,1,1.48,1.16,1.75a5.34,5.34,0,0,1,.45.9,4.2,4.2,0,0,0,.8,1.14c.24.27.9.69,1.07,1s0,.47.06.68a4.12,4.12,0,0,0,.51.76,2.79,2.79,0,0,1-.07,2,3.14,3.14,0,0,1-2.07,1.77,4.52,4.52,0,0,1-5.2-3,4,4,0,0,1,1-4.32,7.88,7.88,0,0,0,2.18-5.31,8,8,0,0,0-8.11-7.88,7.94,7.94,0,0,0-8,7.88A7.8,7.8,0,0,0,308.71,26.82Z"/><path d="M313.13,18a3.91,3.91,0,1,1-3.91,3.91A3.91,3.91,0,0,1,313.13,18" style="fill:#fff"/><path d="M312.62,21.56a.9.9,0,1,1-.9.9.9.9,0,0,1,.9-.9"/><path d="M329.06,68.21v-.82l1-.06.22-.27V59.78l-.22-.21-1-.06V58.7h5.06v.82l-1,.06-.23.21v7.27l.23.27,1,.06v.82Zm-11.09,0v-.8l.87-.08.27-.27V59.78l-.19-.21-.95-.1V58.7h4v.38L326,65.38V59.84l-.25-.27-.93-.1V58.7h3.59v.78l-.84.1-.27.27v8.36h-2.26L320.39,61v6.08l.2.27.95.08v.8Zm-6-8.64a2,2,0,0,0-1.76,1.08,5.65,5.65,0,0,0-.65,2.93,5.19,5.19,0,0,0,.68,2.81,2,2,0,0,0,1.75,1.07,2,2,0,0,0,1.72-1.09,5.73,5.73,0,0,0,.65-2.94,5.22,5.22,0,0,0-.66-2.8,2,2,0,0,0-1.72-1.05m-5.23,3.8a4.6,4.6,0,0,1,1.43-3.53,5.38,5.38,0,0,1,3.81-1.34,6,6,0,0,1,1.81.26,4.57,4.57,0,0,1,1.48.75,4.82,4.82,0,0,1,1.42,1.72,4.89,4.89,0,0,1,.49,2.18A4.8,4.8,0,0,1,315.65,67a5.32,5.32,0,0,1-3.83,1.41A5,5,0,0,1,308.1,67a5,5,0,0,1-1.41-3.69m-6.27-3.8a2,2,0,0,0-1.76,1.08,5.65,5.65,0,0,0-.65,2.93,5.19,5.19,0,0,0,.68,2.81,2,2,0,0,0,1.75,1.07,2,2,0,0,0,1.72-1.09,5.73,5.73,0,0,0,.65-2.94,5.22,5.22,0,0,0-.66-2.8,2,2,0,0,0-1.72-1.05m-5.23,3.8a4.6,4.6,0,0,1,1.43-3.53,5.38,5.38,0,0,1,3.81-1.34,6,6,0,0,1,1.81.26,4.57,4.57,0,0,1,1.48.75,4.82,4.82,0,0,1,1.42,1.72,4.89,4.89,0,0,1,.49,2.18A4.8,4.8,0,0,1,304.14,67a5.32,5.32,0,0,1-3.83,1.41,5,5,0,0,1-3.72-1.4,5,5,0,0,1-1.4-3.69" style="fill:#fff"/></g></svg>