<svg id="Layer_1" data-name="Layer 1" xmlns="http://www.w3.org/2000/svg" width="16" height="16" viewBox="0 0 16 16">
  <title>AlcoholDrugs</title>
  <g>
    <path d="M10.27,9.5h.59v.59h-.59v.59h.59v.59h-.59v.59h1.19v-3H10.27V9.5ZM11.17,7V8.32H12l0,4.13h-.89V13h.59v.59H10v-.59h.59v-.59H9.66l0-4.14h.89V6.42Z"/>
    <path d="M7.38,5.6,7.25,3.85H5.42L5.29,5.6A2.26,2.26,0,0,0,4.14,7.3v5.57a.79.79,0,0,0,.79.8H7.74a.79.79,0,0,0,.79-.8V7.3A2.26,2.26,0,0,0,7.38,5.6Zm-1,4.5A1.37,1.37,0,1,1,7.78,8.73,1.37,1.37,0,0,1,6.41,10.1Z"/>
    <path d="M7.15,2.63a.32.32,0,0,0-.33-.31h-1a.34.34,0,0,0-.34.31l0,.63H7.2Z"/>
  </g>
</svg>
