<svg id="Layer_1" data-name="Layer 1" xmlns="http://www.w3.org/2000/svg" width="16" height="16" viewBox="0 0 16 16">
  <title>Environment</title>
  <g>
    <path d="M13.87,9.73a.84.84,0,0,0-1.19-.64c-.34.11-.67.24-1,.37a.7.7,0,0,1,.27.49.62.62,0,0,1-.43.64,13.42,13.42,0,0,1-3,.58l2.94-.86a.31.31,0,0,0,.19-.18h0a.45.45,0,0,0,0-.16v0a.41.41,0,0,0-.3-.32h-.09a11.53,11.53,0,0,0-1.44.16,4.76,4.76,0,0,1-.75.07,3,3,0,0,1-.84-.11h0c-.15,0-1.55-.58-2.29-.88a4.48,4.48,0,0,0-1.52-.31c-.94.08-1.26.51-2,1.13-.19.16-.21.31-.06.55l.87,1.38a.37.37,0,0,0,.45.2A1.3,1.3,0,0,1,4,11.74c.4,0,.6.21.95.43s.42.46.81.7a3.1,3.1,0,0,0,2.59.46,9,9,0,0,0,1.38-.55,14.82,14.82,0,0,0,2.38-1.35,7.85,7.85,0,0,1,1-.64C13.49,10.56,13.93,10.25,13.87,9.73Z"/>
    <path d="M6.2,5.52a.3.3,0,0,0,.2.08,3.57,3.57,0,0,1,1.34.23,3.78,3.78,0,0,1,1.16.76l.29.29a4.19,4.19,0,0,0,.32.31.29.29,0,0,0,.19.08.27.27,0,0,0,.19-.08A.27.27,0,0,0,10,7a.26.26,0,0,0-.09-.19,7.37,7.37,0,0,0-1-1,4.1,4.1,0,0,0-1.12-.58A4.26,4.26,0,0,0,6.4,5.05a.26.26,0,0,0-.2.08.27.27,0,0,0-.08.19A.3.3,0,0,0,6.2,5.52ZM4,4.05c0-.17.06-.35.1-.54A1.69,1.69,0,0,1,4.26,3a.38.38,0,0,1,.3-.2l.19,0,.16.07L5,3l.13.12.13.13a1,1,0,0,0,.48.24,3.77,3.77,0,0,0,.71.11l.77,0,.77,0a2.68,2.68,0,0,1,.62.11,4.2,4.2,0,0,1,.88.42,3.54,3.54,0,0,1,.73.6,2.69,2.69,0,0,1,.52.8,2.64,2.64,0,0,1,.18,1,3.4,3.4,0,0,1,0,.45l-.07.19a1.16,1.16,0,0,0-.06.17.36.36,0,0,0,.13.21l.29.24a1.28,1.28,0,0,1,.29.28.53.53,0,0,1,.14.32.13.13,0,0,1,0,.06s0,0,0,0l0,.05,0,0a.86.86,0,0,1-.2.26.41.41,0,0,1-.27.08.4.4,0,0,1-.26-.14,1.29,1.29,0,0,1-.22-.3c-.07-.11-.13-.22-.2-.31s-.12-.14-.17-.14a1.53,1.53,0,0,0-.41.16l-.38.19a4,4,0,0,1-1.23.2,4.12,4.12,0,0,1-1.88-.47A4.88,4.88,0,0,1,4.8,7,3.57,3.57,0,0,1,4,5.3a4.78,4.78,0,0,1-.08-.84A3.58,3.58,0,0,1,4,4.05Z"/>
  </g>
</svg>
