<svg id="Layer_1" data-name="Layer 1" xmlns="http://www.w3.org/2000/svg" width="16" height="16" viewBox="0 0 16 16">
  <title>PoliticalCriticism</title>
  <path d="M13.33,7.06a.87.87,0,0,0,.26-1.59.87.87,0,0,0-.65-.11l-.59-2.54a.87.87,0,0,0-1-.65A9.54,9.54,0,0,1,6,6.07L2.84,6.8a1,1,0,0,0-.67.49A1,1,0,0,0,2,8.11l.29,1.27a1,1,0,0,0,.49.67,1,1,0,0,0,.81.14l1-.2,1.49,3.22a.83.83,0,0,0,1,.62l.7-.16a.84.84,0,0,0,.62-1L7.11,9.44l.23-.08a10,10,0,0,1,5.93,1.28.78.78,0,0,0,.53-.39.84.84,0,0,0,.12-.65ZM7.44,8.47,7,6.68a10.5,10.5,0,0,0,4.53-3.44L13,9.55A10.51,10.51,0,0,0,7.44,8.47Z"/>
</svg>
