<?xml version="1.0" encoding="utf-8"?>
<svg version="1.1" id="Layer_1" xmlns="http://www.w3.org/2000/svg" xmlns:xlink="http://www.w3.org/1999/xlink" x="0px" y="0px" viewBox="0 0 30 30">
<g>
	<path d="M25.4,14.8c0,1.4-0.3,2.9-0.9,4.2c-1.1,2.6-3.1,4.6-5.7,5.7c-2.7,1.1-5.7,1.1-8.3,0C8,23.6,5.9,21.6,4.8,19
		c-1.1-2.7-1.1-5.7,0-8.3C5.9,8,8,6,10.5,4.9c2.7-1.1,5.7-1.1,8.3,0c2.6,1.1,4.6,3.1,5.7,5.7C25.2,12,25.4,13.4,25.4,14.8z
		 M18.2,19.7l1.8-8.3c0.1-0.3,0-0.5-0.1-0.8c-0.2-0.2-0.4-0.2-0.6-0.1l-10.3,4c-0.2,0.1-0.3,0.2-0.5,0.3c-0.1,0.1-0.1,0.2,0,0.3
		c0.1,0.1,0.2,0.2,0.4,0.2l2.6,0.8l6.1-3.9c0.2-0.1,0.3-0.1,0.4-0.1c0.1,0,0,0.1,0,0.2l-5,4.5l-0.2,2.7c0.2,0,0.4-0.1,0.5-0.3
		l1.3-1.3l2.7,2C17.8,20.5,18.1,20.3,18.2,19.7L18.2,19.7z"/>
</g>
</svg>
