<?xml version="1.0" encoding="UTF-8"?>
<svg width="500px" height="500px" viewBox="0 0 500 500" version="1.1" xmlns="http://www.w3.org/2000/svg" xmlns:xlink="http://www.w3.org/1999/xlink">
    <!-- Generator: Sketch 46.2 (44496) - http://www.bohemiancoding.com/sketch -->
    <title>Long wordmark</title>
    <desc>Created with Sketch.</desc>
    <defs>
        <polygon id="path-1" points="378 186.414233 378 0.771039604 0 0.771039604 0 186.414233 0 372.057426 378 372.057426"></polygon>
    </defs>
    <g id="Page-1" stroke="none" stroke-width="1" fill="none" fill-rule="evenodd">
        <g id="Long-wordmark">
            <g id="Logo-long-wordmark" transform="translate(61.000000, 5.000000)">
                <g id="OONI-Logo">
                    <g id="Group-3" transform="translate(0.000000, 0.085396)">
                        <mask id="mask-2" fill="white">
                            <use xlink:href="#path-1"></use>
                        </mask>
                        <g id="Clip-2"></g>
                        <path d="M189,0.77029703 C293.38092,0.77029703 378,83.8866337 378,186.413861 C378,288.941089 293.38092,372.057426 189,372.057426 C84.61908,372.057426 0,288.941089 0,186.413861 C0,83.8866337 84.61908,0.77029703 189,0.77029703" id="Fill-1" fill="#8DD8F8" mask="url(#mask-2)"></path>
                    </g>
                    <path d="M137.574045,144.250681 C150.853185,156.983973 153.852615,168.816894 148.409415,179.485829 C142.518285,191.029146 128.938635,197.268626 106.619625,197.452413 C87.383205,197.612067 82.180035,188.227785 78.279075,182.834839 C70.796565,172.494493 74.671065,159.950557 81.688635,151.895483 C90.212535,142.11021 96.506235,141.265532 103.427415,144.926423 C107.141265,146.890532 112.629825,151.468502 112.754565,159.813181 C112.828275,164.782859 109.405485,172.481498 109.405485,173.456126 C109.405485,174.430755 110.212515,175.039666 111.080025,174.673948 C111.949425,174.30823 118.917855,170.686324 122.862285,165.720359 C126.390915,161.277908 130.178475,145.134344 129.435705,143.062562 C128.691045,140.992636 123.329115,136.685705 122.956785,134.37073 C122.735655,132.995111 122.571225,131.237067 121.911615,129.794616 C121.461795,128.810705 120.229515,127.904765 119.575575,127.410953 C117.963405,126.191275 113.746815,127.715408 112.009905,125.582364 C110.522475,123.755631 109.902555,119.918379 107.918055,119.431993 C107.016525,119.20922 105.283395,118.852785 103.697685,119.170235 C101.420235,119.626918 99.707895,120.976547 97.935075,120.770483 C95.459175,120.486448 93.346155,116.628775 89.997075,116.873824 C86.666895,117.115161 82.433295,122.71974 77.844375,127.592884 C73.255455,132.466027 65.109555,138.620111 59.365845,148.544616 C55.202175,155.740161 51.800175,164.259344 53.537085,176.31875 C55.273995,188.378156 58.297995,196.505631 68.171355,205.370111 C78.326325,214.488923 86.525145,217.125062 92.601495,219.196844 C98.679735,221.26677 102.894435,223.199319 109.467855,223.399814 C111.733965,223.468502 116.557245,223.615161 118.158075,223.446225 C122.208345,223.019245 121.384305,221.268626 125.156745,220.657859 C139.851495,218.283478 150.314535,210.748205 156.674385,204.3862 C158.292225,202.767389 162.537165,198.315656 163.329075,197.547092 C163.527525,198.655384 163.588005,202.214171 163.459485,203.138676 C162.578745,209.474691 158.553045,213.022339 152.102475,216.401052 C142.894395,221.224072 129.524535,228.3138 120.356145,234.616399 C111.875715,240.449319 104.396985,246.117017 101.766105,255.419616 C99.135225,264.722215 99.662535,270.061324 102.556125,276.479022 C105.196455,282.332364 110.010285,288.581126 118.076805,293.146101 C124.750395,296.922092 130.590495,300.243255 137.027835,303.490161 C141.457995,305.725309 149.206995,309.510582 148.505805,317.435705 C147.795165,325.470359 142.499385,329.721597 138.904605,331.260582 C132.729975,333.906002 124.270335,334.596597 123.907455,334.878775 C123.270525,335.378156 131.272785,342.022339 137.413395,341.983354 C144.119115,341.942512 146.496735,341.498824 152.714835,339.358354 C158.122125,337.496349 160.477065,332.85526 161.354025,332.682611 C162.230985,332.509963 163.514295,332.612067 164.686095,331.776671 C165.829545,330.961696 169.464015,328.201176 169.902495,326.565656 C170.340975,324.92828 170.429805,322.173329 170.868285,320.708601 C171.306765,319.243874 173.060685,314.29276 173.147625,311.623205 C173.236455,308.951795 173.939535,302.836696 171.503325,299.326176 C169.484805,296.417141 170.537535,294.889295 168.849765,293.31875 C168.570045,293.056993 167.152545,291.213552 165.856005,290.736448 C164.177685,290.120111 163.300725,290.658478 162.098685,290.003156 C160.178445,288.95427 157.883985,281.884963 155.111355,281.688181 C154.100205,281.617636 152.924625,281.677042 151.902135,281.918379 C149.622795,282.458601 139.643595,282.712933 137.851875,282.035334 C135.079245,280.986448 126.035595,275.316894 126.802935,267.133725 C127.464435,260.103403 132.561765,255.319369 139.473495,252.833601 C145.646235,250.615161 147.804615,250.810087 152.013645,248.82927 C156.164085,246.8763 159.074685,244.394245 162.230985,242.758725 C165.387285,241.121349 169.662465,239.162809 172.905705,236.491399 C174.756015,234.969121 176.610105,233.242636 178.362135,231.078032 C179.862795,229.229022 182.729925,224.20922 185.789835,221.71974 C189.976185,228.007488 194.068035,233.543379 197.088255,236.98521 C204.759765,245.727166 215.239815,251.045854 220.150035,254.060705 C225.060255,257.0737 236.326545,265.370111 241.153605,272.0013 C246.328425,279.105879 243.958365,288.839171 241.108245,292.54276 C238.641795,295.750681 233.041725,299.909097 225.324855,299.736448 C217.071225,299.552661 209.163465,296.225928 204.323175,290.088552 C199.499895,283.971597 197.621235,272.489542 201.735765,269.459839 C206.160255,266.201795 210.495915,267.753775 213.223185,268.080507 C215.358885,268.336696 217.388745,267.219121 217.740285,265.496349 C218.089935,263.773577 217.521045,261.705507 215.152875,259.897339 C213.896025,258.937562 211.584555,257.346597 208.396125,257.385582 C206.647875,257.406002 203.353605,258.237686 198.885645,258.085458 C194.141745,257.923948 189.469665,258.421473 185.179365,262.318131 C181.650735,265.526052 179.624655,268.05823 178.305435,272.075557 C177.802695,273.603403 178.411275,276.889295 178.201485,278.844121 C177.991695,280.819369 177.161985,282.36578 177.146865,283.8862 C177.122295,286.145483 177.498405,288.911572 178.021935,291.610829 C178.605945,294.616399 179.717265,298.087933 181.095075,301.162191 C181.658295,302.420854 182.111895,304.145483 182.835765,304.908478 C183.714615,305.838552 185.394825,306.800186 186.988095,308.326176 C190.002645,311.21479 193.499145,314.944369 196.254765,316.015532 C199.677555,317.346597 206.602515,315.024196 208.532205,315.627537 C210.460005,316.229022 212.937795,319.197463 215.918325,319.112067 C218.900745,319.026671 237.173265,318.181993 243.476415,315.712933 C251.352045,312.625681 264.937365,304.123205 267.607935,292.288428 C270.900315,277.696844 264.659535,267.712933 258.396075,260.409715 C250.662195,251.393007 236.152665,239.74573 225.205785,232.030384 C218.934765,227.612067 216.557145,224.250062 214.132275,220.238304 C212.289525,217.190037 210.337155,212.040285 211.316175,207.315656 C215.827605,209.6362 222.272505,216.861448 224.158725,219.168998 C226.587375,222.137438 229.683195,223.94375 232.077825,225.098453 C234.196515,226.121349 236.842515,225.534715 238.859145,225.880012 C240.875775,226.223453 239.431815,227.845978 243.026595,229.052661 C246.623265,230.257488 262.518165,233.144245 266.343525,233.012438 C267.906555,232.958601 270.000675,231.768626 272.472795,231.007488 C274.840965,230.277908 278.889345,229.951176 290.132955,225.636819 C305.551575,219.720359 312.030495,210.072463 317.241225,198.534715 C322.451955,186.996968 318.923325,172.264295 315.884205,165.569988 C312.845085,158.875681 306.880245,149.99078 300.741525,140.773577 C294.602805,131.556374 286.910505,122.147958 290.340855,103.258725 C293.771205,84.3694926 308.450835,78.5755569 310.537395,75.1040223 C312.206265,72.3249381 307.239345,69.5142946 306.001395,68.9350866 C304.498845,68.2352104 302.865885,67.6894183 298.919565,67.5186262 C298.673865,67.5074876 298.433835,67.5056312 298.203255,67.5149134 C294.725655,67.6374381 292.873455,69.7816213 291.440835,70.2531559 C289.887255,70.7636757 283.077585,70.3589728 282.134475,70.5520421 C281.102535,70.7636757 279.293805,72.904146 278.906355,73.4499381 C278.229735,74.4097153 278.751375,74.6491955 277.787475,76.6318688 C276.821685,78.6126856 269.942085,84.2488243 268.057755,87.7630569 C267.048495,89.6454827 268.180605,93.5384282 266.952105,96.1225866 C265.725495,98.706745 262.041885,98.5805074 261.257535,101.413428 C260.681085,103.498205 261.782955,110.194369 260.854965,113.461696 C259.892955,116.847834 257.897115,115.321844 257.772375,118.774814 C257.596605,123.640532 266.354865,131.398577 267.846075,133.637438 C269.337285,135.878156 269.936415,137.196225 271.779165,141.289666 C273.835485,145.856498 276.604335,148.702413 278.687115,151.022958 C280.771785,153.343502 286.506045,156.898577 287.987805,159.3862 C288.809955,160.769245 287.914095,163.410953 288.471645,165.143007 C288.997065,166.780384 290.503395,168.213552 292.869675,171.5737 C295.237845,174.931993 294.444045,183.673948 292.302675,188.957364 C290.161305,194.242636 284.326875,201.245111 274.345785,203.996349 C264.364695,206.747587 239.303295,204.49573 229.267395,178.631869 C224.652015,166.735829 226.770705,152.818131 237.555045,141.868874 C248.337495,130.919616 256.381335,114.17271 256.407795,96.7277847 C256.407795,59.7178837 224.427105,29.7160272 186.199965,29.7160272 C147.972825,29.7160272 116.982495,59.7178837 116.982495,96.7277847 C116.997615,114.488304 124.294905,131.517389 137.574045,144.250681 Z" id="Fill-4" fill="#0588CB"></path>
                    <path d="M175.789089,69.0297649 C194.513319,69.0297649 209.693799,83.9387995 209.693799,102.332364 C209.693799,120.724072 194.513319,135.633106 175.789089,135.633106 C157.064859,135.633106 141.884379,120.724072 141.884379,102.332364 C141.884379,83.9387995 157.064859,69.0297649 175.789089,69.0297649" id="Fill-6" fill="#FFFFFF"></path>
                    <path d="M171.394083,99.4714109 C175.680603,99.4714109 179.154423,102.88354 179.154423,107.093936 C179.154423,111.304332 175.680603,114.71646 171.394083,114.71646 C167.107563,114.71646 163.633743,111.304332 163.633743,107.093936 C163.633743,102.88354 167.107563,99.4714109 171.394083,99.4714109" id="Fill-8" fill="#0062B0"></path>
                </g>
                <g id="Wordmark" transform="translate(8.000000, 379.000000)" fill="#000000">
                    <path d="M8.44444444,41.2476 C8.44444444,28.84705 12.5773333,18.8737 20.845,11.32385 C29.1523333,3.774 40.1551111,0 53.8552222,0 C59.4463333,0 64.6577778,0.74185 69.4914444,2.22925 C74.3628889,3.67595 78.6374444,5.78865 82.3113333,8.5655 C87.6625556,12.5948 91.7557778,17.4455 94.5928889,23.1176 C97.4281111,28.7897 98.8447778,34.9502 98.8447778,41.5991 C98.8447778,54.1162 94.5513333,64.38555 85.9644444,72.40345 C77.4191111,80.38435 66.3747778,84.37295 52.8371111,84.37295 C39.4562222,84.37295 28.7141111,80.4232 20.6051111,72.52185 C12.498,64.6205 8.44444444,54.19575 8.44444444,41.2476 L8.44444444,41.2476 Z M53.7343333,9.0354 C47.3442222,9.0354 42.2517778,12.08605 38.4588889,18.1892 C34.7037778,24.2905 32.8262222,32.5637 32.8262222,43.00695 C32.8262222,52.82675 34.7831111,60.76695 38.6987778,66.8294 C42.6522222,72.89185 47.705,75.924 53.8552222,75.924 C60.0054444,75.924 64.9581111,72.8345 68.7113333,66.65365 C72.4664444,60.4728 74.344,52.16075 74.344,41.7175 C74.344,31.78115 72.4456667,23.8613 68.6527778,17.95425 C64.8976667,12.00835 59.9261111,9.0354 53.7343333,9.0354 L53.7343333,9.0354 Z M108.047444,41.2476 C108.047444,28.84705 112.182222,18.8737 120.448,11.32385 C128.755333,3.774 139.76,0 153.458222,0 C159.049333,0 164.260778,0.74185 169.094444,2.22925 C173.965889,3.67595 178.240444,5.78865 181.914333,8.5655 C187.265556,12.5948 191.360667,17.4455 194.195889,23.1176 C197.031111,28.7897 198.449667,34.9502 198.449667,41.5991 C198.449667,54.1162 194.156222,64.38555 185.569333,72.40345 C177.022111,80.38435 165.979667,84.37295 152.440111,84.37295 C139.061111,84.37295 128.317111,80.4232 120.21,72.52185 C112.101,64.6205 108.047444,54.19575 108.047444,41.2476 L108.047444,41.2476 Z M153.339222,9.0354 C146.949111,9.0354 141.856667,12.08605 138.061889,18.1892 C134.306778,24.2905 132.431111,32.5637 132.431111,43.00695 C132.431111,52.82675 134.388,60.76695 138.301778,66.8294 C142.255222,72.89185 147.308,75.924 153.458222,75.924 C159.608444,75.924 164.561111,72.8345 168.316222,66.65365 C172.069444,60.4728 173.947,52.16075 173.947,41.7175 C173.947,31.78115 172.050556,23.8613 168.255778,17.95425 C164.500667,12.00835 159.529111,9.0354 153.339222,9.0354 L153.339222,9.0354 Z M205.674667,82.31945 L205.674667,75.5725 L213.162222,74.86765 L215.498778,72.5792 L215.498778,10.91315 L213.881889,9.15195 L205.674667,8.2732 L205.674667,1.70015 L240.301778,1.70015 L240.301778,4.9284 L275.467222,58.38045 L275.467222,11.4404 L273.310111,9.15195 L265.282333,8.2732 L265.282333,1.70015 L296.375333,1.70015 L296.375333,8.2732 L289.125778,9.15195 L286.789222,11.4404 L286.789222,82.31945 L267.26,82.31945 L226.643222,21.0641 L226.643222,72.5792 L228.379111,74.86765 L236.586333,75.5725 L236.586333,82.31945 L205.674667,82.31945 Z M301.683111,82.31945 L301.683111,75.33755 L310.549556,74.86765 L312.466778,72.5792 L312.466778,10.91315 L310.549556,9.15195 L301.683111,8.6839 L301.683111,1.70015 L345.477,1.70015 L345.477,8.6839 L336.429222,9.15195 L334.453444,10.91315 L334.453444,72.5792 L336.429222,74.86765 L345.477,75.33755 L345.477,82.31945 L301.683111,82.31945 Z" id="Fill-10"></path>
                    <path d="M6.54079861,95.5749023 C5.27415455,95.5749023 4.26731059,96.070218 3.52023655,97.0608643 C2.7731625,98.0515105 2.39963108,99.3929277 2.39963108,101.085156 C2.39963108,102.771363 2.77623683,104.114285 3.52945964,105.113965 C4.28268244,106.113644 5.28645206,106.613477 6.54079861,106.613477 C7.78284765,106.613477 8.77893143,106.112139 9.52907986,105.109448 C10.2792283,104.106758 10.6542969,102.76534 10.6542969,101.085156 C10.6542969,99.4049721 10.2792283,98.0665659 9.52907986,97.0698975 C8.77893143,96.0732291 7.78284765,95.5749023 6.54079861,95.5749023 Z M6.54079861,94.5722168 C7.34628586,94.5722168 8.09642303,94.7077135 8.79123264,94.9787109 C9.48604225,95.2497084 10.1193548,95.6561985 10.6911892,96.1981934 C11.33066,96.8064321 11.8148674,97.523059 12.143826,98.3480957 C12.4727845,99.1731324 12.6372613,100.085477 12.6372613,101.085156 C12.6372613,101.771683 12.5573286,102.419056 12.3974609,103.027295 C12.2375932,103.635534 11.9977953,104.207631 11.6780599,104.743604 C11.143118,105.640906 10.4237241,106.340972 9.51985677,106.843823 C8.6159894,107.346674 7.62297995,107.598096 6.54079861,107.598096 C5.73531137,107.598096 4.97748836,107.462599 4.26730686,107.191602 C3.55712536,106.920604 2.92842432,106.526158 2.3811849,106.008252 C1.74171411,105.400013 1.25750671,104.680375 0.928548177,103.849316 C0.599589646,103.018258 0.435112847,102.09688 0.435112847,101.085156 C0.435112847,100.079455 0.598052479,99.1640992 0.923936632,98.3390625 C1.24982078,97.5140258 1.72941668,96.8004099 2.36273872,96.1981934 C2.92842441,95.6622206 3.56327411,95.2572361 4.26730686,94.9832275 C4.9713396,94.709219 5.72916261,94.5722168 6.54079861,94.5722168 Z M16.7692057,106.225049 C17.0766436,106.327426 17.3640937,106.402702 17.6315647,106.450879 C17.8990356,106.499056 18.1495937,106.523145 18.3832465,106.523145 C19.3178577,106.523145 20.0741435,106.181392 20.6521267,105.497876 C21.23011,104.81436 21.5190972,103.909543 21.5190972,102.783398 C21.5190972,101.741564 21.2685391,100.913528 20.7674154,100.299268 C20.2662916,99.6850067 19.5976243,99.3778809 18.7613932,99.3778809 C18.4601041,99.3778809 18.1495965,99.4290685 17.8298611,99.5314453 C17.5101257,99.6338221 17.1565775,99.7934071 16.7692057,100.010205 L16.7692057,106.225049 Z M13.8639323,111.328809 L13.8639323,110.669385 L14.8876953,110.57002 L15.1828342,110.280957 L15.1828342,99.5495117 L13.8639323,99.5495117 L13.8639323,98.9713867 L16.0590278,98.3119629 L16.7692057,98.3119629 L16.7692057,99.3236816 C17.2857014,98.9442852 17.7699088,98.6642587 18.2218424,98.4835937 C18.6737761,98.3029288 19.1180172,98.2125977 19.554579,98.2125977 C20.6121653,98.2125977 21.4806643,98.6160767 22.160102,99.4230469 C22.8395397,100.230017 23.1792535,101.271836 23.1792535,102.548535 C23.1792535,103.999877 22.7549956,105.163643 21.906467,106.039868 C21.0579385,106.916093 19.9327327,107.354199 18.530816,107.354199 C18.2910144,107.354199 18.0266218,107.34065 17.7376302,107.31355 C17.4486386,107.28645 17.128908,107.245801 16.7784288,107.191602 L16.7692057,110.280957 L17.0920139,110.57002 L18.3002387,110.669385 L18.3002387,111.328809 L13.8639323,111.328809 Z M30.6130642,101.654248 L30.6130642,101.365186 C30.6130642,100.618437 30.4455131,100.04634 30.1104058,99.648877 C29.7752985,99.251414 29.2880168,99.0526855 28.648546,99.0526855 C28.0213727,99.0526855 27.478753,99.2980851 27.0206706,99.7888916 C26.5625881,100.279698 26.3058814,100.901477 26.2505425,101.654248 L30.6130642,101.654248 Z M32.3008898,105.339795 L32.3008898,106.360547 C31.7413528,106.721877 31.1603039,106.995881 30.5577257,107.182568 C29.9551475,107.369255 29.3495039,107.462598 28.7407769,107.462598 C27.4925791,107.462598 26.4795865,107.042558 25.7017687,106.202466 C24.9239508,105.362374 24.5350477,104.267862 24.5350477,102.918896 C24.5350477,101.533798 24.9423968,100.403154 25.7571072,99.5269287 C26.5718176,98.6507036 27.6186279,98.2125977 28.8975694,98.2125977 C29.9428582,98.2125977 30.7713909,98.5392952 31.3831923,99.1927002 C31.9949937,99.8461052 32.3008898,100.735867 32.3008898,101.862012 C32.3008898,102.012566 32.2993526,102.126985 32.2962782,102.205273 C32.2932038,102.283562 32.285518,102.358838 32.2732205,102.431104 L26.1583116,102.431104 L26.1583116,102.638867 C26.1583116,103.801145 26.4442246,104.721017 27.016059,105.398511 C27.5878935,106.076004 28.359551,106.414746 29.3310547,106.414746 C29.779914,106.414746 30.2456754,106.327426 30.7283529,106.152783 C31.2110303,105.97814 31.7352041,105.707147 32.3008898,105.339795 Z M33.6751302,107.3 L33.6751302,106.631543 L34.6988932,106.541211 L35.0217014,106.243115 L35.0217014,99.5495117 L33.6751302,99.5495117 L33.6751302,98.9713867 L35.8702257,98.3119629 L36.5896267,98.3119629 L36.5896267,99.3236816 C37.3459239,98.9141744 37.9546418,98.6266203 38.4157986,98.4610107 C38.8769554,98.2954012 39.2827673,98.2125977 39.6332465,98.2125977 C40.45718,98.2125977 41.0874182,98.4534807 41.52398,98.9352539 C41.9605418,99.4170271 42.1788194,100.115588 42.1788194,101.030957 L42.1788194,106.243115 L42.5016276,106.541211 L43.5161675,106.631543 L43.5161675,107.3 L39.3842231,107.3 L39.3842231,106.631543 L40.2880859,106.541211 L40.6108941,106.243115 L40.6108941,101.347119 C40.6108941,100.65457 40.4648633,100.163771 40.1727973,99.874707 C39.8807313,99.5856431 39.3903753,99.4411133 38.7017144,99.4411133 C38.4004253,99.4411133 38.074546,99.4907954 37.7240668,99.5901611 C37.3735877,99.6895269 36.9954447,99.8415843 36.5896267,100.046338 L36.5896267,106.243115 L36.9124349,106.541211 L37.8162977,106.631543 L37.8162977,107.3 L33.6751302,107.3 Z M56.0042318,95.5749023 C54.7375877,95.5749023 53.7307438,96.070218 52.9836697,97.0608643 C52.2365957,98.0515105 51.8630642,99.3929277 51.8630642,101.085156 C51.8630642,102.771363 52.23967,104.114285 52.9928928,105.113965 C53.7461156,106.113644 54.7498852,106.613477 56.0042318,106.613477 C57.2462808,106.613477 58.2423646,106.112139 58.992513,105.109448 C59.7426614,104.106758 60.11773,102.76534 60.11773,101.085156 C60.11773,99.4049721 59.7426614,98.0665659 58.992513,97.0698975 C58.2423646,96.0732291 57.2462808,95.5749023 56.0042318,95.5749023 Z M56.0042318,94.5722168 C56.809719,94.5722168 57.5598562,94.7077135 58.2546658,94.9787109 C58.9494754,95.2497084 59.5827879,95.6561985 60.1546224,96.1981934 C60.7940932,96.8064321 61.2783006,97.523059 61.6072591,98.3480957 C61.9362176,99.1731324 62.1006944,100.085477 62.1006944,101.085156 C62.1006944,101.771683 62.0207618,102.419056 61.8608941,103.027295 C61.7010264,103.635534 61.4612285,104.207631 61.1414931,104.743604 C60.6065511,105.640906 59.8871573,106.340972 58.9832899,106.843823 C58.0794226,107.346674 57.0864131,107.598096 56.0042318,107.598096 C55.1987445,107.598096 54.4409215,107.462599 53.73074,107.191602 C53.0205585,106.920604 52.3918575,106.526158 51.8446181,106.008252 C51.2051473,105.400013 50.7209399,104.680375 50.3919813,103.849316 C50.0630228,103.018258 49.898546,102.09688 49.898546,101.085156 C49.898546,100.079455 50.0614856,99.1640992 50.3873698,98.3390625 C50.7132539,97.5140258 51.1928498,96.8004099 51.8261719,96.1981934 C52.3918576,95.6622206 53.0267073,95.2572361 53.73074,94.9832275 C54.4347728,94.709219 55.1925958,94.5722168 56.0042318,94.5722168 Z M66.0850694,106.450879 C66.2818297,106.456901 66.4678268,106.461418 66.6430664,106.464429 C66.818306,106.46744 66.9797085,106.468945 67.1272786,106.468945 C68.3631789,106.468945 69.2701071,106.172358 69.8480903,105.579175 C70.4260735,104.985992 70.7150608,104.054075 70.7150608,102.783398 C70.7150608,101.633165 70.458354,100.74792 69.9449327,100.127637 C69.4315115,99.5073537 68.6982831,99.1972168 67.7452257,99.1972168 C67.5238704,99.1972168 67.2748495,99.2213051 66.9981554,99.2694824 C66.7214613,99.3176597 66.4171024,99.3929357 66.0850694,99.4953125 L66.0850694,106.450879 Z M65.3656684,93.6869629 L66.0850694,93.6869629 L66.0850694,98.8629883 C66.552375,98.6461903 66.9996904,98.4835943 67.4270291,98.3751953 C67.8543677,98.2667963 68.2709398,98.2125977 68.6767578,98.2125977 C69.7896829,98.2125977 70.6904624,98.602527 71.3791233,99.3823975 C72.0677841,100.162268 72.4121094,101.178493 72.4121094,102.431104 C72.4121094,104.033 71.9494223,105.244942 71.0240343,106.066968 C70.0986463,106.888993 68.7351797,107.3 66.9335938,107.3 L64.4986979,107.3 L64.4986979,94.9245117 L63.0414497,94.9245117 L63.0414497,94.3463867 L65.3656684,93.6869629 Z M79.5784505,98.6190918 L79.5784505,100.714795 L78.6469184,100.714795 L78.499349,99.4049805 C78.2472499,99.2724928 78.0074519,99.1731286 77.7799479,99.1068848 C77.5524439,99.0406409 77.3249433,99.0075195 77.0974392,99.0075195 C76.6055386,99.0075195 76.221247,99.12495 75.944553,99.3598145 C75.6678589,99.5946789 75.5295139,99.922882 75.5295139,100.344434 C75.5295139,100.687697 75.6401899,100.979768 75.8615451,101.220654 C76.0829004,101.461541 76.5071583,101.729523 77.1343316,102.024609 C77.2327117,102.072787 77.383354,102.142041 77.586263,102.232373 C78.2995189,102.551548 78.8160068,102.840607 79.1357422,103.099561 C79.369395,103.280226 79.5477063,103.507559 79.6706814,103.781567 C79.7936566,104.055576 79.8551432,104.358185 79.8551432,104.689404 C79.8551432,105.556596 79.5430985,106.235585 78.9189996,106.726392 C78.2949007,107.217198 77.429476,107.462598 76.3226997,107.462598 C75.8676916,107.462598 75.4326735,107.430982 75.0176324,107.367749 C74.6025912,107.304516 74.2198368,107.206658 73.8693576,107.07417 L73.8693576,104.671338 L74.7732205,104.671338 L75.0037977,106.243115 C75.2681943,106.393669 75.5341241,106.505078 75.8015951,106.577344 C76.069066,106.64961 76.3380701,106.685742 76.6086155,106.685742 C77.1435574,106.685742 77.5724268,106.54874 77.8952365,106.274731 C78.2180463,106.000723 78.3794488,105.640904 78.3794488,105.195264 C78.3794488,104.821889 78.2687728,104.513258 78.0474175,104.26936 C77.8260623,104.025463 77.297277,103.716831 76.461046,103.343457 C75.5141373,102.927928 74.8700646,102.536493 74.5288086,102.169141 C74.1875525,101.801789 74.0169271,101.347122 74.0169271,100.805127 C74.0169271,99.9800903 74.3089887,99.3417503 74.8931207,98.8900879 C75.4772526,98.4384255 76.3011738,98.2125977 77.3649089,98.2125977 C77.7891731,98.2125977 78.1842249,98.2472246 78.550076,98.3164795 C78.915927,98.3857344 79.2587151,98.4866042 79.5784505,98.6190918 Z M87.4088542,101.654248 L87.4088542,101.365186 C87.4088542,100.618437 87.241303,100.04634 86.9061957,99.648877 C86.5710885,99.251414 86.0838067,99.0526855 85.4443359,99.0526855 C84.8171627,99.0526855 84.2745429,99.2980851 83.8164605,99.7888916 C83.3583781,100.279698 83.1016713,100.901477 83.0463325,101.654248 L87.4088542,101.654248 Z M89.0966797,105.339795 L89.0966797,106.360547 C88.5371427,106.721877 87.9560939,106.995881 87.3535156,107.182568 C86.7509374,107.369255 86.1452938,107.462598 85.5365668,107.462598 C84.288369,107.462598 83.2753764,107.042558 82.4975586,106.202466 C81.7197408,105.362374 81.3308377,104.267862 81.3308377,102.918896 C81.3308377,101.533798 81.7381868,100.403154 82.5528971,99.5269287 C83.3676075,98.6507036 84.4144178,98.2125977 85.6933594,98.2125977 C86.7386482,98.2125977 87.5671808,98.5392952 88.1789822,99.1927002 C88.7907836,99.8461052 89.0966797,100.735867 89.0966797,101.862012 C89.0966797,102.012566 89.0951425,102.126985 89.0920681,102.205273 C89.0889938,102.283562 89.0813079,102.358838 89.0690104,102.431104 L82.9541016,102.431104 L82.9541016,102.638867 C82.9541016,103.801145 83.2400145,104.721017 83.811849,105.398511 C84.3836834,106.076004 85.1553409,106.414746 86.1268446,106.414746 C86.5757039,106.414746 87.0414653,106.327426 87.5241428,106.152783 C88.0068203,105.97814 88.530994,105.707147 89.0966797,105.339795 Z M90.4709201,107.3 L90.4709201,106.631543 L91.476237,106.541211 L91.7990451,106.243115 L91.7990451,99.5495117 L90.4709201,99.5495117 L90.4709201,98.9713867 L92.6660156,98.3119629 L93.3854167,98.3119629 L93.3854167,100.046338 C93.6928545,99.7392074 94.0141223,99.4365982 94.3492296,99.138501 C94.6843369,98.8404038 95.036348,98.5468276 95.4052734,98.2577637 C95.4606123,98.2396972 95.5205617,98.227653 95.5851237,98.2216309 C95.6496857,98.2156087 95.7465271,98.2125977 95.875651,98.2125977 C96.0662625,98.2125977 96.2537968,98.2321694 96.4382595,98.2713135 C96.6227223,98.3104576 96.8133309,98.3721838 97.0100911,98.4564941 L97.0100911,100.046338 L96.4105903,100.046338 C96.2876151,99.9018059 96.1446587,99.791903 95.9817166,99.716626 C95.8187745,99.6413489 95.638926,99.6037109 95.4421658,99.6037109 C95.1408767,99.6037109 94.8226832,99.7136138 94.487576,99.9334229 C94.1524687,100.153232 93.7850859,100.494985 93.3854167,100.958691 L93.3854167,106.243115 L93.7082248,106.541211 L95.0271267,106.631543 L95.0271267,107.3 L90.4709201,107.3 Z M97.0285373,98.4022949 L101.123589,98.4022949 L101.123589,99.0888184 L100.127496,99.161084 L99.8969184,99.4591797 L102.11046,105.502393 L104.52691,99.4591797 L104.370117,99.161084 L103.355577,99.0888184 L103.355577,98.4022949 L106.694336,98.4022949 L106.694336,99.0888184 L105.587565,99.2333496 L102.276476,107.3 L101.21582,107.3 L98.1814236,99.1972168 L97.0285373,99.0888184 L97.0285373,98.4022949 Z M112.763129,105.601758 L112.763129,102.340771 C111.182899,102.768345 110.145311,103.15978 109.650336,103.515088 C109.155361,103.870396 108.907878,104.337106 108.907878,104.915234 C108.907878,105.378941 109.044685,105.747793 109.318305,106.021802 C109.591925,106.29581 109.959308,106.432812 110.420464,106.432812 C110.715605,106.432812 111.055319,106.363559 111.439616,106.225049 C111.823913,106.086539 112.26508,105.878777 112.763129,105.601758 Z M112.763129,106.225049 C112.154402,106.634556 111.596411,106.937165 111.089138,107.132886 C110.581866,107.328606 110.106882,107.426465 109.664171,107.426465 C108.932469,107.426465 108.346808,107.20967 107.907172,106.776074 C107.467536,106.342478 107.247721,105.770381 107.247721,105.059766 C107.247721,104.270862 107.578212,103.650588 108.239204,103.198926 C108.900195,102.747263 110.408155,102.24442 112.763129,101.690381 L112.763129,101.103223 C112.763129,100.326363 112.634007,99.7873876 112.37576,99.4862793 C112.117512,99.185171 111.668659,99.0346191 111.029188,99.0346191 C110.789387,99.0346191 110.552663,99.0587074 110.31901,99.1068848 C110.085358,99.1550621 109.842485,99.227327 109.590386,99.3236816 L109.590386,100.877393 L108.289931,100.877393 C108.062427,100.877393 107.907173,100.836744 107.824164,100.755444 C107.741156,100.674145 107.699653,100.525099 107.699653,100.308301 C107.699653,99.7060842 108.054738,99.206252 108.76492,98.8087891 C109.475101,98.4113261 110.39279,98.2125977 111.518012,98.2125977 C112.507962,98.2125977 113.227356,98.4233703 113.676215,98.8449219 C114.125075,99.2664735 114.349501,99.9439569 114.349501,100.877393 L114.349501,106.243115 L114.672309,106.541211 L115.668403,106.631543 L115.668403,107.3 L113.012153,107.3 L112.763129,106.225049 Z M117.68826,99.5133789 L116.498481,99.5133789 L116.498481,98.9352539 L117.743598,98.4022949 L118.55523,96.6769531 L119.256185,96.6769531 L119.256185,98.6461914 L122.133789,98.6461914 L122.133789,99.5133789 L119.256185,99.5133789 L119.256185,104.391309 C119.256185,105.192257 119.369935,105.729727 119.597439,106.003735 C119.824943,106.277744 120.23383,106.414746 120.82411,106.414746 C121.027019,106.414746 121.237611,106.402702 121.455892,106.378613 C121.674173,106.354525 121.900136,106.315381 122.133789,106.261182 L122.133789,106.947705 C121.703376,107.080193 121.279118,107.181062 120.861003,107.250317 C120.442887,107.319572 120.04015,107.354199 119.652778,107.354199 C118.927224,107.354199 118.418422,107.220208 118.126356,106.952222 C117.83429,106.684235 117.68826,106.194942 117.68826,105.484326 L117.68826,99.5133789 Z M127.41862,99.0075195 C126.631579,99.0075195 125.999803,99.3552944 125.523275,100.050854 C125.046746,100.746415 124.808485,101.67532 124.808485,102.837598 C124.808485,103.999876 125.048283,104.928781 125.527886,105.624341 C126.007489,106.319901 126.637728,106.667676 127.41862,106.667676 C128.21181,106.667676 128.848196,106.321406 129.327799,105.628857 C129.807403,104.936308 130.047201,104.005898 130.047201,102.837598 C130.047201,101.681342 129.805865,100.753942 129.323188,100.055371 C128.84051,99.3567999 128.205661,99.0075195 127.41862,99.0075195 Z M127.41862,98.2125977 C128.70371,98.2125977 129.758206,98.6446816 130.58214,99.5088623 C131.406073,100.373043 131.818034,101.48261 131.818034,102.837598 C131.818034,104.192585 131.404536,105.302152 130.577528,106.166333 C129.75052,107.030514 128.697561,107.462598 127.41862,107.462598 C126.139678,107.462598 125.089794,107.032019 124.268934,106.17085 C123.448075,105.30968 123.037652,104.198607 123.037652,102.837598 C123.037652,101.476588 123.445001,100.365515 124.259711,99.5043457 C125.074422,98.643176 126.127381,98.2125977 127.41862,98.2125977 Z M133.081597,107.3 L133.081597,106.631543 L134.086914,106.541211 L134.409722,106.243115 L134.409722,99.5495117 L133.081597,99.5495117 L133.081597,98.9713867 L135.276693,98.3119629 L135.996094,98.3119629 L135.996094,100.046338 C136.303532,99.7392074 136.624799,99.4365982 136.959907,99.138501 C137.295014,98.8404038 137.647025,98.5468276 138.015951,98.2577637 C138.071289,98.2396972 138.131239,98.227653 138.195801,98.2216309 C138.260363,98.2156087 138.357204,98.2125977 138.486328,98.2125977 C138.67694,98.2125977 138.864474,98.2321694 139.048937,98.2713135 C139.233399,98.3104576 139.424008,98.3721838 139.620768,98.4564941 L139.620768,100.046338 L139.021267,100.046338 C138.898292,99.9018059 138.755336,99.791903 138.592394,99.716626 C138.429452,99.6413489 138.249603,99.6037109 138.052843,99.6037109 C137.751554,99.6037109 137.43336,99.7136138 137.098253,99.9334229 C136.763146,100.153232 136.395763,100.494985 135.996094,100.958691 L135.996094,106.243115 L136.318902,106.541211 L137.637804,106.631543 L137.637804,107.3 L133.081597,107.3 Z M139.712999,98.4022949 L143.808051,98.4022949 L143.808051,99.0888184 L142.811957,99.161084 L142.58138,99.4591797 L144.85026,105.21333 L147.211372,99.4591797 L147.063802,99.161084 L146.040039,99.0888184 L146.040039,98.4022949 L149.406467,98.4022949 L149.406467,99.0888184 L148.308919,99.2333496 L144.527452,108.221387 C144.066295,109.311399 143.595923,110.101796 143.116319,110.592603 C142.636716,111.083409 142.101782,111.328809 141.511502,111.328809 C141.117981,111.328809 140.801325,111.233961 140.561523,111.044263 C140.321722,110.854564 140.201823,110.606154 140.201823,110.299023 C140.201823,110.118358 140.243326,109.943718 140.326335,109.775098 C140.409343,109.606477 140.530779,109.446892 140.690647,109.296338 L142.507595,110.000928 C142.78429,109.711864 143.053294,109.329462 143.314616,108.853711 C143.575938,108.37796 143.817273,107.835973 144.038628,107.227734 L140.865885,99.1972168 L139.712999,99.0888184 L139.712999,98.4022949 Z M161.248915,95.5749023 C159.982271,95.5749023 158.975427,96.070218 158.228353,97.0608643 C157.481279,98.0515105 157.107747,99.3929277 157.107747,101.085156 C157.107747,102.771363 157.484353,104.114285 158.237576,105.113965 C158.990799,106.113644 159.994568,106.613477 161.248915,106.613477 C162.490964,106.613477 163.487048,106.112139 164.237196,105.109448 C164.987345,104.106758 165.362413,102.76534 165.362413,101.085156 C165.362413,99.4049721 164.987345,98.0665659 164.237196,97.0698975 C163.487048,96.0732291 162.490964,95.5749023 161.248915,95.5749023 Z M161.248915,94.5722168 C162.054402,94.5722168 162.804539,94.7077135 163.499349,94.9787109 C164.194159,95.2497084 164.827471,95.6561985 165.399306,96.1981934 C166.038776,96.8064321 166.522984,97.523059 166.851942,98.3480957 C167.180901,99.1731324 167.345378,100.085477 167.345378,101.085156 C167.345378,101.771683 167.265445,102.419056 167.105577,103.027295 C166.94571,103.635534 166.705912,104.207631 166.386176,104.743604 C165.851234,105.640906 165.13184,106.340972 164.227973,106.843823 C163.324106,107.346674 162.331096,107.598096 161.248915,107.598096 C160.443428,107.598096 159.685605,107.462599 158.975423,107.191602 C158.265242,106.920604 157.636541,106.526158 157.089301,106.008252 C156.44983,105.400013 155.965623,104.680375 155.636664,103.849316 C155.307706,103.018258 155.143229,102.09688 155.143229,101.085156 C155.143229,100.079455 155.306169,99.1640992 155.632053,98.3390625 C155.957937,97.5140258 156.437533,96.8004099 157.070855,96.1981934 C157.636541,95.6622206 158.27139,95.2572361 158.975423,94.9832275 C159.679456,94.709219 160.437279,94.5722168 161.248915,94.5722168 Z M168.682726,107.3 L168.682726,106.631543 L169.688043,106.541211 L170.029297,106.243115 L170.029297,99.5133789 L168.821072,99.5133789 L168.821072,98.9171875 L170.029297,98.6461914 L170.029297,98.4384277 C170.029297,96.9509528 170.379771,95.761593 171.080729,94.8703125 C171.781688,93.979032 172.710136,93.5333984 173.866102,93.5333984 C174.290367,93.5333984 174.640841,93.6342682 174.917535,93.8360107 C175.194229,94.0377533 175.332574,94.2891749 175.332574,94.5902832 C175.332574,94.8131033 175.264938,95.0073153 175.129666,95.1729248 C174.994393,95.3385344 174.803785,95.4514483 174.557834,95.5116699 L172.842339,94.4096191 C172.436521,94.5902841 172.130625,94.9230038 171.924642,95.4077881 C171.718659,95.8925724 171.615668,96.5203737 171.615668,97.2912109 L171.615668,98.6461914 L174.244249,98.6461914 L174.244249,99.5133789 L171.597222,99.5133789 L171.597222,106.243115 L171.92003,106.541211 L173.091363,106.631543 L173.091363,107.3 L168.682726,107.3 Z M179.990234,107.3 L179.990234,106.541211 L181.143121,106.39668 L181.484375,106.044385 L181.484375,95.9994629 L181.143121,95.7375 L179.934896,95.6291016 L179.934896,94.8883789 L183.485786,94.8883789 L183.485786,95.3490723 L189.932726,104.824902 L189.932726,96.1259277 L189.591471,95.7916992 L188.457031,95.6291016 L188.457031,94.8883789 L192.42296,94.8883789 L192.42296,95.6291016 L191.28852,95.7916992 L190.947266,96.1259277 L190.947266,107.3 L189.702148,107.3 L182.508138,96.7943848 L182.508138,106.044385 L182.849392,106.39668 L183.983832,106.541211 L183.983832,107.3 L179.990234,107.3 Z M199.690755,101.654248 L199.690755,101.365186 C199.690755,100.618437 199.523204,100.04634 199.188097,99.648877 C198.852989,99.251414 198.365708,99.0526855 197.726237,99.0526855 C197.099064,99.0526855 196.556444,99.2980851 196.098362,99.7888916 C195.640279,100.279698 195.383572,100.901477 195.328234,101.654248 L199.690755,101.654248 Z M201.378581,105.339795 L201.378581,106.360547 C200.819044,106.721877 200.237995,106.995881 199.635417,107.182568 C199.032838,107.369255 198.427195,107.462598 197.818468,107.462598 C196.57027,107.462598 195.557277,107.042558 194.77946,106.202466 C194.001642,105.362374 193.612739,104.267862 193.612739,102.918896 C193.612739,101.533798 194.020088,100.403154 194.834798,99.5269287 C195.649509,98.6507036 196.696319,98.2125977 197.97526,98.2125977 C199.020549,98.2125977 199.849082,98.5392952 200.460883,99.1927002 C201.072685,99.8461052 201.378581,100.735867 201.378581,101.862012 C201.378581,102.012566 201.377044,102.126985 201.373969,102.205273 C201.370895,102.283562 201.363209,102.358838 201.350911,102.431104 L195.236003,102.431104 L195.236003,102.638867 C195.236003,103.801145 195.521916,104.721017 196.09375,105.398511 C196.665584,106.076004 197.437242,106.414746 198.408746,106.414746 C198.857605,106.414746 199.323366,106.327426 199.806044,106.152783 C200.288721,105.97814 200.812895,105.707147 201.378581,105.339795 Z M203.850369,99.5133789 L202.66059,99.5133789 L202.66059,98.9352539 L203.905707,98.4022949 L204.717339,96.6769531 L205.418294,96.6769531 L205.418294,98.6461914 L208.295898,98.6461914 L208.295898,99.5133789 L205.418294,99.5133789 L205.418294,104.391309 C205.418294,105.192257 205.532045,105.729727 205.759549,106.003735 C205.987053,106.277744 206.395939,106.414746 206.98622,106.414746 C207.189129,106.414746 207.39972,106.402702 207.618001,106.378613 C207.836282,106.354525 208.062246,106.315381 208.295898,106.261182 L208.295898,106.947705 C207.865485,107.080193 207.441227,107.181062 207.023112,107.250317 C206.604996,107.319572 206.202259,107.354199 205.814887,107.354199 C205.089334,107.354199 204.580532,107.220208 204.288466,106.952222 C203.9964,106.684235 203.850369,106.194942 203.850369,105.484326 L203.850369,99.5133789 Z M208.461914,98.4022949 L212.556966,98.4022949 L212.556966,99.0888184 L211.560872,99.161084 L211.330295,99.4591797 L213.055013,105.46626 L215.58214,98.4022949 L216.735026,98.4022949 L218.967014,105.46626 L220.885417,99.4591797 L220.737847,99.161084 L219.723307,99.0888184 L219.723307,98.4022949 L223.062066,98.4022949 L223.062066,99.0888184 L222.001411,99.2333496 L219.299045,107.3 L218.127713,107.3 L215.849609,100.290234 L213.294813,107.3 L212.123481,107.3 L209.6148,99.1972168 L208.461914,99.0888184 L208.461914,98.4022949 Z M228.143989,99.0075195 C227.356948,99.0075195 226.725172,99.3552944 226.248644,100.050854 C225.772115,100.746415 225.533854,101.67532 225.533854,102.837598 C225.533854,103.999876 225.773652,104.928781 226.253255,105.624341 C226.732858,106.319901 227.363097,106.667676 228.143989,106.667676 C228.937178,106.667676 229.573565,106.321406 230.053168,105.628857 C230.532771,104.936308 230.772569,104.005898 230.772569,102.837598 C230.772569,101.681342 230.531234,100.753942 230.048557,100.055371 C229.565879,99.3567999 228.93103,99.0075195 228.143989,99.0075195 Z M228.143989,98.2125977 C229.429079,98.2125977 230.483575,98.6446816 231.307509,99.5088623 C232.131442,100.373043 232.543403,101.48261 232.543403,102.837598 C232.543403,104.192585 232.129905,105.302152 231.302897,106.166333 C230.475889,107.030514 229.42293,107.462598 228.143989,107.462598 C226.865047,107.462598 225.815163,107.032019 224.994303,106.17085 C224.173444,105.30968 223.763021,104.198607 223.763021,102.837598 C223.763021,101.476588 224.17037,100.365515 224.98508,99.5043457 C225.799791,98.643176 226.85275,98.2125977 228.143989,98.2125977 Z M233.806966,107.3 L233.806966,106.631543 L234.812283,106.541211 L235.135091,106.243115 L235.135091,99.5495117 L233.806966,99.5495117 L233.806966,98.9713867 L236.002062,98.3119629 L236.721463,98.3119629 L236.721463,100.046338 C237.028901,99.7392074 237.350168,99.4365982 237.685276,99.138501 C238.020383,98.8404038 238.372394,98.5468276 238.741319,98.2577637 C238.796658,98.2396972 238.856608,98.227653 238.92117,98.2216309 C238.985732,98.2156087 239.082573,98.2125977 239.211697,98.2125977 C239.402309,98.2125977 239.589843,98.2321694 239.774306,98.2713135 C239.958768,98.3104576 240.149377,98.3721838 240.346137,98.4564941 L240.346137,100.046338 L239.746636,100.046338 C239.623661,99.9018059 239.480705,99.791903 239.317763,99.716626 C239.154821,99.6413489 238.974972,99.6037109 238.778212,99.6037109 C238.476923,99.6037109 238.158729,99.7136138 237.823622,99.9334229 C237.488515,100.153232 237.121132,100.494985 236.721463,100.958691 L236.721463,106.243115 L237.044271,106.541211 L238.363173,106.631543 L238.363173,107.3 L233.806966,107.3 Z M240.927192,107.3 L240.927192,106.631543 L241.950955,106.541211 L242.273763,106.243115 L242.273763,94.9245117 L240.816515,94.9245117 L240.816515,94.3463867 L243.122287,93.6869629 L243.841688,93.6869629 L243.841688,102.584668 L244.201389,102.584668 L247.088216,99.4230469 L246.959093,99.161084 L246.101345,99.0888184 L246.101345,98.4022949 L249.689128,98.4022949 L249.689128,99.0888184 L248.480903,99.2333496 L245.898438,101.916211 L249.21875,106.505078 L250.426975,106.59541 L250.426975,107.3 L247.484809,107.3 L247.484809,106.685742 L244.930013,103.099561 L243.841688,103.099561 L243.841688,106.243115 L244.17372,106.541211 L245.068359,106.631543 L245.068359,107.3 L240.927192,107.3 Z M256.136068,107.3 L256.136068,106.541211 L257.344293,106.450879 L257.667101,106.188916 L257.667101,95.9994629 L257.344293,95.7375 L256.136068,95.6291016 L256.136068,94.8883789 L260.932075,94.8883789 L260.932075,95.6291016 L259.72385,95.7375 L259.401042,95.9994629 L259.401042,106.188916 L259.72385,106.450879 L260.932075,106.541211 L260.932075,107.3 L256.136068,107.3 Z M262.158746,107.3 L262.158746,106.631543 L263.182509,106.541211 L263.505317,106.243115 L263.505317,99.5495117 L262.158746,99.5495117 L262.158746,98.9713867 L264.353841,98.3119629 L265.073242,98.3119629 L265.073242,99.3236816 C265.829539,98.9141744 266.438257,98.6266203 266.899414,98.4610107 C267.360571,98.2954012 267.766383,98.2125977 268.116862,98.2125977 C268.940795,98.2125977 269.571034,98.4534807 270.007595,98.9352539 C270.444157,99.4170271 270.662435,100.115588 270.662435,101.030957 L270.662435,106.243115 L270.985243,106.541211 L271.999783,106.631543 L271.999783,107.3 L267.867839,107.3 L267.867839,106.631543 L268.771701,106.541211 L269.09451,106.243115 L269.09451,101.347119 C269.09451,100.65457 268.948479,100.163771 268.656413,99.874707 C268.364347,99.5856431 267.873991,99.4411133 267.18533,99.4411133 C266.884041,99.4411133 266.558161,99.4907954 266.207682,99.5901611 C265.857203,99.6895269 265.47906,99.8415843 265.073242,100.046338 L265.073242,106.243115 L265.39605,106.541211 L266.299913,106.631543 L266.299913,107.3 L262.158746,107.3 Z M273.982747,99.5133789 L272.792969,99.5133789 L272.792969,98.9352539 L274.038086,98.4022949 L274.849718,96.6769531 L275.550673,96.6769531 L275.550673,98.6461914 L278.428277,98.6461914 L278.428277,99.5133789 L275.550673,99.5133789 L275.550673,104.391309 C275.550673,105.192257 275.664423,105.729727 275.891927,106.003735 C276.119431,106.277744 276.528317,106.414746 277.118598,106.414746 C277.321507,106.414746 277.532099,106.402702 277.75038,106.378613 C277.968661,106.354525 278.194624,106.315381 278.428277,106.261182 L278.428277,106.947705 C277.997864,107.080193 277.573606,107.181062 277.15549,107.250317 C276.737375,107.319572 276.334637,107.354199 275.947266,107.354199 C275.221712,107.354199 274.71291,107.220208 274.420844,106.952222 C274.128778,106.684235 273.982747,106.194942 273.982747,105.484326 L273.982747,99.5133789 Z M285.410156,101.654248 L285.410156,101.365186 C285.410156,100.618437 285.242605,100.04634 284.907498,99.648877 C284.572391,99.251414 284.085109,99.0526855 283.445638,99.0526855 C282.818465,99.0526855 282.275845,99.2980851 281.817763,99.7888916 C281.35968,100.279698 281.102973,100.901477 281.047635,101.654248 L285.410156,101.654248 Z M287.097982,105.339795 L287.097982,106.360547 C286.538445,106.721877 285.957396,106.995881 285.354818,107.182568 C284.752239,107.369255 284.146596,107.462598 283.537869,107.462598 C282.289671,107.462598 281.276679,107.042558 280.498861,106.202466 C279.721043,105.362374 279.33214,104.267862 279.33214,102.918896 C279.33214,101.533798 279.739489,100.403154 280.554199,99.5269287 C281.36891,98.6507036 282.41572,98.2125977 283.694661,98.2125977 C284.73995,98.2125977 285.568483,98.5392952 286.180284,99.1927002 C286.792086,99.8461052 287.097982,100.735867 287.097982,101.862012 C287.097982,102.012566 287.096445,102.126985 287.09337,102.205273 C287.090296,102.283562 287.08261,102.358838 287.070313,102.431104 L280.955404,102.431104 L280.955404,102.638867 C280.955404,103.801145 281.241317,104.721017 281.813151,105.398511 C282.384985,106.076004 283.156643,106.414746 284.128147,106.414746 C284.577006,106.414746 285.042767,106.327426 285.525445,106.152783 C286.008122,105.97814 286.532296,105.707147 287.097982,105.339795 Z M288.472222,107.3 L288.472222,106.631543 L289.477539,106.541211 L289.800347,106.243115 L289.800347,99.5495117 L288.472222,99.5495117 L288.472222,98.9713867 L290.667318,98.3119629 L291.386719,98.3119629 L291.386719,100.046338 C291.694157,99.7392074 292.015424,99.4365982 292.350532,99.138501 C292.685639,98.8404038 293.03765,98.5468276 293.406576,98.2577637 C293.461914,98.2396972 293.521864,98.227653 293.586426,98.2216309 C293.650988,98.2156087 293.747829,98.2125977 293.876953,98.2125977 C294.067565,98.2125977 294.255099,98.2321694 294.439562,98.2713135 C294.624024,98.3104576 294.814633,98.3721838 295.011393,98.4564941 L295.011393,100.046338 L294.411892,100.046338 C294.288917,99.9018059 294.145961,99.791903 293.983019,99.716626 C293.820077,99.6413489 293.640228,99.6037109 293.443468,99.6037109 C293.142179,99.6037109 292.823985,99.7136138 292.488878,99.9334229 C292.153771,100.153232 291.786388,100.494985 291.386719,100.958691 L291.386719,106.243115 L291.709527,106.541211 L293.028429,106.631543 L293.028429,107.3 L288.472222,107.3 Z M295.666233,107.3 L295.666233,106.631543 L296.671549,106.541211 L297.012804,106.243115 L297.012804,99.5133789 L295.804579,99.5133789 L295.804579,98.9171875 L297.012804,98.6461914 L297.012804,98.4384277 C297.012804,96.9509528 297.363278,95.761593 298.064236,94.8703125 C298.765194,93.979032 299.693643,93.5333984 300.849609,93.5333984 C301.273874,93.5333984 301.624348,93.6342682 301.901042,93.8360107 C302.177736,94.0377533 302.316081,94.2891749 302.316081,94.5902832 C302.316081,94.8131033 302.248445,95.0073153 302.113173,95.1729248 C301.9779,95.3385344 301.787291,95.4514483 301.541341,95.5116699 L299.825846,94.4096191 C299.420028,94.5902841 299.114132,94.9230038 298.908149,95.4077881 C298.702165,95.8925724 298.599175,96.5203737 298.599175,97.2912109 L298.599175,98.6461914 L301.227756,98.6461914 L301.227756,99.5133789 L298.580729,99.5133789 L298.580729,106.243115 L298.903537,106.541211 L300.07487,106.631543 L300.07487,107.3 L295.666233,107.3 Z M307.960612,101.654248 L307.960612,101.365186 C307.960612,100.618437 307.793061,100.04634 307.457954,99.648877 C307.122846,99.251414 306.635565,99.0526855 305.996094,99.0526855 C305.36892,99.0526855 304.826301,99.2980851 304.368218,99.7888916 C303.910136,100.279698 303.653429,100.901477 303.59809,101.654248 L307.960612,101.654248 Z M309.648438,105.339795 L309.648438,106.360547 C309.088901,106.721877 308.507852,106.995881 307.905273,107.182568 C307.302695,107.369255 306.697052,107.462598 306.088325,107.462598 C304.840127,107.462598 303.827134,107.042558 303.049316,106.202466 C302.271499,105.362374 301.882595,104.267862 301.882595,102.918896 C301.882595,101.533798 302.289945,100.403154 303.104655,99.5269287 C303.919365,98.6507036 304.966176,98.2125977 306.245117,98.2125977 C307.290406,98.2125977 308.118939,98.5392952 308.73074,99.1927002 C309.342541,99.8461052 309.648438,100.735867 309.648438,101.862012 C309.648438,102.012566 309.6469,102.126985 309.643826,102.205273 C309.640752,102.283562 309.633066,102.358838 309.620768,102.431104 L303.505859,102.431104 L303.505859,102.638867 C303.505859,103.801145 303.791772,104.721017 304.363607,105.398511 C304.935441,106.076004 305.707099,106.414746 306.678602,106.414746 C307.127462,106.414746 307.593223,106.327426 308.075901,106.152783 C308.558578,105.97814 309.082752,105.707147 309.648438,105.339795 Z M311.022678,107.3 L311.022678,106.631543 L312.027995,106.541211 L312.350803,106.243115 L312.350803,99.5495117 L311.022678,99.5495117 L311.022678,98.9713867 L313.217773,98.3119629 L313.937174,98.3119629 L313.937174,100.046338 C314.244612,99.7392074 314.56588,99.4365982 314.900987,99.138501 C315.236095,98.8404038 315.588106,98.5468276 315.957031,98.2577637 C316.01237,98.2396972 316.07232,98.227653 316.136882,98.2216309 C316.201443,98.2156087 316.298285,98.2125977 316.427409,98.2125977 C316.61802,98.2125977 316.805555,98.2321694 316.990017,98.2713135 C317.17448,98.3104576 317.365089,98.3721838 317.561849,98.4564941 L317.561849,100.046338 L316.962348,100.046338 C316.839373,99.9018059 316.696416,99.791903 316.533474,99.716626 C316.370532,99.6413489 316.190684,99.6037109 315.993924,99.6037109 C315.692634,99.6037109 315.374441,99.7136138 315.039334,99.9334229 C314.704226,100.153232 314.336844,100.494985 313.937174,100.958691 L313.937174,106.243115 L314.259983,106.541211 L315.578885,106.631543 L315.578885,107.3 L311.022678,107.3 Z M324.451497,101.654248 L324.451497,101.365186 C324.451497,100.618437 324.283946,100.04634 323.948839,99.648877 C323.613732,99.251414 323.12645,99.0526855 322.486979,99.0526855 C321.859806,99.0526855 321.317186,99.2980851 320.859104,99.7888916 C320.401021,100.279698 320.144315,100.901477 320.088976,101.654248 L324.451497,101.654248 Z M326.139323,105.339795 L326.139323,106.360547 C325.579786,106.721877 324.998737,106.995881 324.396159,107.182568 C323.793581,107.369255 323.187937,107.462598 322.57921,107.462598 C321.331012,107.462598 320.31802,107.042558 319.540202,106.202466 C318.762384,105.362374 318.373481,104.267862 318.373481,102.918896 C318.373481,101.533798 318.78083,100.403154 319.59554,99.5269287 C320.410251,98.6507036 321.457061,98.2125977 322.736003,98.2125977 C323.781291,98.2125977 324.609824,98.5392952 325.221625,99.1927002 C325.833427,99.8461052 326.139323,100.735867 326.139323,101.862012 C326.139323,102.012566 326.137786,102.126985 326.134711,102.205273 C326.131637,102.283562 326.123951,102.358838 326.111654,102.431104 L319.996745,102.431104 L319.996745,102.638867 C319.996745,103.801145 320.282658,104.721017 320.854492,105.398511 C321.426327,106.076004 322.197984,106.414746 323.169488,106.414746 C323.618347,106.414746 324.084109,106.327426 324.566786,106.152783 C325.049463,105.97814 325.573637,105.707147 326.139323,105.339795 Z M327.513563,107.3 L327.513563,106.631543 L328.537326,106.541211 L328.860135,106.243115 L328.860135,99.5495117 L327.513563,99.5495117 L327.513563,98.9713867 L329.708659,98.3119629 L330.42806,98.3119629 L330.42806,99.3236816 C331.184357,98.9141744 331.793075,98.6266203 332.254232,98.4610107 C332.715389,98.2954012 333.121201,98.2125977 333.47168,98.2125977 C334.295613,98.2125977 334.925851,98.4534807 335.362413,98.9352539 C335.798975,99.4170271 336.017253,100.115588 336.017253,101.030957 L336.017253,106.243115 L336.340061,106.541211 L337.354601,106.631543 L337.354601,107.3 L333.222656,107.3 L333.222656,106.631543 L334.126519,106.541211 L334.449327,106.243115 L334.449327,101.347119 C334.449327,100.65457 334.303296,100.163771 334.01123,99.874707 C333.719164,99.5856431 333.228808,99.4411133 332.540148,99.4411133 C332.238858,99.4411133 331.912979,99.4907954 331.5625,99.5901611 C331.212021,99.6895269 330.833878,99.8415843 330.42806,100.046338 L330.42806,106.243115 L330.750868,106.541211 L331.654731,106.631543 L331.654731,107.3 L327.513563,107.3 Z M345.701497,106.523145 C345.172704,106.824253 344.653142,107.050081 344.142795,107.200635 C343.632448,107.351189 343.128258,107.426465 342.630208,107.426465 C341.351267,107.426465 340.322902,107.006425 339.545085,106.166333 C338.767267,105.326241 338.378364,104.216674 338.378364,102.837598 C338.378364,101.470566 338.791861,100.357988 339.618869,99.4998291 C340.445877,98.6416705 341.523431,98.2125977 342.851563,98.2125977 C343.730835,98.2125977 344.42256,98.3766992 344.926758,98.7049072 C345.430956,99.0331152 345.683051,99.4742323 345.683051,100.028271 C345.683051,100.323358 345.587747,100.56123 345.397135,100.741895 C345.206524,100.922559 344.951354,101.012891 344.631619,101.012891 C344.490197,101.012891 344.348778,100.988802 344.207357,100.940625 C344.065935,100.892448 343.924516,100.823194 343.783095,100.732861 L343.783095,99.2152832 C343.635524,99.1309729 343.484882,99.0662356 343.331163,99.0210693 C343.177444,98.9759031 343.023728,98.9533203 342.870009,98.9533203 C342.033778,98.9533203 341.362036,99.2950731 340.854763,99.9785889 C340.347491,100.662105 340.093859,101.572944 340.093859,102.711133 C340.093859,103.837278 340.381309,104.724028 340.956217,105.371411 C341.531126,106.018794 342.313544,106.34248 343.303494,106.34248 C343.715461,106.34248 344.118198,106.277743 344.511719,106.148267 C344.905239,106.01879 345.301828,105.821567 345.701497,105.556592 L345.701497,106.523145 Z M352.877062,101.654248 L352.877062,101.365186 C352.877062,100.618437 352.709511,100.04634 352.374403,99.648877 C352.039296,99.251414 351.552014,99.0526855 350.912543,99.0526855 C350.28537,99.0526855 349.74275,99.2980851 349.284668,99.7888916 C348.826586,100.279698 348.569879,100.901477 348.51454,101.654248 L352.877062,101.654248 Z M354.564887,105.339795 L354.564887,106.360547 C354.00535,106.721877 353.424301,106.995881 352.821723,107.182568 C352.219145,107.369255 351.613501,107.462598 351.004774,107.462598 C349.756577,107.462598 348.743584,107.042558 347.965766,106.202466 C347.187948,105.362374 346.799045,104.267862 346.799045,102.918896 C346.799045,101.533798 347.206394,100.403154 348.021105,99.5269287 C348.835815,98.6507036 349.882625,98.2125977 351.161567,98.2125977 C352.206856,98.2125977 353.035388,98.5392952 353.64719,99.1927002 C354.258991,99.8461052 354.564887,100.735867 354.564887,101.862012 C354.564887,102.012566 354.56335,102.126985 354.560276,102.205273 C354.557201,102.283562 354.549515,102.358838 354.537218,102.431104 L348.422309,102.431104 L348.422309,102.638867 C348.422309,103.801145 348.708222,104.721017 349.280056,105.398511 C349.851891,106.076004 350.623548,106.414746 351.595052,106.414746 C352.043911,106.414746 352.509673,106.327426 352.99235,106.152783 C353.475028,105.97814 353.999201,105.707147 354.564887,105.339795 Z" id="Open-Observatory-Of"></path>
                </g>
            </g>
        </g>
    </g>
</svg>