<?xml version="1.0" encoding="UTF-8"?>
<svg width="500px" height="500px" viewBox="0 0 500 500" version="1.1" xmlns="http://www.w3.org/2000/svg" xmlns:xlink="http://www.w3.org/1999/xlink">
    <!-- Generator: Sketch 46.2 (44496) - http://www.bohemiancoding.com/sketch -->
    <title>No Wordmark BW-INV</title>
    <desc>Created with Sketch.</desc>
    <defs>
        <polygon id="path-1" points="384.803867 191.64658 384.803867 0.714863971 0 0.714863971 0 191.64658 0 382.578296 384.803867 382.578296"></polygon>
    </defs>
    <g id="Page-1" stroke="none" stroke-width="1" fill="none" fill-rule="evenodd">
        <g id="No-Wordmark-BW-INV">
            <g id="Logo-BW-INV" transform="translate(58.000000, 58.000000)">
                <g id="OONI-Logo">
                    <g id="Group-3" transform="translate(0.000000, 0.087829)">
                        <mask id="mask-2" fill="white">
                            <use xlink:href="#path-1"></use>
                        </mask>
                        <g id="Clip-2"></g>
                        <path d="M192.401934,0.714100242 C298.661674,0.714100242 384.803867,86.198219 384.803867,191.646198 C384.803867,297.094177 298.661674,382.578296 192.401934,382.578296 C86.1421938,382.578296 0,297.094177 0,191.646198 C0,86.198219 86.1421938,0.714100242 192.401934,0.714100242" id="Fill-1" fill="#26292C" mask="url(#mask-2)"></path>
                    </g>
                    <path d="M140.05033,148.281891 C153.568489,161.377923 156.621908,173.547935 151.080732,184.520803 C145.083564,196.392961 131.259485,202.810189 108.538741,202.999211 C88.956072,203.163413 83.6592468,193.511796 79.6880709,187.965218 C72.0708783,177.3303 76.015118,164.429018 83.1590018,156.144475 C91.836329,146.080444 98.2433134,145.211703 105.289072,148.976884 C109.06977,150.996945 114.657122,155.705331 114.784108,164.287729 C114.859144,169.398981 111.374745,177.316935 111.374745,178.319329 C111.374745,179.321722 112.196302,179.947979 113.079426,179.571843 C113.964475,179.195707 121.058335,175.470622 125.073763,170.363188 C128.665907,165.794183 132.521642,149.190728 131.765502,147.059925 C131.007439,144.931033 125.548996,140.501408 125.169964,138.120485 C124.944854,136.705678 124.777464,134.897551 124.105981,133.414008 C123.648065,132.402068 122.393604,131.47032 121.727893,130.96244 C120.086705,129.708016 115.794218,131.275569 114.026044,129.081759 C112.511841,127.202987 111.880762,123.256421 109.860542,122.756179 C108.942785,122.52706 107.178459,122.160471 105.564207,122.486964 C103.245764,122.956657 101.502602,124.344734 99.697872,124.132799 C97.1774067,123.840673 95.0263531,119.873104 91.6169908,120.125134 C88.2268687,120.373346 83.9170654,126.137586 79.2455465,131.149554 C74.5740275,136.161521 66.2815042,142.49092 60.4344094,152.69815 C56.1957948,160.098678 52.73256,168.860552 54.5007338,181.263501 C56.2689075,193.666451 59.3473385,202.025458 69.3984155,211.142465 C79.7361714,220.52105 88.0825673,223.232286 94.2682894,225.363088 C100.455936,227.491981 104.746499,229.479584 111.438238,229.685791 C113.745137,229.756436 118.655235,229.907272 120.284879,229.733524 C124.408052,229.29438 123.56918,227.49389 127.409523,226.865724 C142.368773,224.423702 153.020144,216.673768 159.494469,210.130525 C161.14143,208.465597 165.462777,203.887046 166.268941,203.096587 C166.470963,204.236451 166.532532,207.89662 166.401698,208.847462 C165.505105,215.363974 161.406944,219.012687 154.840266,222.487651 C145.466444,227.448067 131.855931,234.739763 122.522513,241.221908 C113.889439,247.220995 106.276094,253.050152 103.597859,262.617759 C100.919624,272.185366 101.456426,277.676574 104.402099,284.277096 C107.089954,290.297185 111.990432,296.72396 120.202146,301.41898 C126.995858,305.302539 132.941078,308.718314 139.494288,312.057716 C144.004189,314.356539 151.892669,318.249644 151.178857,326.400536 C150.455426,334.664077 145.064324,339.036422 141.404839,340.619249 C135.119068,343.340031 126.507157,344.050299 126.137746,344.340515 C125.489351,344.854123 133.635649,351.687583 139.886788,351.647487 C146.713209,351.605482 149.133625,351.149154 155.463648,348.947707 C160.968268,347.032658 163.365596,342.259356 164.258341,342.081789 C165.151086,341.904222 166.457495,342.009235 167.650387,341.15004 C168.814419,340.311848 172.514308,337.472688 172.96068,335.790576 C173.407053,334.106555 173.497482,331.273123 173.943854,329.766668 C174.390227,328.260214 176.175717,323.168055 176.264222,320.422452 C176.35465,317.674939 177.070386,311.385635 174.590325,307.775109 C172.535472,304.783203 173.607151,303.211832 171.889002,301.596547 C171.604247,301.327332 170.161232,299.431377 168.841355,298.940681 C167.132826,298.306787 166.240081,298.86049 165.016404,298.186499 C163.061601,297.107733 160.725841,289.837039 157.903305,289.634651 C156.873955,289.562097 155.677215,289.623195 154.63632,289.871407 C152.315953,290.427019 142.157131,290.688596 140.33316,289.991694 C137.510624,288.912927 128.304192,283.081861 129.085343,274.665574 C129.75875,267.434976 134.94783,262.514656 141.983969,259.958075 C148.267816,257.676436 150.465046,257.876915 154.749837,255.83967 C158.974984,253.831064 161.937974,251.278302 165.151086,249.59619 C168.364198,247.912169 172.71633,245.897835 176.017947,243.150322 C177.901562,241.584679 179.789025,239.809011 181.572591,237.582742 C183.100262,235.681059 186.019,230.518255 189.133987,227.957855 C193.39569,234.424725 197.561192,240.118321 200.635774,243.658202 C208.445369,252.649194 219.114056,258.119399 224.112658,261.220136 C229.111261,264.318964 240.58034,272.851719 245.494285,279.671814 C250.76225,286.978785 248.34953,296.989355 245.448109,300.798451 C242.937264,304.097757 237.236394,308.374636 229.380623,308.197069 C220.978431,308.008047 212.928334,304.586543 208.00092,298.274328 C203.090823,291.983116 201.178348,280.173965 205.366938,277.057954 C209.871067,273.707095 214.284768,275.303288 217.061128,275.639328 C219.235269,275.902814 221.301666,274.753403 221.659534,272.981553 C222.015477,271.209703 221.436348,269.08272 219.025551,267.223041 C217.746078,266.235922 215.393003,264.599634 212.147182,264.63973 C210.367464,264.660732 207.013899,265.516108 202.465517,265.359544 C197.636228,265.193433 192.880053,265.705131 188.512529,269.712796 C184.920385,273.012102 182.857836,275.616416 181.51487,279.748187 C181.003081,281.319558 181.622615,284.699056 181.409049,286.709571 C181.195483,288.741089 180.350839,290.331553 180.335446,291.895287 C180.310434,294.21893 180.693314,297.063819 181.226267,299.839971 C181.820789,302.931162 182.952113,306.501592 184.354723,309.663428 C184.928081,310.957947 185.389845,312.731707 186.126745,313.516438 C187.021414,314.473007 188.731867,315.462036 190.353815,317.031498 C193.422626,320.002401 196.982062,323.838227 199.787282,324.939905 C203.271681,326.308888 210.321288,323.920328 212.285712,324.540857 C214.248211,325.159477 216.770601,328.212481 219.804779,328.124652 C222.840882,328.036824 241.442301,327.168083 247.858905,324.628686 C255.876294,321.453485 269.706145,312.708795 272.424784,300.536874 C275.776426,285.529611 269.423314,275.261283 263.047114,267.750014 C255.174027,258.476442 240.40333,246.497362 229.25941,238.562224 C222.875514,234.01804 220.455098,230.56026 217.986581,226.434217 C216.110662,223.299112 214.12315,218.002656 215.119792,213.143434 C219.712426,215.530085 226.273332,222.961162 228.193503,225.334448 C230.665868,228.387453 233.817412,230.245222 236.255144,231.432819 C238.41197,232.484855 241.105597,231.88151 243.158526,232.236644 C245.211454,232.589868 243.741504,234.258615 247.400988,235.499673 C251.062397,236.738822 267.2434,239.707817 271.137615,239.572255 C272.728779,239.516884 274.860592,238.29301 277.37721,237.510188 C279.788006,236.759825 283.909255,236.423784 295.355246,231.986523 C311.051396,225.901517 317.646934,215.978775 322.951456,204.112346 C328.255977,192.245916 324.663833,177.093544 321.57001,170.208533 C318.476187,163.323522 312.403982,154.185511 306.154767,144.705733 C299.905552,135.225954 292.074793,125.549515 295.566889,106.122174 C299.058984,86.6948334 314.002842,80.7358427 316.126959,77.1654124 C317.825868,74.3071589 312.769545,71.416447 311.509313,70.8207388 C309.979717,70.1009248 308.317365,69.5395845 304.300012,69.3639269 C304.04989,69.352471 303.805539,69.3505617 303.570809,69.3601083 C300.030613,69.4861235 298.145074,71.6913892 296.686668,72.1763567 C295.105124,72.70142 288.172882,72.285188 287.212797,72.4837574 C286.162282,72.70142 284.320996,74.9028671 283.926572,75.4642074 C283.237773,76.4513264 283.768802,76.6976288 282.787552,78.7367836 C281.804378,80.7740291 274.800948,86.5707276 272.882701,90.1850722 C271.855274,92.1211237 273.007762,96.1249697 271.757149,98.7827445 C270.508461,101.440519 266.758547,101.310686 265.960079,104.224309 C265.373253,106.368477 266.494956,113.255398 265.550263,116.615802 C264.570937,120.098404 262.539173,118.528942 262.412187,122.080279 C262.233254,127.084609 271.149159,135.063662 272.66721,137.366303 C274.185262,139.670853 274.795176,141.026471 276.671095,145.236524 C278.764428,149.933454 281.583116,152.860443 283.703385,155.247094 C285.825579,157.633745 291.663053,161.290095 293.171484,163.848585 C294.008433,165.271029 293.096448,167.987993 293.664033,169.769389 C294.198911,171.45341 295.732354,172.927406 298.141226,176.383277 C300.552023,179.837239 299.743935,188.828231 297.564021,194.262159 C295.384107,199.697995 289.444659,206.899954 279.283913,209.729568 C269.123167,212.559182 243.61067,210.243175 233.394128,183.642515 C228.695672,171.407587 230.852498,157.093407 241.830953,145.832232 C252.807483,134.571057 260.996109,117.347072 261.023045,99.4051832 C261.023045,61.3409602 228.466714,30.4844239 189.551499,30.4844239 C150.636284,30.4844239 119.088139,61.3409602 119.088139,99.4051832 C119.103531,117.671657 126.53217,135.185858 140.05033,148.281891 Z" id="Fill-4" fill="#FFFFFF"></path>
                    <path d="M178.953231,70.9181142 C198.014491,70.9181142 213.468214,86.251871 213.468214,105.169423 C213.468214,124.085066 198.014491,139.418823 178.953231,139.418823 C159.891971,139.418823 144.438248,124.085066 144.438248,105.169423 C144.438248,86.251871 159.891971,70.9181142 178.953231,70.9181142" id="Fill-6" fill="#26292C"></path>
                    <path d="M182.37914,110.066641 C182.37914,114.396981 178.842792,117.906313 174.479116,117.906313 C170.115441,117.906313 166.579093,114.396981 166.579093,110.066641 C166.579093,105.736301 170.115441,102.226969 174.479116,102.226969 C178.842792,102.226969 182.37914,105.736301 182.37914,110.066641 Z" id="Fill-8" fill="#FFFFFF"></path>
                </g>
            </g>
        </g>
    </g>
</svg>