<?xml version="1.0" encoding="UTF-8"?>
<svg width="500px" height="500px" viewBox="0 0 500 500" version="1.1" xmlns="http://www.w3.org/2000/svg" xmlns:xlink="http://www.w3.org/1999/xlink">
    <!-- Generator: Sketch 46.2 (44496) - http://www.bohemiancoding.com/sketch -->
    <title>No Wordmark</title>
    <desc>Created with Sketch.</desc>
    <defs></defs>
    <g id="Page-1" stroke="none" stroke-width="1" fill="none" fill-rule="evenodd">
        <g id="No-Wordmark">
            <g id="Logo-no-wordmark">
                <g id="OONI-Logo">
                    <path d="M250,0.120083522 C388.07,0.120083522 500,111.82667 500,249.621082 C500,387.415493 388.07,499.12208 250,499.12208 C111.93,499.12208 0,387.415493 0,249.621082 C0,111.82667 111.93,0.120083522 250,0.120083522" id="Circle" fill="#8DD8F8"></path>
                    <g id="Octopus" transform="translate(70.000000, 37.924152)">
                        <path d="M111.97625,151.593643 C129.54125,168.411918 133.50875,184.040973 126.30875,198.132623 C118.51625,213.379165 100.55375,221.620341 71.03125,221.863089 C45.58625,222.073961 38.70375,209.679096 33.54375,202.556033 C23.64625,188.898387 28.77125,172.330216 38.05375,161.690983 C49.32875,148.766485 57.65375,147.650825 66.80875,152.486171 C71.72125,155.080388 78.98125,161.127023 79.14625,172.148767 C79.24375,178.712774 74.71625,188.881223 74.71625,190.168523 C74.71625,191.455824 75.78375,192.26008 76.93125,191.777036 C78.08125,191.293992 87.29875,186.510138 92.51625,179.951035 C97.18375,174.083396 102.19375,152.760795 101.21125,150.024362 C100.22625,147.290381 93.13375,141.601738 92.64125,138.544093 C92.34875,136.72716 92.13125,134.405115 91.25875,132.49991 C90.66375,131.20035 89.03375,130.003773 88.16875,129.351541 C86.03625,127.740576 80.45875,129.753669 78.16125,126.93632 C76.19375,124.523551 75.37375,119.455265 72.74875,118.81284 C71.55625,118.5186 69.26375,118.047816 67.16625,118.467108 C64.15375,119.070301 61.88875,120.852905 59.54375,120.580733 C56.26875,120.205577 53.47375,115.110319 49.04375,115.433983 C44.63875,115.752743 39.03875,123.155334 32.96875,129.591837 C26.89875,136.02834 16.12375,144.156723 8.52625,157.265121 C3.01875,166.769077 -1.48125,178.02131 0.81625,193.949509 C3.11375,209.877708 7.11375,220.612568 20.17375,232.320873 C33.60625,244.365103 44.45125,247.846944 52.48875,250.583377 C60.52875,253.317358 66.10375,255.869892 74.79875,256.134708 C77.79625,256.225432 84.17625,256.41914 86.29375,256.196008 C91.65125,255.632047 90.56125,253.31981 95.55125,252.513102 C114.98875,249.376993 128.82875,239.42432 137.24125,231.021313 C139.38125,228.883168 144.99625,223.003269 146.04375,221.988141 C146.30625,223.451986 146.38625,228.152472 146.21625,229.373568 C145.05125,237.742248 139.72625,242.428022 131.19375,246.890664 C119.01375,253.260962 101.32875,262.625154 89.20125,270.949698 C77.98375,278.653885 68.09125,286.139845 64.61125,298.426822 C61.13125,310.713799 61.82875,317.765754 65.65625,326.242322 C69.14875,333.973481 75.51625,342.226917 86.18625,348.256387 C95.01375,353.243757 102.73875,357.630387 111.25375,361.918937 C117.11375,364.871146 127.36375,369.870777 126.43625,380.338369 C125.49625,390.95063 118.49125,396.565712 113.73625,398.598421 C105.56875,402.092522 94.37875,403.004667 93.89875,403.377371 C93.05625,404.036959 103.64125,412.812671 111.76375,412.761179 C120.63375,412.707235 123.77875,412.121207 132.00375,409.29405 C139.15625,406.834693 142.27125,400.70469 143.43125,400.476654 C144.59125,400.248618 146.28875,400.383478 147.83875,399.280077 C149.35125,398.203649 154.15875,394.557523 154.73875,392.39731 C155.31875,390.234645 155.43625,386.595876 156.01625,384.661247 C156.59625,382.726618 158.91625,376.187131 159.03125,372.661154 C159.14875,369.132724 160.07875,361.055833 156.85625,356.419099 C154.18625,352.576813 155.57875,350.558816 153.34625,348.484423 C152.97625,348.138691 151.10125,345.703854 149.38625,345.07369 C147.16625,344.259626 146.00625,344.970706 144.41625,344.10515 C141.87625,342.719769 138.84125,333.382549 135.17375,333.122637 C133.83625,333.029461 132.28125,333.107925 130.92875,333.426685 C127.91375,334.140217 114.71375,334.476141 112.34375,333.581161 C108.67625,332.19578 96.71375,324.707369 97.72875,313.898949 C98.60375,304.613221 105.34625,298.294414 114.48875,295.011184 C122.65375,292.081043 125.50875,292.338503 131.07625,289.722218 C136.56625,287.142713 140.41625,283.864388 144.59125,281.704175 C148.76625,279.54151 154.42125,276.954649 158.71125,273.426219 C161.15875,271.415578 163.61125,269.135217 165.92875,266.276184 C167.91375,263.833991 171.70625,257.20378 175.75375,253.915647 C181.29125,262.220574 186.70375,269.532441 190.69875,274.078451 C200.84625,285.624924 214.70875,292.649907 221.20375,296.631957 C227.69875,300.611555 242.60125,311.569548 248.98625,320.328095 C255.83125,329.711903 252.69625,342.567745 248.92625,347.459487 C245.66375,351.696545 238.25625,357.189027 228.04875,356.960991 C217.13125,356.718243 206.67125,352.324257 200.26875,344.217942 C193.88875,336.138598 191.40375,320.972972 196.84625,316.971306 C202.69875,312.668044 208.43375,314.717917 212.04125,315.149469 C214.86625,315.487845 217.55125,314.011741 218.01625,311.736284 C218.47875,309.460827 217.72625,306.729297 214.59375,304.341048 C212.93125,303.073364 209.87375,300.971999 205.65625,301.023491 C203.34375,301.050463 198.98625,302.148959 193.07625,301.947895 C186.80125,301.734571 180.62125,302.391708 174.94625,307.538458 C170.27875,311.775516 167.59875,315.120045 165.85375,320.426175 C165.18875,322.444172 165.99375,326.784214 165.71625,329.366171 C165.43875,331.9751 164.34125,334.017617 164.32125,336.025806 C164.28875,339.009891 164.78625,342.663373 165.47875,346.228582 C166.25125,350.198372 167.72125,354.783614 169.54375,358.844128 C170.28875,360.506585 170.88875,362.784494 171.84625,363.792266 C173.00875,365.020719 175.23125,366.290855 177.33875,368.3064 C181.32625,372.121714 185.95125,377.047784 189.59625,378.462588 C194.12375,380.220673 203.28375,377.15322 205.83625,377.95012 C208.38625,378.744568 211.66375,382.665318 215.60625,382.552526 C219.55125,382.439734 243.72125,381.324074 252.05875,378.062912 C262.47625,373.985234 280.44625,362.75507 283.97875,347.123563 C288.33375,327.850835 280.07875,314.663973 271.79375,305.017801 C261.56375,293.108432 242.37125,277.724577 227.89125,267.534061 C219.59625,261.698298 216.45125,257.257724 213.24375,251.95895 C210.80625,247.932764 208.22375,241.130913 209.51875,234.89057 C215.48625,237.955572 224.01125,247.49876 226.50625,250.546597 C229.71875,254.467347 233.81375,256.853144 236.98125,258.378289 C239.78375,259.729341 243.28375,258.954509 245.95125,259.410581 C248.61875,259.864201 246.70875,262.00725 251.46375,263.601051 C256.22125,265.1924 277.24625,269.005261 282.30625,268.831169 C284.37375,268.760061 287.14375,267.188328 290.41375,266.183008 C293.54625,265.219372 298.90125,264.787819 313.77375,259.089369 C334.16875,251.274842 342.73875,238.531792 349.63125,223.292605 C356.52375,208.053419 351.85625,188.594339 347.83625,179.752423 C343.81625,170.910507 335.92625,159.17523 327.80625,147.001045 C319.68625,134.826859 309.51125,122.400118 314.04875,97.4510073 C318.58625,72.5018965 338.00375,64.8492012 340.76375,60.2639593 C342.97125,56.5933137 336.40125,52.8809841 334.76375,52.1159598 C332.77625,51.1915554 330.61625,50.470667 325.39625,50.2450829 C325.07125,50.2303709 324.75375,50.2279189 324.44875,50.2401789 C319.84875,50.402011 317.39875,53.2340722 315.50375,53.8568805 C313.44875,54.5311808 304.44125,53.9966446 303.19375,54.2516527 C301.82875,54.5311808 299.43625,57.358338 298.92375,58.0792263 C298.02875,59.3469109 298.71875,59.663219 297.44375,62.2819561 C296.16625,64.8982413 287.06625,72.3425165 284.57375,76.9841545 C283.23875,79.4704835 284.73625,84.6123298 283.11125,88.0255152 C281.48875,91.4387007 276.61625,91.2719646 275.57875,95.0137182 C274.81625,97.7673154 276.27375,106.611683 275.04625,110.927205 C273.77375,115.399655 271.13375,113.38411 270.96875,117.944832 C270.73625,124.371527 282.32125,134.618439 284.29375,137.575553 C286.26625,140.535118 287.05875,142.276039 289.49625,147.682701 C292.21625,153.714624 295.87875,157.473541 298.63375,160.538542 C301.39125,163.603544 308.97625,168.299126 310.93625,171.584807 C312.02375,173.411548 310.83875,176.900746 311.57625,179.188462 C312.27125,181.351127 314.26375,183.244072 317.39375,187.682194 C320.52625,192.117864 319.47625,203.664337 316.64375,210.642732 C313.81125,217.623579 306.09375,226.872527 292.89125,230.506393 C279.68875,234.140258 246.53875,231.165981 233.26375,197.004702 C227.15875,181.292279 229.96125,162.909627 244.22625,148.447725 C258.48875,133.985823 269.12875,111.866321 269.16375,88.8248676 C269.16375,39.9417745 226.86125,0.314985444 176.29625,0.314985444 C125.73125,0.314985444 84.73875,39.9417745 84.73875,88.8248676 C84.75875,112.283162 94.41125,134.775367 111.97625,151.593643 Z" id="Fill-4" fill="#0588CB"></path>
                        <path d="M162.52525,52.2410118 C187.29275,52.2410118 207.37275,71.9330323 207.37275,96.2274588 C207.37275,120.519433 187.29275,140.211454 162.52525,140.211454 C137.75775,140.211454 117.67775,120.519433 117.67775,96.2274588 C117.67775,71.9330323 137.75775,52.2410118 162.52525,52.2410118" id="Fill-6" fill="#FFFFFF"></path>
                        <path d="M156.71175,92.4486799 C162.38175,92.4486799 166.97675,96.9554579 166.97675,102.516596 C166.97675,108.077735 162.38175,112.584513 156.71175,112.584513 C151.04175,112.584513 146.44675,108.077735 146.44675,102.516596 C146.44675,96.9554579 151.04175,92.4486799 156.71175,92.4486799" id="Fill-8" fill="#0062B0"></path>
                    </g>
                </g>
            </g>
        </g>
    </g>
</svg>