<?xml version="1.0" encoding="UTF-8"?>
<svg width="551px" height="208px" viewBox="0 0 551 208" version="1.1" xmlns="http://www.w3.org/2000/svg" xmlns:xlink="http://www.w3.org/1999/xlink">
    <!-- Generator: Sketch 46.2 (44496) - http://www.bohemiancoding.com/sketch -->
    <title>Wordmark Horizontal</title>
    <desc>Created with Sketch.</desc>
    <defs>
        <polygon id="path-1" points="135.228984 67.9875804 135.228984 0.642473604 0 0.642473604 0 67.9875804 0 135.332687 135.228984 135.332687"></polygon>
    </defs>
    <g id="Page-1" stroke="none" stroke-width="1" fill="none" fill-rule="evenodd">
        <g id="Wordmark-Horizontal">
            <g id="Logo-wordmark-HORIZ" transform="translate(1.000000, 1.000000)">
                <rect id="Margin" x="0" y="0" width="551" height="208"></rect>
                <g id="OONI-Logo" transform="translate(36.000000, 35.000000)">
                    <g id="Group-3" transform="translate(0.000000, 0.030979)">
                        <mask id="mask-2" fill="white">
                            <use xlink:href="#path-1"></use>
                        </mask>
                        <g id="Clip-2"></g>
                        <path d="M67.6144921,0.642204223 C104.956624,0.642204223 135.228984,30.7940157 135.228984,67.9874457 C135.228984,105.180876 104.956624,135.332687 67.6144921,135.332687 C30.2723604,135.332687 0,105.180876 0,67.9874457 C0,30.7940157 30.2723604,0.642204223 67.6144921,0.642204223" id="Fill-1" fill="#8DD8F8" mask="url(#mask-2)"></path>
                    </g>
                    <path d="M49.2169269,52.6920618 C53.9675211,57.3112719 55.0405631,61.6038576 53.0932657,65.4741887 C50.985722,69.6617158 46.1276207,71.9251893 38.1430254,71.9918611 C31.2612224,72.049778 29.3997954,68.6454761 28.0042323,66.6890968 C25.3273745,62.9379669 26.7134716,58.3874489 29.2239977,55.4653389 C32.2734113,51.9155712 34.5249739,51.6091503 37.0010166,52.9371985 C38.3296414,53.6497111 40.2931662,55.3104448 40.3377918,58.3376134 C40.3641614,60.1404455 39.139663,62.9332527 39.139663,63.2868152 C39.139663,63.6403777 39.4283769,63.8612701 39.7387274,63.7286 C40.049754,63.5959299 42.5427004,62.2820242 43.9538148,60.480539 C45.2161774,58.8689674 46.5711718,53.0126252 46.3054469,52.2610523 C46.0390458,51.5101528 44.1208226,49.9477432 43.9876221,49.1079481 C43.9085131,48.6089198 43.8496885,47.9711604 43.6137139,47.4478879 C43.4527914,47.0909581 43.0119449,46.7623133 42.7779988,46.583175 C42.2012472,46.1407167 40.6927679,46.6936212 40.0713907,45.9198243 C39.5392646,45.2571472 39.3174891,43.865121 38.6075369,43.6886765 C38.2850158,43.6078622 37.6649909,43.4785593 37.0977053,43.5937197 C36.2829507,43.759389 35.6703634,44.2489889 35.0361395,44.1742357 C34.1503896,44.0711975 33.3944596,42.6717633 32.1963308,42.7606591 C31.0049634,42.8482079 29.4903988,44.8813607 27.8487189,46.6491733 C26.2070391,48.4169859 23.2928545,50.6494806 21.23805,54.2497573 C19.7485028,56.8600588 18.5314419,59.9505319 19.1528191,64.3252788 C19.7741963,68.7000257 20.8560282,71.6484004 24.3882092,74.8641357 C28.0211359,78.1721339 30.9542526,79.1284364 33.1280585,79.8800093 C35.3025406,80.6309087 36.8103437,81.3319727 39.1619758,81.4047055 C39.9726735,81.4296233 41.6981954,81.482826 42.2708901,81.4215418 C43.7198687,81.2666478 43.4250695,80.6315822 44.7746548,80.4100163 C50.0316815,79.5486707 53.7748198,76.8151273 56.0500475,74.5072059 C56.6288275,73.9199554 58.147449,72.3050165 58.4307537,72.0262072 C58.501749,72.4282583 58.5233856,73.7192666 58.4774077,74.0546459 C58.1623242,76.353139 56.7221355,77.6401065 54.4144529,78.8657899 C51.1202748,80.6154193 46.3372257,83.1873341 43.0572467,85.473705 C40.0233844,87.5896925 37.3478789,89.6457427 36.4066852,93.0204128 C35.4654915,96.3950828 35.6541359,98.331932 36.6893138,100.660057 C37.6338882,102.783452 39.3560294,105.050293 42.2418159,106.706313 C44.6292836,108.076115 46.7185714,109.280921 49.021521,110.45879 C50.6064047,111.269626 53.3785989,112.642796 53.1277491,115.517764 C52.8735186,118.432466 50.9789606,119.974672 49.6929329,120.532964 C47.4839675,121.492634 44.4575428,121.743158 44.327723,121.845523 C44.0998621,122.026682 46.9626597,124.436968 49.1594546,124.422825 C51.5584168,124.408009 52.4090071,124.247054 54.6335239,123.470564 C56.5679745,122.795091 57.410451,121.11146 57.7241823,121.048829 C58.0379135,120.986198 58.4970159,121.023238 58.9162258,120.720184 C59.3252935,120.424538 60.6255201,119.423115 60.7823858,118.829803 C60.9392514,118.235818 60.9710302,117.236415 61.1278958,116.705061 C61.2847614,116.173707 61.9122239,114.377609 61.9433266,113.409185 C61.9751054,112.440087 62.2266313,110.221734 61.3550805,108.948236 C60.6329577,107.892936 61.0095705,107.338685 60.405773,106.768944 C60.3057036,106.673987 59.7985949,106.005249 59.3347595,105.832172 C58.7343428,105.608585 58.4206116,105.803887 57.9905834,105.566158 C57.3036202,105.185657 56.4827802,102.62115 55.4908756,102.549764 C55.1291381,102.524173 54.7085759,102.545724 54.3427815,102.633273 C53.5273508,102.829247 49.9573056,102.92151 49.3163202,102.6757 C48.3244156,102.295199 45.0890621,100.238476 45.363577,97.2698975 C45.6002277,94.7195332 47.4237906,92.9840463 49.8964525,92.0822936 C52.1047419,91.2775179 52.8768994,91.3482304 54.3826741,90.6296567 C55.8674883,89.9211848 56.9087515,89.0207789 58.0379135,88.4274673 C59.1670756,87.8334823 60.6965154,87.12299 61.8567801,86.153892 C62.5187259,85.601661 63.1820241,84.9753502 63.8088104,84.1901047 C64.3456695,83.5193461 65.3713814,81.6983308 66.46606,80.7952311 C67.963721,83.0762144 69.4275747,85.0844495 70.5080543,86.3330303 C73.2525266,89.5043177 77.0017501,91.4337589 78.7583746,92.5274456 C80.5149992,93.6204589 84.545499,96.6301177 86.2723732,99.0356898 C88.123658,101.612992 87.2757722,105.143903 86.2561457,106.487441 C85.3737766,107.651166 83.3703592,109.1597 80.6096594,109.097069 C77.6569346,109.030397 74.8279442,107.82357 73.0963371,105.597137 C71.3708152,103.378111 70.6987272,99.2128077 72.1706947,98.1137334 C73.7535499,96.9318244 75.3046264,97.4948306 76.2803035,97.6133582 C77.0443473,97.7062947 77.7705269,97.3008763 77.8962899,96.6759125 C78.0213767,96.0509486 77.8178571,95.3007227 76.9706475,94.64478 C76.5210111,94.2966051 75.6940859,93.7194564 74.5534294,93.7335989 C73.9279953,93.7410069 72.7494747,94.0427135 71.1510681,93.9874904 C69.4539444,93.9289001 67.7825141,94.1093853 66.2476652,95.522962 C64.9853026,96.6866877 64.2604752,97.6052768 63.7885261,99.0626278 C63.6086715,99.6168792 63.8263902,100.80889 63.7513381,101.518035 C63.676286,102.234589 63.3794584,102.795575 63.3740493,103.347132 C63.3652594,104.166724 63.4998122,105.170168 63.6871044,106.149368 C63.8960331,107.239687 64.2936063,108.499043 64.786516,109.61428 C64.9880072,110.070881 65.150282,110.696518 65.4092455,110.973307 C65.7236529,111.310707 66.3247457,111.659555 66.8947359,112.213133 C67.973187,113.261025 69.2240551,114.613991 70.2098744,115.002573 C71.4343729,115.485438 73.9117679,114.642949 74.6021118,114.861822 C75.2917796,115.08002 76.1782056,116.15687 77.2444862,116.125892 C78.3114429,116.094913 84.848412,115.788492 87.1033553,114.8928 C89.9208512,113.772849 94.7809808,110.688437 95.7363736,106.395178 C96.9142181,101.101842 94.6815875,97.4800147 92.4408433,94.8306529 C89.6740583,91.5596945 84.4832937,87.334454 80.5670623,84.5355858 C78.3236135,82.9327691 77.4730232,81.7131467 76.6055292,80.2578161 C75.9462879,79.1520072 75.2478302,77.2838502 75.5980733,75.5699138 C77.2120312,76.4117293 79.5176854,79.0328061 80.192478,79.8699075 C81.0613242,80.9467579 82.1688496,81.6020271 83.0255252,82.0209145 C83.7834837,82.3919868 84.7300866,82.1791758 85.4515332,82.304438 C86.1729799,82.4290266 85.6564051,83.0176241 86.9424328,83.4553681 C88.2291366,83.8924387 93.9155153,84.9396573 95.2840327,84.8918421 C95.8432045,84.872312 96.5923731,84.440629 97.4767706,84.1645135 C98.3239802,83.8998467 99.7722827,83.7813191 103.794669,82.2162157 C109.310659,80.0699228 111.628484,76.5699906 113.492615,72.3844839 C115.356747,68.1989771 114.094384,62.8544588 113.007143,60.4259893 C111.919902,57.9975199 109.785989,54.7743767 107.58987,51.4306854 C105.393752,48.0869942 102.641842,44.6739374 103.869045,37.821559 C105.096248,30.9691807 110.347865,28.8673357 111.094329,27.6079797 C111.691365,26.5998215 109.914456,25.5802145 109.471582,25.3700973 C108.934046,25.1162058 108.349857,24.9182108 106.938067,24.8562531 C106.850168,24.8522124 106.764297,24.851539 106.681808,24.8549062 C105.437701,24.8993541 104.775079,25.6771916 104.262561,25.8482486 C103.70677,26.033448 101.27062,25.8866353 100.933223,25.9566744 C100.564048,26.033448 99.9169777,26.8099386 99.778368,27.0079336 C99.5363081,27.3561085 99.7229241,27.4429839 99.3780902,28.1622311 C99.0325801,28.8808048 96.5714126,30.9254063 95.8972961,32.2002517 C95.5362347,32.8831325 95.9412455,34.2953622 95.5017513,35.232808 C95.0629333,36.1702537 93.7451268,36.124459 93.4645267,37.1521473 C93.2583025,37.9084344 93.652495,40.3375773 93.3205078,41.5228535 C92.9763501,42.7512307 92.262341,42.1976528 92.2177154,43.4502743 C92.154834,45.2153931 95.2880895,48.0297507 95.8215679,48.8419344 C96.3550462,49.6547914 96.5693842,50.1329426 97.2286255,51.6179052 C97.9642711,53.2745982 98.9548234,54.3070007 99.6999351,55.1488162 C100.445723,55.9906317 102.497147,57.2802931 103.027244,58.1827194 C103.321367,58.6844414 103.000875,59.6427642 103.200337,60.2710953 C103.388306,60.8650803 103.927193,61.3849856 104.773727,62.6039345 C105.620936,63.8222099 105.336955,66.9934973 104.570883,68.9101429 C103.804811,70.8274619 101.717552,73.3677244 98.1468303,74.3657809 C94.5761089,75.3638374 85.6104273,74.5469396 82.0200977,65.1644005 C80.3689518,60.8489175 81.1269103,55.8000447 84.9849932,51.8280224 C88.8424,47.856 91.7200728,41.7807858 91.7295388,35.4523534 C91.7295388,22.0264061 80.2884906,11.1427416 66.6127834,11.1427416 C52.9370762,11.1427416 41.850328,22.0264061 41.850328,35.4523534 C41.8557371,41.8952727 44.4663327,48.0728517 49.2169269,52.6920618 Z" id="Fill-4" fill="#0588CB"></path>
                    <path d="M62.8883067,25.4044434 C69.5868745,25.4044434 75.0176705,30.8129398 75.0176705,37.4855063 C75.0176705,44.1573994 69.5868745,49.5658957 62.8883067,49.5658957 C56.189739,49.5658957 50.758943,44.1573994 50.758943,37.4855063 C50.758943,30.8129398 56.189739,25.4044434 62.8883067,25.4044434" id="Fill-6" fill="#FFFFFF"></path>
                    <path d="M61.3159993,36.4476488 C62.849496,36.4476488 64.0922504,37.6854543 64.0922504,39.2128444 C64.0922504,40.7402345 62.849496,41.97804 61.3159993,41.97804 C59.7825027,41.97804 58.5397483,40.7402345 58.5397483,39.2128444 C58.5397483,37.6854543 59.7825027,36.4476488 61.3159993,36.4476488" id="Fill-8" fill="#0062B0"></path>
                </g>
                <g id="Wordmark" transform="translate(206.000000, 68.000000)" fill="#000000">
                    <path d="M0.224659187,38.337558 C0.224659187,26.811874 3.9961345,17.5421496 11.5408088,10.5249459 C19.1216811,3.50774212 29.162286,0 41.6643475,0 C46.7665261,0 51.5222393,0.689512055 55.9332106,2.07197513 C60.3786562,3.41660961 64.2794097,5.3802574 67.6320237,7.96119904 C72.5152913,11.7062296 76.2505687,16.2147099 78.8395797,21.48664 C81.4268669,26.7585701 82.7196486,32.4844432 82.7196486,38.6642595 C82.7196486,50.2982709 78.8016581,59.8431123 70.9656769,67.2953449 C63.1676174,74.7131878 53.0890908,78.4203897 40.7352683,78.4203897 C28.5245137,78.4203897 18.7217806,74.7492969 11.3218978,67.4053917 C3.92373872,60.0614865 0.224659187,50.3722086 0.224659187,38.337558 L0.224659187,38.337558 Z M41.5540301,8.39794732 C35.7227225,8.39794732 31.075603,11.2333722 27.6143953,16.9059415 C24.1876618,22.5767912 22.4742951,30.2663122 22.4742951,39.9727849 C22.4742951,49.0997923 24.2600576,56.4798066 27.8333064,62.1145473 C31.4410293,67.749288 36.0519509,70.567518 41.6643475,70.567518 C47.276744,70.567518 51.796309,67.695984 55.2213188,61.9511966 C58.6480523,56.2064091 60.3614191,48.480779 60.3614191,38.7743063 C60.3614191,29.5389715 58.6290915,22.1778715 55.1678838,16.6875673 C51.7411503,11.161154 47.2043482,8.39794732 41.5540301,8.39794732 L41.5540301,8.39794732 Z M91.1175589,38.337558 C91.1175589,26.811874 94.890758,17.5421496 102.433709,10.5249459 C110.014581,3.50774212 120.056909,0 132.557247,0 C137.659426,0 142.415139,0.689512055 146.82611,2.07197513 C151.271556,3.41660961 155.172309,5.3802574 158.524923,7.96119904 C163.408191,11.7062296 167.145192,16.2147099 169.732479,21.48664 C172.319767,26.7585701 173.614272,32.4844432 173.614272,38.6642595 C173.614272,50.2982709 169.696282,59.8431123 161.8603,67.2953449 C154.060517,74.7131878 143.983714,78.4203897 131.628168,78.4203897 C119.419137,78.4203897 109.61468,74.7492969 102.216521,67.4053917 C94.8166385,60.0614865 91.1175589,50.3722086 91.1175589,38.337558 L91.1175589,38.337558 Z M132.448654,8.39794732 C126.617346,8.39794732 121.970226,11.2333722 118.507295,16.9059415 C115.080562,22.5767912 113.368919,30.2663122 113.368919,39.9727849 C113.368919,49.0997923 115.154681,56.4798066 118.726206,62.1145473 C122.333929,67.749288 126.944851,70.567518 132.557247,70.567518 C138.169644,70.567518 142.689209,67.695984 146.115942,61.9511966 C149.540952,56.2064091 151.254319,48.480779 151.254319,38.7743063 C151.254319,29.5389715 149.523715,22.1778715 146.060784,16.6875673 C142.63405,11.161154 138.097248,8.39794732 132.448654,8.39794732 L132.448654,8.39794732 Z M180.207459,76.5117653 L180.207459,70.2408165 L187.040242,69.5856941 L189.17247,67.4586956 L189.17247,10.143221 L187.696975,8.50627465 L180.207459,7.68952097 L180.207459,1.58020344 L211.806493,1.58020344 L211.806493,4.58069854 L243.896783,54.2616756 L243.896783,10.6332732 L241.928308,8.50627465 L234.602544,7.68952097 L234.602544,1.58020344 L262.976518,1.58020344 L262.976518,7.68952097 L256.360923,8.50627465 L254.228695,10.6332732 L254.228695,76.5117653 L236.407268,76.5117653 L199.342353,19.5780156 L199.342353,67.4586956 L200.926441,69.5856941 L208.415957,70.2408165 L208.415957,76.5117653 L180.207459,76.5117653 Z M267.820141,76.5117653 L267.820141,70.0224424 L275.911231,69.5856941 L277.660795,67.4586956 L277.660795,10.143221 L275.911231,8.50627465 L267.820141,8.07124585 L267.820141,1.58020344 L307.784334,1.58020344 L307.784334,8.07124585 L299.527768,8.50627465 L297.724768,10.143221 L297.724768,67.4586956 L299.527768,69.5856941 L307.784334,70.0224424 L307.784334,76.5117653 L267.820141,76.5117653 Z" id="Fill-10"></path>
                </g>
            </g>
        </g>
    </g>
</svg>