<?xml version="1.0" encoding="UTF-8"?>
<svg width="500px" height="500px" viewBox="0 0 500 500" version="1.1" xmlns="http://www.w3.org/2000/svg" xmlns:xlink="http://www.w3.org/1999/xlink">
    <!-- Generator: Sketch 46.2 (44496) - http://www.bohemiancoding.com/sketch -->
    <title>Wordmark</title>
    <desc>Created with Sketch.</desc>
    <defs>
        <polygon id="path-1" points="378 186.414233 378 0.771039604 0 0.771039604 0 186.414233 0 372.057426 378 372.057426"></polygon>
    </defs>
    <g id="Page-1" stroke="none" stroke-width="1" fill="none" fill-rule="evenodd">
        <g id="Wordmark">
            <g id="Logo-wordmark" transform="translate(61.000000, 18.000000)">
                <g id="OONI-Logo">
                    <g id="Group-3" transform="translate(0.000000, 0.085396)">
                        <mask id="mask-2" fill="white">
                            <use xlink:href="#path-1"></use>
                        </mask>
                        <g id="Clip-2"></g>
                        <path d="M189,0.77029703 C293.38092,0.77029703 378,83.8866337 378,186.413861 C378,288.941089 293.38092,372.057426 189,372.057426 C84.61908,372.057426 0,288.941089 0,186.413861 C0,83.8866337 84.61908,0.77029703 189,0.77029703" id="Fill-1" fill="#8DD8F8" mask="url(#mask-2)"></path>
                    </g>
                    <path d="M137.574045,144.250681 C150.853185,156.983973 153.852615,168.816894 148.409415,179.485829 C142.518285,191.029146 128.938635,197.268626 106.619625,197.452413 C87.383205,197.612067 82.180035,188.227785 78.279075,182.834839 C70.796565,172.494493 74.671065,159.950557 81.688635,151.895483 C90.212535,142.11021 96.506235,141.265532 103.427415,144.926423 C107.141265,146.890532 112.629825,151.468502 112.754565,159.813181 C112.828275,164.782859 109.405485,172.481498 109.405485,173.456126 C109.405485,174.430755 110.212515,175.039666 111.080025,174.673948 C111.949425,174.30823 118.917855,170.686324 122.862285,165.720359 C126.390915,161.277908 130.178475,145.134344 129.435705,143.062562 C128.691045,140.992636 123.329115,136.685705 122.956785,134.37073 C122.735655,132.995111 122.571225,131.237067 121.911615,129.794616 C121.461795,128.810705 120.229515,127.904765 119.575575,127.410953 C117.963405,126.191275 113.746815,127.715408 112.009905,125.582364 C110.522475,123.755631 109.902555,119.918379 107.918055,119.431993 C107.016525,119.20922 105.283395,118.852785 103.697685,119.170235 C101.420235,119.626918 99.707895,120.976547 97.935075,120.770483 C95.459175,120.486448 93.346155,116.628775 89.997075,116.873824 C86.666895,117.115161 82.433295,122.71974 77.844375,127.592884 C73.255455,132.466027 65.109555,138.620111 59.365845,148.544616 C55.202175,155.740161 51.800175,164.259344 53.537085,176.31875 C55.273995,188.378156 58.297995,196.505631 68.171355,205.370111 C78.326325,214.488923 86.525145,217.125062 92.601495,219.196844 C98.679735,221.26677 102.894435,223.199319 109.467855,223.399814 C111.733965,223.468502 116.557245,223.615161 118.158075,223.446225 C122.208345,223.019245 121.384305,221.268626 125.156745,220.657859 C139.851495,218.283478 150.314535,210.748205 156.674385,204.3862 C158.292225,202.767389 162.537165,198.315656 163.329075,197.547092 C163.527525,198.655384 163.588005,202.214171 163.459485,203.138676 C162.578745,209.474691 158.553045,213.022339 152.102475,216.401052 C142.894395,221.224072 129.524535,228.3138 120.356145,234.616399 C111.875715,240.449319 104.396985,246.117017 101.766105,255.419616 C99.135225,264.722215 99.662535,270.061324 102.556125,276.479022 C105.196455,282.332364 110.010285,288.581126 118.076805,293.146101 C124.750395,296.922092 130.590495,300.243255 137.027835,303.490161 C141.457995,305.725309 149.206995,309.510582 148.505805,317.435705 C147.795165,325.470359 142.499385,329.721597 138.904605,331.260582 C132.729975,333.906002 124.270335,334.596597 123.907455,334.878775 C123.270525,335.378156 131.272785,342.022339 137.413395,341.983354 C144.119115,341.942512 146.496735,341.498824 152.714835,339.358354 C158.122125,337.496349 160.477065,332.85526 161.354025,332.682611 C162.230985,332.509963 163.514295,332.612067 164.686095,331.776671 C165.829545,330.961696 169.464015,328.201176 169.902495,326.565656 C170.340975,324.92828 170.429805,322.173329 170.868285,320.708601 C171.306765,319.243874 173.060685,314.29276 173.147625,311.623205 C173.236455,308.951795 173.939535,302.836696 171.503325,299.326176 C169.484805,296.417141 170.537535,294.889295 168.849765,293.31875 C168.570045,293.056993 167.152545,291.213552 165.856005,290.736448 C164.177685,290.120111 163.300725,290.658478 162.098685,290.003156 C160.178445,288.95427 157.883985,281.884963 155.111355,281.688181 C154.100205,281.617636 152.924625,281.677042 151.902135,281.918379 C149.622795,282.458601 139.643595,282.712933 137.851875,282.035334 C135.079245,280.986448 126.035595,275.316894 126.802935,267.133725 C127.464435,260.103403 132.561765,255.319369 139.473495,252.833601 C145.646235,250.615161 147.804615,250.810087 152.013645,248.82927 C156.164085,246.8763 159.074685,244.394245 162.230985,242.758725 C165.387285,241.121349 169.662465,239.162809 172.905705,236.491399 C174.756015,234.969121 176.610105,233.242636 178.362135,231.078032 C179.862795,229.229022 182.729925,224.20922 185.789835,221.71974 C189.976185,228.007488 194.068035,233.543379 197.088255,236.98521 C204.759765,245.727166 215.239815,251.045854 220.150035,254.060705 C225.060255,257.0737 236.326545,265.370111 241.153605,272.0013 C246.328425,279.105879 243.958365,288.839171 241.108245,292.54276 C238.641795,295.750681 233.041725,299.909097 225.324855,299.736448 C217.071225,299.552661 209.163465,296.225928 204.323175,290.088552 C199.499895,283.971597 197.621235,272.489542 201.735765,269.459839 C206.160255,266.201795 210.495915,267.753775 213.223185,268.080507 C215.358885,268.336696 217.388745,267.219121 217.740285,265.496349 C218.089935,263.773577 217.521045,261.705507 215.152875,259.897339 C213.896025,258.937562 211.584555,257.346597 208.396125,257.385582 C206.647875,257.406002 203.353605,258.237686 198.885645,258.085458 C194.141745,257.923948 189.469665,258.421473 185.179365,262.318131 C181.650735,265.526052 179.624655,268.05823 178.305435,272.075557 C177.802695,273.603403 178.411275,276.889295 178.201485,278.844121 C177.991695,280.819369 177.161985,282.36578 177.146865,283.8862 C177.122295,286.145483 177.498405,288.911572 178.021935,291.610829 C178.605945,294.616399 179.717265,298.087933 181.095075,301.162191 C181.658295,302.420854 182.111895,304.145483 182.835765,304.908478 C183.714615,305.838552 185.394825,306.800186 186.988095,308.326176 C190.002645,311.21479 193.499145,314.944369 196.254765,316.015532 C199.677555,317.346597 206.602515,315.024196 208.532205,315.627537 C210.460005,316.229022 212.937795,319.197463 215.918325,319.112067 C218.900745,319.026671 237.173265,318.181993 243.476415,315.712933 C251.352045,312.625681 264.937365,304.123205 267.607935,292.288428 C270.900315,277.696844 264.659535,267.712933 258.396075,260.409715 C250.662195,251.393007 236.152665,239.74573 225.205785,232.030384 C218.934765,227.612067 216.557145,224.250062 214.132275,220.238304 C212.289525,217.190037 210.337155,212.040285 211.316175,207.315656 C215.827605,209.6362 222.272505,216.861448 224.158725,219.168998 C226.587375,222.137438 229.683195,223.94375 232.077825,225.098453 C234.196515,226.121349 236.842515,225.534715 238.859145,225.880012 C240.875775,226.223453 239.431815,227.845978 243.026595,229.052661 C246.623265,230.257488 262.518165,233.144245 266.343525,233.012438 C267.906555,232.958601 270.000675,231.768626 272.472795,231.007488 C274.840965,230.277908 278.889345,229.951176 290.132955,225.636819 C305.551575,219.720359 312.030495,210.072463 317.241225,198.534715 C322.451955,186.996968 318.923325,172.264295 315.884205,165.569988 C312.845085,158.875681 306.880245,149.99078 300.741525,140.773577 C294.602805,131.556374 286.910505,122.147958 290.340855,103.258725 C293.771205,84.3694926 308.450835,78.5755569 310.537395,75.1040223 C312.206265,72.3249381 307.239345,69.5142946 306.001395,68.9350866 C304.498845,68.2352104 302.865885,67.6894183 298.919565,67.5186262 C298.673865,67.5074876 298.433835,67.5056312 298.203255,67.5149134 C294.725655,67.6374381 292.873455,69.7816213 291.440835,70.2531559 C289.887255,70.7636757 283.077585,70.3589728 282.134475,70.5520421 C281.102535,70.7636757 279.293805,72.904146 278.906355,73.4499381 C278.229735,74.4097153 278.751375,74.6491955 277.787475,76.6318688 C276.821685,78.6126856 269.942085,84.2488243 268.057755,87.7630569 C267.048495,89.6454827 268.180605,93.5384282 266.952105,96.1225866 C265.725495,98.706745 262.041885,98.5805074 261.257535,101.413428 C260.681085,103.498205 261.782955,110.194369 260.854965,113.461696 C259.892955,116.847834 257.897115,115.321844 257.772375,118.774814 C257.596605,123.640532 266.354865,131.398577 267.846075,133.637438 C269.337285,135.878156 269.936415,137.196225 271.779165,141.289666 C273.835485,145.856498 276.604335,148.702413 278.687115,151.022958 C280.771785,153.343502 286.506045,156.898577 287.987805,159.3862 C288.809955,160.769245 287.914095,163.410953 288.471645,165.143007 C288.997065,166.780384 290.503395,168.213552 292.869675,171.5737 C295.237845,174.931993 294.444045,183.673948 292.302675,188.957364 C290.161305,194.242636 284.326875,201.245111 274.345785,203.996349 C264.364695,206.747587 239.303295,204.49573 229.267395,178.631869 C224.652015,166.735829 226.770705,152.818131 237.555045,141.868874 C248.337495,130.919616 256.381335,114.17271 256.407795,96.7277847 C256.407795,59.7178837 224.427105,29.7160272 186.199965,29.7160272 C147.972825,29.7160272 116.982495,59.7178837 116.982495,96.7277847 C116.997615,114.488304 124.294905,131.517389 137.574045,144.250681 Z" id="Fill-4" fill="#0588CB"></path>
                    <path d="M175.789089,69.0297649 C194.513319,69.0297649 209.693799,83.9387995 209.693799,102.332364 C209.693799,120.724072 194.513319,135.633106 175.789089,135.633106 C157.064859,135.633106 141.884379,120.724072 141.884379,102.332364 C141.884379,83.9387995 157.064859,69.0297649 175.789089,69.0297649" id="Fill-6" fill="#FFFFFF"></path>
                    <path d="M171.394083,99.4714109 C175.680603,99.4714109 179.154423,102.88354 179.154423,107.093936 C179.154423,111.304332 175.680603,114.71646 171.394083,114.71646 C167.107563,114.71646 163.633743,111.304332 163.633743,107.093936 C163.633743,102.88354 167.107563,99.4714109 171.394083,99.4714109" id="Fill-8" fill="#0062B0"></path>
                </g>
                <g id="Wordmark" transform="translate(16.000000, 379.000000)" fill="#000000">
                    <path d="M0.444444444,41.2476 C0.444444444,28.84705 4.57733333,18.8737 12.845,11.32385 C21.1523333,3.774 32.1551111,0 45.8552222,0 C51.4463333,0 56.6577778,0.74185 61.4914444,2.22925 C66.3628889,3.67595 70.6374444,5.78865 74.3113333,8.5655 C79.6625556,12.5948 83.7557778,17.4455 86.5928889,23.1176 C89.4281111,28.7897 90.8447778,34.9502 90.8447778,41.5991 C90.8447778,54.1162 86.5513333,64.38555 77.9644444,72.40345 C69.4191111,80.38435 58.3747778,84.37295 44.8371111,84.37295 C31.4562222,84.37295 20.7141111,80.4232 12.6051111,72.52185 C4.498,64.6205 0.444444444,54.19575 0.444444444,41.2476 L0.444444444,41.2476 Z M45.7343333,9.0354 C39.3442222,9.0354 34.2517778,12.08605 30.4588889,18.1892 C26.7037778,24.2905 24.8262222,32.5637 24.8262222,43.00695 C24.8262222,52.82675 26.7831111,60.76695 30.6987778,66.8294 C34.6522222,72.89185 39.705,75.924 45.8552222,75.924 C52.0054444,75.924 56.9581111,72.8345 60.7113333,66.65365 C64.4664444,60.4728 66.344,52.16075 66.344,41.7175 C66.344,31.78115 64.4456667,23.8613 60.6527778,17.95425 C56.8976667,12.00835 51.9261111,9.0354 45.7343333,9.0354 L45.7343333,9.0354 Z M100.047444,41.2476 C100.047444,28.84705 104.182222,18.8737 112.448,11.32385 C120.755333,3.774 131.76,0 145.458222,0 C151.049333,0 156.260778,0.74185 161.094444,2.22925 C165.965889,3.67595 170.240444,5.78865 173.914333,8.5655 C179.265556,12.5948 183.360667,17.4455 186.195889,23.1176 C189.031111,28.7897 190.449667,34.9502 190.449667,41.5991 C190.449667,54.1162 186.156222,64.38555 177.569333,72.40345 C169.022111,80.38435 157.979667,84.37295 144.440111,84.37295 C131.061111,84.37295 120.317111,80.4232 112.21,72.52185 C104.101,64.6205 100.047444,54.19575 100.047444,41.2476 L100.047444,41.2476 Z M145.339222,9.0354 C138.949111,9.0354 133.856667,12.08605 130.061889,18.1892 C126.306778,24.2905 124.431111,32.5637 124.431111,43.00695 C124.431111,52.82675 126.388,60.76695 130.301778,66.8294 C134.255222,72.89185 139.308,75.924 145.458222,75.924 C151.608444,75.924 156.561111,72.8345 160.316222,66.65365 C164.069444,60.4728 165.947,52.16075 165.947,41.7175 C165.947,31.78115 164.050556,23.8613 160.255778,17.95425 C156.500667,12.00835 151.529111,9.0354 145.339222,9.0354 L145.339222,9.0354 Z M197.674667,82.31945 L197.674667,75.5725 L205.162222,74.86765 L207.498778,72.5792 L207.498778,10.91315 L205.881889,9.15195 L197.674667,8.2732 L197.674667,1.70015 L232.301778,1.70015 L232.301778,4.9284 L267.467222,58.38045 L267.467222,11.4404 L265.310111,9.15195 L257.282333,8.2732 L257.282333,1.70015 L288.375333,1.70015 L288.375333,8.2732 L281.125778,9.15195 L278.789222,11.4404 L278.789222,82.31945 L259.26,82.31945 L218.643222,21.0641 L218.643222,72.5792 L220.379111,74.86765 L228.586333,75.5725 L228.586333,82.31945 L197.674667,82.31945 Z M293.683111,82.31945 L293.683111,75.33755 L302.549556,74.86765 L304.466778,72.5792 L304.466778,10.91315 L302.549556,9.15195 L293.683111,8.6839 L293.683111,1.70015 L337.477,1.70015 L337.477,8.6839 L328.429222,9.15195 L326.453444,10.91315 L326.453444,72.5792 L328.429222,74.86765 L337.477,75.33755 L337.477,82.31945 L293.683111,82.31945 Z" id="Fill-10"></path>
                </g>
            </g>
        </g>
    </g>
</svg>