<?xml version="1.0" encoding="utf-8"?>
<!-- Generator: Adobe Illustrator 21.1.0, SVG Export Plug-In . SVG Version: 6.00 Build 0)  -->
<svg version="1.1" id="Layer_1" xmlns="http://www.w3.org/2000/svg" xmlns:xlink="http://www.w3.org/1999/xlink" x="0px" y="0px"
	 viewBox="0 0 52.9 49.3" enable-background="new 0 0 52.9 49.3" xml:space="preserve">
<path id="Path_807" fill="#22B8CF" d="M4.2,48.6l10-9.3c0.5-0.4,1.1-0.7,1.7-0.7h34.6c1.4,0,2.5-1.1,2.5-2.5c0,0,0,0,0,0V2.5
	C53,1.1,51.8,0,50.5,0c0,0,0,0,0,0H2.5C1.1,0,0,1.1,0,2.5c0,0,0,0,0,0v44.3c0,1.4,1.1,2.5,2.5,2.5C3.1,49.3,3.7,49,4.2,48.6z"/>
</svg>
