<?xml version="1.0" encoding="utf-8"?>
<!-- Generator: Adobe Illustrator 22.0.0, SVG Export Plug-In . SVG Version: 6.00 Build 0)  -->
<svg version="1.1" xmlns="http://www.w3.org/2000/svg" xmlns:xlink="http://www.w3.org/1999/xlink" x="0px" y="0px"
	 viewBox="0 0 16 16" style="enable-background:new 0 0 16 16;" xml:space="preserve">
<style type="text/css">
	.st0{fill:#010101;}
	.st1{display:none;}
	.st2{display:inline;}
	.st3{fill:#FF0000;}
</style>
<g id="Layer_1">
	<g>
		<path d="M10.3,9.5l0.6,0l0,0.6l-0.6,0l0,0.6l0.6,0l0,0.6l-0.6,0l0,0.6l1.2,0l0-3l-1.2,0L10.3,9.5L10.3,9.5z M11.2,7l0,1.3l0.9,0
			l0,4.1l-0.9,0l0,0.6l0.6,0l0,0.6l-1.8,0l0-0.6l0.6,0l0-0.6l-0.9,0l0-4.1l0.9,0l0-1.9L11.2,7z"/>
		<path d="M7.4,5.6L7.2,3.8H5.4L5.3,5.6C4.7,5.9,4.1,6.7,4.1,7.3v3.5v1.5v0.6c0,0.4,0.4,0.8,0.8,0.8h0.6h1.5h0.6
			c0.4,0,0.8-0.4,0.8-0.8v-0.6v-1.5V7.3C8.5,6.7,8,5.9,7.4,5.6z M6.4,10.1C5.7,10.1,5,9.5,5,8.7C5,8,5.7,7.4,6.4,7.4S7.8,8,7.8,8.7
			C7.8,9.5,7.2,10.1,6.4,10.1z"/>
		<path d="M7.2,2.6c0-0.2-0.2-0.3-0.3-0.3h-1c-0.2,0-0.3,0.1-0.3,0.3l0,0.6h1.7L7.2,2.6z"/>
	</g>
</g>
<g id="Margin" class="st1">
	<g class="st2">
		<path class="st3" d="M14.5,1.5v13h-13v-13H14.5 M16,0H0v16h16V0L16,0z"/>
	</g>
</g>
</svg>
