<?xml version="1.0" encoding="utf-8"?>
<!-- Generator: Adobe Illustrator 22.0.0, SVG Export Plug-In . SVG Version: 6.00 Build 0)  -->
<svg version="1.1" xmlns="http://www.w3.org/2000/svg" xmlns:xlink="http://www.w3.org/1999/xlink" x="0px" y="0px"
	 viewBox="0 0 16 16" style="enable-background:new 0 0 16 16;" xml:space="preserve">
<style type="text/css">
	.st0{fill:#010101;}
	.st1{display:none;}
	.st2{display:inline;}
	.st3{fill:#FF0000;}
</style>
<g id="Layer_1">
	<g>
		<g>
			<path d="M8,3C7.1,3,6.3,2.8,5.9,2.7c-0.2-0.1-0.3,0-0.4,0.2L5,5.3c0,0.2,0.1,0.4,0.3,0.4h5.4c0.2,0,0.3-0.2,0.3-0.4l-0.6-2.4
				c0-0.2-0.2-0.3-0.4-0.2C9.7,2.8,8.9,3,8,3L8,3z"/>
		</g>
		<g>
			<path d="M4.4,6.4C4.1,6.5,3.3,7.2,2.9,7.6C2.8,7.7,2.8,7.9,3,7.9h10c0.2,0,0.3-0.2,0.1-0.3c-0.4-0.4-1.2-1.1-1.6-1.2
				c0,0,0,0-0.1,0C11,6.4,5,6.4,4.4,6.4C4.5,6.4,4.5,6.4,4.4,6.4z"/>
		</g>
		<path d="M4.9,8.7c0,0.8,0.6,1.3,1.4,1.3c0.8,0,1.4-1.1,1.4-1.1c0,0,0.1-0.1,0.2-0.1c0.1,0,0.2,0.1,0.2,0.1c0,0,0.6,1.1,1.4,1.1
			c0.8,0,1.4-0.5,1.4-1.3c0-0.1,0-0.2,0-0.3H4.9C4.9,8.5,4.9,8.6,4.9,8.7z"/>
		<path d="M6.9,13.3l-3.4,0c-0.1,0-0.1-0.1-0.1-0.2l1.1-0.6c0.1,0,0.1-0.1,0-0.2c-0.7-0.5-2.2-0.9-2.7-1.1c-0.1,0-0.1-0.1,0-0.2
			c0.4-0.4,1.6-1.3,3.1-1.5c0.1,0,0.1,0,0.1,0.1c0.1,0.4,0.4,2.2,2,3.4C7,13.2,7,13.3,6.9,13.3z"/>
		<path d="M9.1,13.3l3.4,0c0.1,0,0.1-0.1,0.1-0.2l-1.1-0.6c-0.1,0-0.1-0.1,0-0.2c0.7-0.5,2.2-0.9,2.7-1.1c0.1,0,0.1-0.1,0-0.2
			c-0.4-0.4-1.6-1.3-3.1-1.5c-0.1,0-0.1,0-0.1,0.1c-0.1,0.4-0.4,2.2-2,3.4C9,13.2,9,13.3,9.1,13.3z"/>
	</g>
</g>
<g id="Margin" class="st1">
	<g class="st2">
		<path class="st3" d="M14.5,1.5v13h-13v-13H14.5 M16,0H0v16h16V0L16,0z"/>
	</g>
</g>
</svg>
