<?xml version="1.0" encoding="utf-8"?>
<!-- Generator: Adobe Illustrator 22.0.0, SVG Export Plug-In . SVG Version: 6.00 Build 0)  -->
<svg version="1.1" xmlns="http://www.w3.org/2000/svg" xmlns:xlink="http://www.w3.org/1999/xlink" x="0px" y="0px"
	 viewBox="0 0 16 16" style="enable-background:new 0 0 16 16;" xml:space="preserve">
<style type="text/css">
	.st0{fill:#010101;}
	.st1{display:none;}
	.st2{display:inline;}
	.st3{fill:#FF0000;}
</style>
<g id="Layer_1">
	<g>
		<path d="M13.7,5.3h-2.4v3.3c0,0.7-0.6,1.3-1.3,1.3H5.7v1.2c0,0.2,0.1,0.3,0.3,0.3h5.7c0.1,0,0.2,0,0.2,0.1l1.4,1.6
			c0.2,0.2,0.6,0.1,0.6-0.2V5.6C14,5.4,13.9,5.3,13.7,5.3z"/>
		<path d="M10,8.9c0.2,0,0.3-0.1,0.3-0.3V3.1c0-0.2-0.1-0.3-0.3-0.3H2.3C2.1,2.7,2,2.9,2,3.1v7.3c0,0.2,0.2,0.3,0.3,0.3
			c0.1,0,0.2,0,0.2-0.1L4,9C4,8.9,4.1,8.9,4.2,8.9H10z"/>
	</g>
</g>
<g id="Margin" class="st1">
	<g class="st2">
		<path class="st3" d="M14.5,1.5v13h-13v-13H14.5 M16,0H0v16h16V0L16,0z"/>
	</g>
</g>
</svg>
