<?xml version="1.0" encoding="utf-8"?>
<!-- Generator: Adobe Illustrator 22.0.0, SVG Export Plug-In . SVG Version: 6.00 Build 0)  -->
<svg version="1.1" xmlns="http://www.w3.org/2000/svg" xmlns:xlink="http://www.w3.org/1999/xlink" x="0px" y="0px"
	 viewBox="0 0 16 16" style="enable-background:new 0 0 16 16;" xml:space="preserve">
<style type="text/css">
	.st0{fill:#010101;}
	.st1{display:none;}
	.st2{display:inline;}
	.st3{fill:#FF0000;}
</style>
<g id="Layer_1">
	<path d="M8.5,5.5C8.4,4.8,8.2,4.1,8,3.7C7,1.8,1.9,3.2,1.9,5.3c0,0.8,0.7,2.4,1.2,3.4c0.4,0.9,1.7,2.5,3.5,2
		c0.3-0.1,0.5-0.2,0.7-0.3c0.1,1,0.6,2.3,2,2.6c1.8,0.5,3.1-1.1,3.5-2c0.5-1.1,1.2-2.7,1.2-3.4C14.1,5.8,10.1,4.5,8.5,5.5z
		 M10.2,7.5c0,0.4-0.3,0.8-0.7,0.8c-0.4,0-0.7-0.2-0.8-0.5c0-0.1,0-0.1,0-0.2L10.2,7.5z M3.4,6.4C3.3,6,3.6,5.6,4,5.5
		C4.4,5.4,4.8,5.6,4.9,6L3.4,6.4z M6.2,9.2C5.6,9.3,4.9,8.9,4.7,8.3l2.4-0.6C7.3,8.3,6.9,9,6.2,9.2z M5.8,5.8C5.7,5.4,5.9,5,6.4,4.9
		C6.8,4.7,7.2,5,7.3,5.4L5.8,5.8z M11,11.7L8.6,11c0.2-0.7,0.9-1.1,1.5-0.9C10.8,10.3,11.2,11,11,11.7z M11.6,8.9
		c-0.3-0.3-0.3-0.8-0.1-1.1l1.1,1C12.4,9.1,11.9,9.1,11.6,8.9z"/>
</g>
<g id="Margin" class="st1">
	<g class="st2">
		<path class="st3" d="M14.5,1.5v13h-13v-13H14.5 M16,0H0v16h16V0L16,0z"/>
	</g>
</g>
</svg>
