<?xml version="1.0" encoding="utf-8"?>
<!-- Generator: Adobe Illustrator 22.0.0, SVG Export Plug-In . SVG Version: 6.00 Build 0)  -->
<svg version="1.1" xmlns="http://www.w3.org/2000/svg" xmlns:xlink="http://www.w3.org/1999/xlink" x="0px" y="0px"
	 viewBox="0 0 16 16" style="enable-background:new 0 0 16 16;" xml:space="preserve">
<style type="text/css">
	.st0{fill:#010101;}
	.st1{display:none;}
	.st2{display:inline;}
	.st3{fill:#FF0000;}
</style>
<g id="Layer_1">
	<g>
		<path d="M13.9,9.7c0-0.3-0.5-0.9-1.2-0.6c-0.3,0.1-0.7,0.2-1,0.4c0.2,0.1,0.3,0.3,0.3,0.5c0,0.3-0.2,0.6-0.4,0.6
			c-2.1,0.6-3,0.6-3,0.6c0.4-0.1,2.4-0.7,2.9-0.9c0.1,0,0.2-0.1,0.2-0.2h0c0-0.1,0-0.1,0-0.2c0,0,0,0,0,0c0-0.1-0.1-0.3-0.3-0.3
			c0,0,0,0-0.1,0c-0.3,0-1.1,0.1-1.4,0.2c-0.2,0-0.5,0.1-0.7,0.1c-0.3,0-0.6,0-0.8-0.1l0,0c-0.1,0-1.5-0.6-2.3-0.9
			C5.6,8.7,4.8,8.5,4.4,8.6c-0.9,0.1-1.3,0.5-2,1.1C2.2,9.8,2.2,10,2.3,10.2c0.3,0.5,0.6,0.9,0.9,1.4c0.1,0.2,0.3,0.2,0.4,0.2
			c0.1,0,0.2-0.1,0.3-0.1c0.4,0,0.6,0.2,0.9,0.4c0.4,0.2,0.4,0.5,0.8,0.7c0.8,0.5,1.7,0.7,2.6,0.5c0.5-0.1,0.9-0.3,1.4-0.6
			c0.8-0.4,1.6-0.8,2.4-1.3c0.3-0.2,0.6-0.5,1-0.6C13.5,10.6,13.9,10.2,13.9,9.7z"/>
		<path d="M6.2,5.5c0.1,0.1,0.1,0.1,0.2,0.1c0.5,0,1,0.1,1.3,0.2C8.1,6,8.5,6.2,8.9,6.6C9,6.6,9.1,6.7,9.2,6.9s0.2,0.2,0.3,0.3
			c0.1,0.1,0.1,0.1,0.2,0.1c0.1,0,0.1,0,0.2-0.1C9.9,7.1,10,7.1,10,7c0-0.1,0-0.1-0.1-0.2c-0.4-0.4-0.7-0.7-1-1S8.2,5.4,7.8,5.3
			C7.3,5.1,6.9,5,6.4,5c-0.1,0-0.1,0-0.2,0.1C6.1,5.2,6.1,5.2,6.1,5.3C6.1,5.4,6.1,5.5,6.2,5.5z M4,4C4,3.9,4,3.7,4.1,3.5
			c0-0.2,0.1-0.4,0.2-0.5s0.2-0.2,0.3-0.2l0.2,0l0.2,0.1L5,3l0.1,0.1l0.1,0.1c0.1,0.1,0.3,0.2,0.5,0.2C6,3.5,6.2,3.6,6.5,3.6
			c0.3,0,0.5,0,0.8,0c0.3,0,0.5,0,0.8,0c0.3,0,0.5,0.1,0.6,0.1C8.9,3.9,9.2,4,9.5,4.2c0.3,0.2,0.5,0.4,0.7,0.6s0.4,0.5,0.5,0.8
			s0.2,0.6,0.2,1c0,0.2,0,0.3,0,0.5c0,0,0,0.1-0.1,0.2c0,0.1-0.1,0.2-0.1,0.2c0,0.1,0,0.1,0.1,0.2c0.1,0.1,0.2,0.2,0.3,0.2
			c0.1,0.1,0.2,0.2,0.3,0.3c0.1,0.1,0.1,0.2,0.1,0.3c0,0,0,0,0,0.1c0,0,0,0,0,0c0,0,0,0,0,0c0,0,0,0,0,0c-0.1,0.1-0.1,0.2-0.2,0.3
			c-0.1,0.1-0.1,0.1-0.3,0.1c-0.1,0-0.2,0-0.3-0.1s-0.2-0.2-0.2-0.3s-0.1-0.2-0.2-0.3c-0.1-0.1-0.1-0.1-0.2-0.1
			c-0.1,0-0.2,0.1-0.4,0.2C9.6,8.3,9.5,8.4,9.5,8.4C9.1,8.5,8.6,8.6,8.2,8.6c-0.6,0-1.3-0.2-1.9-0.5C5.7,7.8,5.2,7.4,4.8,7
			C4.4,6.5,4.1,6,4,5.3C3.9,5,3.9,4.7,3.9,4.5C3.9,4.4,3.9,4.2,4,4z"/>
	</g>
</g>
<g id="Margin" class="st1">
	<g class="st2">
		<path class="st3" d="M14.5,1.5v13h-13v-13H14.5 M16,0H0v16h16V0L16,0z"/>
	</g>
</g>
</svg>
