<?xml version="1.0" encoding="utf-8"?>
<!-- Generator: Adobe Illustrator 22.0.0, SVG Export Plug-In . SVG Version: 6.00 Build 0)  -->
<svg version="1.1" xmlns="http://www.w3.org/2000/svg" xmlns:xlink="http://www.w3.org/1999/xlink" x="0px" y="0px"
	 viewBox="0 0 16 16" style="enable-background:new 0 0 16 16;" xml:space="preserve">
<style type="text/css">
	.st0{fill:#010101;}
	.st1{display:none;}
	.st2{display:inline;}
	.st3{fill:#FF0000;}
</style>
<g id="Layer_1">
	<g>
		<path d="M10.7,10.9v1.7H4.6V5.8l2.3-2.3l3.9,0v0.8L12,5.5v-2c0-0.7-0.6-1.3-1.3-1.3H6.9C6.5,2.2,6.2,2.3,6,2.6L3.7,4.9
			C3.4,5.1,3.3,5.4,3.3,5.8v6.8c0,0.7,0.6,1.3,1.3,1.3h6.1c0.7,0,1.3-0.6,1.3-1.3V9.7L10.7,10.9z"/>
		<path d="M12.7,7.5l-2.2-2.2c-0.1-0.1-0.1,0-0.1,0.1V6c0,0,0,0.1-0.1,0.1c-0.3,0.1-1.9,0.5-2.9,2c-0.6,1-0.8,2-0.9,2.6
			c0,0.1,0.1,0.1,0.2,0.1c0.3-0.4,0.7-0.8,1.2-1.1c0.8-0.5,1.8-0.5,2.3-0.5c0.1,0,0.2,0,0.2,0v0.8c0,0.1,0.1,0.1,0.1,0.1l2.3-2.3
			C12.7,7.6,12.7,7.6,12.7,7.5z"/>
	</g>
</g>
<g id="Margin" class="st1">
	<g class="st2">
		<path class="st3" d="M14.5,1.5v13h-13v-13H14.5 M16,0H0v16h16V0L16,0z"/>
	</g>
</g>
</svg>
