<?xml version="1.0" encoding="utf-8"?>
<!-- Generator: Adobe Illustrator 22.0.0, SVG Export Plug-In . SVG Version: 6.00 Build 0)  -->
<svg version="1.1" xmlns="http://www.w3.org/2000/svg" xmlns:xlink="http://www.w3.org/1999/xlink" x="0px" y="0px"
	 viewBox="0 0 16 16" style="enable-background:new 0 0 16 16;" xml:space="preserve">
<style type="text/css">
	.st0{fill:#010101;}
	.st1{display:none;}
	.st2{display:inline;}
	.st3{fill:#FF0000;}
</style>
<g id="Layer_1">
	<g>
		<path d="M13.1,2.1H7.5c-0.4,0-0.8,0.4-0.8,0.8v2.5h3.9v3.9h2.5c0.4,0,0.8-0.4,0.8-0.8V2.9C13.9,2.5,13.5,2.1,13.1,2.1z M8.3,4.5
			c-0.4,0-0.8-0.4-0.8-0.8c0-0.4,0.4-0.8,0.8-0.8c0.4,0,0.8,0.4,0.8,0.8C9.1,4.2,8.7,4.5,8.3,4.5z M12.3,8.5c-0.4,0-0.8-0.4-0.8-0.8
			c0-0.4,0.4-0.8,0.8-0.8c0.4,0,0.8,0.4,0.8,0.8C13.1,8.2,12.7,8.5,12.3,8.5z M12.3,4.5c-0.4,0-0.8-0.4-0.8-0.8
			c0-0.4,0.4-0.8,0.8-0.8c0.4,0,0.8,0.4,0.8,0.8C13.1,4.2,12.7,4.5,12.3,4.5z"/>
		<path d="M8.5,6.7H2.9c-0.4,0-0.8,0.4-0.8,0.8v5.6c0,0.4,0.4,0.8,0.8,0.8h5.6c0.4,0,0.8-0.4,0.8-0.8V7.5C9.3,7.1,8.9,6.7,8.5,6.7z
			 M3.7,9.1C3.5,9.1,3.3,9,3.2,8.9C3,8.7,2.9,8.5,2.9,8.3c0-0.4,0.4-0.8,0.8-0.8s0.8,0.4,0.8,0.8C4.5,8.7,4.2,9.1,3.7,9.1z
			 M5.7,11.1c-0.4,0-0.8-0.4-0.8-0.8c0-0.4,0.4-0.8,0.8-0.8c0.4,0,0.8,0.4,0.8,0.8C6.5,10.7,6.2,11.1,5.7,11.1z M7.7,13.1
			c-0.4,0-0.8-0.4-0.8-0.8c0-0.4,0.4-0.8,0.8-0.8h0c0.4,0,0.8,0.4,0.8,0.8C8.5,12.7,8.1,13.1,7.7,13.1z"/>
	</g>
</g>
<g id="Margin" class="st1">
	<g class="st2">
		<path class="st3" d="M14.5,1.5v13h-13v-13H14.5 M16,0H0v16h16V0L16,0z"/>
	</g>
</g>
</svg>
