<?xml version="1.0" encoding="utf-8"?>
<!-- Generator: Adobe Illustrator 22.0.0, SVG Export Plug-In . SVG Version: 6.00 Build 0)  -->
<svg version="1.1" xmlns="http://www.w3.org/2000/svg" xmlns:xlink="http://www.w3.org/1999/xlink" x="0px" y="0px"
	 viewBox="0 0 16 16" style="enable-background:new 0 0 16 16;" xml:space="preserve">
<style type="text/css">
	.st0{fill:#010101;}
	.st1{display:none;}
	.st2{display:inline;}
	.st3{fill:#FF0000;}
</style>
<g id="Layer_1">
	<path d="M7.2,8.4V7.6c0-0.1,0-0.1-0.1-0.1S7,7.4,7,7.4H5.7V6.1c0-0.1,0-0.1-0.1-0.1c0,0-0.1-0.1-0.2-0.1H4.7C4.6,5.9,4.5,6,4.5,6
		c0,0-0.1,0.1-0.1,0.1v1.2H3.2c-0.1,0-0.1,0-0.2,0.1S3,7.5,3,7.6v0.8C3,8.5,3,8.5,3,8.6s0.1,0.1,0.2,0.1h1.3v1.2
		c0,0.1,0,0.1,0.1,0.1c0,0,0.1,0.1,0.2,0.1h0.8c0.1,0,0.1,0,0.2-0.1c0,0,0.1-0.1,0.1-0.1V8.6H7c0.1,0,0.1,0,0.2-0.1S7.2,8.5,7.2,8.4
		z M10.9,8.8c0-0.2-0.1-0.4-0.2-0.6S10.3,8,10.1,8S9.7,8.1,9.5,8.2C9.3,8.4,9.3,8.6,9.3,8.8c0,0.2,0.1,0.4,0.2,0.6
		c0.2,0.2,0.4,0.2,0.6,0.2s0.4-0.1,0.6-0.2S10.9,9.1,10.9,8.8z M12.6,7.2c0-0.2-0.1-0.4-0.2-0.6c-0.2-0.2-0.4-0.2-0.6-0.2
		c-0.2,0-0.4,0.1-0.6,0.2c-0.2,0.2-0.2,0.4-0.2,0.6s0.1,0.4,0.2,0.6C11.3,7.9,11.5,8,11.8,8c0.2,0,0.4-0.1,0.6-0.2
		C12.5,7.6,12.6,7.4,12.6,7.2z M14.3,8c0,0.9-0.3,1.7-1,2.3c-0.7,0.6-1.4,1-2.4,1c-0.8,0-1.6-0.3-2.2-0.8H7.3
		c-0.6,0.6-1.4,0.8-2.2,0.8c-0.9,0-1.7-0.3-2.4-1c-0.7-0.6-1-1.4-1-2.3s0.3-1.7,1-2.3s1.4-1,2.4-1h5.9c0.9,0,1.7,0.3,2.4,1
		C13.9,6.3,14.3,7.1,14.3,8z"/>
</g>
<g id="Margin" class="st1">
	<g class="st2">
		<path class="st3" d="M14.5,1.5v13h-13v-13H14.5 M16,0H0v16h16V0L16,0z"/>
	</g>
</g>
</svg>
