<?xml version="1.0" encoding="utf-8"?>
<!-- Generator: Adobe Illustrator 22.0.0, SVG Export Plug-In . SVG Version: 6.00 Build 0)  -->
<svg version="1.1" xmlns="http://www.w3.org/2000/svg" xmlns:xlink="http://www.w3.org/1999/xlink" x="0px" y="0px"
	 viewBox="0 0 16 16" style="enable-background:new 0 0 16 16;" xml:space="preserve">
<style type="text/css">
	.st0{fill:#010101;}
	.st1{display:none;}
	.st2{display:inline;}
	.st3{fill:#FF0000;}
</style>
<g id="Layer_1">
	<g>
		<path d="M13.1,11.9H2.9c-0.1,0-0.2,0-0.3,0.1c-0.1,0.1-0.1,0.2-0.1,0.3v0.5c0,0.1,0.1,0.2,0.2,0.2h10.5c0.1,0,0.2-0.1,0.2-0.2
			v-0.5c0-0.1,0-0.2-0.1-0.3C13.3,11.9,13.2,11.9,13.1,11.9z"/>
		<path d="M12.9,5.2L8.1,3C8,3,8,3,7.9,3L3.1,5.2C3,5.2,3,5.3,3,5.3v0.4C3,5.9,3.1,6,3.2,6h9.6C12.9,6,13,5.9,13,5.7V5.3
			C13,5.3,13,5.2,12.9,5.2z"/>
		<path d="M3.3,11.2v0.2c0,0.1,0.1,0.2,0.2,0.2h9c0.1,0,0.2-0.1,0.2-0.2v-0.2c0-0.1,0-0.2-0.1-0.3c-0.1-0.1-0.2-0.1-0.3-0.1H12v-0.2
			c0,0,0-4,0-4c0-0.1-0.1-0.2-0.2-0.2h-1c-0.1,0-0.2,0.1-0.2,0.2l0,0.2v4H9.8v-0.2c0,0,0-4,0-4c0-0.1-0.1-0.2-0.2-0.2h-1
			c-0.1,0-0.2,0.1-0.2,0.2v4.2H7.6V6.6c0-0.1-0.1-0.2-0.2-0.2h-1c-0.1,0-0.2,0.1-0.2,0.2v4.2H5.5V6.6c0-0.1-0.1-0.2-0.2-0.2h-1
			C4.1,6.4,4,6.5,4,6.6v4.2H3.7c-0.1,0-0.2,0-0.3,0.1C3.3,11,3.3,11.1,3.3,11.2z"/>
	</g>
</g>
<g id="Margin" class="st1">
	<g class="st2">
		<path class="st3" d="M14.5,1.5v13h-13v-13H14.5 M16,0H0v16h16V0L16,0z"/>
	</g>
</g>
</svg>
