<?xml version="1.0" encoding="utf-8"?>
<!-- Generator: Adobe Illustrator 22.0.0, SVG Export Plug-In . SVG Version: 6.00 Build 0)  -->
<svg version="1.1" xmlns="http://www.w3.org/2000/svg" xmlns:xlink="http://www.w3.org/1999/xlink" x="0px" y="0px"
	 viewBox="0 0 16 16" style="enable-background:new 0 0 16 16;" xml:space="preserve">
<style type="text/css">
	.st0{fill:#010101;}
	.st1{display:none;}
	.st2{display:inline;}
	.st3{fill:#FF0000;}
</style>
<g id="Layer_1">
	<path d="M11.6,2.5H9.9C8.6,2.5,7.4,3.6,7.4,5v1.6H3.8c-0.9,0-1.6,0.7-1.6,1.6v3.7c0,0.9,0.7,1.6,1.6,1.6h5.4c0.9,0,1.6-0.7,1.6-1.6
		V8.2c0-0.9-0.7-1.6-1.6-1.6H9V5c0-0.5,0.4-0.9,0.9-0.9h1.6c0.5,0,0.9,0.4,0.9,0.9v1.6c0,0,0,0,0,0h1.6c0,0,0,0,0,0V5
		C14.1,3.6,12.9,2.5,11.6,2.5z M6,9.8l-2.3,1L3.4,10l1.7-0.7L3.4,8.6L3.8,8l2.3,1V9.8z M9,12.1H6.2v-0.7H9V12.1z"/>
</g>
<g id="Margin" class="st1">
	<g class="st2">
		<path class="st3" d="M14.5,1.5v13h-13v-13H14.5 M16,0H0v16h16V0L16,0z"/>
	</g>
</g>
</svg>
