<svg id="Layer_1" data-name="Layer 1" xmlns="http://www.w3.org/2000/svg" width="16" height="16" viewBox="0 0 16 16">
  <title>HateSpeech</title>
  <g>
    <path d="M12.86,3.48H3.14a.41.41,0,0,0-.41.41v9.37a.42.42,0,0,0,.73.27l1.77-2.09a.44.44,0,0,1,.32-.15h7.31a.41.41,0,0,0,.41-.41v-7A.41.41,0,0,0,12.86,3.48ZM9.33,7.1H8.68L8.56,8h.77V9H8.44l-.1.77H7.18L7.28,9h-1l-.09.77H5.08L5.18,9H4.64V8H5.3l.12-.93H4.64v-1h.9l.09-.78H6.79l-.1.78h.95l.1-.78H8.9l-.1.78h.53ZM10.9,9.85a.67.67,0,1,1,.67-.67A.67.67,0,0,1,10.9,9.85Zm.48-1.63h-1l-.2-3h1.34Z" style="fill: #010101"/>
    <polygon points="6.45 8.03 7.4 8.03 7.52 7.09 6.57 7.09 6.45 8.03" style="fill: #010101"/>
  </g>
</svg>
