<?xml version="1.0" encoding="utf-8"?>
<!-- Generator: Adobe Illustrator 22.0.0, SVG Export Plug-In . SVG Version: 6.00 Build 0)  -->
<svg version="1.1" xmlns="http://www.w3.org/2000/svg" xmlns:xlink="http://www.w3.org/1999/xlink" x="0px" y="0px"
	 viewBox="0 0 16 16" style="enable-background:new 0 0 16 16;" xml:space="preserve">
<style type="text/css">
	.st0{fill:#010101;}
	.st1{display:none;}
	.st2{display:inline;}
	.st3{fill:#FF0000;}
</style>
<g id="Layer_1">
	<g>
		<path class="st0" d="M12.9,3.5H3.1c-0.2,0-0.4,0.2-0.4,0.4v9.4c0,0.4,0.5,0.6,0.7,0.3l1.8-2.1c0.1-0.1,0.2-0.1,0.3-0.1h7.3
			c0.2,0,0.4-0.2,0.4-0.4v-7C13.3,3.7,13.1,3.5,12.9,3.5z M9.3,7.1H8.7L8.6,8h0.8v1H8.4L8.3,9.8H7.2L7.3,9H6.3L6.2,9.8H5.1L5.2,9
			H4.6V8h0.7l0.1-0.9H4.6v-1h0.9l0.1-0.8h1.2L6.7,6.1h0.9l0.1-0.8h1.2L8.8,6.1h0.5V7.1z M10.9,9.8c-0.4,0-0.7-0.3-0.7-0.7
			c0-0.4,0.3-0.7,0.7-0.7c0.4,0,0.7,0.3,0.7,0.7C11.6,9.5,11.3,9.8,10.9,9.8z M11.4,8.2h-1l-0.2-3h1.3L11.4,8.2z"/>
		<polygon class="st0" points="6.5,8 7.4,8 7.5,7.1 6.6,7.1 		"/>
	</g>
</g>
<g id="Margin" class="st1">
	<g class="st2">
		<path class="st3" d="M14.5,1.5v13h-13v-13H14.5 M16,0H0v16h16V0L16,0z"/>
	</g>
</g>
</svg>
