<?xml version="1.0" encoding="utf-8"?>
<!-- Generator: Adobe Illustrator 22.0.0, SVG Export Plug-In . SVG Version: 6.00 Build 0)  -->
<svg version="1.1" xmlns="http://www.w3.org/2000/svg" xmlns:xlink="http://www.w3.org/1999/xlink" x="0px" y="0px"
	 viewBox="0 0 16 16" style="enable-background:new 0 0 16 16;" xml:space="preserve">
<style type="text/css">
	.st0{fill:#010101;}
	.st1{display:none;}
	.st2{display:inline;}
	.st3{fill:#FF0000;}
</style>
<g id="Layer_1">
	<path d="M11.9,7.1C11.7,6,10.7,5.2,9.5,5.2c-0.2,0-0.5,0-0.7,0.1C8.5,4.5,7.6,3.9,6.6,3.9C5.2,3.9,4.1,5,4.1,6.4
		c0,0.2,0,0.4,0.1,0.7C2.9,7.2,1.8,8.2,1.8,9.6c0,1.4,1.1,2.5,2.5,2.5h7.3c1.4,0,2.5-1.1,2.5-2.5C14.2,8.3,13.2,7.2,11.9,7.1z"/>
</g>
<g id="Margin" class="st1">
	<g class="st2">
		<path class="st3" d="M14.5,1.5v13h-13v-13H14.5 M16,0H0v16h16V0L16,0z"/>
	</g>
</g>
</svg>
