<?xml version="1.0" encoding="utf-8"?>
<!-- Generator: Adobe Illustrator 22.0.0, SVG Export Plug-In . SVG Version: 6.00 Build 0)  -->
<svg version="1.1" xmlns="http://www.w3.org/2000/svg" xmlns:xlink="http://www.w3.org/1999/xlink" x="0px" y="0px"
	 viewBox="0 0 16 16" style="enable-background:new 0 0 16 16;" xml:space="preserve">
<style type="text/css">
	.st0{fill:#010101;}
	.st1{display:none;}
	.st2{display:inline;}
	.st3{fill:#FF0000;}
</style>
<g id="Layer_1">
	<g id="HRLogo" transform="translate(198.000000, 168.000000)">
		<g id="Fill-1_1_">
			<path d="M-190.2-166.3c0.3,0.1,1.2,0.7,1.2,1.8c0,0.9-1.5,3.8-0.9,4.5l3.8-4.7c0,0,0.9,1.1,0.4,2.1c-0.6,1-2,2.2-2.6,3.1
				c-0.4,0.5-0.2,0.8-0.2,0.8l4.6-2.5c0,0,0.4,1.1-0.5,1.9c-0.9,0.8-3.1,1.2-3.1,2h3.2c0,0-0.3,1-0.9,1.1c-0.5,0.1-1.7-0.2-2.2,0.3
				c-0.6,0.5-1.2,2.2-3.1,2.2c-1.3,0-2.3-0.9-2.9-2.2c-0.7-1.4-1.5-2.1-2.4-2.3c0,0,0.5-1.1,1.6-1.1c1.6,0,2.3,2.7,3.6,2.7
				c0.4,0,0.7-0.2,0.7-0.7c0-0.6-0.8-1-1.1-1.2c-0.5-0.4-1-1-0.7-2L-190.2-166.3"/>
		</g>
	</g>
</g>
<g id="Margin" class="st1">
	<g class="st2">
		<path class="st3" d="M14.5,1.5v13h-13v-13H14.5 M16,0H0v16h16V0L16,0z"/>
	</g>
</g>
</svg>
