<?xml version="1.0" encoding="utf-8"?>
<!-- Generator: Adobe Illustrator 22.0.0, SVG Export Plug-In . SVG Version: 6.00 Build 0)  -->
<svg version="1.1" xmlns="http://www.w3.org/2000/svg" xmlns:xlink="http://www.w3.org/1999/xlink" x="0px" y="0px"
	 viewBox="0 0 16 16" style="enable-background:new 0 0 16 16;" xml:space="preserve">
<style type="text/css">
	.st0{fill:#010101;}
	.st1{display:none;}
	.st2{display:inline;}
	.st3{fill:#FF0000;}
</style>
<g id="Layer_1">
	<g>
		<path d="M9.1,6c0,0.3,0,0.6-0.1,0.8c1.1,0.3,2,1.3,2.3,2.4c1.4-0.4,2.4-1.7,2.4-3.3c0-1.9-1.5-3.4-3.4-3.4C9.4,2.6,8.6,2.9,8,3.5
			C8.7,4.1,9.1,5,9.1,6z"/>
		<path d="M4.7,9.2C5,8,5.9,7.1,7,6.8C7,6.5,6.9,6.2,6.9,6c0-1,0.4-1.9,1.1-2.5C7.4,2.9,6.6,2.6,5.7,2.6C3.8,2.6,2.3,4.1,2.3,6
			C2.3,7.5,3.3,8.8,4.7,9.2z"/>
		<path d="M8,8.4C7.4,9,6.6,9.4,5.7,9.4c-0.3,0-0.7,0-1-0.1C4.6,9.5,4.6,9.8,4.6,10c0,1.9,1.5,3.4,3.4,3.4s3.4-1.5,3.4-3.4
			c0-0.3,0-0.6-0.1-0.8c-0.3,0.1-0.6,0.1-1,0.1C9.4,9.4,8.6,9,8,8.4z"/>
	</g>
</g>
<g id="Margin" class="st1">
	<g class="st2">
		<path class="st3" d="M14.5,1.5v13h-13v-13H14.5 M16,0H0v16h16V0L16,0z"/>
	</g>
</g>
</svg>
