<?xml version="1.0" encoding="utf-8"?>
<!-- Generator: Adobe Illustrator 22.0.0, SVG Export Plug-In . SVG Version: 6.00 Build 0)  -->
<svg version="1.1" xmlns="http://www.w3.org/2000/svg" xmlns:xlink="http://www.w3.org/1999/xlink" x="0px" y="0px"
	 viewBox="0 0 16 16" style="enable-background:new 0 0 16 16;" xml:space="preserve">
<style type="text/css">
	.st0{fill:#010101;}
	.st1{display:none;}
	.st2{display:inline;}
	.st3{fill:#FF0000;}
</style>
<g id="Layer_1">
	<path d="M13.2,2.1h-2c-0.2,0-0.4,0.2-0.4,0.4v0.4c0,0.2,0.2,0.4,0.4,0.4h0.4L9.9,5C9.4,4.6,8.7,4.4,8,4.4C7.3,4.4,6.6,4.6,6.1,5
		L5.8,4.7l0.5-0.5C6.4,4.1,6.4,4,6.4,3.8c0-0.1,0-0.2-0.1-0.3L6.1,3.3c-0.2-0.2-0.4-0.2-0.6,0L4.9,3.8L4.4,3.3h0.3
		c0.2,0,0.4-0.2,0.4-0.4V2.5c0-0.2-0.2-0.4-0.4-0.4h-2c-0.2,0-0.4,0.2-0.4,0.4v2c0,0.2,0.2,0.4,0.4,0.4h0.4c0.2,0,0.4-0.2,0.4-0.4
		V4.1l0.5,0.5L3.6,5.2c-0.2,0.2-0.2,0.4,0,0.6L3.8,6C3.9,6.1,4,6.2,4.1,6.2c0,0,0,0,0,0c0.1,0,0.2,0,0.3-0.1l0.5-0.5l0.3,0.3
		C4.8,6.4,4.6,7,4.6,7.7c0,1.6,1.2,3,2.8,3.3v0.5H6.6c-0.2,0-0.4,0.2-0.4,0.4v0.4c0,0.2,0.2,0.4,0.4,0.4h0.7v0.8
		c0,0.2,0.2,0.4,0.4,0.4h0.4c0.2,0,0.4-0.2,0.4-0.4v-0.8h0.7c0.2,0,0.4-0.2,0.4-0.4v-0.4c0-0.2-0.2-0.4-0.4-0.4H8.6V11
		c1.6-0.3,2.8-1.7,2.8-3.3c0-0.7-0.2-1.3-0.6-1.9l1.7-1.7v0.3c0,0.2,0.2,0.4,0.4,0.4h0.4c0.2,0,0.4-0.2,0.4-0.4v-2
		C13.7,2.3,13.5,2.1,13.2,2.1z M10.1,7.7c0,1.2-1,2.2-2.2,2.2s-2.2-1-2.2-2.2s1-2.2,2.2-2.2S10.1,6.5,10.1,7.7z"/>
</g>
<g id="Margin" class="st1">
	<g class="st2">
		<path class="st3" d="M14.5,1.5v13h-13v-13H14.5 M16,0H0v16h16V0L16,0z"/>
	</g>
</g>
</svg>
