<?xml version="1.0" encoding="utf-8"?>
<!-- Generator: Adobe Illustrator 22.0.0, SVG Export Plug-In . SVG Version: 6.00 Build 0)  -->
<svg version="1.1" xmlns="http://www.w3.org/2000/svg" xmlns:xlink="http://www.w3.org/1999/xlink" x="0px" y="0px"
	 viewBox="0 0 16 16" style="enable-background:new 0 0 16 16;" xml:space="preserve">
<style type="text/css">
	.st0{fill:#010101;}
	.st1{display:none;}
	.st2{display:inline;}
	.st3{fill:#FF0000;}
</style>
<g id="Layer_1">
	<g>
		<path d="M10.3,6.8L6.5,4.6c-0.1-0.1-0.3-0.1-0.4,0C6,4.7,5.9,4.8,5.9,5v4.4c0,0.2,0.1,0.3,0.2,0.4c0.1,0,0.1,0.1,0.2,0.1
			c0.1,0,0.2,0,0.2-0.1l3.7-2.2c0.1-0.1,0.2-0.2,0.2-0.4S10.4,6.9,10.3,6.8z"/>
		<path d="M7.2,10.9c-0.5-0.1-1-0.2-1.5-0.5C5.2,10,4.7,9.6,4.4,9C4.1,8.4,3.9,7.8,3.9,7.1s0.2-1.3,0.5-1.9c0.3-0.6,0.8-1,1.4-1.4
			C6.3,3.6,7,3.4,7.6,3.4s1.3,0.2,1.9,0.5c0.6,0.3,1,0.8,1.4,1.4c0.3,0.6,0.5,1.2,0.5,1.9c0,0.1,0,0.2,0,0.4c0.1,0,0.2,0.1,0.2,0.2
			l1.1,1.1c0.2-0.5,0.2-1,0.2-1.6c0-1-0.2-1.8-0.7-2.6c-0.5-0.8-1.1-1.4-1.9-1.9C9.5,2.1,8.6,1.9,7.6,1.9S5.8,2.1,5,2.6
			C4.2,3.1,3.6,3.7,3.1,4.5C2.6,5.3,2.4,6.2,2.4,7.1S2.6,9,3.1,9.8c0.5,0.8,1.1,1.4,1.9,1.9c0.5,0.3,1,0.5,1.5,0.6
			C6.7,11.8,6.9,11.4,7.2,10.9C7.2,10.9,7.2,10.9,7.2,10.9z"/>
		<path d="M11.1,8.1C11.1,8.1,11.1,8.1,11.1,8.1c-0.1,0-0.2,0-0.2,0.1v0.7C11,9,11,9,10.9,9c-0.4,0.1-2.1,0.5-3.2,2.2
			c-0.7,1.1-0.9,2.2-1,2.8c0,0.1,0,0.1,0.1,0.1c0,0,0.1,0,0.1,0c0.3-0.5,0.7-0.9,1.4-1.2c0.9-0.5,2-0.6,2.5-0.6c0.2,0,0.2,0,0.2,0
			v0.9c0,0.1,0,0.1,0.1,0.1c0,0,0,0,0.1,0l2.5-2.5c0,0,0-0.1,0-0.1L11.1,8.1z"/>
	</g>
</g>
<g id="Margin" class="st1">
	<g class="st2">
		<path class="st3" d="M14.5,1.5v13h-13v-13H14.5 M16,0H0v16h16V0L16,0z"/>
	</g>
</g>
</svg>
