<?xml version="1.0" encoding="utf-8"?>
<!-- Generator: Adobe Illustrator 22.0.0, SVG Export Plug-In . SVG Version: 6.00 Build 0)  -->
<svg version="1.1" xmlns="http://www.w3.org/2000/svg" xmlns:xlink="http://www.w3.org/1999/xlink" x="0px" y="0px"
	 viewBox="0 0 16 16" style="enable-background:new 0 0 16 16;" xml:space="preserve">
<style type="text/css">
	.st0{fill:#010101;}
	.st1{display:none;}
	.st2{display:inline;}
	.st3{fill:#FF0000;}
</style>
<g id="Layer_1">
	<g>
		<path d="M12.4,5.2H10c-0.2,0-0.4,0.2-0.4,0.4v0C9.6,5.8,9.8,6,10,6h2.4c0.2,0,0.4-0.2,0.4-0.4v0C12.8,5.3,12.7,5.2,12.4,5.2z"/>
		<path d="M12.4,8.4H10c-0.2,0-0.4,0.2-0.4,0.4v0C9.6,9,9.8,9.2,10,9.2h2.4c0.2,0,0.4-0.2,0.4-0.4v0C12.8,8.6,12.7,8.4,12.4,8.4z"/>
		<path d="M12.4,6.8H10C9.8,6.8,9.6,7,9.6,7.2v0c0,0.2,0.2,0.4,0.4,0.4h2.4c0.2,0,0.4-0.2,0.4-0.4v0C12.8,7,12.7,6.8,12.4,6.8z"/>
		<path d="M12.4,10H10c-0.2,0-0.4,0.2-0.4,0.4v0c0,0.2,0.2,0.4,0.4,0.4h2.4c0.2,0,0.4-0.2,0.4-0.4v0C12.8,10.2,12.7,10,12.4,10z"/>
		<path d="M14.1,3.5H3.6c-0.2,0-0.4,0.2-0.4,0.4v0v0.4H2.8H1.9c-0.2,0-0.4,0.2-0.4,0.4v6.5c0,0.3,0.1,0.6,0.4,0.9
			c0.2,0.2,0.5,0.4,0.9,0.4h10.5c0.3,0,0.6-0.1,0.9-0.4c0.2-0.2,0.4-0.5,0.4-0.9V3.9C14.5,3.7,14.3,3.5,14.1,3.5z M3.2,11.2
			c0,0.1,0,0.2-0.1,0.3c-0.1,0.1-0.2,0.1-0.3,0.1c-0.1,0-0.2,0-0.3-0.1c-0.1-0.1-0.1-0.2-0.1-0.3V5.6c0-0.2,0.2-0.4,0.4-0.4
			s0.4,0.2,0.4,0.4V11.2z M13.7,4.8v0.3v5.8v0.3v0.4h-0.7v0H4.7H4.4H4v-0.4v0v-0.3V5.1V4.8V4.3h0.4h0.3h8.2h0.3h0.4V4.8z"/>
		<path d="M8.3,5.2H5.2C5,5.2,4.8,5.4,4.8,5.6v3.1C4.8,9,5,9.2,5.2,9.2h3.1c0.3,0,0.5-0.2,0.5-0.5V5.6C8.8,5.4,8.6,5.2,8.3,5.2z
			 M8,8.4H7.5H6H5.6V7.9V6.4V6H6h1.5H8V8.4z"/>
		<path d="M8.4,10H5.2c-0.2,0-0.4,0.2-0.4,0.4v0c0,0.2,0.2,0.4,0.4,0.4h3.2c0.2,0,0.4-0.2,0.4-0.4v0C8.8,10.2,8.6,10,8.4,10z"/>
	</g>
</g>
<g id="Margin" class="st1">
	<g class="st2">
		<path class="st3" d="M14.5,1.5v13h-13v-13H14.5 M16,0H0v16h16V0L16,0z"/>
	</g>
</g>
</svg>
