<?xml version="1.0" encoding="utf-8"?>
<!-- Generator: Adobe Illustrator 22.0.0, SVG Export Plug-In . SVG Version: 6.00 Build 0)  -->
<svg version="1.1" xmlns="http://www.w3.org/2000/svg" xmlns:xlink="http://www.w3.org/1999/xlink" x="0px" y="0px"
	 viewBox="0 0 16 16" style="enable-background:new 0 0 16 16;" xml:space="preserve">
<style type="text/css">
	.st0{fill:#010101;}
	.st1{display:none;}
	.st2{display:inline;}
	.st3{fill:#FF0000;}
</style>
<g id="Layer_1">
	<path d="M12.7,3.7H3.1c-0.2,0-0.4,0.2-0.4,0.4v9.2c0,0.4,0.5,0.6,0.7,0.3l1.7-2c0.1-0.1,0.2-0.1,0.3-0.1h7.2c0.2,0,0.4-0.2,0.4-0.4
		V4.1C13.1,3.9,12.9,3.7,12.7,3.7z M9.9,8L8,9.7c0,0-0.1,0.1-0.1,0.1c-0.1,0-0.1,0-0.1-0.1L5.9,8c0,0,0,0-0.1-0.1
		c0,0-0.1-0.1-0.2-0.2C5.6,7.6,5.5,7.5,5.4,7.4C5.4,7.3,5.3,7.2,5.3,7c0-0.1-0.1-0.3-0.1-0.4c0-0.4,0.1-0.8,0.4-1
		c0.3-0.2,0.6-0.4,1.1-0.4c0.1,0,0.3,0,0.4,0.1c0.1,0,0.2,0.1,0.4,0.2c0.1,0.1,0.2,0.1,0.3,0.2c0.1,0.1,0.2,0.1,0.2,0.2
		C8,5.8,8,5.7,8.1,5.7c0.1-0.1,0.2-0.1,0.3-0.2c0.1-0.1,0.2-0.1,0.4-0.2c0.1,0,0.3-0.1,0.4-0.1c0.4,0,0.8,0.1,1.1,0.4
		c0.3,0.2,0.4,0.6,0.4,1C10.6,7.1,10.3,7.5,9.9,8z"/>
</g>
<g id="Margin" class="st1">
	<g class="st2">
		<path class="st3" d="M14.5,1.5v13h-13v-13H14.5 M16,0H0v16h16V0L16,0z"/>
	</g>
</g>
</svg>
