<?xml version="1.0" encoding="utf-8"?>
<!-- Generator: Adobe Illustrator 22.0.0, SVG Export Plug-In . SVG Version: 6.00 Build 0)  -->
<svg version="1.1" xmlns="http://www.w3.org/2000/svg" xmlns:xlink="http://www.w3.org/1999/xlink" x="0px" y="0px"
	 viewBox="0 0 16 16" style="enable-background:new 0 0 16 16;" xml:space="preserve">
<style type="text/css">
	.st0{fill:#010101;}
	.st1{display:none;}
	.st2{display:inline;}
	.st3{fill:#FF0000;}
</style>
<g id="Layer_1">
	<path d="M13.3,7.1c0.2-0.1,0.4-0.2,0.5-0.4C14,6.5,14,6.2,14,6c-0.1-0.2-0.2-0.4-0.4-0.5c-0.2-0.1-0.4-0.2-0.7-0.1l-0.6-2.5
		c-0.1-0.2-0.2-0.4-0.4-0.5c-0.2-0.1-0.4-0.2-0.7-0.1C9.7,4.3,7.9,5.6,6,6.1L2.8,6.8C2.5,6.9,2.3,7,2.2,7.3C2,7.5,2,7.8,2,8.1
		l0.3,1.3c0.1,0.3,0.2,0.5,0.5,0.7c0.3,0.2,0.5,0.2,0.8,0.1c0,0,0.4-0.1,1-0.2l1.5,3.2c0.1,0.4,0.6,0.7,1,0.6l0.7-0.2
		c0.4-0.1,0.7-0.6,0.6-1L7.1,9.4c0.1,0,0.2-0.1,0.2-0.1c1.8-0.3,3.7,0.2,5.9,1.3c0.2-0.1,0.4-0.2,0.5-0.4c0.1-0.2,0.2-0.4,0.1-0.7
		L13.3,7.1z M7.4,8.5L7,6.7c1.6-0.6,3.1-1.7,4.5-3.4L13,9.6C11,8.6,9.1,8.3,7.4,8.5z"/>
</g>
<g id="Margin" class="st1">
	<g class="st2">
		<path class="st3" d="M14.5,1.5v13h-13v-13H14.5 M16,0H0v16h16V0L16,0z"/>
	</g>
</g>
</svg>
