<?xml version="1.0" encoding="utf-8"?>
<!-- Generator: Adobe Illustrator 22.0.0, SVG Export Plug-In . SVG Version: 6.00 Build 0)  -->
<svg version="1.1" xmlns="http://www.w3.org/2000/svg" xmlns:xlink="http://www.w3.org/1999/xlink" x="0px" y="0px"
	 viewBox="0 0 16 16" style="enable-background:new 0 0 16 16;" xml:space="preserve">
<style type="text/css">
	.st0{fill:#010101;}
	.st1{display:none;}
	.st2{display:inline;}
	.st3{fill:#FF0000;}
</style>
<g id="Layer_1">
	<g>
		<path d="M4.8,4.8c0.4-0.4,0.9-0.7,1.5-1C6.8,3.6,7.4,3.4,8,3.4s1.2,0.1,1.8,0.4c0.6,0.2,1.1,0.6,1.5,1c0.2,0.2,0.3,0.4,0.5,0.6
			h1.1c0,0,0-0.1,0-0.1c-0.5-0.8-1.2-1.5-2-2C9.9,2.8,9,2.5,8,2.5S6.1,2.8,5.2,3.3c-0.8,0.5-1.5,1.2-2,2c0,0,0,0.1,0,0.1h1.1
			C4.4,5.1,4.6,4.9,4.8,4.8z"/>
		<path d="M11.2,11.2c-0.4,0.4-0.9,0.7-1.5,1c-0.6,0.2-1.2,0.4-1.8,0.4s-1.2-0.1-1.8-0.4c-0.6-0.2-1.1-0.6-1.5-1
			c-0.1-0.1-0.2-0.2-0.3-0.3H3.4c0.5,0.8,1.1,1.4,1.9,1.8C6.1,13.2,7,13.5,8,13.5s1.9-0.2,2.8-0.7c0.8-0.5,1.4-1.1,1.9-1.8h-1.1
			C11.4,11,11.3,11.1,11.2,11.2z"/>
		<path d="M5.3,7c0-0.1,0-0.2-0.1-0.2L4.8,6.4C4.7,6.3,4.6,6.3,4.6,6.3c-0.1,0-0.2,0-0.2,0.1L3.4,7.3L2.5,6.4
			C2.4,6.3,2.4,6.3,2.3,6.3c-0.1,0-0.2,0-0.2,0.1L1.6,6.8C1.6,6.8,1.5,6.9,1.5,7c0,0.1,0,0.2,0.1,0.2l0.9,0.9L1.6,9.1
			C1.6,9.1,1.5,9.2,1.5,9.3c0,0.1,0,0.2,0.1,0.2l0.4,0.4C2.1,10,2.2,10,2.3,10c0.1,0,0.2,0,0.2-0.1L3.4,9l0.9,0.9
			C4.4,10,4.5,10,4.6,10c0.1,0,0.2,0,0.2-0.1l0.4-0.4c0.1-0.1,0.1-0.1,0.1-0.2c0-0.1,0-0.2-0.1-0.2L4.3,8.1l0.9-0.9
			C5.3,7.2,5.3,7.1,5.3,7z"/>
		<path d="M9.9,7c0-0.1,0-0.2-0.1-0.2L9.4,6.4C9.3,6.3,9.2,6.3,9.1,6.3S9,6.3,8.9,6.4L8,7.3L7.1,6.4C7,6.3,6.9,6.3,6.9,6.3
			c-0.1,0-0.2,0-0.2,0.1L6.2,6.8C6.2,6.8,6.1,6.9,6.1,7c0,0.1,0,0.2,0.1,0.2l0.9,0.9L6.2,9.1C6.2,9.1,6.1,9.2,6.1,9.3
			c0,0.1,0,0.2,0.1,0.2l0.4,0.4C6.7,10,6.8,10,6.9,10c0.1,0,0.2,0,0.2-0.1L8,9l0.9,0.9C9,10,9.1,10,9.1,10s0.2,0,0.2-0.1l0.4-0.4
			c0.1-0.1,0.1-0.1,0.1-0.2c0-0.1,0-0.2-0.1-0.2L8.9,8.1l0.9-0.9C9.8,7.2,9.9,7.1,9.9,7z"/>
		<path d="M14.4,7.2c0.1-0.1,0.1-0.1,0.1-0.2c0-0.1,0-0.2-0.1-0.2l-0.4-0.4c-0.1-0.1-0.1-0.1-0.2-0.1s-0.2,0-0.2,0.1l-0.9,0.9
			l-0.9-0.9c-0.1-0.1-0.1-0.1-0.2-0.1c-0.1,0-0.2,0-0.2,0.1l-0.4,0.4c-0.1,0.1-0.1,0.1-0.1,0.2c0,0.1,0,0.2,0.1,0.2l0.9,0.9
			l-0.9,0.9c-0.1,0.1-0.1,0.1-0.1,0.2c0,0.1,0,0.2,0.1,0.2l0.4,0.4c0.1,0.1,0.1,0.1,0.2,0.1c0.1,0,0.2,0,0.2-0.1L12.6,9l0.9,0.9
			c0.1,0.1,0.1,0.1,0.2,0.1s0.2,0,0.2-0.1l0.4-0.4c0.1-0.1,0.1-0.1,0.1-0.2c0-0.1,0-0.2-0.1-0.2l-0.9-0.9L14.4,7.2z"/>
	</g>
</g>
<g id="Margin" class="st1">
	<g class="st2">
		<path class="st3" d="M14.5,1.5v13h-13v-13H14.5 M16,0H0v16h16V0L16,0z"/>
	</g>
</g>
</svg>
