<?xml version="1.0" encoding="utf-8"?>
<!-- Generator: Adobe Illustrator 22.0.0, SVG Export Plug-In . SVG Version: 6.00 Build 0)  -->
<svg version="1.1" xmlns="http://www.w3.org/2000/svg" xmlns:xlink="http://www.w3.org/1999/xlink" x="0px" y="0px"
	 viewBox="0 0 16 16" style="enable-background:new 0 0 16 16;" xml:space="preserve">
<style type="text/css">
	.st0{fill:#010101;}
	.st1{display:none;}
	.st2{display:inline;}
	.st3{fill:#FF0000;}
</style>
<g id="Layer_1">
	<path d="M14.3,4.8c-0.1,0-0.1-0.1-0.2-0.1c0,0-0.1,0-0.1,0l-0.2,0.1C12.6,5.3,10.4,6.3,8,6.3c-2.4,0-4.6-1-5.8-1.5L2.1,4.7
		c0,0-0.1,0-0.1,0c-0.1,0-0.1,0-0.2,0.1C1.7,4.8,1.6,4.9,1.6,5.1v1.6c0,0.2,0.1,0.3,0.3,0.3c2.8,0.2,5.2,2.8,5.4,5.9
		c0,0.2,0.2,0.3,0.3,0.3h0.7c0.2,0,0.3-0.1,0.3-0.3c0.2-3.2,2.6-5.8,5.4-5.9c0.2,0,0.3-0.2,0.3-0.3V5.1C14.4,4.9,14.3,4.8,14.3,4.8z
		"/>
</g>
<g id="Margin" class="st1">
	<g class="st2">
		<path class="st3" d="M14.5,1.5v13h-13v-13H14.5 M16,0H0v16h16V0L16,0z"/>
	</g>
</g>
</svg>
