<?xml version="1.0" encoding="utf-8"?>
<!-- Generator: Adobe Illustrator 22.0.0, SVG Export Plug-In . SVG Version: 6.00 Build 0)  -->
<svg version="1.1" xmlns="http://www.w3.org/2000/svg" xmlns:xlink="http://www.w3.org/1999/xlink" x="0px" y="0px"
	 viewBox="0 0 16 16" style="enable-background:new 0 0 16 16;" xml:space="preserve">
<style type="text/css">
	.st0{fill:#010101;}
	.st1{display:none;}
	.st2{display:inline;}
	.st3{fill:#FF0000;}
</style>
<g id="Layer_1">
	<g>
		<path d="M9.3,8.4c0.3,0.3,0.7,0.3,1,0.2c0.2,0,0.3-0.2,0.4-0.3l1.1-1.8c0.2-0.3,0.1-0.8-0.2-1c-0.3-0.2-0.8-0.1-1,0.2l-0.5,0.8
			L8.7,5.3C8.5,5.1,8.2,5,7.9,5c-0.3,0-0.5,0.2-0.7,0.5L5.2,8.9c-0.3,0.4-0.1,1,0.2,1.3l1.8,1.4H5.5c-0.5,0-1,0.4-1,1
			c0,0.5,0.4,1,1,1h4.6c0.4,0,0.8-0.3,0.9-0.7s0-0.8-0.3-1.1L7.6,9.4l1-1.6L9.3,8.4z"/>
		<circle cx="9.6" cy="3.9" r="1.3"/>
	</g>
</g>
<g id="Margin" class="st1">
	<g class="st2">
		<path class="st3" d="M14.5,1.5v13h-13v-13H14.5 M16,0H0v16h16V0L16,0z"/>
	</g>
</g>
</svg>
