<?xml version="1.0" encoding="utf-8"?>
<!-- Generator: Adobe Illustrator 22.0.0, SVG Export Plug-In . SVG Version: 6.00 Build 0)  -->
<svg version="1.1" xmlns="http://www.w3.org/2000/svg" xmlns:xlink="http://www.w3.org/1999/xlink" x="0px" y="0px"
	 viewBox="0 0 16 16" style="enable-background:new 0 0 16 16;" xml:space="preserve">
<style type="text/css">
	.st0{fill:#010101;}
	.st1{display:none;}
	.st2{display:inline;}
	.st3{fill:#FF0000;}
</style>
<g id="Layer_1">
	<g>
		<path d="M9,8.1C9,8,9.1,7.9,9.1,7.8l0.6-0.1c0,0,0.1,0,0.1,0c0,0,0-0.1,0-0.1V6.8c0,0,0-0.1,0-0.1c0,0,0,0-0.1,0L9.1,6.6
			C9.1,6.5,9,6.4,9,6.3C9,6.2,9.1,6.1,9.2,6c0.1-0.1,0.1-0.2,0.2-0.2c0,0,0-0.1,0-0.1c0,0,0-0.1,0-0.1C9.3,5.5,9.1,5.3,8.8,5
			c0,0-0.1,0-0.1,0c0,0-0.1,0-0.1,0L8.1,5.4C8,5.4,7.9,5.3,7.8,5.3L7.7,4.7c0,0,0-0.1,0-0.1c0,0-0.1,0-0.1,0H6.8
			c-0.1,0-0.1,0-0.1,0.1c0,0.1-0.1,0.3-0.1,0.6c-0.1,0-0.2,0.1-0.3,0.1L5.8,5c0,0-0.1,0-0.1,0C5.7,5,5.6,5.1,5.4,5.3
			C5.3,5.4,5.1,5.5,5.1,5.6c0,0,0,0.1,0,0.1c0,0,0,0.1,0,0.1C5.2,6,5.4,6.1,5.5,6.3C5.4,6.4,5.3,6.5,5.3,6.6L4.7,6.7c0,0,0,0-0.1,0
			c0,0,0,0.1,0,0.1v0.8c0,0,0,0.1,0,0.1c0,0,0,0,0.1,0l0.6,0.1c0,0.1,0.1,0.2,0.1,0.3c0,0.1-0.1,0.1-0.2,0.2
			C5.2,8.5,5.1,8.5,5.1,8.6c0,0,0,0.1,0,0.1c0,0,0,0.1,0,0.1c0.1,0.1,0.3,0.3,0.6,0.6c0,0,0.1,0,0.1,0c0,0,0.1,0,0.1,0L6.3,9
			C6.4,9,6.5,9,6.6,9.1l0.1,0.6c0,0,0,0.1,0,0.1c0,0,0.1,0,0.1,0h0.8c0.1,0,0.1,0,0.1-0.1c0-0.1,0.1-0.3,0.1-0.6C7.9,9,8,9,8.1,8.9
			l0.5,0.4c0,0,0.1,0,0.1,0c0.1,0,0.2-0.1,0.3-0.2c0.2-0.2,0.3-0.3,0.3-0.4c0,0,0,0,0-0.1c0,0,0-0.1,0-0.1C9.2,8.4,9.1,8.2,9,8.1z
			 M7.8,7.8C7.7,8,7.5,8.1,7.2,8.1C7,8.1,6.8,8,6.6,7.8C6.4,7.6,6.3,7.4,6.3,7.2c0-0.2,0.1-0.4,0.3-0.6C6.8,6.4,7,6.3,7.2,6.3
			c0.2,0,0.4,0.1,0.6,0.3C8,6.7,8.1,6.9,8.1,7.2C8.1,7.4,8,7.6,7.8,7.8z"/>
		<path d="M13.6,12.5l-2.4-2.4c0.6-0.8,1-1.9,1-2.9c0-1.3-0.5-2.6-1.5-3.5C9.8,2.7,8.5,2.2,7.2,2.2S4.6,2.7,3.7,3.7
			C2.8,4.6,2.3,5.9,2.3,7.2s0.5,2.6,1.5,3.5c0.9,0.9,2.2,1.5,3.5,1.5c1.1,0,2.1-0.4,2.9-1l2.4,2.4c0.1,0.1,0.3,0.2,0.5,0.2
			c0.2,0,0.4-0.1,0.5-0.2C13.9,13.3,13.9,12.8,13.6,12.5z M4.8,9.6c-1.3-1.3-1.3-3.5,0-4.9c0.7-0.7,1.6-1,2.4-1s1.8,0.3,2.4,1
			c1.3,1.3,1.3,3.5,0,4.9c-0.7,0.7-1.6,1-2.4,1S5.4,10.3,4.8,9.6z"/>
	</g>
</g>
<g id="Margin" class="st1">
	<g class="st2">
		<path class="st3" d="M14.5,1.5v13h-13v-13H14.5 M16,0H0v16h16V0L16,0z"/>
	</g>
</g>
</svg>
