<?xml version="1.0" encoding="utf-8"?>
<!-- Generator: Adobe Illustrator 22.0.0, SVG Export Plug-In . SVG Version: 6.00 Build 0)  -->
<svg version="1.1" xmlns="http://www.w3.org/2000/svg" xmlns:xlink="http://www.w3.org/1999/xlink" x="0px" y="0px"
	 viewBox="0 0 16 16" style="enable-background:new 0 0 16 16;" xml:space="preserve">
<style type="text/css">
	.st0{fill:#010101;}
	.st1{display:none;}
	.st2{display:inline;}
	.st3{fill:#FF0000;}
</style>
<g id="Layer_1">
	<g>
		<path d="M13.8,3H2.2C1.9,3,1.5,3.3,1.5,3.7c0,0.4,0.3,0.7,0.7,0.7h0.7C2.9,4.5,2.8,4.7,2.8,4.9V11c0,0.8,0.6,1.4,1.4,1.4h2L5,13.6
			c-0.2,0.2-0.1,0.5,0.2,0.5h1.1c0.1,0,0.2,0,0.2-0.1L8,12.6L9.4,14c0.1,0.1,0.1,0.1,0.2,0.1h1.1c0.3,0,0.4-0.3,0.2-0.5l-1.3-1.3
			h2.1c0.8,0,1.4-0.6,1.4-1.4V4.9c0-0.2,0-0.4-0.1-0.5h0.7c0.4,0,0.7-0.3,0.7-0.7C14.5,3.3,14.1,3,13.8,3z M11.9,11
			c0,0.1-0.1,0.2-0.2,0.2H4.2c-0.1,0-0.2-0.1-0.2-0.2V4.9c0-0.1,0.1-0.2,0.2-0.2h7.5c0.1,0,0.2,0.1,0.2,0.2V11z"/>
		<path d="M10.4,5.2H9.5c-0.1,0-0.2,0.1-0.2,0.2v0.2c0,0.1,0.1,0.2,0.2,0.2h0.2L8.9,6.6C8.6,6.4,8.3,6.3,8,6.3
			c-0.3,0-0.6,0.1-0.9,0.3L7,6.4l0.2-0.2c0,0,0.1-0.1,0.1-0.1c0-0.1,0-0.1-0.1-0.1L7.1,5.8C7,5.7,6.9,5.7,6.8,5.8L6.6,6L6.4,5.8h0.2
			c0.1,0,0.2-0.1,0.2-0.2V5.4c0-0.1-0.1-0.2-0.2-0.2H5.6c-0.1,0-0.2,0.1-0.2,0.2v0.9c0,0.1,0.1,0.2,0.2,0.2h0.2C5.9,6.5,6,6.4,6,6.3
			V6.2l0.2,0.2L6,6.6C5.9,6.7,5.9,6.8,6,6.9L6.1,7c0,0,0.1,0.1,0.1,0.1c0,0,0,0,0,0c0.1,0,0.1,0,0.1-0.1l0.2-0.2l0.1,0.1
			C6.6,7.2,6.5,7.5,6.5,7.8c0,0.7,0.5,1.4,1.3,1.5v0.2H7.4c-0.1,0-0.2,0.1-0.2,0.2v0.2c0,0.1,0.1,0.2,0.2,0.2h0.3v0.4
			c0,0.1,0.1,0.2,0.2,0.2h0.2c0.1,0,0.2-0.1,0.2-0.2v-0.4h0.3c0.1,0,0.2-0.1,0.2-0.2V9.7c0-0.1-0.1-0.2-0.2-0.2H8.3V9.3
			C9,9.2,9.5,8.5,9.5,7.8c0-0.3-0.1-0.6-0.3-0.9L10,6.2v0.2c0,0.1,0.1,0.2,0.2,0.2h0.2c0.1,0,0.2-0.1,0.2-0.2V5.4
			C10.6,5.3,10.5,5.2,10.4,5.2z M8,8.8c-0.5,0-1-0.4-1-1c0-0.5,0.4-1,1-1c0.5,0,1,0.4,1,1C9,8.3,8.5,8.8,8,8.8z"/>
	</g>
</g>
<g id="Margin" class="st1">
	<g class="st2">
		<path class="st3" d="M14.5,1.5v13h-13v-13H14.5 M16,0H0v16h16V0L16,0z"/>
	</g>
</g>
</svg>
