<svg id="Layer_1" data-name="Layer 1" xmlns="http://www.w3.org/2000/svg" width="16" height="16" viewBox="0 0 16 16">
  <title>SexEducation</title>
  <g>
    <path d="M13.76,3H2.24a.7.7,0,1,0,0,1.39h.7a1.45,1.45,0,0,0-.1.51V11a1.4,1.4,0,0,0,1.39,1.39h2L5,13.62a.3.3,0,0,0,.21.51H6.31a.3.3,0,0,0,.21-.08L8,12.61,9.4,14.05a.35.35,0,0,0,.22.08H10.7a.3.3,0,0,0,.22-.51L9.66,12.37h2.11A1.4,1.4,0,0,0,13.16,11V4.87a1.45,1.45,0,0,0-.1-.51h.7a.7.7,0,1,0,0-1.39Zm-1.82,8a.18.18,0,0,1-.17.17H4.23A.18.18,0,0,1,4.06,11V4.87a.18.18,0,0,1,.17-.17h7.54a.18.18,0,0,1,.17.17Z"/>
    <path d="M10.39,5.24H9.47a.18.18,0,0,0-.19.19V5.6a.19.19,0,0,0,.19.19h.18l-.77.77A1.5,1.5,0,0,0,8,6.27a1.54,1.54,0,0,0-.86.27L7,6.41l.24-.24a.19.19,0,0,0,0-.26l-.12-.13a.2.2,0,0,0-.27,0L6.61,6l-.23-.23h.15a.19.19,0,0,0,.19-.19V5.43a.18.18,0,0,0-.19-.19H5.61a.18.18,0,0,0-.18.19v.91a.18.18,0,0,0,.18.19h.18A.19.19,0,0,0,6,6.34V6.16l.24.25L6,6.65a.2.2,0,0,0,0,.27L6.11,7a.19.19,0,0,0,.13,0h0a.19.19,0,0,0,.13,0l.24-.24.13.13a1.5,1.5,0,0,0-.28.87A1.54,1.54,0,0,0,7.72,9.31v.2H7.38a.19.19,0,0,0-.19.19v.17a.18.18,0,0,0,.19.19h.34v.36a.19.19,0,0,0,.18.19h.18a.2.2,0,0,0,.19-.19v-.36H8.6a.18.18,0,0,0,.19-.19V9.7a.19.19,0,0,0-.19-.19H8.27v-.2A1.53,1.53,0,0,0,9.26,7L10,6.19v.15a.19.19,0,0,0,.19.19h.18a.18.18,0,0,0,.18-.19V5.43A.18.18,0,0,0,10.39,5.24ZM8,8.78a1,1,0,1,1,1-1A1,1,0,0,1,8,8.78Z"/>
  </g>
</svg>
