<?xml version="1.0" encoding="utf-8"?>
<!-- Generator: Adobe Illustrator 22.0.0, SVG Export Plug-In . SVG Version: 6.00 Build 0)  -->
<svg version="1.1" xmlns="http://www.w3.org/2000/svg" xmlns:xlink="http://www.w3.org/1999/xlink" x="0px" y="0px"
	 viewBox="0 0 16 16" style="enable-background:new 0 0 16 16;" xml:space="preserve">
<style type="text/css">
	.st0{fill:#010101;}
	.st1{display:none;}
	.st2{display:inline;}
	.st3{fill:#FF0000;}
</style>
<g id="Layer_1">
	<g>
		<path d="M8.9,8.3h-4c-1.4,0-2.5,1.1-2.5,2.5v1.7h6c-0.4-0.5-0.6-1.1-0.6-1.8C7.8,9.8,8.2,8.9,8.9,8.3z"/>
		<circle cx="7.2" cy="5.3" r="2.6"/>
		<path d="M11.1,8.2c-1.4,0-2.6,1.1-2.6,2.6s1.1,2.6,2.6,2.6s2.6-1.1,2.6-2.6S12.5,8.2,11.1,8.2z M12.6,11.1h-1.1v1.1h-0.9v-1.1H9.5
			v-0.9h1.1V9.1h0.9v1.1h1.1V11.1z"/>
	</g>
</g>
<g id="Margin" class="st1">
	<g class="st2">
		<path class="st3" d="M14.5,1.5v13h-13v-13H14.5 M16,0H0v16h16V0L16,0z"/>
	</g>
</g>
</svg>
