<?xml version="1.0" encoding="utf-8"?>
<!-- Generator: Adobe Illustrator 22.0.0, SVG Export Plug-In . SVG Version: 6.00 Build 0)  -->
<svg version="1.1" xmlns="http://www.w3.org/2000/svg" xmlns:xlink="http://www.w3.org/1999/xlink" x="0px" y="0px"
	 viewBox="0 0 16 16" style="enable-background:new 0 0 16 16;" xml:space="preserve">
<style type="text/css">
	.st0{fill:#010101;}
	.st1{display:none;}
	.st2{display:inline;}
	.st3{fill:#FF0000;}
</style>
<g id="Layer_1">
	<path class="st0" d="M12.6,10.5c-0.2-0.2-0.4-0.2-0.6-0.2c0,0,0-3.9,0-3.9c0-2.2-1.8-4-4-4S4,4.2,4,6.4c0,0,0,3.9,0,3.9
		c-0.2,0-0.4,0-0.6,0.2c-0.3,0.3-0.4,0.8-0.1,1.1l4.7,2l4.7-2C12.9,11.2,12.9,10.8,12.6,10.5z M5.2,7.1c0-0.3,0.2-0.6,0.6-0.6H7
		c0.3,0,0.6,0.2,0.6,0.6c0,0.3-0.2,0.6-0.6,0.6H5.8C5.5,7.7,5.2,7.4,5.2,7.1z M8,11c-0.5,0-1-0.4-1-1c0-0.5,0.4-1,1-1
		c0.5,0,1,0.4,1,1C9,10.6,8.5,11,8,11z M10.1,7.7H8.9c-0.3,0-0.6-0.2-0.6-0.6c0-0.3,0.2-0.6,0.6-0.6h1.2c0.3,0,0.6,0.2,0.6,0.6
		C10.7,7.4,10.4,7.7,10.1,7.7z"/>
</g>
<g id="Margin" class="st1">
	<g class="st2">
		<path class="st3" d="M14.5,1.5v13h-13v-13H14.5 M16,0H0v16h16V0L16,0z"/>
	</g>
</g>
</svg>
