<svg id="Layer_1" data-name="Layer 1" xmlns="http://www.w3.org/2000/svg" width="16" height="16" viewBox="0 0 16 16">
  <title>TerrorismMilitants</title>
  <path d="M12.56,10.49a.78.78,0,0,0-.63-.18V6.37a4,4,0,1,0-7.9,0S4,10.3,4,10.3a.76.76,0,0,0-.58.19.8.8,0,0,0-.1,1.13l4.68,2,4.68-2A.8.8,0,0,0,12.56,10.49ZM5.24,7.12a.55.55,0,0,1,.55-.55H7A.56.56,0,0,1,7,7.68H5.79A.56.56,0,0,1,5.24,7.12ZM8,11A1,1,0,0,1,8,9a1,1,0,1,1,0,2Zm2.15-3.34H8.88a.56.56,0,0,1,0-1.11h1.25a.56.56,0,1,1,0,1.11Z" style="fill: #010101"/>
</svg>
