<svg id="Layer_1" data-name="Layer 1" xmlns="http://www.w3.org/2000/svg" xmlns:xlink="http://www.w3.org/1999/xlink" width="30" height="30" viewBox="0 0 30 30">
  <defs>
    <clipPath id="clip-path">
      <rect width="30" height="30" style="fill: none"/>
    </clipPath>
  </defs>
  <title>Websites</title>
  <g style="clip-path: url(#clip-path)">
    <path d="M19.347,16.686a17.92,17.92,0,0,0,.157-2.3,22.427,22.427,0,0,0-.157-2.3h3.895a9.839,9.839,0,0,1,.295,2.3,9.841,9.841,0,0,1-.295,2.3Zm-2.026,6.393a18.452,18.452,0,0,0,1.593-4.092H22.3A9.221,9.221,0,0,1,17.321,23.079Zm-.3-6.393h-5.39a17.744,17.744,0,0,1-.177-2.3,17.474,17.474,0,0,1,.177-2.3h5.39a17.646,17.646,0,0,1,.177,2.3A17.922,17.922,0,0,1,17.026,16.686Zm-2.695,6.865a15.783,15.783,0,0,1-2.2-4.564h4.386A15.5,15.5,0,0,1,14.331,23.551ZM9.767,9.781h-3.4A9.225,9.225,0,0,1,11.341,5.69,17.424,17.424,0,0,0,9.767,9.781Zm-3.4,9.206h3.4a18.452,18.452,0,0,0,1.593,4.092A9.2,9.2,0,0,1,6.364,18.987Zm-.944-2.3a9.841,9.841,0,0,1-.295-2.3,9.839,9.839,0,0,1,.295-2.3H9.315a17.738,17.738,0,0,0-.158,2.3,22.148,22.148,0,0,0,.158,2.3ZM14.331,5.218a15.815,15.815,0,0,1,2.2,4.563H12.128A16.03,16.03,0,0,1,14.331,5.218ZM22.3,9.781h-3.4A18.4,18.4,0,0,0,17.3,5.69,9.2,9.2,0,0,1,22.3,9.781Zm-7.986-6.9A11.508,11.508,0,1,0,25.838,14.384,11.493,11.493,0,0,0,14.311,2.877Z"/>
  </g>
</svg>
