<?xml version="1.0" encoding="UTF-8"?>
<svg viewBox="0 0 30 30" version="1.1" xmlns="http://www.w3.org/2000/svg" xmlns:xlink="http://www.w3.org/1999/xlink">
    <g id="Psiphon-Black" stroke="none" stroke-width="1" fill="none" fill-rule="evenodd">
        <g id="NettestPsiphon" fill="#000000" fill-rule="nonzero">
            <path d="M15,0 C23.2842712,0 30,6.71572875 30,15 C30,23.2842712 23.2842712,30 15,30 C6.71572875,30 0,23.2842712 0,15 C0,6.71572875 6.71572875,0 15,0 Z M22.0673299,5.08474576 L7.61709348,5.08474576 C6.84394594,5.82205499 6.1625805,6.65683366 5.59322034,7.57021673 L11.26971,7.56707256 L8.98604687,25.0801317 C9.99098311,25.4983071 11.0597001,25.7891434 12.175086,25.9322034 L12.6962217,20.738025 L13.1551322,20.345003 L20.4059183,20.345003 L22.3115637,18.6329993 L23.8983051,7.26837585 C23.3693913,6.47289938 22.7549179,5.74030642 22.0673299,5.08474576 Z M19.9454522,8.50560903 L20.2985799,8.89863101 L19.2407523,16.5657037 L18.7818418,16.9587257 L13.6124871,16.9587257 L13.2951388,16.5657037 L14.3529664,8.89863101 L14.7760975,8.50560903 L19.9454522,8.50560903 Z" id="Combined-Shape"></path>
        </g>
    </g>
</svg>
