<?xml version="1.0" encoding="utf-8"?>
<!-- Generator: Adobe Illustrator 23.0.1, SVG Export Plug-In . SVG Version: 6.00 Build 0)  -->
<svg version="1.1" id="Layer_1" xmlns="http://www.w3.org/2000/svg" xmlns:xlink="http://www.w3.org/1999/xlink" x="0px" y="0px"
	 viewBox="0 0 30 30" style="enable-background:new 0 0 30 30;" xml:space="preserve">
<g>
	<path d="M15.2,3.5c1.5,0,3,0.3,4.4,0.9c2.7,1.1,4.9,3.3,6,6c1.2,2.8,1.2,5.9,0,8.7c-1.1,2.7-3.3,4.8-6,6c-1.4,0.6-2.9,0.9-4.4,0.9
		c-1.9,0-3.8-0.5-5.5-1.4l-6.2,2l2-6c-1.9-3.1-2.1-6.8-0.7-10.1c1.1-2.7,3.3-4.8,6-6C12.2,3.8,13.7,3.5,15.2,3.5z M15.2,24
		c1.3,0,2.5-0.3,3.6-0.7c2.3-0.9,4.1-2.7,5-5c1-2.3,1-4.9,0-7.2c-0.9-2.2-2.7-4-5-5c-2.3-1-5-1-7.3,0c-2.3,0.9-4.1,2.7-5,5
		c-1.3,3-0.9,6.5,1,9.1l-1.2,3.5l3.6-1.1C11.6,23.5,13.4,24,15.2,24z M18.2,16.2c0.5,0.2,1,0.4,1.5,0.7c0.5,0.2,0.9,0.5,1.3,0.8
		c0,0.1,0,0.1,0,0.2c0,0.4-0.1,0.8-0.3,1.1c-0.2,0.4-0.6,0.8-1.1,1c-0.5,0.2-1,0.4-1.5,0.4c-1-0.1-2-0.4-2.8-0.9
		c-0.9-0.4-1.8-1-2.5-1.8c-0.8-0.8-1.6-1.8-2.2-2.7c-0.6-0.8-1-1.8-1.1-2.9v-0.1c0-0.9,0.4-1.7,1.1-2.3c0.2-0.2,0.5-0.3,0.8-0.3
		c0.1,0,0.2,0,0.3,0c0.1,0,0.2,0,0.3,0c0.1,0,0.3,0,0.4,0.1c0.1,0.1,0.2,0.3,0.2,0.4c0.1,0.2,0.2,0.6,0.5,1.3
		c0.2,0.4,0.3,0.7,0.4,1.1c-0.1,0.3-0.3,0.6-0.5,0.9c-0.3,0.4-0.5,0.6-0.5,0.7c0,0.1,0,0.2,0.1,0.2c0.4,0.8,0.9,1.5,1.5,2
		c0.7,0.6,1.4,1.1,2.3,1.5c0.1,0.1,0.2,0.1,0.3,0.1c0.1,0,0.4-0.2,0.8-0.7C17.9,16.4,18.1,16.2,18.2,16.2z"/>
</g>
</svg>
