<?xml version="1.0" encoding="utf-8"?>
<!-- Generator: Adobe Illustrator 17.1.0, SVG Export Plug-In . SVG Version: 6.00 Build 0)  -->
<!DOCTYPE svg PUBLIC "-//W3C//DTD SVG 1.1//EN" "http://www.w3.org/Graphics/SVG/1.1/DTD/svg11.dtd">
<svg version="1.1" xmlns="http://www.w3.org/2000/svg" xmlns:xlink="http://www.w3.org/1999/xlink" x="0px" y="0px"
	 viewBox="0 0 382.1 624.2" enable-background="new 0 0 382.1 624.2" xml:space="preserve">
<g id="Layer_1">
</g>
<g id="Logo">
	<g>
		<g>
			<g>
				<g>
					<path d="M311,493.4v-6.9l8.5-0.5l1.8-2.2v-60.6l-1.8-1.7l-8.5-0.5v-6.9h42.1v6.9l-8.7,0.5l-1.9,1.7v60.6l1.9,2.2l8.7,0.5v6.9
						H311z M218.7,493.4v-6.6l7.2-0.7l2.2-2.2v-60.6l-1.6-1.7l-7.9-0.9v-6.5H252v3.2l33.8,52.5v-46.1l-2.1-2.2l-7.7-0.9v-6.5h29.9
						v6.5l-7,0.9l-2.2,2.2v69.6h-18.8l-39.1-60.2v50.6l1.7,2.2l7.9,0.7v6.6H218.7z M168.3,421.5c-6.1,0-11,3-14.7,9
						c-3.6,6-5.4,14.1-5.4,24.4c0,9.6,1.9,17.4,5.6,23.4c3.8,6,8.7,8.9,14.6,8.9s10.7-3,14.3-9.1c3.6-6.1,5.4-14.2,5.4-24.5
						c0-9.8-1.8-17.5-5.5-23.3C179.1,424.4,174.3,421.5,168.3,421.5 M124.8,453.1c0-12.2,4-22,11.9-29.4c8-7.4,18.6-11.1,31.7-11.1
						c5.4,0,10.4,0.7,15,2.2c4.7,1.4,8.8,3.5,12.3,6.2c5.1,4,9.1,8.7,11.8,14.3c2.7,5.6,4.1,11.6,4.1,18.1
						c0,12.3-4.1,22.4-12.4,30.3c-8.2,7.8-18.8,11.8-31.9,11.8c-12.9,0-23.2-3.9-31-11.6C128.7,476.1,124.8,465.8,124.8,453.1
						 M72.5,421.5c-6.1,0-11,3-14.7,9c-3.6,6-5.4,14.1-5.4,24.4c0,9.6,1.9,17.4,5.6,23.4c3.8,6,8.7,8.9,14.6,8.9s10.7-3,14.3-9.1
						c3.6-6.1,5.4-14.2,5.4-24.5c0-9.8-1.8-17.5-5.5-23.3C83.3,424.4,78.5,421.5,72.5,421.5 M29,453.1c0-12.2,4-22,11.9-29.4
						c8-7.4,18.6-11.1,31.7-11.1c5.4,0,10.4,0.7,15,2.2c4.7,1.4,8.8,3.5,12.3,6.2c5.1,4,9.1,8.7,11.8,14.3
						c2.7,5.6,4.1,11.6,4.1,18.1c0,12.3-4.1,22.4-12.4,30.3c-8.2,7.8-18.8,11.8-31.9,11.8c-12.9,0-23.2-3.9-31-11.6
						C32.9,476.1,29,465.8,29,453.1"/>
				</g>
			</g>
			<g>
				<path d="M174,624.2l-5.2-17.4h-26.2l-5.2,17.4h-9.6l22.2-69.2h12l22.1,69.2H174z M144.8,599.1h21.6l-10.7-36.1L144.8,599.1z"/>
				<path d="M227.7,560.4c4.7,3.6,7,8.9,7,16c0,7.6-2.4,13.2-7.3,16.9c-4.9,3.7-11.4,5.5-19.5,5.5h-8.7v25.4h-9.5V555h18.2
					C216.4,555,223,556.8,227.7,560.4z M220.2,588c2.9-2.1,4.4-6,4.4-11.5c0-5-1.5-8.5-4.4-10.7c-2.9-2.2-7.1-3.3-12.5-3.3h-8.5
					v28.8h8.3C213,591.3,217.3,590.2,220.2,588z"/>
				<path d="M252.5,555v69.2h-9.5V555H252.5z"/>
			</g>
			<g>
				<g>
					<line x1="350.7" y1="524.1" x2="26.5" y2="524.1"/>
				</g>
				<g>
					<rect x="26.5" y="518.6" width="324.2" height="11.2"/>
				</g>
			</g>
		</g>
		<g>
			<g>
				<path d="M191,0C85.5,0,0,85.2,0,190.3c0,105.1,85.5,190.3,191,190.3s191-85.2,191-190.3C382.1,85.2,296.5,0,191,0z M191,357
					c-92.5,0-167.4-74.7-167.4-166.7c0-92.1,75-166.7,167.4-166.7s167.4,74.7,167.4,166.7C358.4,282.4,283.5,357,191,357z"/>
			</g>
			<g>
				<path d="M313.2,169.8c-2.9-6.5-8.7-15.2-14.6-24.2c-5.9-9-13.3-18.2-10-36.6S306,84.9,308,81.5c1.6-2.7-3.2-5.5-4.4-6
					c-1.4-0.7-3-1.2-6.8-1.4c-0.2,0-0.5,0-0.7,0c-3.3,0.1-5.1,2.2-6.5,2.7c-1.5,0.5-8.1,0.1-9,0.3c-1,0.2-2.7,2.3-3.1,2.8
					c-0.7,0.9-0.1,1.2-1.1,3.1c-0.9,1.9-7.6,7.4-9.4,10.9c-1,1.8,0.1,5.6-1.1,8.2c-1.2,2.5-4.7,2.4-5.5,5.2c-0.6,2,0.5,8.6-0.4,11.8
					c-0.9,3.3-2.8,1.8-3,5.2c-0.2,4.8,8.3,12.3,9.7,14.5c1.4,2.2,2,3.5,3.8,7.5c2,4.5,4.6,7.2,6.7,9.5c2,2.3,7.5,5.7,9,8.2
					c0.8,1.4-0.1,3.9,0.5,5.6c0.5,1.6,2,3,4.2,6.3c2.3,3.3,1.5,11.8-0.5,17c-2.1,5.2-7.7,12-17.3,14.7c-9.6,2.7-33.7,0.5-43.4-24.8
					c-4.4-11.6-2.4-25.2,8-35.9c10.4-10.7,18.1-27,18.2-44.1c0-36.1-30.8-65.4-67.6-65.4s-66.6,29.3-66.6,65.4
					c0,17.3,7,34,19.8,46.4c12.8,12.4,15.7,24,10.4,34.4c-5.7,11.3-18.7,17.4-40.2,17.5c-18.5,0.2-23.5-9-27.3-14.3
					c-7.2-10.1-3.5-22.3,3.3-30.2c8.2-9.6,14.3-10.4,20.9-6.8c3.6,1.9,8.9,6.4,9,14.5c0.1,4.9-3.2,12.4-3.2,13.3
					c0,1,0.8,1.5,1.6,1.2c0.8-0.4,7.5-3.9,11.3-8.7c3.4-4.3,7-20.1,6.3-22.1c-0.7-2-5.9-6.2-6.2-8.5c-0.2-1.3-0.4-3.1-1-4.5
					c-0.4-1-1.6-1.8-2.2-2.3c-1.6-1.2-5.6,0.3-7.3-1.8c-1.4-1.8-2-5.5-3.9-6c-0.9-0.2-2.5-0.6-4.1-0.3c-2.2,0.4-3.8,1.8-5.5,1.6
					c-2.4-0.3-4.4-4-7.6-3.8c-3.2,0.2-7.3,5.7-11.7,10.5c-4.4,4.8-12.3,10.8-17.8,20.5c-4,7-7.3,15.3-5.6,27.1
					c1.7,11.8,4.6,19.7,14.1,28.4c9.8,8.9,17.7,11.5,23.5,13.5c5.9,2,9.9,3.9,16.2,4.1c2.2,0.1,6.8,0.2,8.4,0
					c3.9-0.4,3.1-2.1,6.7-2.7c14.1-2.3,24.2-9.7,30.3-15.9c1.6-1.6,5.6-5.9,6.4-6.7c0.2,1.1,0.2,4.6,0.1,5.5
					c-0.8,6.2-4.7,9.6-10.9,12.9c-8.9,4.7-21.7,11.6-30.6,17.8c-8.2,5.7-15.4,11.2-17.9,20.3c-2.5,9.1-2,14.3,0.8,20.6
					c2.5,5.7,7.2,11.8,14.9,16.3c6.4,3.7,12,6.9,18.2,10.1c4.3,2.2,11.7,5.9,11.1,13.6c-0.7,7.8-5.8,12-9.2,13.5
					c-5.9,2.6-14.1,3.3-14.4,3.5c-0.6,0.5,7.1,7,13,6.9c6.5,0,8.7-0.5,14.7-2.6c5.2-1.8,7.5-6.3,8.3-6.5s2.1-0.1,3.2-0.9
					c1.1-0.8,4.6-3.5,5-5.1c0.4-1.6,0.5-4.3,0.9-5.7c0.4-1.4,2.1-6.3,2.2-8.9c0.1-2.6,0.8-8.6-1.6-12c-1.9-2.8-0.9-4.3-2.6-5.9
					c-0.3-0.3-1.6-2.1-2.9-2.5c-1.6-0.6-2.5-0.1-3.6-0.7c-1.8-1-4.1-7.9-6.7-8.1c-1-0.1-2.1,0-3.1,0.2c-2.2,0.5-11.8,0.8-13.5,0.1
					c-2.7-1-11.4-6.6-10.6-14.5c0.6-6.9,5.5-11.5,12.2-14c5.9-2.2,8-2,12.1-3.9c4-1.9,6.8-4.3,9.8-5.9c3-1.6,7.2-3.5,10.3-6.1
					c1.8-1.5,3.6-3.2,5.3-5.3c1.4-1.8,4.2-6.7,7.2-9.1c4,6.1,8,11.5,10.9,14.9c7.4,8.5,17.5,13.7,22.2,16.7
					c4.7,2.9,15.6,11,20.2,17.5c5,6.9,2.7,16.4,0,20.1c-2.4,3.1-7.8,7.2-15.2,7c-7.9-0.2-15.6-3.4-20.2-9.4
					c-4.6-6-6.5-17.2-2.5-20.1c4.3-3.2,8.4-1.7,11.1-1.3c2.1,0.3,4-0.8,4.3-2.5c0.3-1.7-0.2-3.7-2.5-5.5c-1.2-0.9-3.4-2.5-6.5-2.5
					c-1.7,0-4.9,0.8-9.2,0.7c-4.6-0.2-9.1,0.3-13.2,4.1c-3.4,3.1-5.3,5.6-6.6,9.5c-0.5,1.5,0.1,4.7-0.1,6.6c-0.2,1.9-1,3.4-1,4.9
					c0,2.2,0.3,4.9,0.8,7.5c0.6,2.9,1.6,6.3,3,9.3c0.5,1.2,1,2.9,1.7,3.7c0.8,0.9,2.5,1.8,4,3.3c2.9,2.8,6.3,6.5,8.9,7.5
					c3.3,1.3,10-1,11.8-0.4c1.9,0.6,4.2,3.5,7.1,3.4c2.9-0.1,20.5-0.9,26.5-3.3c7.6-3,20.7-11.3,23.2-22.9c3.2-14.2-2.8-24-8.9-31.1
					c-7.4-8.8-21.4-20.2-32-27.7c-6-4.3-8.3-7.6-10.7-11.5c-1.8-3-3.7-8-2.7-12.6c4.3,2.3,10.5,9.3,12.4,11.6
					c2.3,2.9,5.3,4.7,7.6,5.8c2,1,4.6,0.4,6.5,0.8c1.9,0.3,0.6,1.9,4,3.1c3.5,1.2,18.8,4,22.4,3.9c1.5-0.1,3.5-1.2,5.9-2
					c2.3-0.7,6.2-1,17-5.2c14.8-5.8,21.1-15.2,26.1-26.5C319.5,190.8,316.1,176.4,313.2,169.8z M178.3,140.6
					c-18,0-32.6-14.6-32.6-32.5c0-18,14.6-32.5,32.6-32.5S211,90.1,211,108.1C211,126.1,196.3,140.6,178.3,140.6z"/>
			</g>
			<g>
				<ellipse cx="174.1" cy="112.8" rx="7.5" ry="7.4"/>
			</g>
		</g>
	</g>
</g>
</svg>
