<?xml version="1.0" encoding="utf-8"?>
<!-- Generator: Adobe Illustrator 17.1.0, SVG Export Plug-In . SVG Version: 6.00 Build 0)  -->
<!DOCTYPE svg PUBLIC "-//W3C//DTD SVG 1.1//EN" "http://www.w3.org/Graphics/SVG/1.1/DTD/svg11.dtd">
<svg version="1.1" xmlns="http://www.w3.org/2000/svg" xmlns:xlink="http://www.w3.org/1999/xlink" x="0px" y="0px"
	 viewBox="0 0 1334.6 227.9" enable-background="new 0 0 1334.6 227.9" xml:space="preserve">
<g id="Layer_1">
</g>
<g id="Logo">
	<g>
		<g id="Page-1_4_">
			<g id="Wordmark-Horizontal_4_">
				<g id="Logo-wordmark-HORIZ_4_" transform="translate(1.000000, 1.000000)">
					<g>
						<g>
							<g>
								<path d="M113.4-1C50.2-1-1,50-1,113s51.2,114,114.4,114s114.4-51,114.4-114S176.6-1,113.4-1z M114.7,211.7
									c-54.6,0-98.8-44.1-98.8-98.4s44.2-98.4,98.8-98.4s98.8,44.1,98.8,98.4S169.3,211.7,114.7,211.7z"/>
							</g>
						</g>
						<g>
							<g>
								<path d="M173.1,89.1c-3.2-4.9-7.2-9.9-5.4-19.9c1.8-10,9.5-13.1,10.6-14.9c0.9-1.5-1.7-3-2.4-3.3c-0.8-0.4-1.6-0.7-3.7-0.8
									c-0.1,0-0.3,0-0.4,0c-1.8,0.1-2.8,1.2-3.5,1.5c-0.8,0.3-4.4,0.1-4.9,0.2c-0.5,0.1-1.5,1.2-1.7,1.5c-0.4,0.5-0.1,0.6-0.6,1.7
									c-0.5,1.1-4.1,4-5.1,5.9c-0.5,1,0.1,3.1-0.6,4.4c-0.6,1.4-2.6,1.3-3,2.8c-0.3,1.1,0.3,4.7-0.2,6.4c-0.5,1.8-1.5,1-1.6,2.8
									c-0.1,2.6,4.5,6.7,5.3,7.9c0.8,1.2,1.1,1.9,2.1,4.1c1.1,2.4,2.5,3.9,3.6,5.2c1.1,1.2,4.1,3.1,4.9,4.4c0.4,0.7,0,2.1,0.3,3.1
									c0.3,0.9,1.1,1.6,2.3,3.4c1.2,1.8,0.8,6.4-0.3,9.2c-1.1,2.8-4.2,6.5-9.4,8c-5.2,1.5-18.3,0.3-23.6-13.4
									c-2.4-6.3-1.3-13.7,4.3-19.5c5.6-5.8,9.8-14.7,9.9-23.9c0-19.6-16.7-35.5-36.7-35.5S77.1,46.1,77.1,65.7
									c0,9.4,3.8,18.4,10.8,25.2c6.9,6.8,8.5,13,5.7,18.7c-3.1,6.1-10.2,9.4-21.8,9.5c-10.1,0.1-12.8-4.9-14.8-7.7
									c-3.9-5.5-1.9-12.1,1.8-16.4c4.5-5.2,7.7-5.6,11.4-3.7c1.9,1,4.8,3.5,4.9,7.9c0,2.6-1.8,6.7-1.8,7.2s0.4,0.8,0.9,0.6
									c0.5-0.2,4.1-2.1,6.2-4.7c1.8-2.4,3.8-10.9,3.4-12c-0.4-1.1-3.2-3.4-3.4-4.6c-0.1-0.7-0.2-1.7-0.5-2.4
									c-0.2-0.5-0.9-1-1.2-1.3c-0.8-0.6-3,0.2-4-1c-0.8-1-1.1-3-2.1-3.3c-0.5-0.1-1.4-0.3-2.2-0.1c-1.2,0.2-2.1,1-3,0.8
									c-1.3-0.2-2.4-2.2-4.1-2.1c-1.7,0.1-4,3.1-6.4,5.7c-2.4,2.6-6.7,5.8-9.7,11.1c-2.2,3.8-4,8.3-3,14.7
									c0.9,6.4,2.5,10.7,7.7,15.4c5.3,4.8,9.6,6.2,12.8,7.3c3.2,1.1,5.4,2.1,8.8,2.2c1.2,0,3.7,0.1,4.5,0c2.1-0.2,1.7-1.2,3.7-1.5
									c7.7-1.3,13.2-5.3,16.5-8.6c0.8-0.9,3.1-3.2,3.5-3.6c0.1,0.6,0.1,2.5,0.1,3c-0.5,3.4-2.6,5.2-5.9,7
									c-4.8,2.6-11.8,6.3-16.6,9.7c-4.4,3.1-8.3,6.1-9.7,11c-1.4,4.9-1.1,7.8,0.4,11.2c1.4,3.1,3.9,6.4,8.1,8.8
									c3.5,2,6.5,3.8,9.9,5.5c2.3,1.2,6.4,3.2,6,7.4c-0.4,4.3-3.1,6.5-5,7.3c-3.2,1.4-7.7,1.8-7.8,1.9c-0.3,0.3,3.9,3.8,7.1,3.8
									c3.5,0,4.7-0.3,8-1.4c2.8-1,4.1-3.4,4.5-3.5c0.5-0.1,1.1,0,1.7-0.5c0.6-0.4,2.5-1.9,2.7-2.8c0.2-0.9,0.3-2.3,0.5-3.1
									c0.2-0.8,1.1-3.4,1.2-4.8c0-1.4,0.4-4.7-0.9-6.5c-1.1-1.5-0.5-2.4-1.4-3.2c-0.1-0.1-0.9-1.1-1.6-1.4c-0.9-0.3-1.3,0-2-0.4
									c-1-0.6-2.2-4.3-3.7-4.4c-0.5,0-1.1,0-1.7,0.1c-1.2,0.3-6.4,0.4-7.3,0.1c-1.4-0.6-6.2-3.6-5.8-7.9c0.3-3.7,3-6.3,6.6-7.6
									c3.2-1.2,4.4-1.1,6.6-2.1c2.2-1,3.7-2.4,5.3-3.2c1.6-0.9,3.9-1.9,5.6-3.3c1-0.8,1.9-1.7,2.9-2.9c0.8-1,2.3-3.6,3.9-5
									c2.2,3.3,4.3,6.3,5.9,8.1c4,4.6,9.5,7.5,12.1,9.1c2.6,1.6,8.5,6,11,9.5c2.7,3.8,1.5,8.9,0,10.9c-1.3,1.7-4.2,3.9-8.3,3.8
									c-4.3-0.1-8.4-1.9-11-5.1c-2.5-3.2-3.5-9.3-1.4-10.9c2.3-1.7,4.6-0.9,6-0.7c1.1,0.1,2.2-0.5,2.4-1.4c0.2-0.9-0.1-2-1.4-3
									c-0.7-0.5-1.9-1.4-3.5-1.3c-0.9,0-2.6,0.5-5,0.4c-2.5-0.1-4.9,0.2-7.2,2.2c-1.8,1.7-2.9,3-3.6,5.2c-0.3,0.8,0.1,2.6-0.1,3.6
									c-0.1,1-0.5,1.9-0.6,2.7c0,1.2,0.2,2.7,0.5,4.1c0.3,1.6,0.9,3.4,1.6,5.1c0.3,0.7,0.5,1.6,0.9,2c0.5,0.5,1.3,1,2.2,1.8
									c1.6,1.5,3.4,3.5,4.8,4.1c1.8,0.7,5.4-0.5,6.4-0.2c1,0.3,2.3,1.9,3.9,1.8c1.6,0,11.1-0.5,14.4-1.8
									c4.1-1.6,11.2-6.1,12.6-12.4c1.7-7.7-1.5-13-4.8-16.9c-4-4.8-11.6-11-17.4-15c-3.3-2.3-4.5-4.1-5.8-6.3
									c-1-1.6-2-4.3-1.5-6.9c2.4,1.2,5.7,5.1,6.7,6.3c1.3,1.6,2.9,2.5,4.1,3.1c1.1,0.5,2.5,0.2,3.5,0.4c1.1,0.2,0.3,1,2.2,1.7
									c1.9,0.6,10.2,2.2,12.2,2.1c0.8,0,1.9-0.7,3.2-1.1c1.2-0.4,3.4-0.6,9.2-2.8c8.1-3.1,11.4-8.3,14.2-14.4s0.9-13.9-0.7-17.5
									C179.5,98.7,176.4,94,173.1,89.1z M107.8,86.3c-9.8,0-17.7-7.9-17.7-17.7c0-9.8,7.9-17.7,17.7-17.7s17.7,7.9,17.7,17.7
									C125.5,78.4,117.6,86.3,107.8,86.3z"/>
							</g>
						</g>
						<g>
							<g>
								<ellipse cx="105.5" cy="71.2" rx="4.1" ry="4"/>
							</g>
						</g>
					</g>
					<g id="Wordmark_4_" transform="translate(206.000000, 68.000000)">
						<g id="Fill-10_4_">
							<g>
								<path d="M58.7,50.2c0-16.8,5.5-30.4,16.5-40.6C86.3-0.7,101-5.9,119.2-5.9c7.5,0,14.4,1,20.9,3c6.5,2,12.2,4.8,17.1,8.6
									c7.1,5.5,12.6,12.1,16.4,19.8c3.8,7.7,5.7,16.1,5.7,25.1c0,17-5.7,30.9-17.2,41.8c-11.4,10.8-26.1,16.3-44.2,16.3
									c-17.8,0-32.2-5.4-43-16.1C64.1,81.9,58.7,67.7,58.7,50.2L58.7,50.2z M119.1,6.4c-8.5,0-15.3,4.1-20.4,12.4
									c-5,8.3-7.5,19.5-7.5,33.7c0,13.3,2.6,24.1,7.8,32.4c5.3,8.2,12,12.4,20.2,12.4S134,93.1,139,84.7c5-8.4,7.5-19.7,7.5-33.9
									c0-13.5-2.5-24.3-7.6-32.3C134,10.4,127.3,6.4,119.1,6.4L119.1,6.4z M191.5,50.2c0-16.8,5.5-30.4,16.5-40.6
									c11.1-10.3,25.8-15.4,44-15.4c7.5,0,14.4,1,20.9,3c6.5,2,12.2,4.8,17.1,8.6c7.1,5.5,12.6,12.1,16.4,19.8
									c3.8,7.7,5.7,16.1,5.7,25.1c0,17-5.7,30.9-17.2,41.8c-11.4,10.8-26.1,16.3-44.2,16.3c-17.8,0-32.2-5.4-43-16.1
									C196.9,81.9,191.5,67.7,191.5,50.2L191.5,50.2z M251.9,6.4c-8.5,0-15.3,4.1-20.4,12.4c-5,8.3-7.5,19.5-7.5,33.7
									c0,13.3,2.6,24.1,7.8,32.4c5.3,8.2,12,12.4,20.2,12.4c8.2,0,14.8-4.2,19.8-12.6c5-8.4,7.5-19.7,7.5-33.9
									c0-13.5-2.5-24.3-7.6-32.3C266.8,10.4,260.1,6.4,251.9,6.4L251.9,6.4z M321.7,105.9v-9.2l10-1l3.1-3.1V9l-2.2-2.4l-10.9-1.2
									v-8.9h46.2v4.4l46.9,72.6V9.7l-2.9-3.1l-10.7-1.2v-8.9h41.5v8.9L433,6.6l-3.1,3.1v96.3h-26l-54.2-83.2v70l2.3,3.1l10.9,1
									v9.2H321.7z M449.7,105.9v-9.5l11.8-0.6l2.6-3.1V9l-2.6-2.4l-11.8-0.6v-9.5h58.4v9.5L496,6.6L493.4,9v83.8l2.6,3.1l12.1,0.6
									v9.5H449.7z"/>
							</g>
						</g>
					</g>
				</g>
			</g>
		</g>
		<g>
			<g>
				<g>
					<line x1="780.2" y1="31.2" x2="780.2" y2="212.7"/>
				</g>
			</g>
			<g>
				<g>
					<rect x="772.9" y="31.2" width="14.6" height="181.5"/>
				</g>
			</g>
		</g>
		<g>
			<g>
				<path d="M891.8,67.5l-1.7,11.4h-40.2v33.9h34.9v11.4h-34.9v35.5H893v11.4h-57.4V67.5H891.8z"/>
			</g>
			<g>
				<path d="M938.4,128.8l27.6,42.5h-16.7l-19.4-33.6L910,171.3h-15.7l27.7-41.9l-24.6-37.5h16.3l16.6,29.1l16.7-29.1h15.7
					L938.4,128.8z"/>
			</g>
			<g>
				<path d="M1032.2,100.9c4.7,7.2,7.1,17.4,7.1,30.6c0,12.5-2.7,22.5-8.1,30.1c-5.4,7.6-13.1,11.4-23,11.4c-8.8,0-15.8-3-20.8-9
					v37.7l-13.9,1.7V91.9h11.9l1.1,10.7c2.9-4,6.4-7.1,10.5-9.3c4.1-2.2,8.4-3.2,13-3.2C1020,90.1,1027.5,93.7,1032.2,100.9z
					 M1024.4,131.5c0-20.3-6-30.4-17.9-30.4c-3.9,0-7.5,1.2-10.7,3.5c-3.2,2.3-6,5.3-8.4,8.9v38.7c2,3.1,4.5,5.5,7.5,7.2
					c3,1.7,6.3,2.5,9.9,2.5C1017.8,161.8,1024.4,151.7,1024.4,131.5z"/>
			</g>
			<g>
				<path d="M1059.1,168.5c-3-3.1-4.4-7.4-4.4-12.9V60l13.9-1.7v97c0,2.2,0.4,3.8,1.1,4.8c0.8,1,2,1.5,3.8,1.5
					c1.9,0,3.6-0.3,5.1-0.9l3.6,9.6c-3.3,1.8-7,2.7-11,2.7C1066.1,173.1,1062,171.5,1059.1,168.5z"/>
			</g>
			<g>
				<path d="M1147,101.2c6.2,7.4,9.3,17.5,9.3,30.3c0,8.2-1.4,15.5-4.2,21.8c-2.8,6.3-6.9,11.1-12.2,14.6c-5.3,3.5-11.6,5.2-19,5.2
					c-11.1,0-19.8-3.7-26.1-11.1c-6.2-7.4-9.3-17.5-9.3-30.3c0-8.2,1.4-15.5,4.2-21.8c2.8-6.3,6.9-11.1,12.2-14.6
					c5.3-3.5,11.7-5.2,19.1-5.2C1132.2,90.1,1140.9,93.8,1147,101.2z M1100.4,131.6c0,20.2,6.8,30.3,20.5,30.3
					c13.7,0,20.5-10.1,20.5-30.4c0-20.2-6.8-30.3-20.3-30.3C1107.3,101.2,1100.4,111.4,1100.4,131.6z"/>
			</g>
			<g>
				<path d="M1214,91l-2.6,13.6c-2.4-0.6-4.7-0.9-6.9-0.9c-4.9,0-8.9,1.8-11.9,5.4c-3,3.6-5.4,9.2-7.1,16.9v45.3h-13.9V91.9h11.9
					l1.4,16.1c2.1-5.9,5-10.4,8.6-13.4c3.6-3,7.8-4.5,12.7-4.5C1209,90.1,1211.6,90.4,1214,91z"/>
			</g>
			<g>
				<path d="M1277.4,136.3h-50.6c0.6,8.7,2.8,15.2,6.6,19.3c3.8,4.1,8.7,6.2,14.8,6.2c3.8,0,7.3-0.6,10.5-1.7
					c3.2-1.1,6.6-2.9,10.1-5.3l6,8.3c-8.4,6.6-17.7,9.9-27.7,9.9c-11,0-19.7-3.6-25.8-10.8c-6.2-7.2-9.3-17.2-9.3-29.8
					c0-8.2,1.3-15.5,4-21.9c2.7-6.4,6.5-11.4,11.4-15s10.8-5.4,17.5-5.4c10.5,0,18.6,3.5,24.3,10.4c5.6,6.9,8.4,16.5,8.4,28.8
					C1277.7,131.5,1277.6,133.9,1277.4,136.3z M1264,125.2c0-7.8-1.6-13.8-4.7-17.9c-3.1-4.1-7.8-6.2-14-6.2
					c-11.3,0-17.5,8.3-18.5,25h37.2V125.2z"/>
			</g>
			<g>
				<path d="M1334.6,91l-2.6,13.6c-2.4-0.6-4.7-0.9-6.9-0.9c-4.9,0-8.9,1.8-11.9,5.4c-3,3.6-5.4,9.2-7.1,16.9v45.3h-13.9V91.9h11.9
					l1.4,16.1c2.1-5.9,5-10.4,8.6-13.4c3.6-3,7.8-4.5,12.7-4.5C1329.6,90.1,1332.2,90.4,1334.6,91z"/>
			</g>
		</g>
	</g>
</g>
</svg>
