<?xml version="1.0" encoding="utf-8"?>
<!-- Generator: Adobe Illustrator 17.1.0, SVG Export Plug-In . SVG Version: 6.00 Build 0)  -->
<!DOCTYPE svg PUBLIC "-//W3C//DTD SVG 1.1//EN" "http://www.w3.org/Graphics/SVG/1.1/DTD/svg11.dtd">
<svg version="1.1" xmlns="http://www.w3.org/2000/svg" xmlns:xlink="http://www.w3.org/1999/xlink" x="0px" y="0px"
	 viewBox="0 0 363.3 637" enable-background="new 0 0 363.3 637" xml:space="preserve">
<g id="Layer_1">
</g>
<g id="Logo">
	<g>
		<g>
			<g>
				<g>
					<g>
						<path fill="#FFFFFF" d="M181.7,0C81.3,0,0,81.3,0,181.7C0,282,81.3,363.3,181.7,363.3c100.3,0,181.7-81.3,181.7-181.7
							C363.3,81.3,282,0,181.7,0z M304.9,193.5c-5,11.3-11.2,20.7-26.1,26.5c-10.8,4.2-14.7,4.5-17,5.3c-2.4,0.7-4.4,1.9-5.9,2
							c-3.7,0.1-19-2.7-22.4-3.9c-3.5-1.2-2.1-2.8-4-3.1c-1.9-0.3-4.5,0.2-6.5-0.8c-2.3-1.1-5.3-2.9-7.6-5.8
							c-1.8-2.3-8-9.3-12.3-11.6c-0.9,4.6,0.9,9.7,2.7,12.6c2.3,3.9,4.6,7.2,10.6,11.5c10.5,7.6,24.5,18.9,31.9,27.8
							c6,7.1,12,16.9,8.9,31.2c-2.6,11.6-15.6,19.9-23.2,22.9c-6.1,2.4-23.6,3.2-26.5,3.3c-2.9,0.1-5.2-2.8-7.1-3.4
							c-1.9-0.6-8.5,1.7-11.8,0.4c-2.6-1-6-4.7-8.9-7.5c-1.5-1.5-3.1-2.4-4-3.3c-0.7-0.7-1.1-2.4-1.7-3.7c-1.3-3-2.4-6.4-3-9.3
							c-0.5-2.6-0.9-5.3-0.8-7.6c0-1.5,0.8-3,1-4.9c0.2-1.9-0.4-5.1,0.1-6.6c1.3-3.9,3.2-6.4,6.6-9.5c4.1-3.8,8.6-4.3,13.2-4.1
							c4.3,0.1,7.5-0.7,9.1-0.7c3.1,0,5.3,1.5,6.5,2.5c2.3,1.8,2.8,3.8,2.5,5.5c-0.3,1.7-2.3,2.8-4.3,2.5c-2.6-0.3-6.8-1.8-11,1.3
							c-4,3-2.1,14.2,2.5,20.2c4.7,6,12.3,9.3,20.2,9.4c7.4,0.2,12.8-3.9,15.2-7c2.7-3.6,5-13.1,0-20.1
							c-4.6-6.5-15.5-14.6-20.2-17.6c-4.7-3-14.8-8.2-22.2-16.7c-2.9-3.4-6.8-8.8-10.9-14.9c-2.9,2.4-5.7,7.3-7.1,9.2
							c-1.7,2.1-3.5,3.8-5.2,5.3c-3.1,2.6-7.2,4.5-10.3,6.1c-3,1.6-5.8,4-9.8,5.9c-4,1.9-6.1,1.7-12.1,3.9
							c-6.6,2.4-11.5,7.1-12.2,14c-0.7,8,8,13.6,10.6,14.6c1.7,0.7,11.3,0.4,13.5-0.1c1-0.2,2.1-0.3,3.1-0.2
							c2.7,0.2,4.9,7.1,6.7,8.1c1.2,0.6,2,0.1,3.6,0.7c1.2,0.5,2.6,2.3,2.9,2.5c1.6,1.5,0.6,3,2.6,5.9c2.3,3.4,1.7,9.4,1.6,12
							c-0.1,2.6-1.8,7.5-2.2,8.9c-0.4,1.4-0.5,4.1-0.9,5.7c-0.4,1.6-3.9,4.3-5,5.1c-1.1,0.8-2.4,0.7-3.2,0.9
							c-0.8,0.2-3.1,4.7-8.3,6.5c-6,2.1-8.3,2.5-14.7,2.6c-5.9,0-13.6-6.5-13-7c0.3-0.3,8.5-1,14.4-3.5c3.5-1.5,8.5-5.7,9.2-13.5
							c0.7-7.8-6.8-11.5-11-13.6c-6.2-3.2-11.8-6.4-18.2-10.1c-7.8-4.5-12.4-10.6-14.9-16.3c-2.8-6.3-3.3-11.5-0.8-20.6
							c2.5-9.1,9.7-14.7,17.9-20.4c8.8-6.2,21.7-13.1,30.5-17.8c6.2-3.3,10.1-6.8,10.9-13c0.1-0.9,0.1-4.4-0.1-5.5
							c-0.8,0.8-4.8,5.1-6.4,6.7c-6.1,6.2-16.2,13.6-30.3,15.9c-3.6,0.6-2.8,2.3-6.7,2.7c-1.5,0.2-6.2,0-8.4,0
							c-6.3-0.2-10.4-2.1-16.2-4.1c-5.8-2-13.7-4.6-23.5-13.5c-9.5-8.7-12.4-16.6-14.1-28.4c-1.7-11.8,1.6-20.1,5.6-27.2
							c5.5-9.7,13.4-15.7,17.8-20.5c4.4-4.8,8.5-10.3,11.7-10.5c3.2-0.2,5.3,3.5,7.6,3.8c1.7,0.2,3.4-1.1,5.5-1.6
							c1.5-0.3,3.2,0,4.1,0.3c1.9,0.5,2.5,4.2,3.9,6c1.7,2.1,5.7,0.6,7.3,1.8c0.6,0.5,1.8,1.4,2.2,2.3c0.6,1.4,0.8,3.1,1,4.5
							c0.4,2.3,5.5,6.5,6.2,8.5c0.7,2-2.9,17.8-6.3,22.2c-3.8,4.9-10.5,8.4-11.3,8.8c-0.8,0.4-1.6-0.2-1.6-1.2s3.3-8.5,3.2-13.4
							c-0.1-8.2-5.4-12.6-9-14.6c-6.7-3.6-12.7-2.8-20.9,6.8c-6.7,7.9-10.5,20.2-3.3,30.3c3.8,5.3,8.8,14.5,27.2,14.3
							c21.5-0.2,34.5-6.3,40.2-17.6c5.2-10.4,2.3-22-10.4-34.5s-19.8-29.1-19.8-46.5c0-36.2,29.8-65.6,66.5-65.6
							s67.5,29.4,67.5,65.6c0,17.1-7.8,33.5-18.1,44.2c-10.4,10.7-12.4,24.3-8,36c9.6,25.3,33.7,27.5,43.3,24.8s15.2-9.5,17.3-14.7
							c2.1-5.2,2.8-13.7,0.5-17c-2.3-3.3-3.7-4.7-4.2-6.3c-0.5-1.7,0.3-4.3-0.5-5.6c-1.4-2.4-6.9-5.9-8.9-8.2
							c-2-2.3-4.7-5.1-6.6-9.5c-1.8-4-2.3-5.3-3.8-7.5c-1.4-2.2-9.9-9.8-9.7-14.5c0.1-3.4,2-1.9,3-5.2c0.9-3.2-0.2-9.8,0.4-11.8
							c0.8-2.8,4.3-2.6,5.5-5.2c1.2-2.5,0.1-6.3,1.1-8.2c1.8-3.4,8.4-9,9.4-10.9c0.9-1.9,0.4-2.2,1.1-3.1c0.4-0.5,2.1-2.6,3.1-2.8
							c0.9-0.2,7.5,0.2,8.9-0.3c1.4-0.5,3.2-2.6,6.5-2.7c0.2,0,0.5,0,0.7,0c3.8,0.2,5.4,0.7,6.8,1.4c1.2,0.6,6,3.3,4.4,6
							c-2,3.4-16.1,9.1-19.4,27.6s4.1,27.7,10,36.7s11.6,17.7,14.6,24.3C306.6,167.7,310,182.2,304.9,193.5z"/>
					</g>
				</g>
				<g>
					<g>
						<path fill="#FFFFFF" d="M169,66.7c-18,0-32.6,14.6-32.6,32.6c0,18,14.6,32.6,32.6,32.6s32.6-14.6,32.6-32.6
							C201.6,81.3,187,66.7,169,66.7z M164.8,111.4c-4.1,0-7.5-3.3-7.5-7.5c0-4.1,3.3-7.5,7.5-7.5c4.1,0,7.5,3.3,7.5,7.5
							C172.2,108.1,168.9,111.4,164.8,111.4z"/>
					</g>
				</g>
			</g>
			<g>
				<g>
					<path fill="#FFFFFF" d="M301.6,484.8V478l8.5-0.5l1.8-2.2v-60.6l-1.8-1.7l-8.5-0.5v-6.9h42.1v6.9l-8.7,0.5l-1.9,1.7v60.6
						l1.9,2.2l8.7,0.5v6.9H301.6z M209.3,484.8v-6.6l7.2-0.7l2.2-2.2v-60.6l-1.6-1.7l-7.9-0.9v-6.5h33.3v3.2l33.8,52.5v-46.1
						l-2.1-2.2l-7.7-0.9v-6.5h29.9v6.5l-7,0.9l-2.2,2.2v69.6h-18.8l-39.1-60.2v50.6l1.7,2.2l7.9,0.7v6.6H209.3z M159,412.9
						c-6.1,0-11,3-14.7,9c-3.6,6-5.4,14.1-5.4,24.4c0,9.6,1.9,17.4,5.6,23.4c3.8,6,8.7,8.9,14.6,8.9c5.9,0,10.7-3,14.3-9.1
						c3.6-6.1,5.4-14.2,5.4-24.5c0-9.8-1.8-17.5-5.5-23.3C169.7,415.8,164.9,412.9,159,412.9 M115.4,444.5c0-12.2,4-22,11.9-29.4
						c8-7.4,18.6-11.1,31.7-11.1c5.4,0,10.4,0.7,15,2.2c4.7,1.4,8.8,3.5,12.3,6.2c5.1,4,9.1,8.7,11.8,14.3
						c2.7,5.6,4.1,11.6,4.1,18.1c0,12.3-4.1,22.4-12.4,30.3c-8.2,7.8-18.8,11.8-31.9,11.8c-12.9,0-23.2-3.9-31-11.6
						C119.3,467.5,115.4,457.2,115.4,444.5 M63.2,412.9c-6.1,0-11,3-14.7,9c-3.6,6-5.4,14.1-5.4,24.4c0,9.6,1.9,17.4,5.6,23.4
						c3.8,6,8.7,8.9,14.6,8.9s10.7-3,14.3-9.1c3.6-6.1,5.4-14.2,5.4-24.5c0-9.8-1.8-17.5-5.5-23.3C73.9,415.8,69.1,412.9,63.2,412.9
						 M19.6,444.5c0-12.2,4-22,11.9-29.4c8-7.4,18.6-11.1,31.7-11.1c5.4,0,10.4,0.7,15,2.2c4.7,1.4,8.8,3.5,12.3,6.2
						c5.1,4,9.1,8.7,11.8,14.3c2.7,5.6,4.1,11.6,4.1,18.1c0,12.3-4.1,22.4-12.4,30.3c-8.2,7.8-18.8,11.8-31.9,11.8
						c-12.9,0-23.2-3.9-31-11.6C23.5,467.5,19.6,457.2,19.6,444.5"/>
				</g>
			</g>
		</g>
		<g>
			<g>
				<path fill="#FFFFFF" d="M61.1,546.4L60,554H33.2v22.6h23.3v7.6H33.2V608h28.7v7.6H23.6v-69.2H61.1z"/>
			</g>
			<g>
				<path fill="#FFFFFF" d="M92.1,587.3l18.4,28.3H99.3l-13-22.4l-13.2,22.4H62.8l18.5-27.9l-16.4-25h10.8l11,19.4l11.1-19.4h10.4
					L92.1,587.3z"/>
			</g>
			<g>
				<path fill="#FFFFFF" d="M154.7,568.7c3.1,4.8,4.7,11.6,4.7,20.4c0,8.3-1.8,15-5.4,20.1c-3.6,5.1-8.7,7.6-15.4,7.6
					c-5.9,0-10.5-2-13.9-6v25.1l-9.2,1.1v-74.3h7.9l0.7,7.1c1.9-2.7,4.3-4.7,7-6.2c2.7-1.4,5.6-2.2,8.6-2.2
					C146.6,561.5,151.5,563.9,154.7,568.7z M149.4,589.1c0-13.5-4-20.3-11.9-20.3c-2.6,0-5,0.8-7.1,2.3c-2.1,1.5-4,3.5-5.6,5.9v25.8
					c1.3,2.1,3,3.7,5,4.8c2,1.1,4.2,1.7,6.6,1.7C145.1,609.3,149.4,602.5,149.4,589.1z"/>
			</g>
			<g>
				<path fill="#FFFFFF" d="M172.6,613.7c-2-2-3-4.9-3-8.6v-63.8l9.2-1.1V605c0,1.5,0.3,2.5,0.8,3.2c0.5,0.7,1.4,1,2.6,1
					c1.3,0,2.4-0.2,3.4-0.6l2.4,6.4c-2.2,1.2-4.7,1.8-7.3,1.8C177.2,616.8,174.5,615.8,172.6,613.7z"/>
			</g>
			<g>
				<path fill="#FFFFFF" d="M231.2,568.9c4.1,5,6.2,11.7,6.2,20.2c0,5.5-0.9,10.3-2.8,14.5c-1.9,4.2-4.6,7.4-8.1,9.7
					c-3.5,2.3-7.8,3.5-12.7,3.5c-7.4,0-13.2-2.5-17.4-7.4c-4.2-5-6.2-11.7-6.2-20.2c0-5.5,0.9-10.3,2.8-14.5
					c1.9-4.2,4.6-7.4,8.1-9.7c3.5-2.3,7.8-3.5,12.8-3.5C221.3,561.5,227.1,564,231.2,568.9z M200.1,589.2c0,13.5,4.6,20.2,13.7,20.2
					c9.1,0,13.7-6.8,13.7-20.3c0-13.5-4.5-20.2-13.6-20.2C204.7,568.9,200.1,575.7,200.1,589.2z"/>
			</g>
			<g>
				<path fill="#FFFFFF" d="M275.9,562.1l-1.7,9c-1.6-0.4-3.1-0.6-4.6-0.6c-3.3,0-5.9,1.2-7.9,3.6c-2,2.4-3.6,6.2-4.7,11.2v30.2
					h-9.2v-52.9h7.9l0.9,10.7c1.4-3.9,3.3-6.9,5.7-8.9s5.2-3,8.4-3C272.5,561.5,274.2,561.7,275.9,562.1z"/>
			</g>
			<g>
				<path fill="#FFFFFF" d="M318.1,592.3h-33.7c0.4,5.8,1.9,10.1,4.4,12.9c2.5,2.7,5.8,4.1,9.8,4.1c2.5,0,4.9-0.4,7-1.1
					c2.1-0.7,4.4-1.9,6.7-3.5l4,5.5c-5.6,4.4-11.8,6.6-18.5,6.6c-7.4,0-13.1-2.4-17.2-7.2c-4.1-4.8-6.2-11.4-6.2-19.9
					c0-5.5,0.9-10.4,2.7-14.6c1.8-4.3,4.3-7.6,7.6-10c3.3-2.4,7.2-3.6,11.7-3.6c7,0,12.4,2.3,16.2,6.9c3.7,4.6,5.6,11,5.6,19.2
					C318.3,589.1,318.3,590.7,318.1,592.3z M309.2,584.9c0-5.2-1-9.2-3.1-11.9c-2.1-2.7-5.2-4.1-9.3-4.1c-7.6,0-11.7,5.6-12.4,16.7
					h24.8V584.9z"/>
			</g>
			<g>
				<path fill="#FFFFFF" d="M356.3,562.1l-1.7,9c-1.6-0.4-3.1-0.6-4.6-0.6c-3.3,0-5.9,1.2-7.9,3.6c-2,2.4-3.6,6.2-4.7,11.2v30.2
					h-9.2v-52.9h7.9l0.9,10.7c1.4-3.9,3.3-6.9,5.7-8.9s5.2-3,8.4-3C352.9,561.5,354.7,561.7,356.3,562.1z"/>
			</g>
		</g>
		<g>
			<g>
				<g>
					<line fill="#FFFFFF" x1="341.3" y1="515.5" x2="17.2" y2="515.5"/>
				</g>
			</g>
			<g>
				<g>
					<rect x="17.2" y="510" fill="#FFFFFF" width="324.2" height="11.2"/>
				</g>
			</g>
		</g>
	</g>
</g>
</svg>
