<?xml version="1.0" encoding="utf-8"?>
<!-- Generator: Adobe Illustrator 17.1.0, SVG Export Plug-In . SVG Version: 6.00 Build 0)  -->
<!DOCTYPE svg PUBLIC "-//W3C//DTD SVG 1.1//EN" "http://www.w3.org/Graphics/SVG/1.1/DTD/svg11.dtd">
<svg version="1.1" xmlns="http://www.w3.org/2000/svg" xmlns:xlink="http://www.w3.org/1999/xlink" x="0px" y="0px"
	 viewBox="0 0 380.55 380.55" enable-background="new 0 0 380.55 380.55" xml:space="preserve">
<g id="Layer_1">
</g>
<g id="Logo">
	<g>
		<path d="M190.275,0C85.19,0,0,85.189,0,190.275C0,295.36,85.19,380.55,190.275,380.55c105.085,0,190.275-85.19,190.275-190.275
			C380.55,85.189,295.36,0,190.275,0z M190.275,353.987c-90.414,0-163.71-73.298-163.71-163.712
			c0-90.415,73.297-163.712,163.71-163.712c90.415,0,163.711,73.297,163.711,163.712
			C353.986,280.689,280.689,353.987,190.275,353.987z"/>
		<path d="M300.182,171.818c-2.633-5.904-7.8-13.739-13.117-21.867c-5.317-8.129-11.98-16.425-9.009-33.083
			c2.971-16.658,15.687-21.767,17.494-24.828c1.446-2.451-2.857-4.93-3.929-5.441c-1.301-0.617-2.716-1.098-6.134-1.248
			c-0.213-0.01-0.421-0.012-0.621-0.003c-3.012,0.108-4.616,1.999-5.857,2.414c-1.346,0.451-7.244,0.093-8.061,0.264
			c-0.894,0.187-2.46,2.075-2.796,2.555c-0.586,0.846-0.135,1.058-0.969,2.806c-0.837,1.747-6.796,6.718-8.428,9.816
			c-0.874,1.66,0.106,5.093-0.958,7.371c-1.062,2.279-4.253,2.168-4.932,4.666c-0.5,1.839,0.455,7.744-0.349,10.626
			c-0.833,2.986-2.562,1.64-2.67,4.685c-0.152,4.29,7.434,11.132,8.726,13.106c1.292,1.976,1.811,3.139,3.408,6.748
			c1.781,4.027,4.179,6.537,5.983,8.583c1.806,2.046,6.773,5.182,8.056,7.375c0.712,1.22-0.064,3.55,0.419,5.077
			c0.455,1.444,1.759,2.708,3.81,5.671c2.051,2.962,1.364,10.67-0.491,15.329c-1.854,4.661-6.908,10.837-15.554,13.263
			c-8.645,2.425-30.353,0.44-39.047-22.368c-3.997-10.491-2.162-22.764,7.179-32.42c9.34-9.656,16.307-24.424,16.33-39.808
			c0-32.638-27.701-59.096-60.814-59.096c-33.112,0-59.956,26.458-59.956,59.096c0.013,15.662,6.334,30.679,17.836,41.908
			c11.503,11.229,14.1,21.664,9.386,31.072c-5.103,10.18-16.865,15.682-36.199,15.844c-16.662,0.141-21.169-8.135-24.548-12.89
			c-6.481-9.119-3.125-20.181,2.953-27.285c7.383-8.629,12.835-9.374,18.83-6.146c3.217,1.733,7.972,5.77,8.08,13.128
			c0.063,4.383-2.901,11.172-2.901,12.032c0,0.859,0.699,1.396,1.451,1.074c0.753-0.322,6.789-3.517,10.206-7.896
			c3.057-3.918,6.337-18.154,5.694-19.981c-0.645-1.825-5.29-5.623-5.612-7.666c-0.192-1.213-0.334-2.763-0.905-4.035
			c-0.39-0.868-1.457-1.666-2.024-2.101c-1.396-1.076-5.048,0.268-6.553-1.612c-1.289-1.612-1.826-4.996-3.545-5.424
			c-0.781-0.197-2.282-0.51-3.655-0.231c-1.973,0.403-3.456,1.593-4.991,1.412c-2.145-0.251-3.975-3.653-6.876-3.437
			c-2.884,0.213-6.552,5.156-10.526,9.453c-3.975,4.298-11.031,9.725-16.006,18.476c-3.607,6.346-6.554,13.858-5.049,24.493
			c1.504,10.635,4.124,17.802,12.676,25.62c8.797,8.042,15.898,10.366,21.162,12.193c5.265,1.825,8.916,3.529,14.61,3.706
			c1.962,0.061,6.141,0.19,7.527,0.041c3.508-0.376,2.794-1.92,6.062-2.459c12.729-2.094,21.791-8.739,27.3-14.349
			c1.402-1.428,5.078-5.354,5.765-6.031c0.171,0.977,0.224,4.116,0.113,4.931c-0.763,5.588-4.25,8.716-9.838,11.696
			c-7.976,4.253-19.557,10.505-27.498,16.063c-7.345,5.144-13.824,10.142-16.103,18.346c-2.279,8.203-1.822,12.912,0.684,18.571
			c2.287,5.162,6.457,10.673,13.444,14.698c5.781,3.33,10.839,6.259,16.415,9.122c3.837,1.971,10.549,5.309,9.942,12.298
			c-0.616,7.086-5.203,10.834-8.317,12.192c-5.348,2.333-12.676,2.942-12.99,3.191c-0.552,0.44,6.38,6.299,11.699,6.265
			c5.809-0.037,7.868-0.427,13.254-2.315c4.684-1.642,6.723-5.735,7.484-5.887c0.759-0.153,1.871-0.063,2.886-0.799
			c0.99-0.719,4.139-3.153,4.518-4.595c0.38-1.444,0.457-3.874,0.837-5.165c0.38-1.292,1.899-5.658,1.975-8.012
			c0.077-2.356,0.686-7.748-1.425-10.844c-1.748-2.565-0.836-3.913-2.298-5.298c-0.243-0.231-1.47-1.856-2.594-2.277
			c-1.453-0.543-2.213-0.069-3.254-0.647c-1.664-0.925-3.651-7.16-6.052-7.333c-0.876-0.063-1.894-0.01-2.78,0.203
			c-1.974,0.476-10.618,0.7-12.17,0.102c-2.402-0.924-10.236-5.925-9.571-13.141c0.573-6.199,4.988-10.418,10.976-12.61
			c5.346-1.957,7.216-1.785,10.862-3.532c3.595-1.722,6.117-3.911,8.851-5.353c2.733-1.444,6.437-3.171,9.246-5.527
			c1.603-1.343,3.209-2.865,4.726-4.774c1.3-1.631,3.784-6.057,6.434-8.253c3.626,5.545,7.171,10.427,9.787,13.462
			c6.644,7.709,15.723,12.4,19.976,15.058c4.253,2.657,14.012,9.973,18.193,15.821c4.483,6.265,2.43,14.849-0.039,18.115
			c-2.136,2.828-6.987,6.496-13.672,6.344c-7.149-0.162-13.999-3.096-18.192-8.509c-4.178-5.394-5.805-15.52-2.241-18.191
			c3.833-2.873,7.588-1.504,9.951-1.217c1.85,0.226,3.608-0.759,3.913-2.278c0.303-1.519-0.19-3.343-2.241-4.938
			c-1.088-0.846-3.091-2.249-5.853-2.214c-1.514,0.018-4.368,0.751-8.238,0.617c-4.109-0.142-8.156,0.296-11.872,3.732
			c-3.057,2.829-4.811,5.062-5.954,8.605c-0.435,1.347,0.092,4.245-0.09,5.969c-0.181,1.742-0.9,3.105-0.913,4.446
			c-0.022,1.993,0.305,4.432,0.758,6.812c0.505,2.651,1.469,5.712,2.662,8.423c0.487,1.11,0.881,2.63,1.508,3.304
			c0.761,0.82,2.217,1.668,3.597,3.014c2.611,2.547,5.64,5.836,8.027,6.781c2.965,1.174,8.963-0.874,10.634-0.342
			c1.67,0.53,3.816,3.148,6.398,3.073c2.584-0.076,18.411-0.82,23.871-2.998c6.822-2.722,18.59-10.22,20.903-20.656
			c2.852-12.868-2.554-21.673-7.979-28.112c-6.699-7.951-19.267-18.223-28.749-25.027c-5.432-3.897-7.492-6.861-9.591-10.399
			c-1.596-2.689-3.287-7.23-2.439-11.396c3.907,2.046,9.49,8.418,11.123,10.453c2.104,2.617,4.786,4.21,6.86,5.229
			c1.835,0.902,4.127,0.385,5.874,0.69c1.746,0.302,0.495,1.733,3.61,2.798c3.115,1.062,16.883,3.608,20.197,3.492
			c1.354-0.048,3.168-1.097,5.309-1.768c2.051-0.643,5.558-0.932,15.297-4.736c13.356-5.218,18.968-13.726,23.482-23.901
			C305.87,190.714,302.813,177.722,300.182,171.818z M178.832,145.418c-16.219,0-29.368-13.148-29.368-29.367
			c0-16.221,13.149-29.368,29.368-29.368S208.2,99.831,208.2,116.051C208.2,132.27,195.051,145.418,178.832,145.418z"/>
		<g>
			<g>
				<path d="M175.025,113.529c3.713,0,6.722,3.009,6.722,6.722c0,3.713-3.009,6.722-6.722,6.722s-6.722-3.009-6.722-6.722
					C168.303,116.538,171.312,113.529,175.025,113.529"/>
			</g>
		</g>
	</g>
</g>
</svg>
