<?xml version="1.0" encoding="utf-8"?>
<!-- Generator: Adobe Illustrator 17.1.0, SVG Export Plug-In . SVG Version: 6.00 Build 0)  -->
<!DOCTYPE svg PUBLIC "-//W3C//DTD SVG 1.1//EN" "http://www.w3.org/Graphics/SVG/1.1/DTD/svg11.dtd">
<svg version="1.1" xmlns="http://www.w3.org/2000/svg" xmlns:xlink="http://www.w3.org/1999/xlink" x="0px" y="0px"
	 viewBox="0 0 363.3 363.3" enable-background="new 0 0 363.3 363.3" xml:space="preserve">
<g id="Layer_1">
</g>
<g id="Logo">
	<g>
		<g>
			<g>
				<g>
					<g>
						<path fill="#FFFFFF" d="M181.7,0C81.3,0,0,81.3,0,181.7C0,282,81.3,363.3,181.7,363.3c100.3,0,181.7-81.3,181.7-181.7
							C363.3,81.3,282,0,181.7,0z M304.9,193.5c-5,11.3-11.2,20.7-26.1,26.5c-10.8,4.2-14.7,4.5-17,5.3c-2.4,0.7-4.4,1.9-5.9,2
							c-3.7,0.1-19-2.7-22.4-3.9c-3.5-1.2-2.1-2.8-4-3.1c-1.9-0.3-4.5,0.2-6.5-0.8c-2.3-1.1-5.3-2.9-7.6-5.8
							c-1.8-2.3-8-9.3-12.3-11.6c-0.9,4.6,0.9,9.7,2.7,12.6c2.3,3.9,4.6,7.2,10.6,11.5c10.5,7.6,24.5,18.9,31.9,27.8
							c6,7.1,12,16.9,8.9,31.2c-2.6,11.6-15.6,19.9-23.2,22.9c-6.1,2.4-23.6,3.2-26.5,3.3c-2.9,0.1-5.2-2.8-7.1-3.4
							c-1.9-0.6-8.5,1.7-11.8,0.4c-2.6-1-6-4.7-8.9-7.5c-1.5-1.5-3.1-2.4-4-3.3c-0.7-0.7-1.1-2.4-1.7-3.7c-1.3-3-2.4-6.4-3-9.3
							c-0.5-2.6-0.9-5.3-0.8-7.6c0-1.5,0.8-3,1-4.9c0.2-1.9-0.4-5.1,0.1-6.6c1.3-3.9,3.2-6.4,6.6-9.5c4.1-3.8,8.6-4.3,13.2-4.1
							c4.3,0.1,7.5-0.7,9.1-0.7c3.1,0,5.3,1.5,6.5,2.5c2.3,1.8,2.8,3.8,2.5,5.5c-0.3,1.7-2.3,2.8-4.3,2.5c-2.6-0.3-6.8-1.8-11,1.3
							c-4,3-2.1,14.2,2.5,20.2c4.7,6,12.3,9.3,20.2,9.4c7.4,0.2,12.8-3.9,15.2-7c2.7-3.6,5-13.1,0-20.1
							c-4.6-6.5-15.5-14.6-20.2-17.6c-4.7-3-14.8-8.2-22.2-16.7c-2.9-3.4-6.8-8.8-10.9-14.9c-2.9,2.4-5.7,7.3-7.1,9.2
							c-1.7,2.1-3.5,3.8-5.2,5.3c-3.1,2.6-7.2,4.5-10.3,6.1c-3,1.6-5.8,4-9.8,5.9c-4,1.9-6.1,1.7-12.1,3.9
							c-6.6,2.4-11.5,7.1-12.2,14c-0.7,8,8,13.6,10.6,14.6c1.7,0.7,11.3,0.4,13.5-0.1c1-0.2,2.1-0.3,3.1-0.2
							c2.7,0.2,4.9,7.1,6.7,8.1c1.2,0.6,2,0.1,3.6,0.7c1.2,0.5,2.6,2.3,2.9,2.5c1.6,1.5,0.6,3,2.6,5.9c2.3,3.4,1.7,9.4,1.6,12
							c-0.1,2.6-1.8,7.5-2.2,8.9c-0.4,1.4-0.5,4.1-0.9,5.7c-0.4,1.6-3.9,4.3-5,5.1c-1.1,0.8-2.4,0.7-3.2,0.9
							c-0.8,0.2-3.1,4.7-8.3,6.5c-6,2.1-8.3,2.5-14.7,2.6c-5.9,0-13.6-6.5-13-7c0.3-0.3,8.5-1,14.4-3.5c3.5-1.5,8.5-5.7,9.2-13.5
							c0.7-7.8-6.8-11.5-11-13.6c-6.2-3.2-11.8-6.4-18.2-10.1c-7.8-4.5-12.4-10.6-14.9-16.3c-2.8-6.3-3.3-11.5-0.8-20.6
							c2.5-9.1,9.7-14.7,17.9-20.4c8.8-6.2,21.7-13.1,30.5-17.8c6.2-3.3,10.1-6.8,10.9-13c0.1-0.9,0.1-4.4-0.1-5.5
							c-0.8,0.8-4.8,5.1-6.4,6.7c-6.1,6.2-16.2,13.6-30.3,15.9c-3.6,0.6-2.8,2.3-6.7,2.7c-1.5,0.2-6.2,0-8.4,0
							c-6.3-0.2-10.4-2.1-16.2-4.1c-5.8-2-13.7-4.6-23.5-13.5c-9.5-8.7-12.4-16.6-14.1-28.4c-1.7-11.8,1.6-20.1,5.6-27.2
							c5.5-9.7,13.4-15.7,17.8-20.5c4.4-4.8,8.5-10.3,11.7-10.5c3.2-0.2,5.3,3.5,7.6,3.8c1.7,0.2,3.4-1.1,5.5-1.6
							c1.5-0.3,3.2,0,4.1,0.3c1.9,0.5,2.5,4.2,3.9,6c1.7,2.1,5.7,0.6,7.3,1.8c0.6,0.5,1.8,1.4,2.2,2.3c0.6,1.4,0.8,3.1,1,4.5
							c0.4,2.3,5.5,6.5,6.2,8.5c0.7,2-2.9,17.8-6.3,22.2c-3.8,4.9-10.5,8.4-11.3,8.8c-0.8,0.4-1.6-0.2-1.6-1.2s3.3-8.5,3.2-13.4
							c-0.1-8.2-5.4-12.6-9-14.6c-6.7-3.6-12.7-2.8-20.9,6.8c-6.7,7.9-10.5,20.2-3.3,30.3c3.8,5.3,8.8,14.5,27.2,14.3
							c21.5-0.2,34.5-6.3,40.2-17.6c5.2-10.4,2.3-22-10.4-34.5s-19.8-29.1-19.8-46.5c0-36.2,29.8-65.6,66.5-65.6
							s67.5,29.4,67.5,65.6c0,17.1-7.8,33.5-18.1,44.2c-10.4,10.7-12.4,24.3-8,36c9.6,25.3,33.7,27.5,43.3,24.8s15.2-9.5,17.3-14.7
							c2.1-5.2,2.8-13.7,0.5-17c-2.3-3.3-3.7-4.7-4.2-6.3c-0.5-1.7,0.3-4.3-0.5-5.6c-1.4-2.4-6.9-5.9-8.9-8.2
							c-2-2.3-4.7-5.1-6.6-9.5c-1.8-4-2.3-5.3-3.8-7.5c-1.4-2.2-9.9-9.8-9.7-14.5c0.1-3.4,2-1.9,3-5.2c0.9-3.2-0.2-9.8,0.4-11.8
							c0.8-2.8,4.3-2.6,5.5-5.2c1.2-2.5,0.1-6.3,1.1-8.2c1.8-3.4,8.4-9,9.4-10.9c0.9-1.9,0.4-2.2,1.1-3.1c0.4-0.5,2.1-2.6,3.1-2.8
							c0.9-0.2,7.5,0.2,8.9-0.3c1.4-0.5,3.2-2.6,6.5-2.7c0.2,0,0.5,0,0.7,0c3.8,0.2,5.4,0.7,6.8,1.4c1.2,0.6,6,3.3,4.4,6
							c-2,3.4-16.1,9.1-19.4,27.6s4.1,27.7,10,36.7s11.6,17.7,14.6,24.3C306.6,167.7,310,182.2,304.9,193.5z"/>
					</g>
				</g>
				<g>
					<g>
						<path fill="#FFFFFF" d="M169,66.7c-18,0-32.6,14.6-32.6,32.6c0,18,14.6,32.6,32.6,32.6s32.6-14.6,32.6-32.6
							C201.6,81.3,187,66.7,169,66.7z M164.8,111.4c-4.1,0-7.5-3.3-7.5-7.5c0-4.1,3.3-7.5,7.5-7.5c4.1,0,7.5,3.3,7.5,7.5
							C172.2,108.1,168.9,111.4,164.8,111.4z"/>
					</g>
				</g>
			</g>
		</g>
	</g>
</g>
</svg>
