<?xml version="1.0" encoding="utf-8"?>
<!-- Generator: Adobe Illustrator 17.1.0, SVG Export Plug-In . SVG Version: 6.00 Build 0)  -->
<!DOCTYPE svg PUBLIC "-//W3C//DTD SVG 1.1//EN" "http://www.w3.org/Graphics/SVG/1.1/DTD/svg11.dtd">
<svg version="1.1" xmlns="http://www.w3.org/2000/svg" xmlns:xlink="http://www.w3.org/1999/xlink" x="0px" y="0px"
	 viewBox="0 0 363.3 637" enable-background="new 0 0 363.3 637" xml:space="preserve">
<g id="Layer_1">
</g>
<g id="Logo">
	<g>
		<g>
			<g>
				<path fill="#8DD5F6" d="M181.7,0C282,0,363.3,81.3,363.3,181.7S282,363.3,181.7,363.3S0,282,0,181.7S81.3,0,181.7,0"/>
			</g>
			<g>
				<path fill="#1386C8" d="M132.2,140.3c12.8,12.5,15.6,24,10.4,34.5c-5.7,11.3-18.7,17.4-40.2,17.6c-18.5,0.2-23.5-9-27.2-14.3
					c-7.2-10.1-3.5-22.4,3.3-30.3c8.2-9.6,14.2-10.4,20.9-6.8c3.6,1.9,8.8,6.4,9,14.6c0.1,4.9-3.2,12.4-3.2,13.4
					c0,1,0.8,1.5,1.6,1.2c0.8-0.4,7.5-3.9,11.3-8.8c3.4-4.3,7-20.1,6.3-22.2c-0.7-2-5.9-6.2-6.2-8.5c-0.2-1.3-0.4-3.1-1-4.5
					c-0.4-1-1.6-1.8-2.2-2.3c-1.5-1.2-5.6,0.3-7.3-1.8c-1.4-1.8-2-5.5-3.9-6c-0.9-0.2-2.5-0.6-4.1-0.3c-2.2,0.4-3.8,1.8-5.5,1.6
					c-2.4-0.3-4.4-4.1-7.6-3.8c-3.2,0.2-7.3,5.7-11.7,10.5c-4.4,4.8-12.2,10.8-17.8,20.5c-4,7-7.3,15.4-5.6,27.2
					c1.7,11.8,4.6,19.8,14.1,28.4c9.8,8.9,17.6,11.5,23.5,13.5c5.8,2,9.9,3.9,16.2,4.1c2.2,0.1,6.8,0.2,8.4,0
					c3.9-0.4,3.1-2.1,6.7-2.7c14.1-2.3,24.2-9.7,30.3-15.9c1.6-1.6,5.6-5.9,6.4-6.7c0.2,1.1,0.2,4.6,0.1,5.5
					c-0.8,6.2-4.7,9.7-10.9,13c-8.9,4.7-21.7,11.7-30.5,17.8c-8.2,5.7-15.3,11.3-17.9,20.4c-2.5,9.1-2,14.3,0.8,20.6
					c2.5,5.7,7.2,11.8,14.9,16.3c6.4,3.7,12,6.9,18.2,10.1c4.3,2.2,11.7,5.9,11,13.6c-0.7,7.9-5.8,12-9.2,13.5
					c-5.9,2.6-14.1,3.3-14.4,3.5c-0.6,0.5,7.1,7,13,7c6.4,0,8.7-0.5,14.7-2.6c5.2-1.8,7.5-6.4,8.3-6.5c0.8-0.2,2.1-0.1,3.2-0.9
					c1.1-0.8,4.6-3.5,5-5.1c0.4-1.6,0.5-4.3,0.9-5.7c0.4-1.4,2.1-6.3,2.2-8.9c0.1-2.6,0.8-8.6-1.6-12c-1.9-2.8-0.9-4.3-2.6-5.9
					c-0.3-0.3-1.6-2.1-2.9-2.5c-1.6-0.6-2.5-0.1-3.6-0.7c-1.8-1-4.1-7.9-6.7-8.1c-1-0.1-2.1,0-3.1,0.2c-2.2,0.5-11.8,0.8-13.5,0.1
					c-2.7-1-11.4-6.6-10.6-14.6c0.6-6.9,5.5-11.6,12.2-14c5.9-2.2,8-2,12.1-3.9c4-1.9,6.8-4.3,9.8-5.9c3-1.6,7.1-3.5,10.3-6.1
					c1.8-1.5,3.6-3.2,5.2-5.3c1.4-1.8,4.2-6.7,7.1-9.2c4,6.2,8,11.6,10.9,14.9c7.4,8.6,17.4,13.8,22.2,16.7
					c4.7,2.9,15.5,11.1,20.2,17.6c5,7,2.7,16.5,0,20.1c-2.4,3.1-7.8,7.2-15.2,7c-7.9-0.2-15.5-3.4-20.2-9.4
					c-4.6-6-6.4-17.2-2.5-20.2c4.3-3.2,8.4-1.7,11-1.3c2.1,0.3,4-0.8,4.3-2.5c0.3-1.7-0.2-3.7-2.5-5.5c-1.2-0.9-3.4-2.5-6.5-2.5
					c-1.7,0-4.8,0.8-9.1,0.7c-4.6-0.2-9.1,0.3-13.2,4.1c-3.4,3.1-5.3,5.6-6.6,9.5c-0.5,1.5,0.1,4.7-0.1,6.6c-0.2,1.9-1,3.4-1,4.9
					c0,2.2,0.3,4.9,0.8,7.6c0.6,2.9,1.6,6.3,3,9.3c0.5,1.2,1,2.9,1.7,3.7c0.8,0.9,2.5,1.9,4,3.3c2.9,2.8,6.3,6.5,8.9,7.5
					c3.3,1.3,9.9-1,11.8-0.4c1.9,0.6,4.2,3.5,7.1,3.4c2.9-0.1,20.4-0.9,26.5-3.3c7.6-3,20.6-11.3,23.2-22.9
					c3.2-14.3-2.8-24.1-8.9-31.2c-7.4-8.8-21.4-20.2-31.9-27.8c-6-4.3-8.3-7.6-10.6-11.5c-1.8-3-3.6-8-2.7-12.6
					c4.3,2.3,10.5,9.3,12.3,11.6c2.3,2.9,5.3,4.7,7.6,5.8c2,1,4.6,0.4,6.5,0.8c1.9,0.3,0.6,1.9,4,3.1c3.5,1.2,18.7,4,22.4,3.9
					c1.5-0.1,3.5-1.2,5.9-2c2.3-0.7,6.2-1,17-5.3c14.8-5.8,21-15.2,26.1-26.5c5-11.3,1.6-25.7-1.3-32.3s-8.7-15.2-14.6-24.3
					c-5.9-9-13.3-18.2-10-36.7c3.3-18.5,17.4-24.2,19.4-27.6c1.6-2.7-3.2-5.5-4.4-6c-1.4-0.7-3-1.2-6.8-1.4c-0.2,0-0.5,0-0.7,0
					c-3.3,0.1-5.1,2.2-6.5,2.7c-1.5,0.5-8,0.1-8.9,0.3c-1,0.2-2.7,2.3-3.1,2.8c-0.7,0.9-0.1,1.2-1.1,3.1c-0.9,1.9-7.5,7.5-9.4,10.9
					c-1,1.8,0.1,5.7-1.1,8.2c-1.2,2.5-4.7,2.4-5.5,5.2c-0.6,2,0.5,8.6-0.4,11.8c-0.9,3.3-2.8,1.8-3,5.2c-0.2,4.8,8.2,12.4,9.7,14.5
					c1.4,2.2,2,3.5,3.8,7.5c2,4.5,4.6,7.3,6.6,9.5c2,2.3,7.5,5.7,8.9,8.2c0.8,1.4-0.1,3.9,0.5,5.6c0.5,1.6,2,3,4.2,6.3
					c2.3,3.3,1.5,11.8-0.5,17c-2.1,5.2-7.7,12-17.3,14.7c-9.6,2.7-33.7,0.5-43.3-24.8c-4.4-11.6-2.4-25.3,8-36
					c10.4-10.7,18.1-27.1,18.1-44.2c0-36.2-30.7-65.6-67.5-65.6s-66.5,29.4-66.5,65.6C112.5,111.2,119.5,127.9,132.2,140.3z"/>
			</g>
			<g>
				<path fill="#FFFFFF" d="M169,66.7c18,0,32.6,14.6,32.6,32.6c0,18-14.6,32.6-32.6,32.6s-32.6-14.6-32.6-32.6
					C136.4,81.3,151,66.7,169,66.7"/>
			</g>
			<g>
				<path fill="#1386C8" d="M164.8,96.5c4.1,0,7.5,3.3,7.5,7.5c0,4.1-3.3,7.5-7.5,7.5c-4.1,0-7.5-3.3-7.5-7.5
					C157.3,99.8,160.6,96.5,164.8,96.5"/>
			</g>
			<g>
				<path d="M301.6,484.8V478l8.5-0.5l1.8-2.2v-60.6l-1.8-1.7l-8.5-0.5v-6.9h42.1v6.9l-8.7,0.5l-1.9,1.7v60.6l1.9,2.2l8.7,0.5v6.9
					H301.6z M209.3,484.8v-6.6l7.2-0.7l2.2-2.2v-60.6l-1.6-1.7l-7.9-0.9v-6.5h33.3v3.2l33.8,52.5v-46.1l-2.1-2.2l-7.7-0.9v-6.5h29.9
					v6.5l-7,0.9l-2.2,2.2v69.6h-18.8l-39.1-60.2v50.6l1.7,2.2l7.9,0.7v6.6H209.3z M159,412.9c-6.1,0-11,3-14.7,9
					c-3.6,6-5.4,14.1-5.4,24.4c0,9.6,1.9,17.4,5.6,23.4c3.8,6,8.7,8.9,14.6,8.9s10.7-3,14.3-9.1c3.6-6.1,5.4-14.2,5.4-24.5
					c0-9.8-1.8-17.5-5.5-23.3C169.7,415.8,164.9,412.9,159,412.9 M115.4,444.5c0-12.2,4-22,11.9-29.4c8-7.4,18.6-11.1,31.7-11.1
					c5.4,0,10.4,0.7,15,2.2c4.7,1.4,8.8,3.5,12.3,6.2c5.1,4,9.1,8.7,11.8,14.3c2.7,5.6,4.1,11.6,4.1,18.1c0,12.3-4.1,22.4-12.4,30.3
					c-8.2,7.8-18.8,11.8-31.9,11.8c-12.9,0-23.2-3.9-31-11.6C119.3,467.5,115.4,457.2,115.4,444.5 M63.2,412.9c-6.1,0-11,3-14.7,9
					c-3.6,6-5.4,14.1-5.4,24.4c0,9.6,1.9,17.4,5.6,23.4c3.8,6,8.7,8.9,14.6,8.9c5.9,0,10.7-3,14.3-9.1c3.6-6.1,5.4-14.2,5.4-24.5
					c0-9.8-1.8-17.5-5.5-23.3C73.9,415.8,69.1,412.9,63.2,412.9 M19.6,444.5c0-12.2,4-22,11.9-29.4c8-7.4,18.6-11.1,31.7-11.1
					c5.4,0,10.4,0.7,15,2.2c4.7,1.4,8.8,3.5,12.3,6.2c5.1,4,9.1,8.7,11.8,14.3c2.7,5.6,4.1,11.6,4.1,18.1c0,12.3-4.1,22.4-12.4,30.3
					c-8.2,7.8-18.8,11.8-31.9,11.8c-12.9,0-23.2-3.9-31-11.6C23.5,467.5,19.6,457.2,19.6,444.5"/>
			</g>
		</g>
		<g>
			<path d="M98.6,549.4c4.4,2.8,7.8,6.8,10.2,12.2c2.4,5.4,3.7,11.8,3.7,19.5c0,7.5-1.2,13.9-3.7,19.3c-2.4,5.4-5.9,9.4-10.2,12.3
				c-4.4,2.8-9.5,4.2-15.3,4.2s-10.9-1.4-15.3-4.1c-4.4-2.7-7.8-6.8-10.2-12.1c-2.4-5.4-3.7-11.8-3.7-19.4c0-7.4,1.2-13.9,3.7-19.3
				c2.4-5.4,5.9-9.6,10.3-12.4c4.4-2.8,9.5-4.3,15.3-4.3C89.1,545.2,94.2,546.6,98.6,549.4z M69.3,559.9c-3.3,4.6-5,11.6-5,21.3
				c0,9.6,1.7,16.6,5.1,21.1c3.4,4.5,8,6.7,14,6.7c12.7,0,19.1-9.3,19.1-27.9c0-18.7-6.4-28-19.1-28C77.3,553,72.6,555.3,69.3,559.9
				z"/>
			<path d="M150.5,562.8c2.6,0.9,5.1,2.4,7.5,4.4l-4.4,5.8c-1.9-1.3-3.7-2.3-5.5-3c-1.8-0.6-3.7-1-5.9-1c-4.3,0-7.6,1.7-10,5.1
				c-2.4,3.4-3.6,8.5-3.6,15.2c0,6.7,1.2,11.6,3.5,14.8c2.3,3.2,5.7,4.8,10,4.8c2.1,0,4-0.3,5.7-1c1.7-0.6,3.7-1.7,5.8-3.1l4.2,6
				c-4.8,3.9-10.2,5.8-16.2,5.8c-7.2,0-12.8-2.4-16.9-7.2c-4.1-4.8-6.2-11.5-6.2-20c0-5.6,0.9-10.5,2.8-14.8c1.9-4.2,4.5-7.5,8-9.8
				c3.4-2.3,7.5-3.5,12.3-3.5C145,561.5,147.9,561.9,150.5,562.8z"/>
			<path d="M192.3,613.2c-3.5,2.4-7.4,3.6-11.8,3.6c-4.5,0-8-1.3-10.5-3.9c-2.5-2.6-3.8-6.3-3.8-11.2v-31.9h-9.2v-7.1h9.2v-11.9
				l9.2-1.1v13.1h12.6l-1,7.1h-11.5v31.5c0,2.7,0.5,4.7,1.5,6c1,1.2,2.6,1.9,4.9,1.9c2.1,0,4.4-0.7,7-2.1L192.3,613.2z"/>
			<path d="M232.5,568.9c4.1,5,6.2,11.7,6.2,20.2c0,5.5-0.9,10.3-2.8,14.5c-1.9,4.2-4.6,7.4-8.1,9.7c-3.5,2.3-7.8,3.5-12.7,3.5
				c-7.4,0-13.2-2.5-17.4-7.4c-4.2-5-6.2-11.7-6.2-20.2c0-5.5,0.9-10.3,2.8-14.5c1.9-4.2,4.6-7.4,8.1-9.7c3.5-2.3,7.8-3.5,12.8-3.5
				C222.6,561.5,228.4,564,232.5,568.9z M201.4,589.2c0,13.5,4.6,20.2,13.7,20.2c9.1,0,13.7-6.8,13.7-20.3
				c0-13.5-4.5-20.2-13.6-20.2C206,568.9,201.4,575.7,201.4,589.2z"/>
			<path d="M288.1,568.7c3.1,4.8,4.7,11.6,4.7,20.4c0,8.3-1.8,15-5.4,20.1c-3.6,5.1-8.7,7.6-15.4,7.6c-5.9,0-10.5-2-13.9-6v25.1
				l-9.2,1.1v-74.3h7.9l0.7,7.1c1.9-2.7,4.3-4.7,7-6.2c2.7-1.4,5.6-2.2,8.6-2.2C280,561.5,284.9,563.9,288.1,568.7z M282.8,589.1
				c0-13.5-4-20.3-11.9-20.3c-2.6,0-5,0.8-7.1,2.3c-2.1,1.5-4,3.5-5.6,5.9v25.8c1.3,2.1,3,3.7,5,4.8c2,1.1,4.2,1.7,6.6,1.7
				C278.5,609.3,282.8,602.5,282.8,589.1z"/>
			<path d="M312.8,539.1c1.2,1.2,1.8,2.7,1.8,4.5c0,1.8-0.6,3.3-1.8,4.5c-1.2,1.2-2.8,1.8-4.7,1.8c-1.9,0-3.4-0.6-4.6-1.8
				c-1.2-1.2-1.8-2.7-1.8-4.5c0-1.8,0.6-3.3,1.8-4.5c1.2-1.2,2.7-1.8,4.6-1.8C310,537.3,311.5,537.9,312.8,539.1z M312.8,562.7v52.9
				h-9.2v-52.9H312.8z"/>
		</g>
		<g>
			<g>
				<line x1="341.3" y1="515.5" x2="17.2" y2="515.5"/>
			</g>
			<g>
				<rect x="17.2" y="510" width="324.2" height="11.2"/>
			</g>
		</g>
	</g>
</g>
</svg>
