<?xml version="1.0" encoding="utf-8"?>
<!-- Generator: Adobe Illustrator 17.1.0, SVG Export Plug-In . SVG Version: 6.00 Build 0)  -->
<!DOCTYPE svg PUBLIC "-//W3C//DTD SVG 1.1//EN" "http://www.w3.org/Graphics/SVG/1.1/DTD/svg11.dtd">
<svg version="1.1" xmlns="http://www.w3.org/2000/svg" xmlns:xlink="http://www.w3.org/1999/xlink" x="0px" y="0px"
	 viewBox="0 0 1202.6 196.8" enable-background="new 0 0 1202.6 196.8" xml:space="preserve">
<g id="Layer_1">
</g>
<g id="Logo">
	<g>
		<g id="Page-1_15_">
			<g id="Wordmark-Horizontal_15_">
				<g id="Logo-wordmark-HORIZ_15_" transform="translate(1.000000, 1.000000)">
					<g id="OONI-Logo_8_" transform="translate(36.000000, 35.000000)">
						<g id="Group-3_7_" transform="translate(0.000000, 0.030979)">
							<defs>
								<filter id="Adobe_OpacityMaskFilter" filterUnits="userSpaceOnUse" x="-37" y="-36" width="197.6" height="196.8">
									<feColorMatrix  type="matrix" values="1 0 0 0 0  0 1 0 0 0  0 0 1 0 0  0 0 0 1 0"/>
								</filter>
							</defs>
							<mask maskUnits="userSpaceOnUse" x="-37" y="-36" width="197.6" height="196.8" id="mask-2_1_">
								<g filter="url(#Adobe_OpacityMaskFilter)">
									<polygon id="path-1_1_" fill="#FFFFFF" points="160.6,62.4 160.6,-36 -37,-36 -37,62.4 -37,160.8 160.6,160.8 									"/>
								</g>
							</mask>
							<g id="Fill-1_7_" mask="url(#mask-2_1_)">
								<path fill="#8DD5F6" d="M61.8-36c54.6,0,98.8,44.1,98.8,98.4s-44.2,98.4-98.8,98.4S-37,116.7-37,62.4S7.2-36,61.8-36"/>
							</g>
						</g>
						<g id="Fill-4_7_">
							<path fill="#1386C8" d="M34.9,40c6.9,6.8,8.5,13,5.7,18.7c-3.1,6.1-10.2,9.4-21.8,9.5C8.7,68.3,6,63.3,3.9,60.5
								C0,55,2,48.3,5.7,44.1c4.5-5.2,7.7-5.6,11.4-3.7c1.9,1,4.8,3.5,4.9,7.9c0,2.6-1.8,6.7-1.8,7.2c0,0.5,0.4,0.8,0.9,0.6
								c0.5-0.2,4.1-2.1,6.2-4.7c1.8-2.4,3.8-10.9,3.4-12c-0.4-1.1-3.2-3.4-3.4-4.6c-0.1-0.7-0.2-1.7-0.5-2.4
								c-0.2-0.5-0.9-1-1.2-1.3c-0.8-0.6-3,0.2-4-1c-0.8-1-1.1-3-2.1-3.3c-0.5-0.1-1.4-0.3-2.2-0.1c-1.2,0.2-2.1,1-3,0.8
								c-1.3-0.2-2.4-2.2-4.1-2.1c-1.7,0.1-4,3.1-6.4,5.7C1.3,33.8-3,37-6,42.3c-2.2,3.8-4,8.3-3,14.7c0.9,6.4,2.5,10.7,7.7,15.4
								c5.3,4.8,9.6,6.2,12.8,7.3c3.2,1.1,5.4,2.1,8.8,2.2c1.2,0,3.7,0.1,4.5,0c2.1-0.2,1.7-1.2,3.7-1.5c7.7-1.3,13.2-5.3,16.5-8.6
								c0.8-0.9,3.1-3.2,3.5-3.6c0.1,0.6,0.1,2.5,0.1,3c-0.5,3.4-2.6,5.2-5.9,7c-4.8,2.6-11.8,6.3-16.6,9.7c-4.4,3.1-8.3,6.1-9.7,11
								c-1.4,4.9-1.1,7.8,0.4,11.2c1.4,3.1,3.9,6.4,8.1,8.8c3.5,2,6.5,3.8,9.9,5.5c2.3,1.2,6.4,3.2,6,7.4c-0.4,4.3-3.1,6.5-5,7.3
								c-3.2,1.4-7.7,1.8-7.8,1.9c-0.3,0.3,3.9,3.8,7.1,3.8c3.5,0,4.7-0.3,8-1.4c2.8-1,4.1-3.4,4.5-3.5s1.1,0,1.7-0.5
								c0.6-0.4,2.5-1.9,2.7-2.8c0.2-0.9,0.3-2.3,0.5-3.1c0.2-0.8,1.1-3.4,1.2-4.8c0-1.4,0.4-4.7-0.9-6.5c-1.1-1.5-0.5-2.4-1.4-3.2
								c-0.1-0.1-0.9-1.1-1.6-1.4c-0.9-0.3-1.3,0-2-0.4c-1-0.6-2.2-4.3-3.7-4.4c-0.5,0-1.1,0-1.7,0.1c-1.2,0.3-6.4,0.4-7.3,0.1
								c-1.4-0.6-6.2-3.6-5.8-7.9c0.3-3.7,3-6.3,6.6-7.6c3.2-1.2,4.4-1.1,6.6-2.1c2.2-1,3.7-2.4,5.3-3.2c1.7-0.9,3.9-1.9,5.6-3.3
								c1-0.8,1.9-1.7,2.9-2.9c0.8-1,2.3-3.6,3.9-5c2.2,3.3,4.3,6.3,5.9,8.1c4,4.6,9.5,7.5,12.1,9.1c2.6,1.6,8.5,6,11,9.5
								c2.7,3.8,1.5,8.9,0,10.9c-1.3,1.7-4.2,3.9-8.3,3.8c-4.3-0.1-8.4-1.9-11-5.1c-2.5-3.2-3.5-9.3-1.4-10.9c2.3-1.7,4.6-0.9,6-0.7
								c1.1,0.1,2.2-0.5,2.4-1.4c0.2-0.9-0.1-2-1.4-3c-0.7-0.5-1.9-1.4-3.5-1.3c-0.9,0-2.6,0.5-5,0.4c-2.5-0.1-4.9,0.2-7.2,2.2
								c-1.8,1.7-2.9,3-3.6,5.2c-0.3,0.8,0.1,2.6-0.1,3.6c-0.1,1-0.5,1.9-0.6,2.7c0,1.2,0.2,2.7,0.5,4.1c0.3,1.6,0.9,3.4,1.6,5.1
								c0.3,0.7,0.5,1.6,0.9,2c0.5,0.5,1.3,1,2.2,1.8c1.6,1.5,3.4,3.5,4.8,4.1c1.8,0.7,5.4-0.5,6.4-0.2c1,0.3,2.3,1.9,3.9,1.8
								c1.6,0,11.1-0.5,14.4-1.8c4.1-1.6,11.2-6.1,12.6-12.4c1.7-7.7-1.5-13-4.8-16.9c-4-4.8-11.6-11-17.4-15
								c-3.3-2.3-4.5-4.1-5.8-6.3c-1-1.6-2-4.3-1.5-6.9c2.4,1.2,5.7,5.1,6.7,6.3c1.3,1.6,2.9,2.5,4.1,3.1c1.1,0.5,2.5,0.2,3.5,0.4
								c1.1,0.2,0.3,1,2.2,1.7c1.9,0.6,10.2,2.2,12.2,2.1c0.8,0,1.9-0.7,3.2-1.1c1.2-0.4,3.4-0.6,9.2-2.8
								c8.1-3.1,11.4-8.3,14.2-14.4c2.7-6.1,0.9-13.9-0.7-17.5c-1.6-3.5-4.7-8.3-7.9-13.1c-3.2-4.9-7.2-9.9-5.4-19.9
								c1.8-10,9.5-13.1,10.6-14.9c0.9-1.5-1.7-3-2.4-3.3c-0.8-0.4-1.6-0.7-3.7-0.8c-0.1,0-0.3,0-0.4,0c-1.8,0.1-2.8,1.2-3.5,1.5
								c-0.8,0.3-4.4,0.1-4.9,0.2c-0.5,0.1-1.5,1.2-1.7,1.5c-0.4,0.5-0.1,0.6-0.6,1.7c-0.5,1.1-4.1,4-5.1,5.9
								c-0.5,1,0.1,3.1-0.6,4.4c-0.6,1.4-2.6,1.3-3,2.8c-0.3,1.1,0.3,4.7-0.2,6.4c-0.5,1.8-1.5,1-1.6,2.8c-0.1,2.6,4.5,6.7,5.3,7.9
								c0.8,1.2,1.1,1.9,2.1,4.1c1.1,2.4,2.5,3.9,3.6,5.2c1.1,1.2,4.1,3.1,4.9,4.4c0.4,0.7,0,2.1,0.3,3.1c0.3,0.9,1.1,1.6,2.3,3.4
								c1.2,1.8,0.8,6.4-0.3,9.2c-1.1,2.8-4.2,6.5-9.4,8c-5.2,1.5-18.3,0.3-23.6-13.4c-2.4-6.3-1.3-13.7,4.3-19.5
								c5.6-5.8,9.8-14.7,9.9-23.9c0-19.6-16.7-35.5-36.7-35.5S24.2-4.8,24.2,14.8C24.2,24.2,28,33.3,34.9,40z"/>
						</g>
						<g id="Fill-6_7_">
							<path fill="#FFFFFF" d="M54.9,0.1c9.8,0,17.7,7.9,17.7,17.7c0,9.7-7.9,17.7-17.7,17.7s-17.7-7.9-17.7-17.7
								C37.2,8,45.1,0.1,54.9,0.1"/>
						</g>
						<g id="Fill-8_7_">
							<path fill="#1386C8" d="M52.6,16.3c2.2,0,4.1,1.8,4.1,4s-1.8,4-4.1,4s-4.1-1.8-4.1-4S50.4,16.3,52.6,16.3"/>
						</g>
					</g>
					<g id="Wordmark_15_" transform="translate(206.000000, 68.000000)">
						<g id="Fill-10_15_">
							<path d="M41.8,34.3c0-16.8,5.5-30.4,16.5-40.6c11.1-10.3,25.8-15.4,44-15.4c7.5,0,14.4,1,20.9,3c6.5,2,12.2,4.8,17.1,8.6
								c7.1,5.5,12.6,12.1,16.4,19.8c3.8,7.7,5.7,16.1,5.7,25.1c0,17-5.7,30.9-17.2,41.8c-11.4,10.8-26.1,16.3-44.2,16.3
								c-17.8,0-32.2-5.4-43-16.1C47.2,66,41.8,51.8,41.8,34.3L41.8,34.3z M102.1-9.5c-8.5,0-15.3,4.1-20.4,12.4
								c-5,8.3-7.5,19.5-7.5,33.7c0,13.3,2.6,24.1,7.8,32.4c5.3,8.2,12,12.4,20.2,12.4s14.8-4.2,19.8-12.6c5-8.4,7.5-19.7,7.5-33.9
								c0-13.5-2.5-24.3-7.6-32.3C117-5.5,110.4-9.5,102.1-9.5L102.1-9.5z M174.6,34.3c0-16.8,5.5-30.4,16.5-40.6
								c11.1-10.3,25.8-15.4,44-15.4c7.5,0,14.4,1,20.9,3c6.5,2,12.2,4.8,17.1,8.6c7.1,5.5,12.6,12.1,16.4,19.8
								c3.8,7.7,5.7,16.1,5.7,25.1c0,17-5.7,30.9-17.2,41.8c-11.4,10.8-26.1,16.3-44.2,16.3c-17.8,0-32.2-5.4-43-16.1
								C180,66,174.6,51.8,174.6,34.3L174.6,34.3z M235-9.5c-8.5,0-15.3,4.1-20.4,12.4c-5,8.3-7.5,19.5-7.5,33.7
								c0,13.3,2.6,24.1,7.8,32.4c5.3,8.2,12,12.4,20.2,12.4c8.2,0,14.8-4.2,19.8-12.6c5-8.4,7.5-19.7,7.5-33.9
								c0-13.5-2.5-24.3-7.6-32.3C249.9-5.5,243.2-9.5,235-9.5L235-9.5z M304.8,90v-9.2l10-1l3.1-3.1V-6.9l-2.2-2.4l-10.9-1.2v-8.9
								h46.2v4.4l46.9,72.6V-6.2L395-9.3l-10.7-1.2v-8.9h41.5v8.9L416-9.3l-3.1,3.1V90h-26L332.7,6.8v70l2.3,3.1l10.9,1V90H304.8z
								 M432.8,90v-9.5l11.8-0.6l2.6-3.1V-6.9l-2.6-2.4L432.8-10v-9.5h58.4v9.5l-12.1,0.6l-2.6,2.4v83.8l2.6,3.1l12.1,0.6V90H432.8z
								"/>
						</g>
					</g>
				</g>
			</g>
		</g>
		<g>
			<g>
				<line x1="763.3" y1="15.3" x2="763.3" y2="196.8"/>
			</g>
			<g>
				<rect x="756" y="15.3" width="14.6" height="181.5"/>
			</g>
		</g>
		<g>
			<path d="M878.7,56c6.6,4.2,11.7,10.3,15.4,18.3c3.7,8,5.5,17.8,5.5,29.2c0,11.2-1.8,20.9-5.5,28.9c-3.7,8-8.8,14.2-15.4,18.4
				c-6.6,4.2-14.2,6.3-23,6.3s-16.4-2.1-23-6.2c-6.6-4.1-11.7-10.2-15.4-18.2c-3.7-8-5.5-17.7-5.5-29.1c0-11.1,1.8-20.8,5.5-28.9
				c3.7-8.1,8.8-14.3,15.4-18.6c6.6-4.3,14.3-6.4,22.9-6.4C864.5,49.8,872.2,51.9,878.7,56z M834.7,71.8c-5,6.8-7.5,17.5-7.5,31.9
				c0,14.4,2.5,24.9,7.6,31.6c5.1,6.7,12.1,10.1,21,10.1c19.1,0,28.6-14,28.6-41.9c0-28-9.5-42-28.6-42
				C846.7,61.5,839.7,64.9,834.7,71.8z"/>
			<path d="M956.5,76.2c3.9,1.4,7.7,3.5,11.3,6.6l-6.6,8.7c-2.8-2-5.5-3.5-8.2-4.4c-2.7-1-5.6-1.4-8.8-1.4c-6.4,0-11.4,2.6-15,7.7
				c-3.6,5.1-5.3,12.7-5.3,22.7c0,10,1.8,17.4,5.3,22.2c3.5,4.8,8.5,7.2,15.1,7.2c3.1,0,6-0.5,8.6-1.4c2.6-1,5.5-2.5,8.7-4.6l6.3,9
				c-7.2,5.8-15.3,8.7-24.3,8.7c-10.7,0-19.2-3.6-25.4-10.8c-6.2-7.2-9.3-17.2-9.3-30c0-8.4,1.4-15.8,4.2-22.1
				c2.8-6.3,6.8-11.2,12-14.8c5.2-3.5,11.3-5.3,18.5-5.3C948.3,74.2,952.6,74.9,956.5,76.2z"/>
			<path d="M1019.2,151.8c-5.2,3.6-11.1,5.4-17.8,5.4c-6.7,0-12-1.9-15.7-5.8c-3.8-3.9-5.6-9.5-5.6-16.8V86.7h-13.9V76H980V58.1
				l13.9-1.7V76h18.8l-1.5,10.7h-17.3V134c0,4.1,0.7,7.1,2.2,9c1.5,1.9,3.9,2.8,7.3,2.8c3.1,0,6.6-1.1,10.5-3.2L1019.2,151.8z"/>
			<path d="M1079.5,85.3c6.2,7.4,9.3,17.5,9.3,30.3c0,8.2-1.4,15.5-4.2,21.8c-2.8,6.3-6.9,11.1-12.2,14.6c-5.3,3.5-11.6,5.2-19,5.2
				c-11.1,0-19.8-3.7-26.1-11.1c-6.2-7.4-9.3-17.5-9.3-30.3c0-8.2,1.4-15.5,4.2-21.8c2.8-6.3,6.9-11.1,12.2-14.6
				c5.3-3.5,11.7-5.2,19.1-5.2C1064.7,74.2,1073.3,77.9,1079.5,85.3z M1032.9,115.8c0,20.2,6.8,30.3,20.5,30.3
				c13.7,0,20.5-10.1,20.5-30.4c0-20.2-6.8-30.3-20.3-30.3C1039.8,85.3,1032.9,95.5,1032.9,115.8z"/>
			<path d="M1162.9,85c4.7,7.2,7.1,17.4,7.1,30.6c0,12.5-2.7,22.5-8.1,30.1c-5.4,7.6-13.1,11.4-23,11.4c-8.8,0-15.8-3-20.8-9v37.7
				l-13.9,1.7V76h11.9l1.1,10.7c2.9-4,6.4-7.1,10.5-9.3c4.1-2.2,8.4-3.2,13-3.2C1150.7,74.2,1158.2,77.8,1162.9,85z M1155.1,115.6
				c0-20.3-6-30.4-17.9-30.4c-3.9,0-7.5,1.2-10.7,3.5c-3.2,2.3-6,5.3-8.4,8.9v38.7c2,3.1,4.5,5.5,7.5,7.2c3,1.7,6.3,2.5,9.9,2.5
				C1148.5,145.9,1155.1,135.8,1155.1,115.6z"/>
			<path d="M1199.9,40.6c1.8,1.8,2.7,4.1,2.7,6.8c0,2.7-0.9,4.9-2.7,6.7c-1.8,1.8-4.2,2.6-7.1,2.6c-2.8,0-5.1-0.9-6.9-2.6
				c-1.8-1.8-2.7-4-2.7-6.7c0-2.7,0.9-5,2.7-6.8c1.8-1.8,4.1-2.7,6.9-2.7C1195.8,37.9,1198.1,38.8,1199.9,40.6z M1199.9,76v79.4
				h-13.9V76H1199.9z"/>
		</g>
	</g>
</g>
</svg>
