<svg xmlns="http://www.w3.org/2000/svg" viewBox="2773.503 115.808 352.393 66.692">
  <defs>
    <style>
      .cls-1 {
        fill: #fff;
      }
    </style>
  </defs>
  <g id="Group_371" data-name="Group 371" transform="translate(2773.503 115.808)">
    <path id="Path_96" data-name="Path 96" class="cls-1" d="M33.346,0A33.346,33.346,0,1,0,66.692,33.346,33.408,33.408,0,0,0,33.346,0ZM55.953,35.324a8.02,8.02,0,0,1-4.8,4.8,7.667,7.667,0,0,1-3.109.848c-.565,0-.848.283-1.13.283a28.047,28.047,0,0,1-4.239-.848c-.565-.283-.283-.565-.848-.565h-1.13c-.283-.283-.848-.565-1.413-1.13a16.754,16.754,0,0,0-2.261-2.261,3.045,3.045,0,0,0,.565,2.261,4.452,4.452,0,0,0,1.978,1.978A35.057,35.057,0,0,1,45.5,45.78c1.13,1.413,2.261,3.109,1.7,5.652-.565,1.978-2.826,3.674-4.239,4.239-1.13.565-4.239.565-4.8.565s-.848-.565-1.413-.565a6.03,6.03,0,0,1-2.261,0,7.492,7.492,0,0,1-1.7-1.413c-.283-.283-.565-.565-.848-.565l-.283-.565a4.017,4.017,0,0,1-.565-1.7c0-.565-.283-.848-.283-1.413,0-.283.283-.565.283-.848v-1.13a3.6,3.6,0,0,1,1.13-1.7,4.558,4.558,0,0,1,2.543-.848h1.7a2,2,0,0,1,1.7,1.7c0,.283-.283.565-.848.565a2.616,2.616,0,0,0-1.978.283c-.848.565-.283,2.543.565,3.674a4.557,4.557,0,0,0,3.674,1.7A3.878,3.878,0,0,0,42.389,52a3.413,3.413,0,0,0,0-3.674,17.916,17.916,0,0,0-3.674-3.109c-.848-.565-2.826-1.413-3.956-3.109-.565-.565-1.13-1.7-1.978-2.826-.565.565-1.13,1.413-1.413,1.7l-.848.848a7.083,7.083,0,0,1-1.978,1.13c-.565.283-1.13.848-1.7,1.13a11.632,11.632,0,0,0-2.261.848c-1.13.565-2.261,1.413-2.261,2.543A2.811,2.811,0,0,0,24.3,50.019h3.109c.565,0,.848,1.413,1.13,1.413h.565a.608.608,0,0,1,.565.565c.283.283,0,.565.565,1.13s.283,1.7.283,2.261-.283,1.413-.283,1.7a1.7,1.7,0,0,1-.283,1.13c0,.283-.848.848-.848.848-.283.283-.565,0-.565.283-.283,0-.565.848-1.413,1.13a8.361,8.361,0,0,1-2.826.565c-1.13,0-2.543-1.13-2.261-1.413a23.014,23.014,0,0,0,2.543-.565,2.986,2.986,0,0,0,1.7-2.543c0-1.413-1.13-1.978-1.978-2.543A21.078,21.078,0,0,1,20.912,52a7.322,7.322,0,0,1-2.826-3.109c-.565-1.13-.565-1.978,0-3.674s1.7-2.543,3.391-3.674,3.956-2.261,5.652-3.391c1.13-.565,1.978-1.13,1.978-2.261v-1.13l-1.13,1.13a9.735,9.735,0,0,1-5.652,2.826c-.565,0-.565.283-1.13.565H19.781a6.441,6.441,0,0,1-3.109-.848,8.732,8.732,0,0,1-4.239-2.543A8,8,0,0,1,9.891,30.8a7.226,7.226,0,0,1,1.13-5.087,22.412,22.412,0,0,1,3.391-3.674c.848-.848,1.7-1.978,2.261-1.978s.848.565,1.413.565c.283,0,.565-.283,1.13-.283h.848c.283,0,.565.848.848,1.13-.848,1.13,0,.848.283,1.13a.987.987,0,0,1,.283.565c0,.283.283.565.283.848s.848,1.13,1.13,1.413c0,.283-.565,3.391-1.13,3.956a4.412,4.412,0,0,1-2.261,1.7c-.283,0-.283,0-.283-.283a11.644,11.644,0,0,0,.565-2.543,2.986,2.986,0,0,0-1.7-2.543c-1.13-.565-2.261-.565-3.674,1.413-1.13,1.413-1.978,3.674-.565,5.652.565.848,1.7,2.543,5.087,2.543,3.956,0,6.217-1.13,7.347-3.109.848-1.978.565-3.956-1.978-6.217a12.252,12.252,0,0,1-3.674-8.478A12,12,0,0,1,32.781,5.652,11.5,11.5,0,0,1,45.215,17.238a12.019,12.019,0,0,1-3.391,8.2,5.838,5.838,0,0,0-1.413,6.5,6.891,6.891,0,0,0,7.913,4.521,4.5,4.5,0,0,0,3.109-2.826c.283-.848.565-2.543,0-3.109a3.9,3.9,0,0,0-.848-1.13v-1.13c-.283-.565-1.413-1.13-1.7-1.413a4.345,4.345,0,0,1-1.13-1.7c-.283-.848-.565-.848-.565-1.413-.283-.283-1.7-1.7-1.7-2.543,0-.565.283-.283.565-.848s0-1.7,0-2.261.848-.565,1.13-.848c.283-.565,0-1.13.283-1.413a12.291,12.291,0,0,1,1.7-1.978c.283-.283,0-.283.283-.565,0,0,.283-.565.565-.565h1.7c.283,0,.565-.565,1.13-.565h0c.565,0,.848,0,1.13.283.283,0,1.13.565.848,1.13S52,15.26,51.149,18.651c-.565,3.391.848,5.087,1.7,6.782,1.13,1.7,2.261,3.109,2.543,4.521C56.236,30.8,56.8,33.346,55.953,35.324Z"/>
    <path id="Path_97" data-name="Path 97" class="cls-1" d="M14.834,4.3A5.8,5.8,0,0,0,8.9,10.234a5.8,5.8,0,0,0,5.934,5.934,5.8,5.8,0,0,0,5.934-5.934A5.969,5.969,0,0,0,14.834,4.3Zm-.848,8.2a1.335,1.335,0,0,1-1.413-1.413,1.335,1.335,0,0,1,1.413-1.413A1.335,1.335,0,0,1,15.4,11.082,1.335,1.335,0,0,1,13.987,12.5Z" transform="translate(16.251 7.851)"/>
    <path id="Path_98" data-name="Path 98" class="cls-1" d="M76.5,9.291h3.956l.848.848V38.4l-.848,1.13-3.956.283V42.92H96V39.811l-3.956-.283-.848-1.13V10.139l.848-.848H96V5.9H76.5Z" transform="translate(139.684 10.773)"/>
    <path id="Path_99" data-name="Path 99" class="cls-1" d="M78.946,9.556A15.208,15.208,0,0,0,73.294,6.73,28.411,28.411,0,0,0,66.229,5.6c-6.217,0-11.021,1.7-14.977,5.087C47.578,14.078,45.6,18.6,45.6,24.534s1.7,10.739,5.369,14.412,8.478,5.369,14.412,5.369c6.217,0,11.021-1.7,14.977-5.369a18.562,18.562,0,0,0,5.934-14.13,17.068,17.068,0,0,0-1.978-8.478A24.751,24.751,0,0,0,78.946,9.556ZM72.729,36.4q-2.543,4.239-6.782,4.239T59.164,36.4q-2.543-4.239-2.543-11.021c0-4.8.848-8.478,2.543-11.3s3.956-4.239,6.782-4.239A7.942,7.942,0,0,1,72.729,13.8c1.7,2.826,2.543,6.217,2.543,11.021S74.424,33.577,72.729,36.4Z" transform="translate(83.262 10.225)"/>
    <path id="Path_100" data-name="Path 100" class="cls-1" d="M88.046,9.009l3.391.283,1.13,1.13V31.9L76.743,7.313V5.9H61.2V9.009l3.674.283.565.848V38.4l-.848,1.13-3.391.283V42.92H75.047V39.811l-3.674-.283-.848-1.13V14.943L88.894,42.92h8.76v-32.5l1.13-1.13,3.109-.283V5.9H88.046Z" transform="translate(111.747 10.773)"/>
    <path id="Path_101" data-name="Path 101" class="cls-1" d="M63.046,9.556A15.208,15.208,0,0,0,57.394,6.73,28.411,28.411,0,0,0,50.329,5.6c-6.217,0-11.021,1.7-14.977,5.087C31.678,14.078,29.7,18.6,29.7,24.534s1.7,10.739,5.369,14.412,8.478,5.369,14.412,5.369c6.217,0,11.021-1.7,14.977-5.369a18.562,18.562,0,0,0,5.934-14.13,17.067,17.067,0,0,0-1.978-8.478A17.35,17.35,0,0,0,63.046,9.556ZM56.829,36.4q-2.543,4.239-6.782,4.239T43.264,36.4q-2.543-4.239-2.543-11.021c0-4.8.848-8.478,2.543-11.3s3.956-4.239,6.782-4.239A7.942,7.942,0,0,1,56.829,13.8c1.7,2.826,2.543,6.217,2.543,11.021S58.524,33.577,56.829,36.4Z" transform="translate(54.23 10.225)"/>
    <rect id="Rectangle_235" data-name="Rectangle 235" class="cls-1" width="5.087" height="61.323" transform="translate(255.181 5.087)"/>
    <path id="Path_102" data-name="Path 102" class="cls-1" d="M118.429,22.025a9.327,9.327,0,0,0,1.978-5.934c0-3.391-1.13-5.652-3.391-7.347S111.364,6.2,107.126,6.2H97.8V41.242h4.8V26.264h5.369l8.478,14.977H122.1l-9.326-15.825A12.053,12.053,0,0,0,118.429,22.025Zm-10.739.565h-4.8V9.874h4.239c2.826,0,5.087.565,6.217,1.413,1.413.848,1.978,2.543,1.978,4.8s-.565,3.956-1.978,5.087A9.72,9.72,0,0,1,107.691,22.59Z" transform="translate(178.576 11.321)"/>
    <path id="Path_103" data-name="Path 103" class="cls-1" d="M123.143,28.034c-1.978,3.109-4.239,4.521-6.782,4.521-1.413,0-2.543-.283-3.109-1.13a6.839,6.839,0,0,1-.848-3.956V9.1h-4.8V28.316c0,2.543.565,4.521,1.978,5.934a7.236,7.236,0,0,0,5.369,2.261,8.483,8.483,0,0,0,8.2-4.8l.283,4.239h3.956V9.1h-4.8V28.034Z" transform="translate(196.47 16.616)"/>
    <path id="Path_104" data-name="Path 104" class="cls-1" d="M135.486,11.061A7.89,7.89,0,0,0,129.834,8.8a7.7,7.7,0,0,0-4.521,1.13,13.832,13.832,0,0,0-3.674,3.391l-.283-3.956H117.4V36.212h4.8V17.278a9.133,9.133,0,0,1,3.108-3.391,8.015,8.015,0,0,1,3.674-1.13c1.413,0,2.543.283,3.109,1.13.848.848,1.13,2.261,1.13,3.956V36.494h4.8V17.278C137.464,14.734,136.9,12.756,135.486,11.061Z" transform="translate(214.364 16.068)"/>
  </g>
</svg>
