<?xml version="1.0" encoding="utf-8"?>
<!-- Generator: Adobe Illustrator 17.1.0, SVG Export Plug-In . SVG Version: 6.00 Build 0)  -->
<!DOCTYPE svg PUBLIC "-//W3C//DTD SVG 1.1//EN" "http://www.w3.org/Graphics/SVG/1.1/DTD/svg11.dtd">
<svg version="1.1" xmlns="http://www.w3.org/2000/svg" xmlns:xlink="http://www.w3.org/1999/xlink" x="0px" y="0px"
	 viewBox="0 0 715.114 227.923" enable-background="new 0 0 715.114 227.923" xml:space="preserve">
<g id="Layer_1">
</g>
<g id="Logo">
	<g>
		<g>
			<g id="Page-1_10_">
				<g id="Wordmark-Horizontal_10_">
					<g id="Logo-wordmark-HORIZ_10_" transform="translate(1.000000, 1.000000)">
						<g id="Wordmark_10_" transform="translate(206.000000, 68.000000)">
							<g id="Fill-10_10_">
								<g>
									<path d="M57.989,49.739c0-16.843,5.511-30.388,16.536-40.643c11.078-10.254,25.75-15.38,44.02-15.38
										c7.456,0,14.405,1.008,20.851,3.028c6.496,1.965,12.196,4.834,17.096,8.606c7.136,5.473,12.594,12.061,16.378,19.765
										c3.781,7.704,5.67,16.071,5.67,25.102c0,17.001-5.725,30.949-17.176,41.839c-11.395,10.84-26.123,16.257-44.176,16.257
										c-17.844,0-32.168-5.365-42.982-16.096C63.394,81.485,57.989,67.326,57.989,49.739L57.989,49.739z M118.384,5.988
										c-8.521,0-15.312,4.143-20.37,12.433c-5.008,8.287-7.511,19.524-7.511,33.708c0,13.337,2.61,24.122,7.831,32.356
										c5.272,8.234,12.01,12.352,20.211,12.352s14.806-4.196,19.811-12.591c5.008-8.395,7.511-19.684,7.511-33.869
										c0-13.496-2.531-24.252-7.589-32.276C133.27,10.026,126.641,5.988,118.384,5.988L118.384,5.988z M190.811,49.739
										c0-16.843,5.514-30.388,16.536-40.643c11.078-10.254,25.753-15.38,44.02-15.38c7.456,0,14.405,1.008,20.851,3.028
										c6.496,1.965,12.196,4.834,17.096,8.606c7.136,5.473,12.597,12.061,16.378,19.765s5.672,16.071,5.672,25.102
										c0,17.001-5.725,30.949-17.176,41.839c-11.398,10.84-26.123,16.257-44.178,16.257c-17.841,0-32.168-5.365-42.979-16.096
										C196.217,81.485,190.811,67.326,190.811,49.739L190.811,49.739z M251.209,5.988c-8.521,0-15.312,4.143-20.373,12.433
										c-5.008,8.287-7.509,19.524-7.509,33.708c0,13.337,2.61,24.122,7.829,32.356c5.272,8.234,12.01,12.352,20.211,12.352
										s14.806-4.196,19.813-12.591c5.005-8.395,7.509-19.684,7.509-33.869c0-13.496-2.529-24.252-7.589-32.276
										C266.093,10.026,259.463,5.988,251.209,5.988L251.209,5.988z M320.999,105.524V96.36l9.985-0.957l3.116-3.108V8.539
										l-2.156-2.392l-10.944-1.194v-8.928h46.176V0.41l46.894,72.599V9.255l-2.877-3.108l-10.705-1.194v-8.928h41.463v8.928
										l-9.667,1.194l-3.116,3.108v96.269h-26.043l-54.163-83.198v69.968l2.315,3.108l10.944,0.957v9.164H320.999z
										 M449.028,105.524v-9.483l11.824-0.638l2.557-3.108V8.539l-2.557-2.392l-11.824-0.636v-9.485h58.4v9.485l-12.065,0.636
										l-2.635,2.392v83.756l2.635,3.108l12.065,0.638v9.483H449.028z"/>
								</g>
							</g>
						</g>
					</g>
				</g>
			</g>
		</g>
		<path d="M115.064,0.001c-62.938,0-113.96,51.022-113.96,113.96c0,62.938,51.022,113.96,113.96,113.96
			c62.938,0,113.96-51.022,113.96-113.96C229.024,51.023,178.002,0.001,115.064,0.001z M115.064,212.012
			c-54.151,0-98.05-43.9-98.05-98.051c0-54.152,43.899-98.051,98.05-98.051c54.151,0,98.05,43.899,98.05,98.051
			C213.114,168.112,169.215,212.012,115.064,212.012z"/>
		<path d="M180.89,102.907c-1.577-3.536-4.671-8.229-7.856-13.097c-3.185-4.868-7.175-9.837-5.396-19.814s9.395-13.037,10.478-14.87
			c0.866-1.468-1.711-2.953-2.353-3.259c-0.779-0.369-1.627-0.658-3.674-0.748c-0.127-0.006-0.252-0.007-0.372-0.002
			c-1.804,0.065-2.765,1.197-3.508,1.446c-0.806,0.27-4.339,0.056-4.828,0.158c-0.535,0.112-1.474,1.243-1.675,1.531
			c-0.351,0.507-0.081,0.633-0.58,1.68c-0.501,1.046-4.071,4.023-5.048,5.879c-0.523,0.994,0.064,3.05-0.574,4.415
			c-0.636,1.365-2.547,1.298-2.954,2.794c-0.299,1.101,0.272,4.638-0.209,6.364c-0.499,1.788-1.534,0.982-1.599,2.806
			c-0.091,2.57,4.452,6.667,5.226,7.85c0.774,1.184,1.084,1.88,2.041,4.042c1.066,2.412,2.503,3.915,3.584,5.141
			c1.081,1.225,4.056,3.103,4.825,4.417c0.427,0.731-0.038,2.126,0.251,3.041c0.272,0.865,1.054,1.622,2.282,3.397
			c1.228,1.774,0.817,6.391-0.294,9.181c-1.111,2.792-4.138,6.49-9.316,7.944c-5.178,1.453-18.179,0.264-23.386-13.397
			c-2.394-6.283-1.295-13.634,4.3-19.417c5.594-5.783,9.767-14.628,9.781-23.842c0-19.547-16.591-35.394-36.423-35.394
			C93.78,31.154,77.703,47,77.703,66.547c0.008,9.38,3.794,18.375,10.682,25.1c6.889,6.725,8.445,12.975,5.621,18.61
			c-3.056,6.097-10.101,9.392-21.68,9.489c-9.979,0.084-12.679-4.872-14.702-7.72c-3.882-5.461-1.872-12.087,1.769-16.341
			c4.422-5.168,7.687-5.614,11.277-3.681c1.927,1.038,4.774,3.456,4.839,7.863c0.038,2.625-1.738,6.691-1.738,7.206
			c0,0.515,0.419,0.836,0.869,0.643c0.451-0.193,4.066-2.107,6.112-4.729c1.831-2.346,3.796-10.873,3.41-11.967
			c-0.386-1.093-3.168-3.368-3.361-4.591c-0.115-0.726-0.2-1.655-0.542-2.417c-0.234-0.52-0.873-0.998-1.212-1.259
			c-0.836-0.645-3.024,0.161-3.925-0.966c-0.772-0.965-1.094-2.992-2.123-3.249c-0.468-0.118-1.367-0.306-2.189-0.138
			c-1.182,0.241-2.07,0.954-2.99,0.846c-1.285-0.15-2.381-2.188-4.118-2.058c-1.728,0.127-3.924,3.088-6.305,5.661
			c-2.381,2.574-6.607,5.824-9.586,11.066c-2.16,3.801-3.925,8.3-3.024,14.669c0.901,6.37,2.47,10.662,7.592,15.344
			c5.269,4.816,9.522,6.209,12.674,7.303c3.153,1.093,5.34,2.114,8.75,2.22c1.175,0.036,3.678,0.114,4.508,0.024
			c2.101-0.225,1.674-1.15,3.631-1.473c7.623-1.254,13.051-5.234,16.351-8.594c0.84-0.855,3.042-3.206,3.453-3.612
			c0.103,0.585,0.134,2.465,0.068,2.953c-0.457,3.347-2.545,5.22-5.892,7.005c-4.777,2.547-11.713,6.292-16.469,9.62
			c-4.399,3.081-8.28,6.074-9.644,10.988c-1.365,4.913-1.091,7.733,0.41,11.123c1.37,3.092,3.867,6.392,8.052,8.803
			c3.462,1.994,6.492,3.748,9.832,5.463c2.298,1.18,6.318,3.18,5.955,7.366c-0.369,4.244-3.116,6.489-4.981,7.302
			c-3.203,1.397-7.592,1.762-7.78,1.911c-0.331,0.264,3.821,3.773,7.007,3.752c3.479-0.022,4.712-0.256,7.938-1.387
			c2.805-0.983,4.027-3.435,4.482-3.526c0.455-0.091,1.12-0.037,1.729-0.479c0.593-0.431,2.479-1.889,2.706-2.752
			c0.228-0.865,0.274-2.32,0.501-3.094c0.228-0.774,1.137-3.388,1.183-4.799c0.046-1.411,0.411-4.641-0.853-6.495
			c-1.047-1.536-0.501-2.343-1.376-3.173c-0.145-0.138-0.881-1.112-1.553-1.364c-0.87-0.325-1.325-0.041-1.949-0.387
			c-0.996-0.554-2.187-4.288-3.625-4.392c-0.525-0.037-1.135-0.006-1.665,0.122c-1.182,0.285-6.359,0.419-7.289,0.061
			c-1.439-0.554-6.13-3.549-5.732-7.871c0.343-3.713,2.988-6.24,6.574-7.552c3.202-1.172,4.322-1.069,6.505-2.115
			c2.153-1.031,3.663-2.342,5.301-3.206c1.637-0.865,3.855-1.899,5.538-3.31c0.96-0.804,1.922-1.716,2.83-2.859
			c0.779-0.977,2.266-3.628,3.854-4.943c2.172,3.321,4.295,6.245,5.862,8.063c3.98,4.617,9.417,7.426,11.964,9.019
			c2.547,1.591,8.392,5.973,10.896,9.476c2.685,3.752,1.455,8.893-0.023,10.849c-1.279,1.694-4.185,3.891-8.188,3.8
			c-4.282-0.097-8.384-1.855-10.896-5.096c-2.502-3.231-3.477-9.295-1.342-10.895c2.296-1.721,4.545-0.901,5.96-0.729
			c1.108,0.135,2.161-0.455,2.343-1.365c0.181-0.91-0.114-2.002-1.342-2.957c-0.652-0.507-1.851-1.347-3.505-1.326
			c-0.907,0.011-2.616,0.45-4.934,0.369c-2.461-0.085-4.885,0.178-7.111,2.235c-1.831,1.694-2.882,3.032-3.566,5.154
			c-0.261,0.807,0.055,2.542-0.054,3.575c-0.108,1.043-0.539,1.86-0.547,2.663c-0.013,1.193,0.182,2.654,0.454,4.08
			c0.303,1.587,0.88,3.421,1.594,5.045c0.292,0.665,0.527,1.575,0.903,1.979c0.456,0.491,1.328,0.999,2.154,1.805
			c1.564,1.526,3.378,3.495,4.808,4.061c1.776,0.703,5.368-0.523,6.369-0.205c1,0.318,2.286,1.885,3.832,1.84
			c1.548-0.045,11.027-0.491,14.297-1.796c4.086-1.63,11.134-6.121,12.519-12.372c1.708-7.707-1.53-12.98-4.779-16.837
			c-4.012-4.762-11.54-10.914-17.219-14.989c-3.253-2.334-4.487-4.109-5.745-6.228c-0.956-1.61-1.969-4.33-1.461-6.826
			c2.34,1.225,5.684,5.042,6.662,6.261c1.26,1.567,2.866,2.522,4.108,3.132c1.099,0.541,2.472,0.231,3.518,0.413
			c1.046,0.181,0.297,1.038,2.162,1.675c1.866,0.636,10.112,2.161,12.096,2.091c0.811-0.029,1.897-0.657,3.18-1.059
			c1.228-0.385,3.329-0.558,9.162-2.836c7.999-3.125,11.36-8.221,14.064-14.315C184.297,114.224,182.466,106.443,180.89,102.907z
			 M108.211,87.096c-9.714,0-17.589-7.874-17.589-17.588c0-9.715,7.875-17.589,17.589-17.589S125.8,59.792,125.8,69.507
			C125.8,79.221,117.925,87.096,108.211,87.096z"/>
		<g>
			<g>
				<path d="M105.931,67.996c2.224,0,4.026,1.802,4.026,4.026c0,2.224-1.802,4.026-4.026,4.026c-2.224,0-4.026-1.802-4.026-4.026
					C101.905,69.798,103.707,67.996,105.931,67.996"/>
			</g>
		</g>
	</g>
</g>
</svg>
