<?xml version="1.0" encoding="utf-8"?>
<!-- Generator: Adobe Illustrator 17.1.0, SVG Export Plug-In . SVG Version: 6.00 Build 0)  -->
<!DOCTYPE svg PUBLIC "-//W3C//DTD SVG 1.1//EN" "http://www.w3.org/Graphics/SVG/1.1/DTD/svg11.dtd">
<svg version="1.1" xmlns="http://www.w3.org/2000/svg" xmlns:xlink="http://www.w3.org/1999/xlink" x="0px" y="0px"
	 viewBox="0 0 382.07 625.403" enable-background="new 0 0 382.07 625.403" xml:space="preserve">
<g id="Layer_1">
</g>
<g id="Logo">
	<g>
		<g>
			<g>
				<g>
					<g>
						<path d="M310.994,493.437v-6.856l8.528-0.461l1.844-2.247v-60.558l-1.844-1.73l-8.528-0.46v-6.858h42.121v6.858l-8.702,0.46
							l-1.9,1.73v60.558l1.9,2.247l8.702,0.461v6.856H310.994z M218.653,493.437v-6.626l7.202-0.692l2.247-2.247v-60.558
							l-1.555-1.73l-7.894-0.863v-6.455h33.305v3.17l33.822,52.491v-46.096l-2.075-2.247l-7.721-0.863v-6.455h29.905v6.455
							l-6.973,0.863l-2.247,2.247v69.605h-18.783l-39.065-60.154v50.589l1.67,2.247l7.894,0.692v6.626H218.653z M168.316,421.47
							c-6.146,0-11.044,2.996-14.694,8.989c-3.612,5.992-5.416,14.116-5.416,24.372c0,9.643,1.882,17.441,5.646,23.394
							c3.802,5.953,8.662,8.931,14.578,8.931s10.679-3.034,14.291-9.104c3.61-6.07,5.416-14.232,5.416-24.488
							c0-9.758-1.824-17.535-5.474-23.336C179.051,424.389,174.27,421.47,168.316,421.47 M124.754,453.103
							c0-12.178,3.977-21.972,11.927-29.386c7.99-7.414,18.574-11.12,31.749-11.12c5.378,0,10.39,0.729,15.039,2.189
							c4.685,1.421,8.797,3.495,12.33,6.222c5.147,3.957,9.086,8.72,11.812,14.291c2.727,5.57,4.091,11.62,4.091,18.149
							c0,12.292-4.129,22.377-12.388,30.251c-8.221,7.837-18.841,11.754-31.864,11.754c-12.868,0-23.202-3.879-30.999-11.638
							C128.653,476.056,124.754,465.818,124.754,453.103 M72.515,421.47c-6.146,0-11.044,2.996-14.692,8.989
							c-3.612,5.992-5.418,14.116-5.418,24.372c0,9.643,1.882,17.441,5.648,23.394c3.802,5.953,8.662,8.931,14.578,8.931
							s10.679-3.034,14.289-9.104c3.612-6.07,5.418-14.232,5.418-24.488c0-9.758-1.826-17.535-5.474-23.336
							C83.252,424.389,78.471,421.47,72.515,421.47 M28.955,453.103c0-12.178,3.975-21.972,11.927-29.386
							c7.99-7.414,18.573-11.12,31.749-11.12c5.378,0,10.39,0.729,15.039,2.189c4.685,1.421,8.797,3.495,12.33,6.222
							c5.147,3.957,9.084,8.72,11.812,14.291c2.727,5.57,4.089,11.62,4.089,18.149c0,12.292-4.129,22.377-12.388,30.251
							c-8.219,7.837-18.841,11.754-31.862,11.754c-12.87,0-23.202-3.879-31.001-11.638
							C32.854,476.056,28.955,465.818,28.955,453.103"/>
					</g>
				</g>
				<g>
					<path d="M120.385,560.385c4.685,3.582,7.029,8.921,7.029,16.017c0,7.565-2.445,13.188-7.331,16.869
						c-4.887,3.683-11.381,5.523-19.48,5.523h-8.735v25.404h-9.54v-69.186h18.176C109.07,555.012,115.698,556.804,120.385,560.385z
						 M112.903,588.049c2.912-2.142,4.368-5.99,4.368-11.548c0-4.953-1.456-8.535-4.368-10.744
						c-2.911-2.209-7.079-3.313-12.501-3.313h-8.535v28.819h8.334C105.757,591.262,109.992,590.192,112.903,588.049z"/>
					<path d="M161.354,570.677l-1.707,9.038c-1.606-0.401-3.147-0.603-4.619-0.603c-3.28,0-5.925,1.205-7.933,3.615
						c-2.009,2.41-3.582,6.159-4.72,11.246v30.225h-9.238V571.28h7.933l0.904,10.744c1.405-3.949,3.313-6.929,5.724-8.938
						c2.41-2.008,5.222-3.012,8.435-3.012C158.006,570.075,159.748,570.276,161.354,570.677z"/>
					<path d="M201.067,577.505c4.117,4.955,6.175,11.684,6.175,20.184c0,5.49-0.938,10.327-2.812,14.51
						c-1.875,4.186-4.586,7.432-8.133,9.74c-3.55,2.311-7.767,3.465-12.652,3.465c-7.431,0-13.222-2.477-17.372-7.431
						c-4.151-4.953-6.226-11.681-6.226-20.184c0-5.488,0.937-10.325,2.812-14.51c1.873-4.183,4.585-7.431,8.134-9.74
						c3.547-2.31,7.798-3.464,12.753-3.464C191.177,570.075,196.95,572.552,201.067,577.505z M169.989,597.789
						c0,13.456,4.551,20.184,13.656,20.184c9.103,0,13.656-6.761,13.656-20.284c0-13.455-4.519-20.184-13.556-20.184
						C174.573,577.505,169.989,584.267,169.989,597.789z"/>
					<path d="M256.043,577.354c3.547,4.855,5.322,11.633,5.322,20.334c0,5.49-0.838,10.327-2.511,14.51
						c-1.674,4.186-4.084,7.432-7.229,9.74c-3.147,2.311-6.828,3.465-11.046,3.465c-5.558,0-10.242-2.343-14.058-7.029l-0.904,5.824
						h-8.134v-74.206l9.238-1.104v29.02c3.815-5.222,8.802-7.832,14.962-7.832C247.708,570.075,252.494,572.502,256.043,577.354z
						 M247.96,613.102c2.309-3.314,3.464-8.451,3.464-15.414c0-7.162-1.071-12.334-3.213-15.514c-2.144-3.179-5.189-4.77-9.138-4.77
						c-4.687,0-8.804,2.746-12.352,8.234v25.304c1.406,2.21,3.129,3.95,5.172,5.222c2.041,1.272,4.2,1.908,6.477,1.908
						C242.452,618.073,245.65,616.416,247.96,613.102z"/>
					<path d="M311.873,600.901h-33.739c0.401,5.824,1.873,10.109,4.418,12.854c2.543,2.746,5.824,4.117,9.841,4.117
						c2.543,0,4.886-0.367,7.029-1.104c2.142-0.735,4.383-1.907,6.728-3.515l4.017,5.523c-5.623,4.418-11.783,6.627-18.477,6.627
						c-7.364,0-13.104-2.41-17.221-7.23c-4.117-4.819-6.176-11.447-6.176-19.881c0-5.488,0.887-10.359,2.661-14.611
						c1.772-4.25,4.317-7.581,7.631-9.99c3.314-2.41,7.213-3.615,11.699-3.615c7.028,0,12.416,2.309,16.166,6.928
						c3.749,4.619,5.623,11.014,5.623,19.18C312.073,597.723,312.006,599.296,311.873,600.901z M302.936,593.471
						c0-5.222-1.038-9.204-3.112-11.949c-2.076-2.744-5.188-4.117-9.339-4.117c-7.565,0-11.683,5.557-12.351,16.668h24.802V593.471z
						"/>
				</g>
				<g>
					<g>
						<line x1="350.699" y1="524.141" x2="26.543" y2="524.141"/>
					</g>
					<g>
						<rect x="26.541" y="518.565" width="324.16" height="11.151"/>
					</g>
				</g>
			</g>
		</g>
		<g>
			<path d="M191.035,0C85.531,0,0,85.53,0,191.035C0,296.539,85.531,382.07,191.035,382.07
				c105.505,0,191.035-85.531,191.035-191.035C382.07,85.53,296.54,0,191.035,0z M191.035,355.4
				c-90.775,0-164.364-73.59-164.364-164.365c0-90.776,73.589-164.365,164.364-164.365c90.776,0,164.365,73.589,164.365,164.365
				C355.4,281.81,281.811,355.4,191.035,355.4z"/>
			<path d="M301.381,172.504c-2.643-5.927-7.831-13.794-13.169-21.954c-5.338-8.161-12.028-16.491-9.045-33.215
				c2.983-16.724,15.75-21.854,17.564-24.928c1.452-2.46-2.868-4.949-3.945-5.462c-1.306-0.619-2.727-1.103-6.159-1.253
				c-0.214-0.01-0.422-0.012-0.623-0.003c-3.024,0.108-4.635,2.007-5.881,2.424c-1.351,0.453-7.273,0.094-8.093,0.265
				c-0.897,0.188-2.47,2.083-2.807,2.566c-0.589,0.85-0.135,1.062-0.973,2.817c-0.84,1.754-6.824,6.744-8.462,9.856
				c-0.878,1.667,0.107,5.113-0.962,7.401c-1.067,2.288-4.27,2.177-4.952,4.684c-0.502,1.846,0.457,7.775-0.351,10.668
				c-0.837,2.998-2.572,1.647-2.681,4.704c-0.153,4.308,7.464,11.177,8.76,13.159c1.298,1.984,1.818,3.151,3.421,6.775
				c1.788,4.043,4.196,6.563,6.007,8.618c1.813,2.054,6.8,5.202,8.088,7.404c0.715,1.225-0.064,3.564,0.421,5.097
				c0.457,1.45,1.766,2.719,3.825,5.694c2.059,2.973,1.369,10.713-0.493,15.391c-1.862,4.68-6.936,10.88-15.617,13.316
				c-8.68,2.435-30.475,0.442-39.202-22.457c-4.013-10.533-2.171-22.855,7.208-32.549c9.377-9.694,16.373-24.521,16.395-39.967
				c0-32.768-27.812-59.332-61.057-59.332c-33.244,0-60.195,26.563-60.195,59.332c0.013,15.724,6.359,30.802,17.907,42.076
				c11.549,11.274,14.157,21.75,9.423,31.197c-5.123,10.22-16.933,15.745-36.343,15.907c-16.728,0.141-21.254-8.168-24.646-12.942
				c-6.507-9.155-3.137-20.262,2.965-27.394c7.412-8.663,12.886-9.411,18.905-6.17c3.23,1.74,8.004,5.793,8.112,13.181
				c0.064,4.401-2.913,11.217-2.913,12.08c0,0.863,0.702,1.402,1.457,1.078c0.756-0.324,6.816-3.531,10.246-7.928
				c3.069-3.933,6.363-18.226,5.717-20.06c-0.648-1.833-5.311-5.646-5.634-7.696c-0.192-1.218-0.335-2.774-0.909-4.052
				c-0.391-0.871-1.463-1.673-2.032-2.11c-1.402-1.081-5.069,0.269-6.579-1.619c-1.294-1.618-1.833-5.016-3.559-5.446
				c-0.784-0.197-2.291-0.512-3.67-0.232c-1.981,0.404-3.47,1.599-5.011,1.417c-2.154-0.252-3.991-3.667-6.903-3.451
				c-2.896,0.214-6.578,5.176-10.568,9.49c-3.991,4.315-11.075,9.764-16.07,18.55c-3.621,6.371-6.58,13.914-5.069,24.591
				c1.51,10.678,4.14,17.873,12.726,25.722c8.832,8.074,15.962,10.408,21.246,12.242c5.286,1.832,8.951,3.543,14.668,3.721
				c1.97,0.061,6.165,0.191,7.558,0.041c3.522-0.378,2.805-1.928,6.086-2.469c12.779-2.102,21.878-8.773,27.409-14.406
				c1.408-1.434,5.099-5.375,5.788-6.055c0.172,0.981,0.225,4.132,0.113,4.95c-0.766,5.61-4.267,8.751-9.877,11.743
				c-8.008,4.27-19.635,10.547-27.608,16.127c-7.375,5.165-13.879,10.183-16.167,18.419c-2.288,8.236-1.829,12.964,0.687,18.646
				c2.297,5.183,6.483,10.715,13.498,14.757c5.804,3.343,10.882,6.284,16.481,9.158c3.853,1.978,10.591,5.33,9.982,12.347
				c-0.618,7.114-5.223,10.878-8.35,12.24c-5.369,2.342-12.726,2.954-13.042,3.203c-0.555,0.442,6.405,6.324,11.745,6.29
				c5.832-0.037,7.899-0.429,13.307-2.324c4.702-1.648,6.75-5.758,7.513-5.91c0.763-0.153,1.878-0.063,2.898-0.802
				c0.994-0.722,4.155-3.166,4.536-4.613c0.382-1.45,0.459-3.889,0.84-5.186c0.382-1.297,1.907-5.68,1.983-8.044
				c0.077-2.365,0.688-7.779-1.43-10.887c-1.755-2.575-0.839-3.928-2.307-5.319c-0.244-0.232-1.476-1.863-2.604-2.286
				c-1.459-0.546-2.221-0.069-3.267-0.649c-1.67-0.929-3.666-7.188-6.077-7.362c-0.88-0.063-1.902-0.01-2.792,0.204
				c-1.982,0.478-10.661,0.703-12.218,0.103c-2.412-0.928-10.276-5.948-9.609-13.194c0.576-6.224,5.008-10.46,11.019-12.66
				c5.368-1.965,7.245-1.792,10.905-3.546c3.61-1.729,6.141-3.927,8.886-5.374c2.744-1.45,6.463-3.184,9.283-5.549
				c1.609-1.348,3.221-2.876,4.745-4.793c1.306-1.638,3.799-6.081,6.46-8.286c3.641,5.567,7.199,10.468,9.826,13.516
				c6.671,7.739,15.785,12.449,20.056,15.118c4.27,2.668,14.068,10.013,18.265,15.884c4.501,6.29,2.439,14.908-0.039,18.187
				c-2.145,2.84-7.015,6.522-13.726,6.369c-7.177-0.163-14.055-3.109-18.265-8.543c-4.194-5.416-5.828-15.582-2.25-18.264
				c3.848-2.885,7.619-1.51,9.99-1.222c1.858,0.227,3.623-0.763,3.928-2.288c0.304-1.525-0.191-3.357-2.25-4.958
				c-1.093-0.85-3.103-2.258-5.876-2.223c-1.52,0.018-4.385,0.754-8.271,0.619c-4.126-0.143-8.189,0.298-11.92,3.747
				c-3.069,2.841-4.83,5.082-5.978,8.64c-0.437,1.352,0.092,4.262-0.091,5.993c-0.182,1.749-0.904,3.118-0.917,4.464
				c-0.022,2,0.306,4.45,0.761,6.839c0.507,2.661,1.474,5.735,2.672,8.457c0.489,1.114,0.884,2.641,1.514,3.317
				c0.764,0.823,2.226,1.674,3.611,3.026c2.622,2.558,5.662,5.86,8.059,6.808c2.977,1.178,8.999-0.878,10.677-0.343
				c1.677,0.533,3.831,3.16,6.423,3.085c2.594-0.076,18.485-0.824,23.966-3.01c6.85-2.733,18.664-10.261,20.986-20.739
				c2.863-12.92-2.564-21.759-8.011-28.225c-6.726-7.983-19.344-18.296-28.864-25.127c-5.453-3.912-7.522-6.889-9.63-10.44
				c-1.603-2.699-3.3-7.259-2.449-11.442c3.923,2.054,9.528,8.451,11.168,10.495c2.112,2.628,4.805,4.227,6.887,5.25
				c1.842,0.906,4.144,0.387,5.898,0.692c1.753,0.303,0.497,1.74,3.624,2.809c3.128,1.067,16.951,3.623,20.277,3.506
				c1.359-0.048,3.181-1.102,5.33-1.775c2.059-0.646,5.581-0.935,15.358-4.755c13.409-5.239,19.043-13.781,23.575-23.996
				C307.092,191.475,304.023,178.432,301.381,172.504z M179.547,145.999c-16.284,0-29.485-13.2-29.485-29.484
				c0-16.285,13.202-29.486,29.485-29.486s29.485,13.2,29.485,29.486C209.032,132.799,195.83,145.999,179.547,145.999z"/>
			<g>
				<g>
					<path d="M175.724,113.982c3.728,0,6.749,3.021,6.749,6.749c0,3.728-3.021,6.749-6.749,6.749c-3.728,0-6.749-3.021-6.749-6.749
						C168.975,117.003,171.996,113.982,175.724,113.982"/>
				</g>
			</g>
		</g>
	</g>
</g>
</svg>
