<?xml version="1.0" encoding="utf-8"?>
<!-- Generator: Adobe Illustrator 17.1.0, SVG Export Plug-In . SVG Version: 6.00 Build 0)  -->
<!DOCTYPE svg PUBLIC "-//W3C//DTD SVG 1.1//EN" "http://www.w3.org/Graphics/SVG/1.1/DTD/svg11.dtd">
<svg version="1.1" xmlns="http://www.w3.org/2000/svg" xmlns:xlink="http://www.w3.org/1999/xlink" x="0px" y="0px"
	 viewBox="0 0 363.349 616.804" enable-background="new 0 0 363.349 616.804" xml:space="preserve">
<g id="Layer_1">
</g>
<g id="Logo">
	<g>
		<g>
			<g>
				<path fill="#8DD8F8" d="M181.675,0C282.01,0,363.349,81.339,363.349,181.675S282.01,363.349,181.675,363.349S0,282.01,0,181.675
					S81.339,0,181.675,0"/>
			</g>
			<g>
				<path fill="#0588CB" d="M132.242,140.329c12.764,12.461,15.648,24.041,10.415,34.482c-5.663,11.297-18.716,17.403-40.17,17.582
					c-18.491,0.156-23.492-9.027-27.242-14.305c-7.192-10.119-3.468-22.395,3.277-30.278c8.194-9.576,14.243-10.403,20.896-6.82
					c3.57,1.922,8.846,6.402,8.966,14.568c0.071,4.863-3.219,12.397-3.219,13.351c0,0.954,0.776,1.55,1.61,1.192
					c0.836-0.358,7.534-3.902,11.326-8.762c3.392-4.347,7.033-20.146,6.319-22.173c-0.716-2.026-5.87-6.241-6.228-8.506
					c-0.213-1.346-0.371-3.067-1.005-4.478c-0.432-0.963-1.617-1.849-2.245-2.333c-1.55-1.194-5.603,0.298-7.272-1.789
					c-1.43-1.788-2.026-5.543-3.933-6.019c-0.867-0.218-2.533-0.567-4.057-0.256c-2.189,0.447-3.835,1.768-5.539,1.566
					c-2.38-0.278-4.411-4.053-7.63-3.813c-3.201,0.236-7.271,5.721-11.682,10.49c-4.411,4.769-12.241,10.791-17.762,20.504
					c-4.002,7.042-7.272,15.379-5.603,27.18c1.67,11.802,4.576,19.755,14.067,28.43c9.761,8.924,17.642,11.504,23.483,13.531
					c5.843,2.026,9.894,3.917,16.213,4.113c2.178,0.067,6.815,0.211,8.353,0.045c3.893-0.418,3.101-2.131,6.727-2.729
					c14.125-2.324,24.183-9.698,30.296-15.924c1.555-1.584,5.636-5.941,6.397-6.693c0.191,1.085,0.249,4.567,0.125,5.472
					c-0.847,6.201-4.716,9.672-10.917,12.979c-8.851,4.72-21.703,11.658-30.516,17.826c-8.152,5.708-15.341,11.255-17.87,20.358
					c-2.529,9.104-2.022,14.329,0.759,20.609c2.538,5.728,7.165,11.843,14.919,16.311c6.415,3.695,12.029,6.945,18.217,10.123
					c4.258,2.187,11.707,5.892,11.033,13.647c-0.683,7.863-5.774,12.023-9.229,13.529c-5.935,2.589-14.067,3.265-14.416,3.541
					c-0.612,0.489,7.08,6.991,12.982,6.953c6.446-0.04,8.731-0.474,14.708-2.569c5.198-1.822,7.461-6.364,8.304-6.533
					c0.843-0.169,2.077-0.069,3.203-0.887c1.099-0.798,4.593-3.499,5.014-5.1c0.421-1.602,0.507-4.298,0.928-5.732
					c0.421-1.433,2.107-6.279,2.191-8.891c0.085-2.614,0.761-8.599-1.581-12.034c-1.94-2.847-0.928-4.342-2.551-5.879
					c-0.269-0.256-1.631-2.06-2.878-2.527c-1.613-0.603-2.456-0.076-3.612-0.718c-1.846-1.026-4.051-7.945-6.717-8.137
					c-0.972-0.069-2.102-0.011-3.085,0.225c-2.191,0.529-11.783,0.778-13.506,0.114c-2.665-1.026-11.358-6.575-10.621-14.583
					c0.636-6.88,5.536-11.562,12.179-13.994c5.933-2.171,8.008-1.98,12.054-3.919c3.99-1.911,6.787-4.34,9.821-5.941
					c3.034-1.602,7.143-3.519,10.261-6.133c1.779-1.49,3.561-3.179,5.245-5.298c1.443-1.809,4.199-6.722,7.14-9.158
					c4.024,6.153,7.957,11.571,10.861,14.939c7.374,8.555,17.448,13.76,22.168,16.71c4.72,2.949,15.55,11.068,20.19,17.557
					c4.974,6.953,2.696,16.478-0.044,20.102c-2.371,3.139-7.754,7.209-15.172,7.04c-7.934-0.18-15.535-3.435-20.188-9.442
					c-4.636-5.986-6.442-17.223-2.487-20.188c4.253-3.188,8.421-1.67,11.042-1.35c2.053,0.251,4.004-0.843,4.342-2.529
					c0.336-1.686-0.211-3.71-2.487-5.479c-1.208-0.939-3.43-2.496-6.495-2.458c-1.68,0.02-4.847,0.834-9.142,0.685
					c-4.56-0.158-9.051,0.329-13.175,4.142c-3.392,3.139-5.339,5.617-6.608,9.549c-0.483,1.495,0.102,4.711-0.1,6.624
					c-0.202,1.933-0.999,3.446-1.014,4.934c-0.024,2.211,0.338,4.918,0.841,7.559c0.561,2.941,1.63,6.339,2.954,9.347
					c0.541,1.232,0.977,2.919,1.673,3.666c0.845,0.91,2.46,1.851,3.991,3.345c2.898,2.827,6.259,6.477,8.908,7.525
					c3.29,1.303,9.947-0.97,11.802-0.38c1.853,0.589,4.235,3.494,7.1,3.41c2.867-0.084,20.431-0.91,26.49-3.326
					c7.57-3.021,20.629-11.342,23.196-22.924c3.165-14.28-2.834-24.05-8.855-31.197c-7.434-8.824-21.381-20.222-31.904-27.773
					c-6.028-4.324-8.313-7.614-10.644-11.54c-1.771-2.983-3.648-8.023-2.707-12.646c4.337,2.271,10.532,9.342,12.345,11.6
					c2.335,2.905,5.31,4.673,7.612,5.803c2.037,1.001,4.58,0.427,6.518,0.765c1.938,0.336,0.55,1.924,4.006,3.105
					c3.457,1.179,18.736,4.004,22.413,3.875c1.502-0.053,3.515-1.217,5.892-1.962c2.276-0.714,6.168-1.034,16.976-5.256
					c14.821-5.79,21.049-15.232,26.058-26.523c5.009-11.291,1.617-25.709-1.304-32.26s-8.655-15.246-14.556-24.266
					c-5.901-9.02-13.295-18.227-9.998-36.713c3.297-18.485,17.408-24.155,19.414-27.553c1.604-2.72-3.17-5.47-4.36-6.037
					c-1.444-0.685-3.014-1.219-6.807-1.386c-0.236-0.011-0.467-0.013-0.689-0.004c-3.343,0.12-5.123,2.218-6.5,2.68
					c-1.493,0.5-8.039,0.104-8.946,0.293c-0.992,0.207-2.731,2.302-3.103,2.836c-0.65,0.939-0.149,1.174-1.076,3.114
					c-0.928,1.938-7.541,7.454-9.353,10.893c-0.97,1.842,0.118,5.652-1.063,8.181c-1.179,2.529-4.72,2.405-5.474,5.178
					c-0.554,2.04,0.505,8.593-0.387,11.791c-0.925,3.314-2.843,1.82-2.963,5.2c-0.169,4.762,8.25,12.354,9.683,14.545
					c1.433,2.193,2.009,3.483,3.781,7.489c1.977,4.469,4.638,7.254,6.64,9.525c2.004,2.271,7.516,5.75,8.94,8.184
					c0.79,1.354-0.071,3.939,0.465,5.634c0.505,1.602,1.953,3.005,4.228,6.293c2.276,3.286,1.513,11.842-0.545,17.012
					c-2.058,5.172-7.667,12.025-17.261,14.717c-9.594,2.692-33.684,0.489-43.331-24.822c-4.436-11.642-2.4-25.262,7.966-35.977
					c10.365-10.715,18.097-27.104,18.122-44.176c0-36.219-30.741-65.579-67.487-65.579s-66.535,29.36-66.535,65.579
					C112.463,111.203,119.477,127.868,132.242,140.329z"/>
			</g>
			<g>
				<path fill="#FFFFFF" d="M168.976,66.717c17.999,0,32.591,14.59,32.591,32.591c0,17.999-14.592,32.589-32.591,32.589
					c-17.999,0-32.591-14.59-32.591-32.589C136.385,81.307,150.977,66.717,168.976,66.717"/>
			</g>
			<g>
				<path fill="#0588CB" d="M164.751,96.507c4.12,0,7.46,3.339,7.46,7.46c0,4.12-3.339,7.46-7.46,7.46c-4.12,0-7.46-3.339-7.46-7.46
					C157.292,99.847,160.631,96.507,164.751,96.507"/>
			</g>
			<g>
				<path d="M301.634,484.837v-6.856l8.528-0.461l1.844-2.247v-60.558l-1.844-1.73l-8.528-0.46v-6.858h42.121v6.858l-8.702,0.46
					l-1.9,1.73v60.558l1.9,2.247l8.702,0.461v6.856H301.634z M209.292,484.837v-6.626l7.202-0.692l2.247-2.247v-60.558l-1.555-1.73
					l-7.894-0.863v-6.455h33.305v3.17l33.822,52.491v-46.096l-2.075-2.247l-7.721-0.863v-6.455h29.905v6.455l-6.973,0.863
					l-2.247,2.247v69.605h-18.783l-39.065-60.154v50.589l1.67,2.247l7.894,0.692v6.626H209.292z M158.956,412.87
					c-6.146,0-11.044,2.996-14.694,8.989c-3.612,5.992-5.416,14.116-5.416,24.372c0,9.643,1.882,17.441,5.646,23.394
					c3.802,5.953,8.662,8.931,14.578,8.931s10.679-3.034,14.291-9.104c3.61-6.07,5.416-14.232,5.416-24.488
					c0-9.758-1.824-17.535-5.474-23.336C169.691,415.79,164.909,412.87,158.956,412.87 M115.394,444.504
					c0-12.178,3.977-21.972,11.927-29.386c7.99-7.414,18.574-11.12,31.749-11.12c5.378,0,10.39,0.729,15.039,2.189
					c4.685,1.421,8.797,3.495,12.33,6.222c5.147,3.957,9.086,8.72,11.812,14.291c2.727,5.57,4.091,11.62,4.091,18.149
					c0,12.292-4.129,22.377-12.388,30.251c-8.221,7.837-18.841,11.754-31.864,11.754c-12.868,0-23.202-3.879-30.999-11.638
					C119.293,467.456,115.394,457.219,115.394,444.504 M63.155,412.87c-6.146,0-11.044,2.996-14.692,8.989
					c-3.612,5.992-5.418,14.116-5.418,24.372c0,9.643,1.882,17.441,5.648,23.394c3.802,5.953,8.662,8.931,14.578,8.931
					s10.679-3.034,14.289-9.104c3.612-6.07,5.418-14.232,5.418-24.488c0-9.758-1.826-17.535-5.474-23.336
					C73.892,415.79,69.11,412.87,63.155,412.87 M19.595,444.504c0-12.178,3.975-21.972,11.927-29.386
					c7.99-7.414,18.573-11.12,31.749-11.12c5.378,0,10.39,0.729,15.039,2.189c4.685,1.421,8.797,3.495,12.33,6.222
					c5.147,3.957,9.084,8.72,11.812,14.291c2.727,5.57,4.089,11.62,4.089,18.149c0,12.292-4.129,22.377-12.388,30.251
					c-8.219,7.837-18.841,11.754-31.862,11.754c-12.87,0-23.202-3.879-31.001-11.638C23.494,467.456,19.595,457.219,19.595,444.504"
					/>
			</g>
		</g>
		<g>
			<path d="M75.83,551.786c4.685,3.582,7.029,8.921,7.029,16.016c0,7.566-2.445,13.189-7.331,16.87
				c-4.887,3.683-11.381,5.522-19.48,5.522h-8.735v25.405h-9.54v-69.186h18.176C64.516,546.414,71.143,548.206,75.83,551.786z
				 M68.349,579.45c2.912-2.142,4.368-5.99,4.368-11.548c0-4.953-1.456-8.535-4.368-10.744c-2.911-2.209-7.079-3.313-12.501-3.313
				h-8.535v28.818h8.334C61.202,582.663,65.437,581.593,68.349,579.45z"/>
			<path d="M116.8,562.078l-1.707,9.038c-1.606-0.402-3.147-0.603-4.619-0.603c-3.28,0-5.925,1.204-7.933,3.614
				c-2.009,2.41-3.582,6.16-4.72,11.247v30.225h-9.238V562.68h7.933l0.904,10.744c1.405-3.948,3.313-6.928,5.724-8.937
				c2.41-2.008,5.222-3.013,8.435-3.013C113.451,561.475,115.193,561.676,116.8,562.078z"/>
			<path d="M156.513,568.906c4.117,4.955,6.175,11.683,6.175,20.184c0,5.49-0.938,10.327-2.812,14.51
				c-1.875,4.185-4.586,7.431-8.133,9.74c-3.55,2.31-7.767,3.465-12.652,3.465c-7.431,0-13.222-2.477-17.372-7.431
				c-4.151-4.953-6.226-11.682-6.226-20.184c0-5.488,0.937-10.325,2.812-14.51c1.873-4.183,4.585-7.431,8.134-9.74
				c3.547-2.31,7.798-3.465,12.753-3.465C146.622,561.475,152.395,563.953,156.513,568.906z M125.434,589.19
				c0,13.455,4.551,20.184,13.656,20.184c9.103,0,13.656-6.761,13.656-20.284c0-13.455-4.519-20.184-13.556-20.184
				C130.018,568.906,125.434,575.668,125.434,589.19z"/>
			<path d="M199.64,613.189c-3.482,2.41-7.431,3.615-11.85,3.615c-4.485,0-7.982-1.288-10.493-3.866
				c-2.51-2.576-3.766-6.309-3.766-11.196V569.81h-9.238v-7.13h9.238v-11.949l9.238-1.104v13.054h12.552l-1.004,7.13h-11.548v31.53
				c0,2.745,0.485,4.736,1.456,5.975c0.97,1.239,2.594,1.857,4.87,1.857c2.074,0,4.418-0.703,7.029-2.108L199.64,613.189z"/>
			<path d="M242.416,592.302h-33.739c0.401,5.824,1.873,10.109,4.418,12.854c2.543,2.746,5.824,4.117,9.841,4.117
				c2.543,0,4.886-0.367,7.029-1.104c2.142-0.736,4.383-1.908,6.728-3.515l4.017,5.522c-5.623,4.419-11.783,6.628-18.477,6.628
				c-7.364,0-13.104-2.41-17.221-7.23c-4.117-4.819-6.176-11.447-6.176-19.882c0-5.488,0.887-10.358,2.661-14.61
				c1.772-4.25,4.317-7.581,7.631-9.991c3.314-2.41,7.213-3.615,11.699-3.615c7.028,0,12.416,2.31,16.166,6.929
				c3.749,4.619,5.623,11.013,5.623,19.18C242.616,589.123,242.549,590.696,242.416,592.302z M233.478,584.872
				c0-5.221-1.038-9.203-3.112-11.949c-2.076-2.744-5.188-4.116-9.339-4.116c-7.565,0-11.683,5.557-12.351,16.668h24.802V584.872z"
				/>
			<path d="M291.719,615.599h-7.933l-0.702-8.234c-2.009,3.281-4.318,5.674-6.929,7.18c-2.611,1.506-5.791,2.26-9.54,2.26
				c-4.619,0-8.233-1.406-10.845-4.218c-2.61-2.812-3.916-6.794-3.916-11.949V562.68h9.238v36.953c0,3.614,0.636,6.175,1.908,7.682
				c1.271,1.506,3.347,2.259,6.226,2.259c5.154,0,9.572-3.045,13.255-9.138V562.68h9.237V615.599z"/>
			<path d="M329.875,562.982c2.878,1.004,5.623,2.51,8.234,4.519l-3.916,5.824c-2.41-1.539-4.704-2.677-6.879-3.414
				c-2.176-0.736-4.469-1.104-6.878-1.104c-3.013,0-5.39,0.619-7.13,1.857c-1.741,1.239-2.61,2.929-2.61,5.07
				c0,2.144,0.818,3.816,2.46,5.021c1.64,1.205,4.602,2.377,8.887,3.515c5.89,1.473,10.292,3.481,13.204,6.024
				c2.912,2.545,4.368,6.024,4.368,10.443c0,5.222-2.025,9.205-6.075,11.949c-4.051,2.745-8.987,4.117-14.811,4.117
				c-8.033,0-14.695-2.31-19.982-6.929l4.92-5.623c4.484,3.414,9.439,5.121,14.861,5.121c3.48,0,6.241-0.719,8.284-2.159
				c2.041-1.438,3.063-3.396,3.063-5.874c0-1.808-0.368-3.264-1.104-4.368c-0.737-1.104-2.008-2.074-3.815-2.912
				c-1.808-0.836-4.453-1.723-7.933-2.661c-5.624-1.472-9.69-3.447-12.201-5.925c-2.51-2.476-3.765-5.623-3.765-9.438
				c0-2.744,0.818-5.237,2.46-7.48c1.64-2.242,3.916-3.982,6.828-5.222c2.912-1.238,6.176-1.858,9.79-1.858
				C323.75,561.475,326.996,561.978,329.875,562.982z"/>
		</g>
		<g>
			<g>
				<line x1="341.339" y1="515.542" x2="17.183" y2="515.542"/>
			</g>
			<g>
				<rect x="17.18" y="509.966" width="324.16" height="11.151"/>
			</g>
		</g>
	</g>
</g>
</svg>
