<?xml version="1.0" encoding="utf-8"?>
<!-- Generator: Adobe Illustrator 17.1.0, SVG Export Plug-In . SVG Version: 6.00 Build 0)  -->
<!DOCTYPE svg PUBLIC "-//W3C//DTD SVG 1.1//EN" "http://www.w3.org/Graphics/SVG/1.1/DTD/svg11.dtd">
<svg version="1.1" xmlns="http://www.w3.org/2000/svg" xmlns:xlink="http://www.w3.org/1999/xlink" x="0px" y="0px"
	 viewBox="0 0 1042.1 196.8" enable-background="new 0 0 1042.1 196.8" xml:space="preserve">
<g id="Layer_1">
</g>
<g id="Logo">
	<g>
		<g>
			<g>
				<path fill="#FFFFFF" d="M849.1,111.4H833v44h-14.3V51.6H846c13,0,22.8,2.5,29.4,7.4c6.7,4.9,10,12.3,10,22
					c0,7.2-1.9,13.1-5.6,17.6c-3.7,4.5-9.3,7.9-16.9,10.2l28,46.5h-17L849.1,111.4z M847.5,100.4c7.5,0,13.2-1.5,17-4.6
					c3.8-3.1,5.7-8,5.7-14.8c0-6.4-1.9-11.1-5.8-13.9c-3.9-2.9-10.1-4.3-18.6-4.3H833v37.7H847.5z"/>
				<path fill="#FFFFFF" d="M960.6,155.4h-11.9l-1.1-12.4c-3,4.9-6.5,8.5-10.4,10.8c-3.9,2.3-8.7,3.4-14.3,3.4
					c-6.9,0-12.4-2.1-16.3-6.3c-3.9-4.2-5.9-10.2-5.9-17.9V76h13.9v55.4c0,5.4,1,9.3,2.9,11.5c1.9,2.3,5,3.4,9.3,3.4
					c7.7,0,14.4-4.6,19.9-13.7V76h13.9V155.4z"/>
				<path fill="#FFFFFF" d="M1036,80.7c4.1,4.3,6.1,10.2,6.1,17.8v56.9h-13.9v-55c0-5.6-1.1-9.6-3.2-11.9c-2.1-2.3-5.2-3.5-9.3-3.5
					c-4.2,0-7.9,1.2-11.1,3.6c-3.2,2.4-6.2,5.9-9,10.4v56.3h-13.9V76h11.9l1.2,11.7c2.8-4.2,6.3-7.5,10.5-9.9
					c4.2-2.4,8.8-3.6,13.8-3.6C1026.3,74.2,1031.9,76.3,1036,80.7z"/>
			</g>
		</g>
		<g>
			<g>
				<path fill="#FFFFFF" d="M98.8,0C44.2,0,0,44.1,0,98.4s44.2,98.4,98.8,98.4s98.8-44.1,98.8-98.4S153.4,0,98.8,0z M165.8,104.8
					c-2.7,6.1-6.1,11.2-14.2,14.4c-5.9,2.3-8,2.5-9.2,2.8c-1.3,0.4-2.4,1-3.2,1.1c-2,0.1-10.3-1.5-12.2-2.1
					c-1.9-0.6-1.1-1.5-2.2-1.7c-1.1-0.2-2.4,0.1-3.5-0.4c-1.3-0.6-2.9-1.6-4.1-3.1c-1-1.2-4.4-5.1-6.7-6.3c-0.5,2.5,0.5,5.2,1.5,6.9
					c1.3,2.1,2.5,3.9,5.8,6.3c5.7,4.1,13.3,10.3,17.4,15c3.3,3.9,6.5,9.2,4.8,16.9c-1.4,6.3-8.5,10.8-12.6,12.4
					c-3.3,1.3-12.8,1.8-14.4,1.8c-1.6,0-2.9-1.5-3.9-1.8c-1-0.3-4.6,0.9-6.4,0.2c-1.4-0.6-3.3-2.5-4.8-4.1c-0.8-0.8-1.7-1.3-2.2-1.8
					c-0.4-0.4-0.6-1.3-0.9-2c-0.7-1.6-1.3-3.5-1.6-5.1c-0.3-1.4-0.5-2.9-0.5-4.1c0-0.8,0.4-1.6,0.6-2.7c0.1-1-0.2-2.8,0.1-3.6
					c0.7-2.1,1.7-3.5,3.6-5.2c2.2-2.1,4.7-2.3,7.2-2.2c2.3,0.1,4.1-0.4,5-0.4c1.7,0,2.9,0.8,3.5,1.3c1.2,1,1.5,2.1,1.4,3
					c-0.2,0.9-1.2,1.5-2.4,1.4c-1.4-0.2-3.7-1-6,0.7c-2.2,1.6-1.2,7.7,1.4,10.9c2.5,3.3,6.7,5,11,5.1c4,0.1,7-2.1,8.3-3.8
					c1.5-2,2.7-7.1,0-10.9c-2.5-3.5-8.4-7.9-11-9.5c-2.6-1.6-8-4.4-12.1-9.1c-1.6-1.8-3.7-4.8-5.9-8.1c-1.6,1.3-3.1,4-3.9,5
					c-0.9,1.1-1.9,2.1-2.9,2.9c-1.7,1.4-3.9,2.5-5.6,3.3c-1.7,0.9-3.2,2.2-5.3,3.2c-2.2,1.1-3.3,0.9-6.6,2.1
					c-3.6,1.3-6.3,3.9-6.6,7.6c-0.4,4.3,4.3,7.3,5.8,7.9c0.9,0.4,6.2,0.2,7.3-0.1c0.5-0.1,1.1-0.2,1.7-0.1c1.4,0.1,2.6,3.9,3.7,4.4
					c0.6,0.3,1.1,0.1,2,0.4c0.7,0.3,1.4,1.2,1.6,1.4c0.9,0.8,0.3,1.6,1.4,3.2c1.3,1.9,0.9,5.1,0.9,6.5c0,1.4-1,4-1.2,4.8
					c-0.2,0.8-0.3,2.2-0.5,3.1c-0.2,0.9-2.1,2.3-2.7,2.8c-0.6,0.4-1.3,0.4-1.7,0.5c-0.5,0.1-1.7,2.6-4.5,3.5c-3.3,1.1-4.5,1.4-8,1.4
					c-3.2,0-7.4-3.5-7.1-3.8c0.2-0.1,4.6-0.5,7.8-1.9c1.9-0.8,4.6-3.1,5-7.3c0.4-4.2-3.7-6.2-6-7.4c-3.4-1.7-6.4-3.5-9.9-5.5
					c-4.2-2.4-6.7-5.7-8.1-8.8c-1.5-3.4-1.8-6.2-0.4-11.2c1.4-4.9,5.3-7.9,9.7-11c4.8-3.3,11.8-7.1,16.6-9.7c3.4-1.8,5.5-3.7,5.9-7
					c0.1-0.5,0-2.4-0.1-3c-0.4,0.4-2.6,2.8-3.5,3.6c-3.3,3.4-8.8,7.4-16.5,8.6c-2,0.3-1.5,1.3-3.7,1.5c-0.8,0.1-3.4,0-4.5,0
					c-3.4-0.1-5.6-1.1-8.8-2.2c-3.2-1.1-7.5-2.5-12.8-7.3c-5.2-4.7-6.7-9-7.7-15.4c-0.9-6.4,0.9-10.9,3-14.7c3-5.3,7.3-8.5,9.7-11.1
					c2.4-2.6,4.6-5.6,6.4-5.7c1.8-0.1,2.9,1.9,4.1,2.1c0.9,0.1,1.8-0.6,3-0.8c0.8-0.2,1.7,0,2.2,0.1c1,0.3,1.4,2.3,2.1,3.3
					c0.9,1.1,3.1,0.3,4,1c0.3,0.3,1,0.7,1.2,1.3c0.3,0.8,0.4,1.7,0.5,2.4c0.2,1.2,3,3.5,3.4,4.6c0.4,1.1-1.6,9.7-3.4,12
					c-2.1,2.6-5.7,4.6-6.2,4.7c-0.5,0.2-0.9-0.1-0.9-0.6s1.8-4.6,1.8-7.2c-0.1-4.4-2.9-6.9-4.9-7.9c-3.6-1.9-6.9-1.5-11.4,3.7
					C39,84.3,37,91,40.9,96.5c2,2.9,4.8,7.8,14.8,7.7c11.7-0.1,18.8-3.4,21.8-9.5c2.8-5.7,1.3-11.9-5.7-18.7
					C65,69.3,61.2,60.2,61.2,50.8c0-19.6,16.2-35.5,36.2-35.5S134,31.2,134,50.8c0,9.2-4.2,18.1-9.9,23.9
					c-5.6,5.8-6.7,13.2-4.3,19.5c5.2,13.7,18.3,14.9,23.6,13.4c5.2-1.5,8.3-5.2,9.4-8c1.1-2.8,1.5-7.4,0.3-9.2
					c-1.2-1.8-2-2.5-2.3-3.4c-0.3-0.9,0.2-2.3-0.3-3.1c-0.8-1.3-3.8-3.2-4.9-4.4c-1.1-1.2-2.5-2.7-3.6-5.2c-1-2.2-1.3-2.9-2.1-4.1
					c-0.8-1.2-5.4-5.3-5.3-7.9c0.1-1.8,1.1-1,1.6-2.8c0.5-1.7-0.1-5.3,0.2-6.4c0.4-1.5,2.3-1.4,3-2.8c0.6-1.4,0.1-3.4,0.6-4.4
					c1-1.9,4.6-4.9,5.1-5.9c0.5-1.1,0.2-1.2,0.6-1.7c0.2-0.3,1.1-1.4,1.7-1.5c0.5-0.1,4.1,0.1,4.9-0.2c0.7-0.3,1.7-1.4,3.5-1.5
					c0.1,0,0.2,0,0.4,0c2.1,0.1,2.9,0.4,3.7,0.8c0.6,0.3,3.2,1.8,2.4,3.3c-1.1,1.8-8.8,4.9-10.6,14.9c-1.8,10,2.2,15,5.4,19.9
					c3.2,4.9,6.3,9.6,7.9,13.1C166.7,90.9,168.6,98.7,165.8,104.8z"/>
			</g>
			<g>
				<path fill="#FFFFFF" d="M91.9,36.1c-9.8,0-17.7,7.9-17.7,17.7c0,9.7,7.9,17.7,17.7,17.7s17.7-7.9,17.7-17.7
					C109.6,44,101.7,36.1,91.9,36.1z M89.6,60.4c-2.2,0-4.1-1.8-4.1-4s1.8-4,4.1-4c2.2,0,4.1,1.8,4.1,4S91.8,60.4,89.6,60.4z"/>
			</g>
			<g>
				<polygon fill="#FFFFFF" points="591.2,58.5 602,59.7 604.8,62.8 604.8,126.5 557.9,53.9 557.9,49.5 511.8,49.5 511.8,58.5 
					522.7,59.7 524.9,62.1 524.9,145.8 521.7,148.9 511.8,149.9 511.8,159 553,159 553,149.9 542,148.9 539.7,145.8 539.7,75.8 
					593.9,159 619.9,159 619.9,62.8 623,59.7 632.7,58.5 632.7,49.5 591.2,49.5 				"/>
			</g>
			<g>
				<path fill="#FFFFFF" d="M347.3,58.9c-4.9-3.8-10.6-6.6-17.1-8.6c-6.4-2-13.4-3-20.9-3c-18.3,0-32.9,5.1-44,15.4
					c-11,10.3-16.5,23.8-16.5,40.6c0,17.6,5.4,31.7,16.2,42.5c10.8,10.7,25.1,16.1,43,16.1c18.1,0,32.8-5.4,44.2-16.3
					c11.5-10.9,17.2-24.8,17.2-41.8c0-9-1.9-17.4-5.7-25.1C359.8,70.9,354.4,64.3,347.3,58.9z M329.1,137.8
					c-5,8.4-11.6,12.6-19.8,12.6c-8.2,0-14.9-4.1-20.2-12.4c-5.2-8.2-7.8-19-7.8-32.4c0-14.2,2.5-25.4,7.5-33.7
					c5.1-8.3,11.8-12.4,20.4-12.4c8.3,0,14.9,4,19.9,12.1c5.1,8,7.6,18.8,7.6,32.3C336.6,118.1,334.1,129.4,329.1,137.8z"/>
			</g>
			<g>
				<polygon fill="#FFFFFF" points="639.8,59 651.6,59.7 654.2,62.1 654.2,145.8 651.6,148.9 639.8,149.6 639.8,159 698.2,159 
					698.2,149.6 686.1,148.9 683.5,145.8 683.5,62.1 686.1,59.7 698.2,59 698.2,49.5 639.8,49.5 				"/>
			</g>
			<g>
				<path fill="#FFFFFF" d="M480.1,58.9c-4.9-3.8-10.6-6.6-17.1-8.6c-6.4-2-13.4-3-20.9-3c-18.3,0-32.9,5.1-44,15.4
					c-11,10.3-16.5,23.8-16.5,40.6c0,17.6,5.4,31.7,16.2,42.5c10.8,10.7,25.1,16.1,43,16.1c18.1,0,32.8-5.4,44.2-16.3
					c11.5-10.9,17.2-24.8,17.2-41.8c0-9-1.9-17.4-5.7-25.1C492.7,70.9,487.2,64.3,480.1,58.9z M461.9,137.8
					c-5,8.4-11.6,12.6-19.8,12.6c-8.2,0-14.9-4.1-20.2-12.4c-5.2-8.2-7.8-19-7.8-32.4c0-14.2,2.5-25.4,7.5-33.7
					c5.1-8.3,11.9-12.4,20.4-12.4c8.3,0,14.9,4,19.9,12.1c5.1,8,7.6,18.8,7.6,32.3C469.5,118.1,466.9,129.4,461.9,137.8z"/>
			</g>
			<g>
				<rect x="756" y="15.3" fill="#FFFFFF" width="14.6" height="181.5"/>
			</g>
		</g>
	</g>
</g>
</svg>
