<?xml version="1.0" encoding="utf-8"?>
<!-- Generator: Adobe Illustrator 17.1.0, SVG Export Plug-In . SVG Version: 6.00 Build 0)  -->
<!DOCTYPE svg PUBLIC "-//W3C//DTD SVG 1.1//EN" "http://www.w3.org/Graphics/SVG/1.1/DTD/svg11.dtd">
<svg version="1.1" xmlns="http://www.w3.org/2000/svg" xmlns:xlink="http://www.w3.org/1999/xlink" x="0px" y="0px"
	 viewBox="0 0 363.35 636.987" enable-background="new 0 0 363.35 636.987" xml:space="preserve">
<g id="Layer_1">
</g>
<g id="Logo">
	<g>
		<g>
			<g>
				<g>
					<path fill="#FFFFFF" d="M181.675,0C81.34,0,0,81.339,0,181.674C0,282.01,81.34,363.349,181.675,363.349
						c100.335,0,181.675-81.339,181.675-181.675C363.35,81.339,282.01,0,181.675,0z M304.946,193.453
						c-5.009,11.291-11.237,20.733-26.058,26.523c-10.808,4.222-14.699,4.542-16.976,5.255c-2.376,0.745-4.389,1.91-5.892,1.962
						c-3.677,0.129-18.956-2.696-22.413-3.875c-3.455-1.181-2.067-2.769-4.006-3.105c-1.938-0.338-4.482,0.236-6.519-0.765
						c-2.302-1.13-5.277-2.897-7.612-5.803c-1.813-2.258-8.008-9.329-12.345-11.6c-0.941,4.624,0.936,9.663,2.707,12.646
						c2.331,3.926,4.616,7.216,10.645,11.54c10.522,7.55,24.47,18.948,31.904,27.772c6.021,7.147,12.02,16.917,8.855,31.197
						c-2.567,11.582-15.626,19.902-23.196,22.923c-6.059,2.417-23.623,3.243-26.49,3.327c-2.865,0.083-5.247-2.821-7.1-3.41
						c-1.855-0.59-8.512,1.683-11.802,0.38c-2.649-1.048-6.01-4.698-8.907-7.525c-1.532-1.494-3.147-2.435-3.992-3.345
						c-0.696-0.747-1.132-2.435-1.673-3.666c-1.324-3.009-2.393-6.406-2.954-9.347c-0.503-2.642-0.864-5.349-0.841-7.56
						c0.015-1.488,0.812-3.001,1.014-4.935c0.202-1.913-0.383-5.128,0.1-6.624c1.268-3.932,3.215-6.41,6.607-9.549
						c4.124-3.813,8.615-4.3,13.175-4.142c4.295,0.149,7.461-0.665,9.142-0.685c3.065-0.038,5.287,1.519,6.495,2.458
						c2.276,1.77,2.823,3.793,2.487,5.479c-0.338,1.686-2.289,2.78-4.342,2.529c-2.622-0.32-6.79-1.839-11.042,1.35
						c-3.955,2.965-2.149,14.202,2.487,20.188c4.652,6.006,12.254,9.262,20.188,9.441c7.418,0.169,12.801-3.9,15.172-7.04
						c2.739-3.624,5.018-13.149,0.043-20.102c-4.64-6.489-15.47-14.608-20.189-17.557c-4.72-2.95-14.794-8.155-22.168-16.71
						c-2.903-3.368-6.836-8.786-10.86-14.939c-2.941,2.436-5.698,7.349-7.14,9.158c-1.684,2.118-3.466,3.808-5.245,5.297
						c-3.118,2.614-7.227,4.531-10.261,6.133c-3.034,1.601-5.832,4.03-9.821,5.941c-4.046,1.938-6.121,1.748-12.054,3.919
						c-6.644,2.433-11.543,7.114-12.179,13.994c-0.738,8.008,7.956,13.557,10.621,14.583c1.722,0.663,11.314,0.414,13.505-0.114
						c0.983-0.236,2.113-0.294,3.085-0.226c2.665,0.193,4.871,7.111,6.717,8.138c1.155,0.641,1.998,0.114,3.611,0.717
						c1.247,0.467,2.609,2.271,2.878,2.527c1.623,1.537,0.61,3.032,2.551,5.879c2.342,3.436,1.666,9.42,1.581,12.034
						c-0.083,2.612-1.77,7.458-2.191,8.891c-0.422,1.433-0.507,4.129-0.929,5.732c-0.421,1.6-3.915,4.302-5.014,5.1
						c-1.126,0.817-2.36,0.717-3.203,0.886c-0.843,0.169-3.107,4.711-8.305,6.533c-5.977,2.095-8.262,2.529-14.708,2.569
						c-5.903,0.038-13.595-6.464-12.982-6.953c0.349-0.276,8.48-0.952,14.416-3.541c3.456-1.506,8.546-5.667,9.229-13.529
						c0.674-7.756-6.774-11.46-11.033-13.647c-6.188-3.177-11.802-6.428-18.217-10.123c-7.754-4.468-12.381-10.583-14.919-16.311
						c-2.782-6.28-3.289-11.505-0.759-20.609c2.529-9.104,9.718-14.65,17.869-20.359c8.813-6.167,21.665-13.106,30.516-17.826
						c6.201-3.307,10.07-6.778,10.917-12.979c0.124-0.905,0.065-4.387-0.125-5.472c-0.761,0.752-4.842,5.108-6.397,6.693
						c-6.113,6.226-16.171,13.6-30.296,15.923c-3.626,0.598-2.834,2.311-6.728,2.729c-1.539,0.166-6.175,0.022-8.354-0.045
						c-6.318-0.196-10.37-2.087-16.212-4.113c-5.841-2.027-13.722-4.607-23.483-13.531c-9.491-8.675-12.397-16.629-14.067-28.431
						c-1.669-11.801,1.601-20.138,5.603-27.18c5.521-9.712,13.352-15.735,17.763-20.504c4.411-4.769,8.48-10.253,11.682-10.49
						c3.219-0.24,5.25,3.535,7.63,3.813c1.704,0.202,3.35-1.119,5.539-1.566c1.524-0.311,3.19,0.039,4.057,0.256
						c1.908,0.476,2.504,4.231,3.934,6.019c1.669,2.087,5.723,0.596,7.272,1.79c0.628,0.483,1.813,1.37,2.245,2.333
						c0.634,1.412,0.792,3.132,1.005,4.478c0.358,2.266,5.512,6.48,6.228,8.506c0.714,2.027-2.927,17.826-6.319,22.173
						c-3.792,4.86-10.49,8.404-11.326,8.762c-0.834,0.358-1.609-0.238-1.609-1.192s3.29-8.488,3.219-13.351
						c-0.12-8.167-5.396-12.646-8.966-14.569c-6.653-3.583-12.703-2.756-20.896,6.82c-6.746,7.883-10.47,20.159-3.278,30.278
						c3.75,5.278,8.751,14.461,27.242,14.305c21.454-0.18,34.507-6.286,40.17-17.583c5.232-10.441,2.349-22.021-10.416-34.482
						s-19.779-29.126-19.793-46.507c0-36.219,29.789-65.579,66.535-65.579s67.487,29.36,67.487,65.579
						c-0.025,17.072-7.758,33.461-18.122,44.176c-10.367,10.715-12.403,24.335-7.966,35.977
						c9.646,25.311,33.737,27.515,43.331,24.822s15.203-9.545,17.261-14.717c2.059-5.17,2.821-13.726,0.545-17.012
						c-2.274-3.288-3.722-4.691-4.228-6.293c-0.536-1.695,0.325-4.28-0.465-5.634c-1.424-2.435-6.937-5.914-8.94-8.185
						c-2.002-2.271-4.664-5.056-6.64-9.525c-1.771-4.006-2.347-5.296-3.781-7.489c-1.433-2.191-9.852-9.783-9.683-14.545
						c0.12-3.379,2.039-1.886,2.963-5.2c0.892-3.197-0.167-9.75,0.387-11.791c0.754-2.772,4.295-2.649,5.474-5.178
						c1.181-2.529,0.093-6.338,1.063-8.181c1.812-3.439,8.424-8.955,9.353-10.894c0.927-1.94,0.425-2.174,1.076-3.114
						c0.373-0.534,2.111-2.629,3.103-2.836c0.907-0.189,7.452,0.207,8.946-0.292c1.377-0.461,3.157-2.56,6.5-2.68
						c0.222-0.009,0.453-0.007,0.688,0.003c3.793,0.167,5.363,0.702,6.808,1.386c1.19,0.567,5.964,3.317,4.36,6.037
						c-2.006,3.397-16.117,9.067-19.414,27.553s4.097,27.693,9.998,36.713s11.634,17.715,14.556,24.266
						C306.563,167.744,309.955,182.162,304.946,193.453z"/>
				</g>
				<g>
					<path fill="#FFFFFF" d="M168.976,66.716c-17.999,0-32.591,14.59-32.591,32.591c0,17.999,14.592,32.588,32.591,32.588
						s32.59-14.59,32.59-32.588C201.567,81.307,186.975,66.716,168.976,66.716z M164.752,111.426c-4.121,0-7.459-3.339-7.459-7.459
						c0-4.121,3.339-7.459,7.459-7.459c4.12,0,7.459,3.339,7.459,7.459C172.211,108.087,168.872,111.426,164.752,111.426z"/>
				</g>
			</g>
			<g>
				<path fill="#FFFFFF" d="M301.634,484.837v-6.856l8.528-0.461l1.844-2.247v-60.558l-1.844-1.73l-8.528-0.46v-6.858h42.121v6.858
					l-8.702,0.46l-1.9,1.73v60.558l1.9,2.247l8.702,0.461v6.856H301.634z M209.293,484.837v-6.626l7.202-0.692l2.247-2.247v-60.558
					l-1.555-1.73l-7.894-0.863v-6.455h33.305v3.17l33.822,52.491v-46.096l-2.075-2.247l-7.721-0.863v-6.455h29.905v6.455
					l-6.973,0.863l-2.247,2.247v69.605h-18.783l-39.065-60.154v50.589l1.67,2.247l7.894,0.692v6.626H209.293z M158.956,412.87
					c-6.146,0-11.044,2.996-14.694,8.989c-3.612,5.992-5.416,14.116-5.416,24.372c0,9.643,1.882,17.441,5.646,23.394
					c3.802,5.953,8.662,8.931,14.578,8.931s10.679-3.034,14.291-9.104c3.61-6.07,5.416-14.232,5.416-24.488
					c0-9.758-1.824-17.535-5.474-23.336C169.691,415.79,164.91,412.87,158.956,412.87 M115.394,444.503
					c0-12.178,3.977-21.972,11.927-29.386c7.99-7.414,18.574-11.12,31.749-11.12c5.378,0,10.39,0.729,15.039,2.189
					c4.685,1.421,8.797,3.495,12.33,6.222c5.147,3.957,9.086,8.72,11.813,14.291c2.727,5.57,4.091,11.62,4.091,18.149
					c0,12.292-4.129,22.377-12.388,30.251c-8.221,7.837-18.841,11.754-31.864,11.754c-12.868,0-23.202-3.879-30.999-11.638
					C119.293,467.456,115.394,457.219,115.394,444.503 M63.155,412.87c-6.146,0-11.044,2.996-14.692,8.989
					c-3.612,5.992-5.418,14.116-5.418,24.372c0,9.643,1.882,17.441,5.648,23.394c3.802,5.953,8.662,8.931,14.578,8.931
					c5.915,0,10.679-3.034,14.289-9.104c3.612-6.07,5.418-14.232,5.418-24.488c0-9.758-1.826-17.535-5.474-23.336
					C73.892,415.79,69.111,412.87,63.155,412.87 M19.595,444.503c0-12.178,3.975-21.972,11.927-29.386
					c7.99-7.414,18.573-11.12,31.749-11.12c5.378,0,10.39,0.729,15.039,2.189c4.685,1.421,8.797,3.495,12.33,6.222
					c5.147,3.957,9.084,8.72,11.813,14.291c2.727,5.57,4.089,11.62,4.089,18.149c0,12.292-4.129,22.377-12.388,30.251
					c-8.219,7.837-18.841,11.754-31.862,11.754c-12.87,0-23.202-3.879-31.001-11.638C23.494,467.456,19.595,457.219,19.595,444.503"
					/>
			</g>
		</g>
		<g>
			<path fill="#FFFFFF" d="M126.939,547.166c3.279,1.306,6.459,3.331,9.539,6.075l-5.222,5.824c-2.61-2.074-5.171-3.598-7.682-4.569
				c-2.51-0.97-5.206-1.456-8.083-1.456c-3.615,0-6.595,0.838-8.937,2.511c-2.345,1.674-3.515,4.117-3.515,7.33
				c0,2.008,0.401,3.699,1.205,5.071c0.803,1.372,2.292,2.628,4.468,3.765c2.175,1.14,5.338,2.345,9.489,3.615
				c4.351,1.34,7.966,2.779,10.845,4.318c2.878,1.54,5.204,3.665,6.979,6.376c1.773,2.711,2.661,6.143,2.661,10.292
				c0,4.017-0.988,7.566-2.962,10.645c-1.976,3.08-4.82,5.489-8.535,7.229c-3.716,1.74-8.118,2.611-13.204,2.611
				c-9.574,0-17.406-2.979-23.497-8.938l5.221-5.824c2.813,2.277,5.656,4.001,8.536,5.172c2.877,1.172,6.09,1.757,9.64,1.757
				c4.283,0,7.832-1.054,10.644-3.163c2.812-2.108,4.218-5.171,4.218-9.188c0-2.275-0.437-4.167-1.306-5.674
				c-0.871-1.506-2.359-2.861-4.469-4.066c-2.108-1.205-5.171-2.41-9.188-3.615c-7.097-2.142-12.285-4.719-15.564-7.731
				c-3.28-3.013-4.92-7.095-4.92-12.251c0-3.479,0.919-6.593,2.761-9.338c1.841-2.744,4.419-4.886,7.732-6.427
				c3.313-1.539,7.079-2.31,11.297-2.31C119.71,545.208,123.658,545.861,126.939,547.166z"/>
			<path fill="#FFFFFF" d="M167.406,615.9c-2.075,6.158-4.971,11.028-8.686,14.61c-3.716,3.581-9.021,5.739-15.916,6.477
				l-1.004-7.229c3.48-0.603,6.259-1.474,8.334-2.61c2.074-1.14,3.731-2.596,4.971-4.368c1.238-1.774,2.393-4.168,3.465-7.18h-3.113
				l-17.773-52.919h9.841l14.158,46.191l13.857-46.191h9.539L167.406,615.9z"/>
			<path fill="#FFFFFF" d="M226.801,565.793c2.711,2.879,4.066,6.828,4.066,11.849v37.957h-9.238v-36.651
				c0-3.748-0.703-6.393-2.108-7.933c-1.406-1.539-3.481-2.31-6.226-2.31c-2.812,0-5.289,0.803-7.431,2.41
				c-2.144,1.606-4.152,3.916-6.025,6.928v37.556h-9.238V562.68h7.933l0.804,7.833c1.873-2.812,4.2-5.021,6.979-6.628
				c2.777-1.606,5.84-2.41,9.188-2.41C220.324,561.475,224.089,562.915,226.801,565.793z"/>
			<path fill="#FFFFFF" d="M272.338,562.831c2.61,0.903,5.121,2.359,7.53,4.367l-4.418,5.824c-1.875-1.338-3.699-2.325-5.473-2.962
				c-1.774-0.636-3.732-0.954-5.874-0.954c-4.285,0-7.616,1.707-9.991,5.121c-2.377,3.414-3.564,8.47-3.564,15.163
				c0,6.694,1.17,11.632,3.514,14.811c2.343,3.181,5.689,4.77,10.042,4.77c2.074,0,3.982-0.316,5.724-0.953
				c1.74-0.636,3.681-1.657,5.824-3.063l4.217,6.025c-4.819,3.883-10.209,5.824-16.166,5.824c-7.164,0-12.804-2.41-16.92-7.23
				c-4.117-4.819-6.176-11.479-6.176-19.982c0-5.623,0.937-10.543,2.812-14.761c1.873-4.218,4.534-7.496,7.983-9.841
				c3.446-2.342,7.547-3.515,12.301-3.515C266.848,561.475,269.727,561.927,272.338,562.831z"/>
		</g>
		<g>
			<g>
				<line fill="#FFFFFF" x1="341.339" y1="515.542" x2="17.183" y2="515.542"/>
			</g>
			<g>
				<rect x="17.181" y="509.966" fill="#FFFFFF" width="324.16" height="11.151"/>
			</g>
		</g>
	</g>
</g>
</svg>
