<?xml version="1.0" encoding="utf-8"?>
<!-- Generator: Adobe Illustrator 17.1.0, SVG Export Plug-In . SVG Version: 6.00 Build 0)  -->
<!DOCTYPE svg PUBLIC "-//W3C//DTD SVG 1.1//EN" "http://www.w3.org/Graphics/SVG/1.1/DTD/svg11.dtd">
<svg version="1.1" xmlns="http://www.w3.org/2000/svg" xmlns:xlink="http://www.w3.org/1999/xlink" x="0px" y="0px"
	 viewBox="0 0 382.07 645.586" enable-background="new 0 0 382.07 645.586" xml:space="preserve">
<g id="Layer_1">
</g>
<g id="Logo">
	<g>
		<g>
			<g>
				<g>
					<path d="M310.994,493.437v-6.856l8.528-0.461l1.844-2.247v-60.558l-1.844-1.73l-8.528-0.46v-6.858h42.121v6.858l-8.702,0.46
						l-1.9,1.73v60.558l1.9,2.247l8.702,0.461v6.856H310.994z M218.653,493.437v-6.626l7.202-0.692l2.247-2.247v-60.558l-1.555-1.73
						l-7.894-0.863v-6.455h33.305v3.17l33.822,52.491v-46.096l-2.075-2.247l-7.721-0.863v-6.455h29.905v6.455l-6.973,0.863
						l-2.247,2.247v69.605h-18.783l-39.065-60.154v50.589l1.67,2.247l7.894,0.692v6.626H218.653z M168.316,421.47
						c-6.146,0-11.044,2.996-14.694,8.989c-3.612,5.992-5.416,14.116-5.416,24.372c0,9.643,1.882,17.441,5.646,23.394
						c3.802,5.953,8.662,8.931,14.578,8.931s10.679-3.034,14.291-9.104c3.61-6.07,5.416-14.232,5.416-24.488
						c0-9.758-1.824-17.535-5.474-23.336C179.051,424.389,174.27,421.47,168.316,421.47 M124.754,453.103
						c0-12.178,3.977-21.972,11.927-29.386c7.99-7.414,18.574-11.12,31.749-11.12c5.378,0,10.39,0.729,15.039,2.189
						c4.685,1.421,8.797,3.495,12.33,6.222c5.147,3.957,9.086,8.72,11.812,14.291c2.727,5.57,4.091,11.62,4.091,18.149
						c0,12.292-4.129,22.377-12.388,30.251c-8.221,7.837-18.841,11.754-31.864,11.754c-12.868,0-23.202-3.879-30.999-11.638
						C128.653,476.056,124.754,465.818,124.754,453.103 M72.515,421.47c-6.146,0-11.044,2.996-14.692,8.989
						c-3.612,5.992-5.418,14.116-5.418,24.372c0,9.643,1.882,17.441,5.648,23.394c3.802,5.953,8.662,8.931,14.578,8.931
						s10.679-3.034,14.289-9.104c3.612-6.07,5.418-14.232,5.418-24.488c0-9.758-1.826-17.535-5.474-23.336
						C83.252,424.389,78.471,421.47,72.515,421.47 M28.955,453.103c0-12.178,3.975-21.972,11.927-29.386
						c7.99-7.414,18.573-11.12,31.749-11.12c5.378,0,10.39,0.729,15.039,2.189c4.685,1.421,8.797,3.495,12.33,6.222
						c5.147,3.957,9.084,8.72,11.812,14.291c2.727,5.57,4.089,11.62,4.089,18.149c0,12.292-4.129,22.377-12.388,30.251
						c-8.219,7.837-18.841,11.754-31.862,11.754c-12.87,0-23.202-3.879-31.001-11.638C32.854,476.056,28.955,465.818,28.955,453.103
						"/>
				</g>
			</g>
			<g>
				<path d="M136.3,555.766c3.279,1.306,6.459,3.331,9.539,6.075l-5.222,5.824c-2.61-2.074-5.171-3.598-7.682-4.569
					c-2.51-0.97-5.206-1.456-8.083-1.456c-3.615,0-6.595,0.838-8.937,2.511c-2.345,1.674-3.515,4.117-3.515,7.33
					c0,2.008,0.401,3.699,1.205,5.071c0.803,1.372,2.292,2.628,4.468,3.765c2.175,1.14,5.338,2.345,9.489,3.615
					c4.351,1.34,7.966,2.779,10.845,4.318c2.878,1.54,5.204,3.665,6.979,6.376c1.773,2.711,2.661,6.143,2.661,10.292
					c0,4.017-0.988,7.566-2.962,10.645c-1.976,3.08-4.82,5.489-8.535,7.229c-3.716,1.74-8.118,2.611-13.204,2.611
					c-9.574,0-17.406-2.979-23.497-8.938l5.221-5.824c2.813,2.277,5.656,4.001,8.536,5.172c2.877,1.172,6.09,1.757,9.64,1.757
					c4.283,0,7.832-1.054,10.644-3.163c2.812-2.108,4.218-5.171,4.218-9.188c0-2.275-0.437-4.167-1.306-5.674
					c-0.871-1.506-2.359-2.861-4.469-4.066c-2.108-1.205-5.171-2.41-9.188-3.615c-7.097-2.142-12.285-4.719-15.564-7.731
					c-3.28-3.013-4.92-7.095-4.92-12.251c0-3.479,0.919-6.593,2.761-9.338c1.841-2.744,4.419-4.886,7.732-6.427
					c3.313-1.539,7.079-2.31,11.297-2.31C129.07,553.808,133.019,554.46,136.3,555.766z"/>
				<path d="M176.767,624.499c-2.075,6.158-4.971,11.028-8.686,14.61c-3.716,3.581-9.021,5.739-15.916,6.477l-1.004-7.229
					c3.48-0.603,6.259-1.474,8.334-2.61c2.074-1.14,3.731-2.596,4.971-4.368c1.238-1.774,2.393-4.168,3.465-7.18h-3.113
					l-17.773-52.919h9.841l14.158,46.191l13.857-46.191h9.539L176.767,624.499z"/>
				<path d="M236.162,574.393c2.711,2.879,4.066,6.828,4.066,11.849v37.957h-9.238v-36.651c0-3.748-0.703-6.393-2.108-7.933
					c-1.406-1.539-3.481-2.31-6.226-2.31c-2.812,0-5.289,0.803-7.431,2.41c-2.144,1.606-4.152,3.916-6.025,6.928v37.556h-9.238
					v-52.919h7.933l0.804,7.833c1.873-2.812,4.2-5.021,6.979-6.628c2.777-1.606,5.84-2.41,9.188-2.41
					C229.685,570.074,233.45,571.515,236.162,574.393z"/>
				<path d="M281.699,571.431c2.61,0.903,5.121,2.359,7.53,4.367l-4.418,5.824c-1.875-1.338-3.699-2.325-5.473-2.962
					c-1.774-0.636-3.732-0.954-5.874-0.954c-4.285,0-7.616,1.707-9.991,5.121c-2.377,3.414-3.564,8.47-3.564,15.163
					c0,6.694,1.17,11.632,3.514,14.811c2.343,3.181,5.689,4.77,10.042,4.77c2.074,0,3.982-0.316,5.724-0.953
					c1.74-0.636,3.681-1.657,5.824-3.063l4.217,6.025c-4.819,3.883-10.209,5.824-16.166,5.824c-7.164,0-12.804-2.41-16.92-7.23
					c-4.117-4.819-6.176-11.479-6.176-19.982c0-5.623,0.937-10.543,2.812-14.761c1.873-4.218,4.534-7.496,7.983-9.841
					c3.446-2.342,7.547-3.515,12.301-3.515C276.209,570.074,279.088,570.527,281.699,571.431z"/>
			</g>
			<g>
				<g>
					<line x1="350.699" y1="524.141" x2="26.543" y2="524.141"/>
				</g>
				<g>
					<rect x="26.541" y="518.565" width="324.16" height="11.151"/>
				</g>
			</g>
		</g>
		<g>
			<g>
				<path d="M191.035,0C85.53,0,0,85.189,0,190.274c0,105.085,85.53,190.274,191.035,190.274S382.07,295.359,382.07,190.274
					C382.07,85.189,296.54,0,191.035,0z M191.035,357.017c-92.457,0-167.41-74.654-167.41-166.743
					c0-92.088,74.953-166.743,167.41-166.743s167.41,74.654,167.41,166.743C358.445,282.363,283.492,357.017,191.035,357.017z"/>
			</g>
			<g>
				<path d="M313.198,169.841c-2.926-6.536-8.669-15.21-14.579-24.208c-5.911-8.999-13.316-18.184-10.014-36.625
					s17.436-24.098,19.445-27.487c1.607-2.713-3.175-5.457-4.367-6.022c-1.447-0.683-3.019-1.216-6.818-1.383
					c-0.236-0.011-0.468-0.013-0.689-0.004c-3.348,0.12-5.131,2.213-6.511,2.674c-1.496,0.498-8.052,0.103-8.96,0.292
					c-0.994,0.207-2.735,2.296-3.108,2.829c-0.651,0.937-0.149,1.171-1.077,3.106c-0.93,1.934-7.553,7.437-9.368,10.868
					c-0.972,1.837,0.119,5.638-1.064,8.161c-1.181,2.523-4.728,2.399-5.482,5.166c-0.555,2.035,0.506,8.573-0.388,11.763
					c-0.926,3.306-2.848,1.816-2.968,5.187c-0.169,4.75,8.263,12.324,9.699,14.51c1.436,2.188,2.013,3.474,3.787,7.471
					c1.98,4.458,4.646,7.237,6.651,9.502c2.007,2.266,7.528,5.736,8.955,8.165c0.792,1.351-0.071,3.93,0.466,5.621
					c0.506,1.598,1.956,2.998,4.234,6.278c2.28,3.279,1.516,11.813-0.546,16.972c-2.062,5.16-7.679,11.997-17.289,14.683
					c-9.61,2.686-33.738,0.487-43.401-24.763c-4.444-11.614-2.404-25.202,7.979-35.892c10.381-10.689,18.126-27.04,18.151-44.071
					c0-36.132-30.791-65.423-67.595-65.423s-66.642,29.291-66.642,65.423c0.014,17.339,7.04,33.965,19.825,46.396
					c12.785,12.431,15.673,23.983,10.432,34.399c-5.672,11.27-18.746,17.361-40.235,17.541c-18.521,0.156-23.53-9.006-27.286-14.271
					c-7.204-10.095-3.474-22.341,3.283-30.206c8.207-9.553,14.266-10.378,20.93-6.804c3.576,1.917,8.86,6.387,8.98,14.534
					c0.071,4.852-3.225,12.368-3.225,13.319c0,0.952,0.777,1.546,1.612,1.189c0.837-0.357,7.546-3.893,11.344-8.741
					c3.397-4.337,7.044-20.098,6.329-22.121c-0.717-2.021-5.879-6.226-6.238-8.486c-0.213-1.343-0.372-3.059-1.006-4.468
					c-0.433-0.96-1.62-1.845-2.249-2.327c-1.552-1.19-5.612,0.297-7.284-1.785c-1.432-1.783-2.029-5.53-3.939-6.004
					c-0.868-0.218-2.537-0.565-4.063-0.256c-2.193,0.446-3.841,1.764-5.548,1.563c-2.384-0.277-4.418-4.043-7.643-3.804
					c-3.206,0.236-7.282,5.708-11.701,10.465c-4.418,4.758-12.261,10.766-17.791,20.455c-4.009,7.025-7.284,15.342-5.612,27.116
					c1.672,11.773,4.583,19.708,14.089,28.362c9.777,8.903,17.671,11.477,23.521,13.499c5.853,2.021,9.91,3.908,16.239,4.104
					c2.182,0.067,6.826,0.21,8.367,0.045c3.899-0.417,3.106-2.126,6.738-2.722c14.148-2.318,24.222-9.675,30.345-15.886
					c1.558-1.581,5.645-5.926,6.407-6.677c0.191,1.082,0.25,4.556,0.126,5.459c-0.848,6.186-4.724,9.649-10.935,12.948
					c-8.865,4.709-21.738,11.63-30.565,17.784c-8.165,5.695-15.365,11.228-17.898,20.31c-2.533,9.082-2.025,14.294,0.761,20.56
					c2.542,5.714,7.177,11.815,14.943,16.272c6.425,3.687,12.048,6.929,18.246,10.099c4.265,2.182,11.726,5.878,11.051,13.615
					c-0.684,7.844-5.783,11.994-9.244,13.497c-5.945,2.583-14.089,3.257-14.439,3.532c-0.613,0.487,7.091,6.974,13.003,6.936
					c6.456-0.04,8.745-0.473,14.732-2.563c5.206-1.818,7.474-6.349,8.318-6.518s2.08-0.069,3.208-0.884
					c1.101-0.796,4.6-3.491,5.022-5.088c0.422-1.599,0.508-4.288,0.93-5.718c0.422-1.43,2.111-6.264,2.194-8.87
					c0.086-2.608,0.763-8.578-1.583-12.006c-1.943-2.84-0.93-4.332-2.555-5.865c-0.27-0.255-1.634-2.055-2.882-2.521
					c-1.616-0.602-2.46-0.076-3.618-0.716c-1.849-1.024-4.058-7.926-6.727-8.118c-0.974-0.069-2.105-0.011-3.09,0.225
					c-2.195,0.527-11.802,0.775-13.527,0.114c-2.669-1.024-11.376-6.559-10.638-14.548c0.637-6.864,5.545-11.535,12.199-13.961
					c5.943-2.166,8.021-1.976,12.074-3.909c3.996-1.907,6.798-4.33,9.837-5.927c3.039-1.599,7.155-3.511,10.278-6.119
					c1.781-1.486,3.566-3.172,5.253-5.285c1.445-1.805,4.206-6.706,7.151-9.136c4.031,6.139,7.97,11.543,10.878,14.903
					c7.386,8.535,17.476,13.728,22.204,16.671c4.728,2.941,15.575,11.041,20.222,17.515c4.982,6.936,2.7,16.438-0.044,20.055
					c-2.375,3.132-7.766,7.191-15.196,7.023c-7.947-0.18-15.56-3.427-20.22-9.419c-4.644-5.972-6.453-17.182-2.491-20.14
					c4.26-3.181,8.434-1.666,11.06-1.347c2.056,0.25,4.011-0.841,4.349-2.522c0.336-1.682-0.211-3.701-2.491-5.466
					c-1.21-0.937-3.436-2.49-6.505-2.452c-1.683,0.02-4.855,0.832-9.157,0.683c-4.567-0.158-9.065,0.328-13.196,4.132
					c-3.397,3.132-5.348,5.604-6.618,9.526c-0.484,1.492,0.102,4.7-0.1,6.608c-0.202,1.928-1.001,3.438-1.016,4.922
					c-0.023,2.206,0.338,4.906,0.843,7.542c0.562,2.935,1.632,6.324,2.958,9.325c0.542,1.229,0.979,2.912,1.676,3.657
					c0.846,0.908,2.463,1.847,3.998,3.337c2.902,2.82,6.269,6.461,8.922,7.507c3.295,1.299,9.962-0.968,11.82-0.379
					c1.856,0.587,4.242,3.485,7.111,3.402c2.872-0.083,20.464-0.908,26.533-3.318c7.583-3.014,20.662-11.315,23.233-22.869
					c3.17-14.246-2.838-23.993-8.869-31.123c-7.446-8.803-21.416-20.174-31.955-27.707c-6.038-4.313-8.327-7.596-10.661-11.512
					c-1.774-2.976-3.654-8.004-2.711-12.617c4.343,2.266,10.548,9.32,12.365,11.573c2.338,2.898,5.319,4.662,7.624,5.789
					c2.04,0.999,4.587,0.426,6.529,0.763c1.941,0.335,0.551,1.919,4.012,3.097c3.463,1.177,18.766,3.995,22.449,3.866
					c1.505-0.053,3.521-1.214,5.901-1.958c2.28-0.712,6.178-1.031,17.003-5.243c14.845-5.776,21.083-15.195,26.1-26.459
					C319.521,190.76,316.124,176.376,313.198,169.841z M178.316,140.614c-18.027,0-32.643-14.556-32.643-32.511
					c0-17.958,14.616-32.513,32.643-32.513s32.643,14.556,32.643,32.513C210.959,126.058,196.343,140.614,178.316,140.614z"/>
			</g>
			<g>
				<ellipse cx="174.084" cy="112.751" rx="7.472" ry="7.442"/>
			</g>
		</g>
	</g>
</g>
</svg>
