<svg id="Layer_1" data-name="Layer 1" xmlns="http://www.w3.org/2000/svg" width="16" height="16" viewBox="0 0 16 16">
  <title>Culture</title>
  <path d="M8.49,5.51A6,6,0,0,0,8,3.69C7,1.8,1.92,3.16,1.94,5.32A11.93,11.93,0,0,0,3.16,8.76c.42.92,1.69,2.49,3.5,2a2.71,2.71,0,0,0,.67-.29,2.88,2.88,0,0,0,2,2.64c1.81.48,3.08-1.08,3.5-2a11.93,11.93,0,0,0,1.22-3.44C14.08,5.76,10.14,4.48,8.49,5.51Zm1.69,2a.76.76,0,0,1-.69.83.74.74,0,0,1-.79-.54V7.62ZM3.43,6.43A.77.77,0,1,1,4.91,6Zm2.8,2.73a1.25,1.25,0,0,1-1.52-.88l2.4-.64A1.25,1.25,0,0,1,6.23,9.16ZM5.81,5.79A.77.77,0,1,1,7.29,5.4ZM11,11.66,8.62,11a1.24,1.24,0,0,1,2.39.65Zm.57-2.81a.76.76,0,0,1-.06-1.08l1.14,1A.76.76,0,0,1,11.58,8.85Z"/>
</svg>
