<svg id="Layer_1" data-name="Layer 1" xmlns="http://www.w3.org/2000/svg" width="16" height="16" viewBox="0 0 16 16">
  <title>HumanRightsIssues</title>
  <g id="HRLogo">
    <g id="Fill-1">
      <path d="M7.79,1.69A2.16,2.16,0,0,1,9,3.5C9,4.45,7.42,7.28,8,8l3.8-4.74s.94,1.15.38,2.12-2,2.2-2.63,3.08c-.36.54-.18.83-.18.83L14,6.79a1.87,1.87,0,0,1-.5,1.89c-.93.83-3.11,1.16-3.11,2h3.17s-.33,1-.94,1.09-1.69-.19-2.23.3-1.22,2.21-3.15,2.21A3.43,3.43,0,0,1,4.3,12.15c-.72-1.42-1.53-2.1-2.36-2.27A1.84,1.84,0,0,1,3.59,8.81c1.64,0,2.34,2.69,3.58,2.69a.68.68,0,0,0,.74-.71c0-.57-.83-1-1-1.21a1.68,1.68,0,0,1-.71-2L7.79,1.69"/>
    </g>
  </g>
</svg>
