<svg id="Layer_1" data-name="Layer 1" xmlns="http://www.w3.org/2000/svg" width="16" height="16" viewBox="0 0 16 16">
  <title>OnlineDating</title>
  <path d="M12.66,3.68H3.12a.4.4,0,0,0-.4.41v9.18a.41.41,0,0,0,.72.27l1.74-2a.4.4,0,0,1,.31-.14h7.17a.41.41,0,0,0,.41-.41V4.09A.41.41,0,0,0,12.66,3.68ZM9.89,8,8,9.75a.19.19,0,0,1-.26,0L5.89,8l-.08-.08a1.19,1.19,0,0,1-.17-.19,2.64,2.64,0,0,1-.21-.29A3.17,3.17,0,0,1,5.27,7a1.53,1.53,0,0,1-.07-.41,1.39,1.39,0,0,1,.38-1,1.5,1.5,0,0,1,1.06-.36A1.31,1.31,0,0,1,7,5.3a1.49,1.49,0,0,1,.36.17,2.27,2.27,0,0,1,.28.21l.23.2.23-.2a2.27,2.27,0,0,1,.28-.21,1.69,1.69,0,0,1,.36-.17,1.31,1.31,0,0,1,.38-.06,1.5,1.5,0,0,1,1.06.36,1.39,1.39,0,0,1,.38,1A1.93,1.93,0,0,1,9.89,8Z"/>
</svg>
