<svg id="Layer_1" data-name="Layer 1" xmlns="http://www.w3.org/2000/svg" width="16" height="16" viewBox="0 0 16 16">
  <title>Pornography</title>
  <g>
    <path d="M4.76,4.78a4.8,4.8,0,0,1,1.46-1,4.58,4.58,0,0,1,3.56,0,4.8,4.8,0,0,1,1.46,1,4.79,4.79,0,0,1,.46.55h1.1l0-.07a5.48,5.48,0,0,0-2-2,5.52,5.52,0,0,0-5.52,0,5.48,5.48,0,0,0-2,2l0,.07H4.3A4.79,4.79,0,0,1,4.76,4.78Z"/>
    <path d="M11.24,11.22a4.8,4.8,0,0,1-1.46,1,4.58,4.58,0,0,1-3.56,0,4.8,4.8,0,0,1-1.46-1,3.58,3.58,0,0,1-.26-.29H3.36a5.5,5.5,0,0,0,7.4,1.81,5.43,5.43,0,0,0,1.88-1.81H11.5A3.58,3.58,0,0,1,11.24,11.22Z"/>
    <path d="M5.29,7a.29.29,0,0,0-.09-.21l-.43-.43a.27.27,0,0,0-.21-.09.31.31,0,0,0-.22.09l-.92.93-.93-.93a.29.29,0,0,0-.22-.09.29.29,0,0,0-.21.09l-.43.43A.29.29,0,0,0,1.54,7a.29.29,0,0,0,.09.22l.93.93-.93.92a.31.31,0,0,0-.09.22.29.29,0,0,0,.09.21l.43.43a.29.29,0,0,0,.21.09.29.29,0,0,0,.22-.09L3.42,9l.92.92a.31.31,0,0,0,.22.09.27.27,0,0,0,.21-.09L5.2,9.5a.29.29,0,0,0,.09-.21.31.31,0,0,0-.09-.22l-.92-.92.92-.93A.29.29,0,0,0,5.29,7Z"/>
    <path d="M9.87,7a.28.28,0,0,0-.08-.21l-.43-.43a.29.29,0,0,0-.22-.09.29.29,0,0,0-.21.09L8,7.29l-.93-.93a.29.29,0,0,0-.21-.09.29.29,0,0,0-.22.09l-.43.43A.28.28,0,0,0,6.13,7a.29.29,0,0,0,.08.22l.93.93-.93.92a.3.3,0,0,0-.08.22.28.28,0,0,0,.08.21l.43.43a.29.29,0,0,0,.22.09.29.29,0,0,0,.21-.09L8,9l.93.92a.29.29,0,0,0,.21.09.29.29,0,0,0,.22-.09l.43-.43a.28.28,0,0,0,.08-.21.3.3,0,0,0-.08-.22l-.93-.92.93-.93A.29.29,0,0,0,9.87,7Z"/>
    <path d="M14.37,7.22A.29.29,0,0,0,14.46,7a.29.29,0,0,0-.09-.21l-.43-.43a.29.29,0,0,0-.21-.09.29.29,0,0,0-.22.09l-.93.93-.92-.93a.31.31,0,0,0-.22-.09.27.27,0,0,0-.21.09l-.43.43a.29.29,0,0,0-.09.21.29.29,0,0,0,.09.22l.92.93-.92.92a.31.31,0,0,0-.09.22.29.29,0,0,0,.09.21l.43.43a.27.27,0,0,0,.21.09.31.31,0,0,0,.22-.09L12.58,9l.93.92a.29.29,0,0,0,.22.09.29.29,0,0,0,.21-.09l.43-.43a.29.29,0,0,0,.09-.21.31.31,0,0,0-.09-.22l-.93-.92Z"/>
  </g>
</svg>
