<svg id="Layer_1" data-name="Layer 1" xmlns="http://www.w3.org/2000/svg" width="16" height="16" viewBox="0 0 16 16">
  <title>PublicHealth</title>
  <g>
    <path d="M11.19,9a.55.55,0,0,1-.5-.36l-.33-1-1.83,4.5a.53.53,0,0,1-.49.33H8a.52.52,0,0,1-.47-.39L6.05,6.62l-.8,2.1a.53.53,0,0,1-.49.34H2.44A5.67,5.67,0,0,0,13.59,9Z"/>
    <path d="M4.39,8,5.64,4.72a.53.53,0,0,1,.52-.34.52.52,0,0,1,.48.39l1.5,5.51L9.92,5.91a.55.55,0,0,1,.5-.33.54.54,0,0,1,.49.36l.66,1.95h2.09A5.66,5.66,0,0,0,2.34,8Z"/>
  </g>
</svg>
