<svg id="Layer_1" data-name="Layer 1" xmlns="http://www.w3.org/2000/svg" width="16" height="16" viewBox="0 0 16 16">
  <title>SearchEngines</title>
  <g>
    <path d="M9,8.1a3.11,3.11,0,0,0,.14-.31l.63-.1a.1.1,0,0,0,.07,0,.13.13,0,0,0,0-.08V6.81a.11.11,0,0,0,0-.08.12.12,0,0,0-.07-.05l-.63-.09A1.88,1.88,0,0,0,9,6.25L9.17,6l.17-.23a.11.11,0,0,0,0-.07.1.1,0,0,0,0-.08,4.37,4.37,0,0,0-.56-.58.18.18,0,0,0-.09,0,.09.09,0,0,0-.08,0l-.49.36a2.08,2.08,0,0,0-.3-.13l-.1-.63a.09.09,0,0,0,0-.07.11.11,0,0,0-.08,0H6.84a.12.12,0,0,0-.13.1,6,6,0,0,0-.1.63l-.31.13-.47-.36a.18.18,0,0,0-.09,0s-.16.09-.32.25a2.42,2.42,0,0,0-.34.37.13.13,0,0,0,0,.08.16.16,0,0,0,0,.08,4.91,4.91,0,0,1,.37.47,1.44,1.44,0,0,0-.13.32l-.64.09s0,0-.06,0a.11.11,0,0,0,0,.07v.76a.11.11,0,0,0,0,.08s0,0,.07,0l.62.09a3.07,3.07,0,0,0,.14.34l-.18.24-.18.23a.19.19,0,0,0,0,.08.24.24,0,0,0,0,.08,4.86,4.86,0,0,0,.57.57.09.09,0,0,0,.08,0,.14.14,0,0,0,.09,0L6.31,9a2.22,2.22,0,0,0,.31.13l.09.63a.12.12,0,0,0,.13.1H7.6a.12.12,0,0,0,.12-.1,6,6,0,0,0,.1-.63L8.13,9l.47.37.09,0c.05,0,.16-.08.32-.24a4,4,0,0,0,.34-.37.13.13,0,0,0,0-.08.16.16,0,0,0,0-.09ZM7.84,7.8a.88.88,0,1,1,0-1.24.89.89,0,0,1,0,1.24Z"/>
    <path d="M13.61,12.52,11.2,10.1a4.94,4.94,0,0,0-4-7.87,5,5,0,1,0,2.92,8.93l2.42,2.42a.75.75,0,1,0,1-1.06ZM4.77,9.63a3.46,3.46,0,0,1,2.45-5.9,3.41,3.41,0,0,1,2.44,1A3.46,3.46,0,0,1,4.77,9.63Z"/>
  </g>
</svg>
